<?xml version="1.0" encoding="UTF-8" standalone="no"?>
<!-- Created with Inkscape (http://www.inkscape.org/) -->

<svg
   xmlns:dc="http://purl.org/dc/elements/1.1/"
   xmlns:cc="http://creativecommons.org/ns#"
   xmlns:rdf="http://www.w3.org/1999/02/22-rdf-syntax-ns#"
   xmlns:svg="http://www.w3.org/2000/svg"
   xmlns="http://www.w3.org/2000/svg"
   xmlns:sodipodi="http://sodipodi.sourceforge.net/DTD/sodipodi-0.dtd"
   xmlns:inkscape="http://www.inkscape.org/namespaces/inkscape"
   width="210mm"
   height="297mm"
   viewBox="0 0 744.09448819 1052.3622047"
   id="svg3537"
   version="1.1"
   inkscape:version="0.91 r"
   sodipodi:docname="boy1k.svg">
  <defs
     id="defs3539">
    <radialGradient
       id="radialGradient5587"
       gradientUnits="userSpaceOnUse"
       cy="244.28999"
       cx="152.31"
       gradientTransform="matrix(0.097895,1.3426,-1.2114,0.088335,433.34,7.3944)"
       r="92.297997"
       inkscape:collect="always">
      <stop
         id="stop4530"
         style="stop-color:#0066cc"
         offset="0" />
      <stop
         id="stop4532"
         style="stop-color:#0083d7"
         offset="1" />
    </radialGradient>
    <radialGradient
       id="radialGradient5589"
       gradientUnits="userSpaceOnUse"
       cy="-7.2304001"
       cx="94.922997"
       gradientTransform="matrix(1.1133,0.95793,-0.38965,0.45284,-13.57,-69.491)"
       r="70.507004"
       inkscape:collect="always">
      <stop
         id="stop4642"
         style="stop-color:#ff9933"
         offset="0" />
      <stop
         id="stop4644"
         style="stop-color:#ffcc00"
         offset="1" />
    </radialGradient>
  </defs>
  <sodipodi:namedview
     id="base"
     pagecolor="#ffffff"
     bordercolor="#666666"
     borderopacity="1.0"
     inkscape:pageopacity="0.0"
     inkscape:pageshadow="2"
     inkscape:zoom="0.35"
     inkscape:cx="375"
     inkscape:cy="520"
     inkscape:document-units="px"
     inkscape:current-layer="layer1"
     showgrid="false"
     inkscape:window-width="1355"
     inkscape:window-height="712"
     inkscape:window-x="0"
     inkscape:window-y="0"
     inkscape:window-maximized="1" />
  <metadata
     id="metadata3542">
    <rdf:RDF>
      <cc:Work
         rdf:about="">
        <dc:format>image/svg+xml</dc:format>
        <dc:type
           rdf:resource="http://purl.org/dc/dcmitype/StillImage" />
        <dc:title></dc:title>
      </cc:Work>
    </rdf:RDF>
  </metadata>
  <g
     inkscape:label="Layer 1"
     inkscape:groupmode="layer"
     id="layer1">
    <g
       id="g4536"
       style="stroke:#262316;stroke-width:0.89999998"
       transform="matrix(2.9100369,0,0,2.4930817,29.070585,-36.866596)">
      <path
         id="path4516"
         sodipodi:nodetypes="csscccc"
         style="fill:#333366;stroke:#262316;stroke-width:0.89999998"
         inkscape:connector-curvature="0"
         d="m 37.567,398.56 c 0,0 -13.095,8.9818 -22.491,11.604 -29.426,8.2111 -26.471,23.424 -7.4969,23.208 22.998,-0.26282 77.968,-6.9622 77.968,-6.9622 l 5.2478,-10.443 1.8926,-18.566 z" />
      <path
         id="path4518"
         d="m 204.42,399.48 c 0,0 12.28,7.9111 21.091,10.22 27.595,7.2323 24.824,20.632 7.0304,20.441 -21.566,-0.2315 -45.834,-3.1924 -73.116,-6.1323 -3.4574,-0.37257 -4.9212,-9.1984 -4.9212,-9.1984 l -1.7749,-16.353 z"
         sodipodi:nodetypes="csssccc"
         style="fill:#333366;stroke:#262316;stroke-width:0.89999998"
         inkscape:connector-curvature="0" />
      <path
         id="path4510"
         sodipodi:nodetypes="csaasssccsaaassscsc"
         style="fill:#ffdb9d;stroke:#262316;stroke-width:0.89999998"
         inkscape:connector-curvature="0"
         d="m 201.87,195.29 c 17.365,16.541 2.0048,19.362 14.781,-5.4187 0,0 -4.2663,5.9648 -6.6856,4.7089 -1.9732,-1.0243 -1.3871,-4.9348 0.003,-6.6696 1.6966,-2.1167 6.6214,-1.7162 7.9421,-1.7756 2.4004,-0.1078 -7.7032,1.1174 -8.7571,0.7513 -1.3163,-0.45737 -3.6006,-3.2015 -1.991,-3.6207 1.3742,-0.35804 9.051,-1.6669 8.8768,-2.1294 -14.683,6.1891 -18.359,-5.6677 -0.39148,-4.1594 3.8467,-1.2999 -9.158,0.63696 -11.039,0.7648 -1.5746,0.10704 -2.4263,-2.78 -1.9252,-4.2508 1.0472,-3.0736 7.4315,-1.6646 8.6561,-4.7132 1.5636,-3.8922 -7.3044,-9.6591 -3.8175,-11.991 5.9496,-3.9782 13.678,10.055 16.418,13.837 3.9391,5.4358 10.537,12.06 10.13,29.097 -0.95591,40.017 -12.943,44.944 -28.37,43.815 -3.9959,-0.29251 -36.478,-24.778 -32.215,-37.243 0.05,-0.19592 25.371,-13.564 28.384,-11.003 z" />
      <path
         id="path4508"
         sodipodi:nodetypes="ccsscscccccccscccccccc"
         style="fill:url(#radialGradient5587);stroke:#262316;stroke-width:0.89999998"
         inkscape:connector-curvature="0"
         d="m 64.828,208.23 -7.3836,1.2447 c 0,0 -13.417,39.907 -12.903,60.53 0.43599,17.515 -5.4652,42.066 -8.5482,65.135 -3.7009,27.692 -4.7494,52.644 -4.7494,52.644 0,0 -3.9511,14.558 35.56,13.588 39.511,-0.97057 30.621,0.97058 30.621,0.97058 l 17.174,-95.912 -9.2714,-5.9969 9.8778,6.7939 18.768,-10.676 -18.993,11.19 37.761,88.777 c 0,0 10.866,15.529 34.572,7.7645 23.707,-7.7645 27.658,-10.676 27.658,-10.676 0,0 -15.805,-56.292 -21.731,-70.851 1.4046,-12.341 -6.2564,-24.858 -7.9023,-26.205 l -12.841,-51.44 -3.9512,-52.41 -13.829,-9.7055 -62.23,0.97045 z" />
      <path
         id="path4496"
         sodipodi:nodetypes="ccccccccc"
         style="fill:#ccccff;stroke:#262316;stroke-width:0.89999998"
         inkscape:connector-curvature="0"
         d="m 16.427,170.38 c 35.021,5.6177 20.578,-35.426 69.145,-23.293 l 64.206,0 c 46.115,-2.9226 35.854,32.632 58.279,43.675 -3.0758,9.6394 -20.478,12.58 -36.548,14.558 l -14.817,-21.352 -66.181,0.97058 -27.658,24.264 c -31.655,-8.0491 -48.992,-20.427 -46.426,-38.822 z" />
      <path
         id="path4461"
         sodipodi:nodetypes="sssccs"
         style="fill:#ffdb9d;stroke:#262316;stroke-width:0.89999998"
         inkscape:connector-curvature="0"
         d="m 58.901,84.001 c 4.784,28.88 -0.13879,67.727 51.365,69.996 58.032,2.5562 56.814,-42.133 59.267,-73.878 1.6509,-21.369 -30.621,-45.616 -30.621,-45.616 l -62.229,4.853 c 0,0 -20.926,25.652 -17.78,44.646 z" />
      <path
         id="path4421"
         sodipodi:nodetypes="cccsccccccsccsssssc"
         style="fill:url(#radialGradient5589);stroke:#262316;stroke-width:0.89999998"
         inkscape:connector-curvature="0"
         d="m 47.048,88.854 11.853,4.8528 2.9633,-18.441 c 0,0 5.9267,23.293 6.9145,18.441 0.98776,-4.8528 7.9023,-22.323 7.9023,-22.323 l 9.8778,26.205 8.89,-24.264 6.9144,22.323 11.853,-37.852 17.78,24.264 c 0,0 0.98777,-34.94 5.9267,-19.411 4.93893,15.529 17.78,29.117 17.78,29.117 l 8.89,-23.293 c 0,0 1.9755,32.028 5.9267,24.264 3.9511,-7.7645 4.9388,-31.058 4.9388,-25.235 0,5.8234 9.0081,40.721 6.9145,24.264 -1.9755,-15.529 12.556,-20.245 -6.9145,-54.351 -7.84,-13.718 -20.99,-23.775 -68.17,-23.294 -77.117,0.787 -60.252,74.733 -60.252,74.733 z" />
      <ellipse
         id="path4423"
         style="fill:#000000;fill-opacity:0.99216003;stroke:#262316;stroke-width:2.26360011"
         transform="matrix(0.45659,0,0,0.34622,-11.74,45.074)"
         cx="228.46809"
         cy="157.30496"
         rx="7.7446809"
         ry="11.617022" />
      <path
         id="path4435"
         sodipodi:nodetypes="csc"
         style="fill:#0e232e;stroke:#262316;stroke-width:0.89999998"
         inkscape:connector-curvature="0"
         d="m 104.96,113.8 c 3.4883,1.5061 4.1137,5.083 10.093,2.4473 5.9798,-2.6357 1.3679,-2.4473 1.3679,-2.4473" />
      <path
         id="path4437"
         sodipodi:nodetypes="cacac"
         style="fill:#990000;stroke:#262316;stroke-width:0.89999998"
         inkscape:connector-curvature="0"
         d="m 98.345,124.57 c 0,0 10.447,11.293 16.366,10.622 6.3983,-0.72525 16.366,-15.343 16.366,-15.343 0,0 -12.221,7.6784 -18.704,8.2615 -4.7322,0.4256 -14.028,-3.5406 -14.028,-3.5406 z" />
      <ellipse
         id="path4439"
         style="fill:#000000;fill-opacity:0.99216003;stroke:#262316;stroke-width:2.26360011"
         transform="matrix(0.45659,0,0,0.34622,22.714,44.103)"
         cx="228.46809"
         cy="157.30496"
         rx="7.7446809"
         ry="11.617022" />
      <path
         id="path4467"
         sodipodi:nodetypes="csc"
         style="fill:#ffdb9d;stroke:#262316;stroke-width:0.89999998"
         inkscape:connector-curvature="0"
         d="m 59.889,94.678 c 2.0733,-10.185 -17.163,-6.5437 -19.756,0.97053 -3.2146,9.3187 21.731,20.382 21.731,20.382" />
      <path
         id="path4469"
         sodipodi:nodetypes="cscc"
         style="fill:#ffdb9d;stroke:#262316;stroke-width:0.89999998"
         inkscape:connector-curvature="0"
         d="m 170.52,90.795 c 0,0 14.573,-6.8806 17.78,-1.941 5.8011,8.9339 -22.719,24.264 -22.719,24.264 z" />
      <path
         id="path4500"
         sodipodi:nodetypes="ccsccc"
         style="fill:#0066cc;stroke:#262316;stroke-width:0.89999998"
         inkscape:connector-curvature="0"
         d="m 85.04,150.12 -6.383,48.412 c 0,0 6.4009,8.1087 10.866,7.7645 4.178,-0.32214 8.8901,-8.7351 8.8901,-8.7351 l -0.60647,-42.364 z" />
      <path
         id="path4502"
         d="m 131.01,153.88 0,42.705 c 0,0 6.7877,10.58 11.853,9.7055 4.5052,-0.77799 6.9145,-11.647 6.9145,-11.647 l -6.9145,-43.675 z"
         sodipodi:nodetypes="ccsccc"
         style="fill:#0066cc;stroke:#262316;stroke-width:0.89999998"
         inkscape:connector-curvature="0" />
      <ellipse
         id="path4504"
         style="fill:#2d2d2d;fill-opacity:0.99216003;stroke:#262316;stroke-width:1.18649995"
         transform="matrix(0.76526,0,0,0.75192,204.11,-85.719)"
         cx="-151.66667"
         cy="371.57446"
         rx="7.0992908"
         ry="7.7446809" />
      <ellipse
         id="path4506"
         style="fill:#2d2d2d;fill-opacity:0.99216003;stroke:#262316;stroke-width:1.18649995"
         transform="matrix(0.76526,0,0,0.75192,256.46,-83.777)"
         cx="-151.66667"
         cy="371.57446"
         rx="7.0992908"
         ry="7.7446809" />
      <path
         id="path4512"
         sodipodi:nodetypes="ccsscc"
         style="fill:#0099ff;stroke:#262316;stroke-width:0.89999998"
         inkscape:connector-curvature="0"
         d="m 30.234,384.38 c -3.1049,4.6848 -12.718,9.3696 -3.1298,14.054 0,0 5.2164,9.1354 29.212,9.1354 23.9956,0 22.952,-4.2164 34.429,-4.2164 11.476,0 8.3463,-16.163 8.3463,-16.163 -22.59,-1.6929 -43.748,-6.3762 -68.857,-2.811 z" />
      <path
         id="path4514"
         d="m 146.88,388.97 2.3773,17.655 c 0,0 8.549,9.8955 31.727,4.6655 23.178,-5.2302 20.55,-10.095 31.635,-12.596 11.085,-2.5014 1.8514,-21.338 1.8514,-21.338 z"
         style="fill:#0099ff;stroke:#262316;stroke-width:0.89999998"
         inkscape:connector-curvature="0" />
      <path
         id="path4498"
         sodipodi:nodetypes="cscsssssssscscccc"
         style="fill:#ffdb9d;stroke:#262316;stroke-width:0.89999998"
         inkscape:connector-curvature="0"
         d="m 20.163,188.12 c 0,0 -26.369,46.019 18.236,59.908 51.102,15.912 41.546,4.7504 41.546,4.7504 0,0 -1.1578,3.5507 2.8926,4.1968 12.229,1.9506 28.823,2.422 36.516,-6.7992 2.8809,-3.453 -12.448,0.76668 -10.598,-3.3114 1.6157,-3.5614 13.54,1.7304 11.769,-6.4473 -0.92868,-4.289 -14.064,2.8048 -12.449,-1.2828 0.91227,-2.3081 12.277,-0.48129 12.884,-6.0395 0.61791,-5.66 -19.4,-1.0972 -13.864,-2.7742 5.4111,-1.639 12.929,0.55154 12.034,-3.4598 -2.2891,-10.26 -31.726,4.6131 -31.726,4.6131 -2.133,-0.99274 15.407,-6.9149 16.296,-12.547 1.2355,-7.8304 -15.188,6.331 -22.294,5.8035 -7.1768,-2.4039 -43.942,-6.8927 -29.473,-6.7965 l 1.6864,-11.48 z" />
    </g>
  </g>
</svg>
