<?xml version="1.0" encoding="UTF-8" standalone="no"?>
<!-- Created with Inkscape (http://www.inkscape.org/) -->

<svg
   xmlns:dc="http://purl.org/dc/elements/1.1/"
   xmlns:cc="http://creativecommons.org/ns#"
   xmlns:rdf="http://www.w3.org/1999/02/22-rdf-syntax-ns#"
   xmlns:svg="http://www.w3.org/2000/svg"
   xmlns="http://www.w3.org/2000/svg"
   xmlns:sodipodi="http://sodipodi.sourceforge.net/DTD/sodipodi-0.dtd"
   xmlns:inkscape="http://www.inkscape.org/namespaces/inkscape"
   width="210mm"
   height="297mm"
   viewBox="0 0 744.09448819 1052.3622047"
   id="svg3739"
   version="1.1"
   inkscape:version="0.91 r"
   sodipodi:docname="girl2.svg">
  <defs
     id="defs3741" />
  <sodipodi:namedview
     id="base"
     pagecolor="#ffffff"
     bordercolor="#666666"
     borderopacity="1.0"
     inkscape:pageopacity="0.0"
     inkscape:pageshadow="2"
     inkscape:zoom="0.35"
     inkscape:cx="375"
     inkscape:cy="520"
     inkscape:document-units="px"
     inkscape:current-layer="layer1"
     showgrid="false"
     inkscape:window-width="1355"
     inkscape:window-height="712"
     inkscape:window-x="0"
     inkscape:window-y="0"
     inkscape:window-maximized="1" />
  <metadata
     id="metadata3744">
    <rdf:RDF>
      <cc:Work
         rdf:about="">
        <dc:format>image/svg+xml</dc:format>
        <dc:type
           rdf:resource="http://purl.org/dc/dcmitype/StillImage" />
        <dc:title></dc:title>
      </cc:Work>
    </rdf:RDF>
  </metadata>
  <g
     inkscape:label="Layer 1"
     inkscape:groupmode="layer"
     id="layer1">
    <path
       d="m 655.10533,248.13649 c 0.40168,0.12945 1.2162,0.38836 1.62904,0.51781 8.40184,14.22601 7.93321,29.8828 3.21345,44.5585 -3.49239,9.74972 -9.0713,19.44494 -18.9906,27.47773 -7.62078,6.16597 -18.63355,11.50753 -31.75514,11.88227 l -0.21211,-1.03561 c 12.97654,-0.44286 23.87773,-5.76399 31.23073,-11.97085 10.7115,-9.1229 16.44662,-20.10582 19.34776,-31.09556 2.73366,-10.82621 2.91219,-21.9999 -1.14926,-32.71029 -0.78115,-2.60265 -2.7784,-4.9941 -3.31387,-7.624 z"
       id="path13"
       inkscape:connector-curvature="0"
       style="fill:#090a04" />
    <path
       d="m 161.94098,291.24377 c 0.52442,-1.09693 0.0223,-2.77299 2.54399,-2.99101 -3.93871,13.00646 -2.62209,26.374 0.134,39.41452 3.58166,14.55304 9.77413,29.58983 25.37287,41.19957 -0.46863,0.034 -1.39473,0.0886 -1.8522,0.12264 -11.83844,-8.52335 -17.81903,-19.37682 -21.95858,-30.09402 -2.78945,-7.84203 -4.67512,-15.81349 -5.3669,-23.82585 -0.70306,-7.93741 -0.94853,-15.95658 1.12682,-23.82585 z"
       id="path15"
       inkscape:connector-curvature="0"
       style="fill:#090a04" />
    <path
       d="m 705.1257,290.45344 c 1.78525,0.17032 1.70715,1.40352 2.19809,2.21429 5.48965,13.93305 3.76019,28.67006 -2.41009,42.41233 -4.00565,8.33257 -9.93034,16.48801 -19.15785,23.17859 -7.71005,5.29388 -18.48861,9.74292 -30.59473,9.19105 -1.55093,-0.22484 -4.40733,0.32703 -4.38491,-1.131 7.431,0.4088 15.21915,-0.10901 21.66837,-2.56858 10.9235,-3.97212 18.30997,-10.63545 23.75498,-17.48955 11.25824,-14.97547 15.09653,-32.02216 11.10203,-48.30577 -0.4799,-2.53452 -2.15357,-4.93959 -2.17589,-7.50136 z"
       id="path17"
       inkscape:connector-curvature="0"
       style="fill:#090a04" />
    <path
       d="m 216.74817,297.10996 c 0.42399,0.11582 1.24967,0.34747 1.66251,0.4633 -2.30967,6.20684 -2.04188,12.6249 -1.66251,18.94076 1.31662,12.18887 4.21765,24.79334 14.05884,35.61955 1.38368,1.92132 4.75323,3.2976 5.07681,5.44376 -4.03913,-1.58748 -6.04754,-4.4286 -8.35731,-6.88816 -8.39068,-10.39018 -11.10203,-22.08849 -12.45213,-33.52108 -0.60241,-6.68377 -0.64704,-13.48337 1.67379,-20.05813 z"
       id="path19"
       inkscape:connector-curvature="0"
       style="fill:#090a04" />
    <path
       d="m 400.16032,3.9504946 c 7.28605,-0.5654953 14.54979,0.4632992 21.85816,0.517805 19.79396,0.7903338 39.54318,2.0712198 59.19209,3.7677146 28.70917,2.5617748 57.30654,6.8541098 83.46045,14.6825058 18.62228,5.716292 36.08438,13.026882 50.41112,22.326934 14.95136,9.497638 26.66707,20.773529 35.39259,32.792055 10.2094,14.280524 17.60703,29.235561 24.63645,44.190581 13.89159,30.63227 24.82614,61.74145 33.9645,93.02778 9.28319,32.82612 17.20524,65.85663 20.67532,99.12562 1.45052,15.90207 2.32094,31.91995 -0.79221,47.76752 -1.70714,6.97674 -3.42533,14.38953 -10.43255,20.22846 -7.63195,5.1508 -18.96829,7.71251 -30.03684,8.58466 -13.36706,0.82441 -26.85675,0.11583 -40.05655,-1.2945 -23.49825,-2.42551 -46.33829,-6.67696 -69.49076,-10.00182 9.43951,4.79651 18.63355,9.96775 25.18308,16.38581 1.69599,1.48535 0.93725,3.48837 2.70019,4.99409 45.99251,58.89352 91.80638,117.83473 137.74322,176.74188 -0.76978,0.41561 -1.48399,0.8584 -2.18693,1.30133 -0.35717,-1.86682 -2.18705,-3.44749 -3.38082,-5.12355 -40.88223,-52.48909 -81.76447,-104.97136 -122.6467,-157.46045 -6.22606,-7.79433 -11.96117,-15.73855 -18.47723,-23.4375 -13.84684,-10.9761 -33.67439,-18.61366 -54.41666,-23.8939 -20.53038,-5.0623 -42.36622,-8.28489 -64.50321,-9.04116 -2.05315,0.007 -4.31819,-0.35429 -6.11459,0.42243 -18.18713,6.7519 -37.09963,13.79677 -58.55621,15.67041 -18.20945,1.66243 -36.40795,-2.11891 -51.89489,-7.76708 -6.89564,-2.30287 -13.01001,-5.35519 -19.67122,-7.84883 -19.35881,0.0205 -38.85151,0.91978 -57.73065,3.64507 -7.74341,1.22638 -15.55388,2.75936 -22.1371,5.60728 -3.93871,1.72375 -7.43111,4.17651 -8.16752,7.19478 -0.7141,2.73891 -4.02797,4.85783 -5.04333,7.55586 -0.27895,-0.97429 -0.58021,-1.94858 -0.83684,-2.90925 4.09492,-3.00463 3.2804,-7.3651 7.82163,-10.18577 7.8551,-5.253 19.5708,-7.37191 30.55009,-8.96621 17.88598,-2.39825 36.22943,-3.20902 54.50593,-3.36572 2.01956,-0.15672 3.6486,0.63362 5.2107,1.2945 11.53718,5.39608 24.24593,10.02226 38.11509,12.79524 12.07276,2.39826 25.21666,2.53452 37.49026,0.59956 14.17042,-2.2688 27.25854,-6.46575 39.78876,-11.01698 4.10619,-1.25363 7.64311,-3.28398 12.03928,-4.122 21.63501,0.17715 43.09148,3.12046 63.38744,7.61719 12.6196,2.71166 24.35762,6.66333 35.78322,10.84665 22.28215,3.65189 44.58662,7.34466 67.1812,10.20621 15.60978,1.87364 31.59882,3.22266 47.50997,2.19386 10.32098,-0.79033 20.84291,-3.10683 28.15128,-7.78752 6.28174,-4.83738 8.05594,-11.16006 9.79645,-17.08076 3.76018,-16.20865 2.9345,-32.65579 1.5063,-48.95302 -3.0906,-30.82984 -10.07539,-61.4621 -18.39923,-91.91041 -8.62499,-30.44149 -18.62228,-60.76033 -31.5765,-90.62952 -7.20806,-16.6379 -15.07421,-33.20766 -25.49561,-49.211928 C 638.29051,61.924306 613.54259,42.02287 580.08019,29.738622 551.25944,18.687506 517.81947,13.087032 484.46877,9.8848097 460.40147,7.7045783 436.15543,6.3078653 411.87603,5.4494037 c -9.23867,-0.5927482 -18.47734,0.374725 -27.71602,0.5518733 -44.1961,2.2756121 -88.96125,5.545962 -130.56874,15.431956 -22.25984,5.164427 -43.15843,12.522708 -61.49071,21.809138 -15.33084,8.032788 -28.47475,17.625815 -38.57246,28.315765 -11.88307,12.434134 -19.23618,26.217291 -25.85265,39.966384 -14.07001,30.51643 -22.695,61.83001 -30.315791,93.15041 -7.877417,33.90942 -13.969584,67.98236 -18.097975,102.13706 -2.309668,20.90979 -4.764387,41.86727 -4.061444,62.83838 -0.15621,5.81849 5.757432,11.16687 14.226213,13.68096 15.096527,4.6398 32.480407,5.14399 49.083237,5.3075 35.2029,-0.034 70.13802,-3.25672 104.79419,-6.70422 1.08231,-1.04242 2.16461,-2.08484 3.50355,-3.01144 2.78946,-0.52462 0.99305,1.43759 0.33474,2.04397 -59.83947,56.21592 -119.58957,112.47272 -179.551671,168.64095 -0.245472,-0.34066 -0.736416,-1.02879 -0.981888,-1.36946 16.703248,-16.21547 34.142909,-32.15154 51.125109,-48.25807 39.00772,-36.65515 78.0266,-73.31031 117.02316,-109.97228 2.15346,-2.1666 4.86481,-4.13562 6.44922,-6.493 -22.57226,2.28244 -45.24494,4.2787 -68.04036,5.53235 -20.45227,1.02198 -41.18349,1.64879 -61.55766,-0.20441 -11.02392,-1.10374 -22.616893,-2.90924 -30.951781,-7.71938 -5.690485,-3.31123 -7.888575,-8.20994 -7.788154,-12.89062 -0.379366,-16.15416 1.082308,-32.30832 2.711349,-48.43522 3.92755,-37.37054 10.265189,-74.65252 18.700497,-111.74371 7.654259,-32.02216 16.401989,-64.03069 30.471999,-95.26252 5.85785,-12.48864 12.4298,-24.922773 22.00321,-36.559759 C 156.88649,64.186224 170.49903,53.203299 187.02375,44.148523 208.55833,32.470654 234.33288,23.95413 261.46869,18.196954 306.01068,8.7129353 353.38676,5.9535777 400.16032,3.9504946 Z"
       id="path35"
       inkscape:connector-curvature="0"
       style="fill:#251a11" />
    <path
       d="m 390.81007,45.211386 c 42.77906,-3.672325 87.49958,-2.527704 128.24792,6.785979 26.95728,6.050142 51.61605,15.949758 71.14223,28.826754 13.48979,9.034339 24.94887,19.254171 33.19449,30.407431 -6.56079,-2.02353 -12.30707,-4.89871 -18.95712,-6.82685 11.53718,12.65215 22.88467,25.52915 29.91399,39.42813 1.90809,4.40816 3.97229,9.06159 2.41008,13.62645 -2.11998,4.14244 -8.45762,6.84048 -15.18578,7.73982 -23.54299,2.55497 -47.59924,1.36265 -71.32075,0.55188 -21.22216,-0.8721 -42.42201,-2.04397 -63.65522,-2.80024 -10.99045,-0.22484 -22.97405,-0.87209 -32.96018,2.43233 -4.09492,1.62154 0.42399,4.38771 -0.59137,6.5952 -7.55384,-1.83276 -13.9919,-4.93959 -20.51922,-7.82158 -10.35445,-4.61937 -20.24028,-9.61347 -30.28231,-14.47811 -0.30126,6.17278 4.57471,12.07984 11.90539,16.21548 3.88292,2.4255 8.80352,4.02661 13.17738,6.07058 -3.67092,1.79869 -8.61383,1.86682 -13.09928,2.07121 -15.02957,0.44287 -30.30462,-3.17495 -40.43591,-10.02224 -7.2749,-4.72157 -11.72687,-10.70358 -15.35316,-16.71285 -2.10882,4.43541 -3.22461,9.25236 -2.0084,13.86491 1.36125,4.46267 6.95131,7.79433 13.01001,10.11764 -16.69209,-0.66769 -34.1987,-2.50045 -47.75545,-8.91851 -13.91379,-6.40443 -22.33794,-16.0724 -28.564,-25.78805 1.99725,8.92532 4.41849,17.83702 8.15636,26.55795 1.4282,3.10001 2.66672,6.45893 6.59427,8.80268 -10.22056,2.32331 -21.30027,2.37782 -32.0564,2.69804 -22.76194,0.31341 -45.7582,-0.27934 -68.0292,-3.37254 -9.30561,-1.42397 -19.02407,-3.15452 -26.05349,-7.37192 -3.94987,-2.74572 -3.10188,-6.69739 -1.36126,-9.89961 7.58732,-15.56822 19.50386,-30.24391 33.16103,-44.13608 -2.68904,0.69496 -5.47849,1.26045 -8.18984,1.91452 2.78946,-5.62772 7.81047,-10.73083 13.7018,-15.343385 C 232.55879,85.947663 250.3555,77.921691 268.83285,70.99264 306.20037,57.618277 347.98638,49.019984 390.81007,45.211386 m -40.17929,35.367457 c -44.89904,6.445314 -88.28062,16.324492 -130.5799,27.464107 -1.84104,0.37474 -3.31387,1.16507 -4.16186,2.22793 -13.25549,13.02689 -24.30172,26.94631 -32.12335,41.52661 -1.37241,3.31123 -4.59702,7.13345 -1.05999,10.34247 3.62629,3.17497 9.77424,4.76245 15.55399,6.03652 20.64196,4.10838 42.56706,4.8919 64.12396,5.19168 13.83569,-0.0886 27.91685,0.0409 41.44012,-1.99627 -4.3627,-5.37564 -6.12564,-11.35084 -8.17868,-17.16933 -2.25388,-7.61718 -5.08796,-15.26844 -5.18838,-23.03551 0.5021,0.0272 1.5063,0.0682 2.00841,0.0954 2.18693,2.8343 3.28039,5.94114 5.46733,8.78224 6.17027,9.04116 15.48704,17.6667 29.2781,22.98102 10.16477,3.99255 22.25984,5.71629 34.16523,6.37037 -2.81177,-2.07123 -5.64586,-4.25827 -6.71701,-6.92906 -2.13114,-5.16442 -0.26778,-10.48555 1.26084,-15.60909 0.98188,-2.95013 0.47978,-5.96158 0.75873,-8.93896 3.97229,10.46512 10.08666,21.54342 24.4914,28.39752 11.61529,5.65498 27.68254,7.71938 42.06496,5.53235 -11.52602,-4.23102 -21.72426,-11.03743 -23.0632,-19.52671 0.0558,-1.57386 -0.83684,-3.58375 1.48399,-4.72838 15.74367,7.65125 31.01872,15.82713 48.41375,22.06804 -0.44631,-1.63517 -1.09346,-3.63827 1.30547,-4.85101 4.41849,-2.43233 10.82308,-2.69805 16.44651,-3.21586 15.98926,-0.66087 31.96713,0.62682 47.91176,1.24683 30.44968,1.2332 60.9663,3.31804 91.50524,2.15298 7.25258,-0.40879 14.86209,-0.8244 21.35605,-3.01145 3.50356,-1.67605 6.66122,-4.13562 6.49374,-7.00399 0.0781,-7.19477 -4.56355,-13.9603 -8.61383,-20.58276 -6.53848,-9.72928 -14.40474,-19.11109 -23.13015,-28.16587 -1.47294,-1.33539 -2.36546,-3.01826 -4.58586,-3.9653 C 560.85494,88.877354 519.11367,79.045866 475.51998,75.625632 433.85692,72.164515 391.41259,74.780793 350.63078,80.578843 Z"
       id="path37"
       inkscape:connector-curvature="0"
       style="fill:#251a11" />
    <path
       d="m 282.90285,478.95495 c 0.45747,0.12938 1.36125,0.38154 1.81872,0.51099 -1.82988,3.93804 -5.38922,7.50129 -7.96668,11.2827 -9.53993,12.66578 -19.86091,25.11355 -29.86947,37.62944 -0.14505,16.98538 1.16042,34.00481 1.22736,51.00381 -1.74061,14.83239 -8.58036,29.39225 -7.78815,44.34047 0.44631,4.24464 1.32778,9.0684 6.70585,12.14117 4.00565,2.2688 9.80771,1.88045 14.75063,2.66396 41.09423,5.38245 82.53435,9.96776 124.43194,12.21612 55.72213,3.20903 112.49309,1.79188 166.98785,-6.35674 3.82724,-0.6677 8.42415,-0.52462 11.33634,-2.43232 4.95396,-3.17496 6.88437,-7.58993 8.55805,-11.73237 3.00134,-8.40753 3.94975,-17.02625 4.50764,-25.60411 0.80336,-16.7946 0.0335,-33.62326 -1.77409,-50.37691 -11.98349,-18.68875 -23.29752,-37.64989 -30.99641,-57.19704 0.52442,0.034 1.58441,0.0954 2.10883,0.12946 9.00447,20.34429 20.05059,40.36836 33.47344,59.79967 16.03378,22.69487 35.18059,44.95367 62.13798,63.57421 5.95827,4.1697 12.73095,8.06686 21.06595,10.39017 21.94731,6.32949 49.19481,4.25827 68.70982,-4.36728 0.29011,0.29978 0.87031,0.89935 1.17146,1.19913 -12.6418,5.65498 -28.43011,8.43477 -44.02873,8.28489 -0.60252,-0.0272 -1.79641,-0.0682 -2.39893,-0.0886 -10.10887,-0.42243 -20.16206,-2.0576 -28.92095,-5.21212 -7.8551,-2.73892 -13.99189,-6.90861 -19.89449,-11.01698 -25.54024,-18.42978 -44.50852,-39.93232 -59.73883,-62.11618 1.59546,19.5267 2.57735,39.11473 0.31231,58.63461 1.78536,4.68069 4.46313,9.25236 6.52743,13.9058 42.1096,87.59081 84.23034,175.18154 126.31762,262.77927 1.7183,2.00301 -2.92335,2.05759 -4.87596,2.65714 -57.42928,12.5499 -115.69549,23.96887 -175.50127,31.53153 -28.57516,3.60424 -57.50726,6.22047 -86.60695,7.6309 -21.96974,0.98105 -44.02874,1.2877 -66.04311,0.76989 -28.61979,-0.77668 -57.17264,-2.60274 -85.37959,-5.68229 -0.2901,0.41572 -0.85915,1.24688 -1.1381,1.66251 -0.15621,-0.59276 -0.27894,-1.17873 -0.34589,-1.75782 -48.8266,-5.10989 -96.83867,-12.81574 -144.41559,-21.17561 30.82904,-92.12836 61.72503,-184.2568 92.46481,-276.39206 -5.04334,-15.5546 2.0084,-31.23183 5.13259,-46.66378 1.65136,-6.75872 0.65831,-13.59238 0.59136,-20.39199 -0.39052,-11.30995 -0.64715,-22.62672 -1.11578,-33.93667 -17.89713,20.69857 -36.15132,41.32902 -57.07222,60.97155 -11.98349,11.31677 -24.59182,22.43596 -39.09698,32.61491 -4.93175,3.20903 -9.31677,7.07894 -16.18999,8.82994 l -0.54673,-1.0833 c 7.41995,-2.92287 12.86496,-7.22884 18.57776,-11.26226 25.01582,-18.52517 45.49041,-39.12155 64.94964,-59.92913 24.62529,-26.81686 47.3426,-54.2946 67.83951,-82.37871 M 577.78157,621.3377 c -1.08231,5.67541 -2.76714,11.39852 -6.41575,16.6924 -2.39893,3.3998 -6.67237,6.88135 -13.24432,7.11982 -45.91441,6.92223 -93.46901,9.5317 -140.67772,8.244 -52.59794,-1.30814 -104.60451,-6.84048 -156.00857,-13.497 -4.44081,-0.73583 -9.33909,-0.48374 -13.38937,-1.96221 -2.91219,-0.83121 -4.64165,-2.53452 -6.52732,-4.02661 -26.39939,79.56483 -53.23394,159.08201 -79.80069,238.62642 -3.77134,11.75957 -8.201,23.45795 -11.5595,35.25163 29.9141,4.94635 59.72778,10.15852 90.02125,14.19875 57.87558,8.19633 117.24631,13.43574 176.76209,12.2638 52.63141,-0.81758 104.77188,-6.44529 155.68499,-14.37587 46.30493,-7.18794 91.65028,-16.46759 136.64975,-26.1969 -0.30126,-2.5345 -2.15335,-4.86461 -3.10187,-7.31058 -42.44422,-88.45614 -85.15633,-176.86454 -127.45572,-265.34788 -0.23431,0.0817 -0.70294,0.23847 -0.93725,0.32023 z"
       id="path39"
       inkscape:connector-curvature="0"
       style="fill:#251a11" />
    <path
       d="m 372.12073,981.4167 c 1.03768,0.21107 2.07536,0.44287 3.12419,0.70173 3.79366,1.77149 5.27765,4.72151 5.70164,7.52854 0.49095,3.97904 -0.33473,7.97158 -1.33893,11.90953 -1.49515,2.9161 -3.11303,5.8458 -3.30272,8.9389 l -0.10042,0.1568 c -0.21188,0.3883 -0.65831,1.1719 -0.88146,1.5601 -1.29431,2.7321 -2.71135,5.4506 -4.38503,8.1078 -2.36545,3.7336 -6.70584,6.8132 -11.0797,9.7293 -7.37532,4.8238 -15.62094,9.1229 -24.10088,13.204 -15.65442,7.1675 -32.07872,14.0353 -50.66764,18.0414 -10.76729,2.3847 -22.38257,2.7117 -33.73007,2.48 -15.25273,-0.6268 -30.3381,-2.2211 -45.13336,-4.5171 -10.30982,-2.1667 -21.04364,-4.1765 -29.82484,-8.2509 -3.88292,-1.7169 -6.4047,-4.6262 -5.51196,-7.5831 1.41704,-5.9684 7.54257,-10.9965 13.61253,-15.5478 12.45213,-8.8776 27.81655,-16.1473 44.50853,-21.8091 5.33343,-1.7168 11.48139,-2.2347 17.45082,-2.0848 14.01421,0.9675 27.49285,4.1424 41.71907,4.1629 13.95842,0.095 27.79411,-2.2824 40.05655,-6.3023 16.31272,-5.31426 30.68399,-12.58393 43.88368,-20.4259 z"
       id="path41"
       inkscape:connector-curvature="0"
       style="fill:#251a11" />
    <path
       d="m 446.34251,985.38199 c 1.36126,-0.38829 2.71135,-0.79025 4.11724,-1.12415 12.4298,7.37186 25.88613,14.20563 40.98265,19.46536 16.04494,5.6276 35.02438,8.5641 53.47952,6.7587 13.33358,-1.0289 26.33244,-4.5104 39.96718,-3.3931 7.37531,0.7223 13.40053,3.5497 19.67122,5.8117 10.66676,4.2175 20.31838,9.3137 29.3561,14.7643 3.94987,2.8206 7.69889,5.7502 11.44792,8.6868 3.65976,4.3673 8.95972,9.4635 5.2666,14.4645 -4.03913,4.0675 -11.78277,5.9275 -18.54429,7.8488 -22.38269,5.4438 -46.61735,7.9852 -70.66255,7.992 -19.79396,0.062 -37.93657,-5.5937 -54.31613,-11.8482 -16.60283,-6.643 -32.59209,-14.0353 -46.00367,-23.0287 -4.17313,-2.848 -8.03374,-5.9752 -10.04214,-9.6271 -4.86481,-8.537 -8.87046,-17.3805 -9.46183,-26.44893 -0.22304,-3.61782 0.51337,-7.57623 4.74218,-10.32198 z"
       id="path43"
       inkscape:connector-curvature="0"
       style="fill:#251a11" />
    <path
       d="m 384.16001,6.001277 c 9.23868,-0.1771483 18.47735,-1.1446215 27.71602,-0.5518733 24.2794,0.8584616 48.52544,2.2551746 72.59274,4.435406 33.3507,3.2022223 66.79067,8.8026963 95.6112,19.8537483 33.46239,12.284239 58.21031,32.185676 72.09075,54.287781 10.42139,16.004261 18.28754,32.574031 25.4956,49.211931 12.95422,29.86917 22.95151,60.18802 31.57651,90.62951 8.32384,30.44831 15.30863,61.08057 18.39923,91.91041 1.4282,16.29724 2.25388,32.74437 -1.5063,48.95303 -1.74051,5.92069 -3.51472,12.24337 -9.79645,17.08076 -7.30837,4.68068 -17.8303,6.99718 -28.15128,7.78751 -15.91104,1.0288 -31.90019,-0.32022 -47.50997,-2.19385 -22.59458,-2.86156 -44.89905,-6.55433 -67.1812,-10.20622 -11.42561,-4.18332 -23.16363,-8.13499 -35.78323,-10.84666 -20.29595,-4.49672 -41.75243,-7.44004 -63.38743,-7.61718 -4.39629,0.83803 -7.9332,2.86837 -12.03928,4.12201 -0.30126,-6.40444 -0.0558,-12.81569 -0.13389,-19.22012 -0.76978,-3.76771 2.01967,-8.12817 -2.05304,-11.37808 30.4943,-4.70112 58.62304,-14.25327 82.77971,-26.46257 4.68639,-3.10683 10.28751,-5.70948 15.82189,-8.15543 -0.53557,-0.0886 -1.58441,-0.26572 -2.10882,-0.35429 6.82858,-4.57167 13.67948,-9.13653 19.9948,-13.98073 29.38968,-23.19222 46.67314,-51.98492 48.96038,-81.27497 1.52873,-12.32512 -0.83684,-24.67068 -3.97207,-36.8323 6.72816,-0.89934 13.0658,-3.59738 15.18578,-7.73982 1.5621,-4.56486 -0.5021,-9.21829 -2.41008,-13.62645 -7.02932,-13.89898 -18.37693,-26.77598 -29.91399,-39.42813 6.65005,1.92814 12.39633,4.80332 18.95712,6.82685 C 615.14909,100.07829 603.69001,89.858458 590.20022,80.824119 570.67404,67.947123 546.01527,58.047507 519.05799,51.997365 478.30965,42.683682 433.58913,41.539061 390.81007,45.211386 c -42.82369,3.808598 -84.6097,12.406891 -121.97722,25.781254 -18.47735,6.929051 -36.27406,14.955023 -49.78617,25.433765 -5.89133,4.612555 -10.91234,9.715665 -13.7018,15.343385 2.71135,-0.65407 5.5008,-1.21956 8.18984,-1.91452 -13.65717,13.89217 -25.57371,28.56786 -33.16103,44.13608 -1.74062,3.20222 -2.58861,7.15389 1.36126,9.89961 -7.46458,22.94013 -6.60543,46.92268 3.71555,69.48809 6.47153,14.628 16.98219,28.56104 30.51662,41.24045 8.32373,7.99191 18.86787,14.9414 29.02148,22.0476 -0.53558,0.0682 -1.59557,0.21121 -2.13115,0.28615 3.90524,1.15144 6.33764,3.50882 10.2094,4.74201 3.92755,2.42551 7.76584,4.88509 12.34055,6.87455 18.86786,8.62553 39.37592,16.33811 61.95934,20.75989 6.75048,1.70331 13.85801,3.22265 21.19985,3.49518 -0.95958,1.51254 -2.00841,3.06596 -1.84104,4.72838 0.18968,4.77607 -0.1339,9.56577 0.36821,14.33503 0.31241,2.86156 0.21199,5.73673 -0.20085,8.59148 -1.56209,-0.66088 -3.19113,-1.45122 -5.21069,-1.29452 -18.2765,0.1567 -36.61995,0.96749 -54.50593,3.36574 -10.97929,1.59429 -22.69499,3.71321 -30.55009,8.9662 -4.54123,2.82068 -3.72671,7.18114 -7.82163,10.18578 -0.41284,-0.18396 -1.24968,-0.55188 -1.66252,-0.73583 0.65832,-0.60638 2.45472,-2.56859 -0.33473,-2.04397 -1.33894,0.9266 -2.42125,1.96902 -3.50355,3.01144 -34.65618,3.4475 -69.59129,6.67015 -104.7942,6.70422 -16.60282,-0.16351 -33.98671,-0.6677 -49.083229,-5.3075 -8.468781,-2.51409 -14.382422,-7.86247 -14.226213,-13.68096 -0.702942,-20.97111 1.751777,-41.92859 4.061444,-62.83838 4.128392,-34.1547 10.220558,-68.22764 18.097975,-102.13706 7.620783,-31.3204 16.245783,-62.63398 30.315793,-93.15041 6.61658,-13.749093 13.96958,-27.53225 25.85265,-39.966384 10.09782,-10.68995 23.24173,-20.282977 38.57245,-28.315765 18.3324,-9.28643 39.23088,-16.644711 61.49072,-21.809138 41.6076,-9.885994 86.37275,-13.1563439 130.56885,-15.431956 M 655.10533,248.13649 c 0.53558,2.6299 2.53272,5.02135 3.31387,7.624 4.06145,10.71039 3.88292,21.88408 1.14926,32.71029 -2.90114,10.98974 -8.63626,21.97266 -19.34776,31.09556 -7.353,6.20686 -18.25419,11.52799 -31.23073,11.97085 l 0.21211,1.03561 c 13.12159,-0.37474 24.13436,-5.7163 31.75514,-11.88227 9.9193,-8.03279 15.49821,-17.72801 18.9906,-27.47773 4.71976,-14.6757 5.18839,-30.33249 -3.21345,-44.5585 -0.41295,-0.12945 -1.22747,-0.38836 -1.62904,-0.51781 m -493.16435,43.10728 c -2.07535,7.86927 -1.82988,15.88844 -1.12694,23.82585 0.69179,8.01236 2.57746,15.98382 5.36691,23.82585 4.13955,10.7172 10.12014,21.57067 21.95858,30.09402 0.45747,-0.034 1.38357,-0.0886 1.8522,-0.12264 -15.59863,-11.60974 -21.79121,-26.64653 -25.37287,-41.19957 -2.75598,-13.04052 -4.0726,-26.40806 -0.13401,-39.41452 -2.52155,0.21802 -2.01945,1.89408 -2.54387,2.99101 m 543.18472,-0.79033 c 0.0223,2.56177 1.69599,4.96684 2.17578,7.50136 3.99461,16.28361 0.15621,33.3303 -11.10203,48.30577 -5.44501,6.8541 -12.83148,13.51743 -23.75499,17.48955 -6.44921,2.45957 -14.23737,2.97738 -21.66836,2.56858 -0.0223,1.45803 2.83397,0.90616 4.38491,1.131 12.10623,0.55187 22.88468,-3.89717 30.59473,-9.19105 9.22751,-6.69058 15.15231,-14.84602 19.15785,-23.17859 6.17027,-13.74227 7.89985,-28.47928 2.41009,-42.41233 -0.49083,-0.81077 -0.41273,-2.04397 -2.19798,-2.21429 m -488.37753,6.65652 c -2.32083,6.57476 -2.2762,13.37436 -1.67367,20.05813 1.35009,11.43259 4.06144,23.1309 12.45212,33.52108 2.30966,2.45956 4.31818,5.30068 8.35731,6.88816 -0.32358,-2.14616 -3.69324,-3.52244 -5.0768,-5.44376 -9.84109,-10.82621 -12.74223,-23.43068 -14.05885,-35.61955 -0.37937,-6.31586 -0.64715,-12.73392 1.66251,-18.94076 -0.41295,-0.11583 -1.23863,-0.34748 -1.66262,-0.4633 z"
       id="path49"
       inkscape:connector-curvature="0"
       style="fill:#c4996c" />
    <path
       d="m 350.63078,80.578843 c 40.78181,-5.79805 83.22614,-8.414328 124.88942,-4.953211 43.59369,3.420234 85.33496,13.251722 123.23817,26.639708 2.22041,0.94704 3.11292,2.62991 4.58586,3.9653 8.7253,9.05478 16.59167,18.43659 23.13015,28.16587 4.05029,6.62246 8.69194,13.38799 8.61383,20.58276 0.16737,2.86837 -2.99018,5.32794 -6.49373,7.00399 -6.49396,2.18705 -14.10348,2.60266 -21.35606,3.01145 -30.53894,1.16506 -61.05556,-0.91978 -91.50523,-2.15298 -15.94452,-0.62001 -31.92251,-1.9077 -47.91177,-1.24683 -5.62343,0.51781 -12.02813,0.78353 -16.44651,3.21586 -2.39893,1.21274 -1.75178,3.21584 -1.30546,4.85101 -17.39504,-6.24091 -32.67008,-14.41679 -48.41376,-22.06804 -2.32082,1.14463 -1.4282,3.15452 -1.48399,4.72838 1.33894,8.48928 11.53718,15.29569 23.0632,19.52671 -14.38242,2.18703 -30.44967,0.12263 -42.06496,-5.53235 -14.40473,-6.8541 -20.51922,-17.9324 -24.4914,-28.39752 -0.27894,2.97738 0.22316,5.98883 -0.75873,8.93896 -1.52862,5.12354 -3.39198,10.44467 -1.26083,15.60909 1.07115,2.67079 3.90523,4.85783 6.717,6.92906 -11.90539,-0.65408 -24.00046,-2.37782 -34.16523,-6.37037 -13.79106,-5.31432 -23.10783,-13.93986 -29.2781,-22.98102 -2.18693,-2.8411 -3.2804,-5.94794 -5.46733,-8.78224 -0.5021,-0.0272 -1.50631,-0.0682 -2.00841,-0.0954 0.10042,7.76707 2.93451,15.41833 5.18839,23.03551 2.05303,5.81849 3.81597,11.79369 8.17867,17.16933 -13.52327,2.03715 -27.60443,1.9077 -41.44012,1.99627 -21.5569,-0.29978 -43.482,-1.0833 -64.12396,-5.19168 -5.77975,-1.27407 -11.9277,-2.86155 -15.55399,-6.03652 -3.53703,-3.20902 -0.31242,-7.03124 1.05999,-10.34247 7.82163,-14.5803 18.86787,-28.49972 32.12335,-41.52661 0.84799,-1.06286 2.32082,-1.85319 4.16186,-2.22793 42.29906,-11.139615 85.68064,-21.018793 130.57968,-27.464107 z"
       id="path51"
       inkscape:connector-curvature="0"
       style="fill:#c4996c" />
    <path
       d="m 293.12341,136.57675 c 6.22606,9.71565 14.65021,19.38362 28.564,25.78805 13.55675,6.41806 31.06336,8.25082 47.75545,8.91851 -6.0587,-2.32331 -11.64876,-5.65497 -13.01001,-10.11764 -1.21621,-4.61255 -0.10042,-9.4295 2.0084,-13.86491 3.62629,6.00927 8.07826,11.99128 15.35316,16.71285 10.13129,6.84729 25.40634,10.46511 40.43591,10.02224 4.48545,-0.20439 9.42836,-0.27252 13.09928,-2.07121 -4.37386,-2.04397 -9.29446,-3.64508 -13.17738,-6.07058 -7.33068,-4.13564 -12.20665,-10.0427 -11.90539,-16.21548 10.04203,4.86464 19.92786,9.85874 30.28231,14.47811 6.52732,2.88199 12.96538,5.98882 20.51922,7.82158 1.01536,-2.20749 -3.50355,-4.97366 0.59137,-6.5952 9.98624,-3.30442 21.96984,-2.65717 32.96018,-2.43233 21.23321,0.75627 42.43306,1.92814 63.65522,2.80024 23.72151,0.81077 47.77787,2.00309 71.32075,-0.55188 3.13523,12.16162 5.50091,24.50718 3.97207,36.8323 -2.28724,29.29005 -19.5707,58.08275 -48.96038,81.27497 -6.31532,4.8442 -13.16622,9.40906 -19.9948,13.98073 -11.87192,6.55433 -23.90004,13.10865 -37.57963,18.27988 -31.2864,12.25018 -67.66099,19.64935 -104.78304,21.05287 -16.44662,0.0749 -33.04944,0.33385 -49.21712,-1.76462 -9.62919,-0.59957 -18.74513,-2.62991 -28.0619,-4.0675 -24.56951,-4.80332 -47.84471,-12.09348 -68.34161,-21.67968 -8.32373,-3.82222 -15.63199,-8.38709 -23.6211,-12.44095 -10.15361,-7.1062 -20.69774,-14.05569 -29.02147,-22.0476 -13.53443,-12.67941 -24.04509,-26.61245 -30.51662,-41.24045 -10.32098,-22.56541 -11.18013,-46.54796 -3.71556,-69.48809 7.02943,4.2174 16.74788,5.94795 26.0535,7.37192 22.271,3.0932 45.26714,3.68595 68.02919,3.37254 10.75614,-0.32022 21.83585,-0.37473 32.0564,-2.69804 -3.92755,-2.34375 -5.16606,-5.70267 -6.59426,-8.80268 -3.73765,-8.72093 -6.15889,-17.63263 -8.15614,-26.55795 m 184.95193,54.74426 c -3.53703,1.19231 -7.17459,2.3165 -10.47719,3.72683 -2.42124,1.73737 -4.85365,3.49519 -6.86206,5.42333 -1.11578,2.07803 -2.11998,4.18332 -2.91218,6.31586 0.75884,2.25518 1.7964,4.51717 3.24692,6.64289 2.17577,1.86683 4.31807,3.78815 6.90657,5.4574 3.24693,1.1855 6.62786,2.2688 10.01972,3.31803 3.90524,0.68133 7.94437,1.18551 11.99465,1.50573 4.50776,-0.32704 9.00447,-0.83121 13.45644,-1.37627 3.70428,-1.02199 7.27489,-2.25518 10.7896,-3.51562 2.27609,-1.56023 4.2287,-3.28398 6.2929,-4.96004 2.08651,-1.81231 1.12694,-4.42178 3.23577,-6.17959 7.24142,-2.00309 14.72842,-3.68595 21.96984,-5.70267 2.18694,-0.31341 1.19378,-2.36418 -0.85915,-1.94858 -7.41994,1.62836 -14.48284,3.88354 -21.94742,5.38245 -0.53557,-1.87364 -1.10462,-3.73365 -1.89683,-5.56641 5.73512,-2.71167 11.77139,-5.18486 17.59588,-7.84202 1.04872,-0.42923 2.42113,-1.23319 1.07115,-1.97583 -1.14926,-0.75627 -2.55514,0.17714 -3.55923,0.5178 -5.79102,2.56859 -11.62645,5.10311 -17.41746,7.67851 -3.42534,-3.52926 -9.56214,-5.24619 -15.29737,-7.03125 -4.42965,-0.5655 -8.89278,-1.04924 -13.3559,-1.40352 -4.03913,0.35428 -8.08942,0.83121 -11.99465,1.53297 m -214.37509,-0.89253 c -1.68483,0.32022 -1.47283,1.5466 -0.13389,2.01671 6.33764,2.84111 12.69759,5.66179 19.15796,8.4007 -3.38081,2.30969 -3.97218,5.41652 -5.47848,8.25082 -5.70165,-1.41715 -11.31403,-2.97056 -17.0603,-4.31277 -2.03072,-0.48374 -3.16882,1.58748 -1.08231,1.91452 6.1368,1.73737 12.55254,3.10001 18.65587,4.8987 1.05999,2.03716 1.35009,4.32641 3.6486,6.04334 1.99725,1.50572 3.58166,3.24309 5.88017,4.60574 3.24692,1.17187 6.58311,2.27561 9.96393,3.31803 3.91628,0.7154 7.97784,1.17869 12.02812,1.55342 4.47429,-0.36791 8.94857,-0.83121 13.37822,-1.41715 3.71555,-1.00836 7.24142,-2.28243 10.76729,-3.52244 2.55514,-1.88045 5.04333,-3.84266 7.11869,-5.93431 1.33894,-3.35893 3.02377,-6.84048 0.93725,-10.23347 -0.31241,-3.33848 -4.67512,-5.60728 -7.74352,-8.12136 -3.48124,-1.4921 -7.26362,-2.75936 -11.05739,-3.93123 -4.44081,-0.57231 -8.9151,-1.0833 -13.40054,-1.45122 -5.26649,0.62681 -10.95697,0.84484 -15.47589,2.76617 -3.20229,1.13781 -6.62774,2.10528 -9.00435,3.89035 -5.96943,-2.40507 -11.64876,-5.08948 -17.47314,-7.62399 -1.14925,-0.44287 -2.19809,-1.11737 -3.62629,-1.11056 m 113.56424,76.44438 c -6.78396,0.44968 -13.79106,0.72902 -20.06175,2.49365 -0.067,10.24708 11.65991,19.28142 26.37707,23.53969 13.07696,3.96529 29.0661,5.19167 42.7679,1.66924 12.39633,-3.10002 23.31983,-8.29169 31.65483,-14.6825 2.97903,-2.50727 6.23722,-5.26662 6.33753,-8.4961 -0.067,-1.63517 -2.59977,-2.60946 -4.95396,-2.91606 -8.55804,-1.39671 -17.47314,-1.68968 -26.26549,-2.05078 -18.61135,-0.5178 -37.28953,-0.53824 -55.85613,0.44286 z"
       id="path77"
       inkscape:connector-curvature="0"
       style="fill:#feddae" />
    <path
       d="m 431.99357,349.59223 c 10.27634,-1.45114 21.06595,-2.46639 30.15957,-5.95476 0.0781,6.40443 -0.16737,12.81568 0.13389,19.22012 -12.53022,4.55123 -25.61834,8.74818 -39.78876,11.01698 -12.2736,1.93496 -25.41751,1.79869 -37.49026,-0.59956 -13.86916,-2.77299 -26.57792,-7.39917 -38.1151,-12.79524 0.41284,-2.85475 0.51326,-5.72992 0.20085,-8.59148 8.03362,2.32331 17.18303,1.98946 25.85265,2.00302 19.89438,0.10908 39.64372,-1.72368 59.04716,-4.29908 z"
       id="path87"
       inkscape:connector-curvature="0"
       style="fill:#feddae" />
    <path
       d="m 444.69116,934.75968 c 29.09969,-1.41035 58.03179,-4.02657 86.60695,-7.63081 -2.56618,18.96805 -5.12143,37.9361 -7.66542,56.91084 13.3337,4.44899 26.28793,9.31369 39.07467,14.32139 7.48689,2.8207 14.43832,6.1796 22.18174,8.7276 -13.63485,-1.1172 -26.63371,2.3643 -39.96718,3.3931 -18.45503,1.8054 -37.43447,-1.131 -53.47952,-6.7587 -15.09652,-5.25981 -28.55285,-12.09349 -40.98265,-19.46535 -1.40589,0.3339 -2.75598,0.73586 -4.11724,1.12415 -0.82567,-16.86955 -1.09346,-33.75267 -1.65135,-50.62222 z"
       id="path89"
       inkscape:connector-curvature="0"
       style="fill:#feddae" />
    <path
       d="m 292.13036,931.50978 c 0.27895,-0.41562 0.848,-1.24679 1.1381,-1.6625 28.20695,3.07964 56.7598,4.90561 85.37959,5.68228 -1.09346,15.52727 -2.65544,31.05472 -3.40313,46.58887 -1.04883,-0.25886 -2.08651,-0.49066 -3.12419,-0.70173 -13.19969,7.84197 -27.57096,15.11164 -43.88368,20.426 -12.26244,4.0198 -26.09813,6.3976 -40.05655,6.3023 -14.22622,-0.021 -27.70486,-3.1954 -41.71907,-4.1629 16.75903,-6.73827 33.57386,-13.46297 51.259,-19.2746 -1.70715,-17.73483 -3.17998,-35.51058 -5.59007,-53.19772 z"
       id="path91"
       inkscape:connector-curvature="0"
       style="fill:#feddae" />
    <path
       d="m 633.91642,1027.6649 c 4.4966,2.48 9.77425,4.9327 11.44792,8.6868 -3.74892,-2.9365 -7.49794,-5.8663 -11.44792,-8.6868 z"
       id="path95"
       inkscape:connector-curvature="0"
       style="fill:#feddae" />
    <path
       d="m 206.22635,1059.2578 c 14.79526,2.296 29.88063,3.8903 45.13336,4.5171 -15.35315,0.3475 -30.80673,-1.0901 -45.13336,-4.5171 z"
       id="path99"
       inkscape:connector-curvature="0"
       style="fill:#feddae" />
    <path
       d="m 478.07534,191.32101 c 3.90523,-0.70176 7.95552,-1.17869 11.99465,-1.53297 4.46312,0.35428 8.92625,0.83802 13.3559,1.40352 5.73512,1.78506 11.87192,3.50199 15.29737,7.03125 5.79101,-2.5754 11.62644,-5.10992 17.41746,-7.67851 1.00409,-0.34066 2.40997,-1.27407 3.55923,-0.5178 1.35009,0.74264 -0.0223,1.5466 -1.07115,1.97583 -5.82449,2.65716 -11.86076,5.13035 -17.59588,7.84202 0.79221,1.83276 1.36126,3.69277 1.89683,5.56641 7.46469,-1.49891 14.52748,-3.75409 21.94742,-5.38245 2.05304,-0.4156 3.04609,1.63517 0.85915,1.94858 -7.24142,2.01672 -14.72842,3.69958 -21.96984,5.70267 -2.10883,1.75781 -1.14926,4.36728 -3.23577,6.17959 -2.0642,1.67606 -4.01681,3.39981 -6.2929,4.96004 -3.51471,1.26044 -7.08532,2.49363 -10.7896,3.51562 -4.45197,0.54506 -8.94857,1.04923 -13.45644,1.37627 -4.05028,-0.32022 -8.08941,-0.8244 -11.99465,-1.50573 -3.39186,-1.04923 -6.77268,-2.13253 -10.01972,-3.31803 -2.5885,-1.66925 -4.73091,-3.59057 -6.90657,-5.4574 -1.45052,-2.12572 -2.48819,-4.38771 -3.24692,-6.64289 0.7922,-2.13254 1.7964,-4.23783 2.91218,-6.31586 2.00841,-1.92814 4.44082,-3.68596 6.86206,-5.42333 3.30271,-1.41033 6.94016,-2.53452 10.47719,-3.72683 z"
       id="path107"
       inkscape:connector-curvature="0"
       style="fill:#0c0a00" />
    <path
       d="m 263.70025,190.42848 c 1.4282,-0.007 2.47704,0.66769 3.62629,1.11056 5.82438,2.53451 11.50371,5.21892 17.47314,7.62399 2.37661,-1.78507 5.80206,-2.75254 9.00435,-3.89035 4.51892,-1.92133 10.2094,-2.13936 15.47589,-2.76617 4.48544,0.36792 8.95973,0.87891 13.40054,1.45122 3.79365,1.17187 7.57615,2.43913 11.05739,3.93123 3.0684,2.51408 7.43111,4.78288 7.74352,8.12136 2.08652,3.39299 0.40169,6.87454 -0.93725,10.23347 -2.07536,2.09165 -4.56355,4.05386 -7.11869,5.93431 -3.52587,1.24001 -7.05174,2.51408 -10.76729,3.52244 -4.42965,0.58594 -8.90393,1.04924 -13.37822,1.41715 -4.05028,-0.37473 -8.11173,-0.83802 -12.02812,-1.55342 -3.38082,-1.04242 -6.71701,-2.14616 -9.96393,-3.31803 -2.29862,-1.36265 -3.88292,-3.10002 -5.88017,-4.60574 -2.29851,-1.71693 -2.58861,-4.00618 -3.6486,-6.04334 -6.10333,-1.79869 -12.51907,-3.16133 -18.65587,-4.8987 -2.08651,-0.32704 -0.94841,-2.39826 1.08231,-1.91452 5.74627,1.34221 11.35865,2.89562 17.0603,4.31277 1.5063,-2.8343 2.09756,-5.94113 5.47848,-8.25082 -6.46037,-2.73891 -12.82032,-5.55959 -19.15796,-8.4007 -1.33894,-0.47011 -1.55094,-1.69649 0.13389,-2.01671 z"
       id="path109"
       inkscape:connector-curvature="0"
       style="fill:#0c0a00" />
    <path
       d="m 377.26449,266.87286 c 18.5666,-0.9811 37.24478,-0.96066 55.85601,-0.44286 8.79236,0.3611 17.70746,0.65407 26.2655,2.05078 2.3543,0.3066 4.88712,1.28089 4.95396,2.91606 -0.10042,3.22948 -3.3585,5.98883 -6.33753,8.4961 -8.33489,6.39081 -19.25839,11.58248 -31.65483,14.6825 -13.7018,3.52243 -29.69094,2.29605 -42.7679,-1.66924 -14.71716,-4.25827 -26.44402,-13.29261 -26.37708,-23.53969 6.27081,-1.76463 13.27791,-2.04397 20.06187,-2.49365 z"
       id="path117"
       inkscape:connector-curvature="0"
       style="fill:#404040" />
    <path
       d="m 242.85745,296.95325 c 0.53558,-0.0749 1.59557,-0.21802 2.13115,-0.28615 7.98899,4.05386 15.29736,8.61873 23.62109,12.44095 20.4969,9.5862 43.7721,16.87636 68.34161,21.67968 9.31678,1.43759 18.43271,3.46793 28.06191,4.0675 16.16767,2.09847 32.7705,1.83957 49.21711,1.76462 37.12205,-1.40352 73.49664,-8.80269 104.78304,-21.05287 13.67948,-5.17123 25.7076,-11.72555 37.57963,-18.27988 0.52442,0.0886 1.57325,0.26571 2.10883,0.35429 -5.53439,2.44595 -11.1355,5.0486 -15.8219,8.15543 -24.15666,12.2093 -52.28551,21.76145 -82.77971,26.46257 4.0726,3.24991 1.28315,7.61037 2.05304,11.37808 -9.09362,3.48837 -19.88323,4.50355 -30.15957,5.95476 -19.40344,2.5754 -39.15277,4.40816 -59.04716,4.29915 -8.66962,-0.0137 -17.81903,0.32022 -25.85265,-2.00302 -0.5021,-4.76926 -0.17853,-9.55895 -0.36821,-14.33502 -0.16737,-1.66243 0.88147,-3.21585 1.84104,-4.72839 -7.34184,-0.27253 -14.44937,-1.79187 -21.19985,-3.49518 -22.58342,-4.42179 -43.09148,-12.13435 -61.95934,-20.7599 -4.57471,-1.98946 -8.41299,-4.44904 -12.34054,-6.87454 -3.87188,-1.23326 -6.30428,-3.59064 -10.20952,-4.74208 z"
       id="path121"
       inkscape:connector-curvature="0"
       style="fill:#fad490" />
    <path
       d="m 472.84232,360.55471 c 1.79641,-0.77671 4.06145,-0.41561 6.1146,-0.42242 22.1371,0.75627 43.97283,3.97893 64.50321,9.04115 20.74238,5.28025 40.56981,12.91788 54.41666,23.89392 6.51617,7.69894 12.25128,15.64316 18.47723,23.4375 40.88223,52.48908 81.76446,104.97136 122.6467,157.46045 1.19377,1.67605 3.02376,3.25672 3.38081,5.12354 -14.75063,8.74137 -20.77585,22.14298 -17.22777,34.37954 1.16041,4.57849 3.87187,8.94577 7.17458,13.10183 -19.51501,8.62554 -46.7624,10.69676 -68.70982,4.36728 -8.335,-2.32332 -15.10768,-6.22048 -21.06595,-10.39017 -26.95728,-18.62054 -46.1042,-40.87935 -62.13798,-63.57421 -13.42285,-19.43132 -24.46898,-39.45538 -33.47344,-59.79968 -0.52442,-0.034 -1.58441,-0.0954 -2.10883,-0.12945 7.69889,19.54715 19.01291,38.50835 30.99641,57.19703 1.80756,16.75372 2.57734,33.58239 1.77409,50.37691 -0.55789,8.57786 -1.50631,17.19666 -4.50765,25.60411 -1.67367,4.14244 -3.60408,8.55741 -8.55804,11.73238 -2.91219,1.9077 -7.50921,1.76462 -11.33634,2.43232 -54.49476,8.14861 -111.26572,9.56576 -166.98785,6.35674 -41.89759,-2.24837 -83.33771,-6.83367 -124.43194,-12.21612 -4.94292,-0.78352 -10.74498,-0.39516 -14.75064,-2.66397 -5.37806,-3.07276 -6.25953,-7.89652 -6.70584,-12.14117 -0.79221,-14.94821 6.04753,-29.50807 7.78815,-44.34047 -0.0669,-16.99899 -1.37241,-34.01844 -1.22736,-51.00381 10.00856,-12.51589 20.32954,-24.96365 29.86947,-37.62944 2.57746,-3.78134 6.1368,-7.34465 7.96668,-11.2827 -0.45747,-0.12945 -1.36125,-0.3816 -1.81872,-0.51099 -20.49691,28.08411 -43.21422,55.56185 -67.83951,82.37871 -19.45923,20.80758 -39.93382,41.40397 -64.94964,59.92913 -5.71291,4.03342 -11.15782,8.33939 -18.57776,11.26226 -4.00566,-7.18795 -12.66412,-12.82249 -20.92091,-18.29351 C 98.92153,592.0816 83.133222,570.83115 67.590387,549.60796 127.55249,493.43973 187.30258,437.18292 247.14194,380.967 c 0.41284,0.18396 1.24968,0.55187 1.66252,0.73583 0.25663,0.96066 0.55789,1.93496 0.83683,2.90925 1.01536,-2.69804 4.32924,-4.81695 5.04334,-7.55587 0.73641,-3.01826 4.22881,-5.47102 8.16752,-7.19477 6.58311,-2.84793 14.39358,-4.3809 22.1371,-5.60728 18.87902,-2.72529 38.37172,-3.62464 57.73064,-3.64508 6.66122,2.49365 12.7757,5.54597 19.67123,7.84884 15.48693,5.64816 33.68544,9.42951 51.89488,7.76708 21.45659,-1.87351 40.36909,-8.91838 58.55632,-15.67029 z"
       id="path149"
       inkscape:connector-curvature="0"
       style="fill:#d8beec" />
    <path
       d="M 1.1457142,668.96218 C 36.705668,651.60889 72.142887,634.16022 107.56895,616.69793 c 12.13971,4.34683 21.22217,12.02534 23.15247,20.60318 2.07535,8.6528 -2.82293,17.52362 -11.40329,24.37773 -12.53023,10.13133 -31.844406,16.66521 -52.095839,18.99527 -16.279251,1.94177 -33.6966,0.9948 -48.70386,-3.44743 -6.527321,-2.03721 -13.1104317,-4.56492 -17.3727168,-8.2645 z"
       id="path181"
       inkscape:connector-curvature="0"
       style="fill:#fedfb3" />
    <path
       d="m 577.78157,621.33773 c 0.23431,-0.0817 0.70294,-0.23847 0.93725,-0.32022 42.29928,88.48341 85.0115,176.89182 127.45572,265.34787 0.94852,2.44597 2.80061,4.77609 3.10187,7.31058 -44.99947,9.72931 -90.34482,19.00887 -136.64975,26.1969 -50.91311,7.93059 -103.05358,13.55829 -155.68499,14.37588 -59.51578,1.17194 -118.88651,-4.06748 -176.76209,-12.2638 -30.29347,-4.04024 -60.10715,-9.25241 -90.02125,-14.19875 3.3585,-11.79369 7.78816,-23.49206 11.5595,-35.25163 26.56675,-79.54441 53.4013,-159.06159 79.80069,-238.62636 1.88567,1.4921 3.61513,3.1954 6.52732,4.02662 4.05028,1.47847 8.94856,1.22638 13.38937,1.96221 51.40406,6.65652 103.41063,12.18885 156.00857,13.49699 47.20871,1.28771 94.76331,-1.32177 140.67772,-8.244 6.57195,-0.23846 10.84539,-3.72002 13.24432,-7.11982 3.64861,-5.29394 5.33344,-11.01705 6.41575,-16.69247 z"
       id="path189"
       inkscape:connector-curvature="0"
       style="fill:#9751cb" />
    <path
       enable-background="new    "
       d="m 376.30491,1010.4954 c 0.18969,-3.0931 1.80757,-6.0228 3.30272,-8.9389 -0.31242,3.0593 -1.32778,6.1047 -3.30272,8.9389 z"
       id="path203"
       inkscape:connector-curvature="0"
       style="opacity:0.73999999;fill:#4e4131" />
    <path
       enable-background="new    "
       d="m 375.32303,1012.2124 c 0.22315,-0.3883 0.66946,-1.1718 0.88146,-1.5601 -0.212,0.3883 -0.65831,1.1718 -0.88146,1.5601 z"
       id="path205"
       inkscape:connector-curvature="0"
       style="opacity:0.75;fill:#483b2c" />
  </g>
</svg>
