<?xml version="1.0" encoding="UTF-8" standalone="no"?>
<!-- Created with Inkscape (http://www.inkscape.org/) -->

<svg
   xmlns:dc="http://purl.org/dc/elements/1.1/"
   xmlns:cc="http://creativecommons.org/ns#"
   xmlns:rdf="http://www.w3.org/1999/02/22-rdf-syntax-ns#"
   xmlns:svg="http://www.w3.org/2000/svg"
   xmlns="http://www.w3.org/2000/svg"
   xmlns:sodipodi="http://sodipodi.sourceforge.net/DTD/sodipodi-0.dtd"
   xmlns:inkscape="http://www.inkscape.org/namespaces/inkscape"
   width="210mm"
   height="297mm"
   viewBox="0 0 744.09448819 1052.3622047"
   id="svg3616"
   version="1.1"
   inkscape:version="0.91 r"
   sodipodi:docname="girl1.svg">
  <defs
     id="defs3618" />
  <sodipodi:namedview
     id="base"
     pagecolor="#ffffff"
     bordercolor="#666666"
     borderopacity="1.0"
     inkscape:pageopacity="0.0"
     inkscape:pageshadow="2"
     inkscape:zoom="0.35"
     inkscape:cx="375"
     inkscape:cy="520"
     inkscape:document-units="px"
     inkscape:current-layer="layer1"
     showgrid="false"
     inkscape:window-width="1355"
     inkscape:window-height="712"
     inkscape:window-x="0"
     inkscape:window-y="0"
     inkscape:window-maximized="1" />
  <metadata
     id="metadata3621">
    <rdf:RDF>
      <cc:Work
         rdf:about="">
        <dc:format>image/svg+xml</dc:format>
        <dc:type
           rdf:resource="http://purl.org/dc/dcmitype/StillImage" />
        <dc:title></dc:title>
      </cc:Work>
    </rdf:RDF>
  </metadata>
  <g
     inkscape:label="Layer 1"
     inkscape:groupmode="layer"
     id="layer1">
    <path
       d="m 489.77667,322.2211 c 1.40611,-0.57053 2.78446,-1.21761 4.13516,-1.89251 23.91306,9.16339 48.0203,18.2224 70.40709,29.41747 11.24886,5.9141 23.34878,12.14131 29.37099,21.77784 4.7271,7.11084 8.64015,14.5 12.5162,21.88916 12.05357,22.95366 24.13508,46.40834 44.46803,66.05711 4.91222,5.0652 10.25903,9.94269 16.66052,13.99204 12.87697,8.55815 28.48282,14.20776 43.70041,19.98972 7.8075,3.08927 16.07763,6.09505 21.90557,11.25773 3.69103,3.21449 5.2173,7.58393 4.69917,11.78639 20.76801,3.22149 37.98348,15.91249 43.50606,31.22658 4.90287,12.71873 1.34153,27.29531 -10.27744,37.37709 -11.13785,9.99143 -29.60225,14.71568 -46.57738,12.36407 -13.32092,-1.74635 -25.55035,-7.31961 -34.07959,-15.18187 -3.14524,4.01462 -5.86495,8.21022 -9.04719,12.20396 -20.44405,-11.7239 -42.57164,-21.65959 -63.1822,-33.21639 -26.235,-14.5487 -51.36916,-31.01786 -69.36177,-51.66848 -0.51814,-2.09429 -1.03608,-4.21646 -0.57355,-6.33849 18.11288,21.70819 43.47831,39.35316 70.78629,54.42366 19.8706,11.15337 40.98061,20.97769 61.05463,31.91534 17.45617,-24.07396 34.94916,-48.14091 52.45149,-72.19385 2.02609,-2.69271 0.90657,-6.10892 -0.93432,-8.69026 -3.95912,-4.98871 -11.10085,-7.74403 -17.59465,-10.50621 -13.97791,-5.54538 -28.59411,-10.388 -41.35074,-17.50587 -6.39223,-3.49284 -12.29418,-7.48644 -17.57633,-11.90475 -12.02592,-11.00027 -22.72907,-22.87714 -30.85119,-35.76986 -13.04349,-19.09216 -21.42453,-39.71501 -33.6078,-59.09241 -3.66328,-6.50551 -10.62906,-11.4525 -17.87227,-15.73153 -25.5225,-14.50704 -54.68062,-24.70712 -82.77519,-35.98568 m 201.43405,258.59968 c 12.19261,12.0091 33.85766,18.40321 53.56166,14.72954 15.15256,-2.70657 27.99263,-11.45243 33.28403,-22.4527 6.32729,-12.64226 3.1729,-27.45541 -7.25264,-38.35133 -8.01102,-8.4954 -20.15729,-14.72954 -33.74657,-16.85858 -15.46708,20.89406 -30.54573,41.96225 -45.84648,62.93307 z"
       id="path21"
       inkscape:connector-curvature="0"
       style="fill:#090a04" />
    <path
       d="m 255.86349,342.53085 c 15.0324,-5.9489 30.49041,-11.37596 44.81975,-18.26416 0.6013,0.61227 1.2396,1.21065 1.92415,1.80207 -0.34228,0.38267 -1.01758,1.14803 -1.35986,1.5307 -4.7271,2.67874 -10.0001,4.73824 -15.19899,6.8395 -19.61149,7.79271 -39.56526,15.1262 -58.74196,23.52423 -13.29326,5.95586 -26.74369,12.02999 -37.88163,20.19146 -7.16929,4.93308 -10.38854,12.01608 -14.37559,18.4729 -14.07032,25.32629 -25.64295,51.91197 -47.14158,74.42029 -5.30065,5.26017 -10.24062,10.78468 -16.54951,15.41158 -12.109167,9.23991 -27.363576,15.62715 -42.673489,21.36038 -8.593903,3.36746 -17.668842,6.30376 -25.060154,11.11849 -4.310827,2.76218 -7.419063,7.16649 -6.096213,11.48732 1.498614,2.12903 2.49769,4.87735 5.66143,5.9488 19.778002,7.84152 32.321863,24.89495 30.582731,41.66318 -0.619797,2.24039 1.267346,4.12598 2.608791,5.99068 4.893529,6.58209 9.48197,13.29627 14.551355,19.80875 19.657739,-11.05588 40.730749,-20.602 60.370089,-31.67875 30.01853,-16.58039 58.15916,-36.26391 76.08702,-61.13098 6.92878,-9.38602 11.16551,-19.78101 18.90835,-28.83995 4.82886,-5.59412 10.57364,-11.08375 18.5014,-14.32612 -0.15726,1.29417 -0.43478,2.58835 -0.5272,3.9034 -12.56254,7.24997 -19.44497,18.3546 -25.52278,29.02779 -13.50602,24.30353 -37.03972,44.64108 -63.61698,61.43717 -26.87329,17.24829 -57.48387,30.68379 -85.846524,46.41531 -5.513419,-7.75103 -11.221103,-15.41844 -16.762274,-23.1486 -1.461611,2.17778 -2.220168,4.58528 -3.663278,6.77693 -3.52461,5.49663 -8.65875,10.46447 -15.217498,14.0964 -2.266422,1.34292 -5.494825,2.08743 -6.392236,4.37644 -5.929608,10.26976 -19.028603,17.56148 -33.311688,20.15669 -30.952948,6.01855 -66.891928,-7.63267 -77.224958,-30.64891 0.49954,0.0202 1.48936,0.0633 1.9889,0.0902 4.6346,9.32341 13.48762,17.35277 24.69947,22.62668 16.3274,7.88326 37.6040143,10.32537 55.938999,5.14181 11.378271,-3.13101 21.313526,-9.58086 26.179396,-18.01365 -14.893632,5.48963 -33.080513,4.59215 -47.4652627,-1.37066 -9.5375723,-3.85464 -17.3820723,-9.8522 -22.8493323,-16.84485 -0.24967,-0.30606 -0.73071,-0.91835 -0.97123,-1.22455 -2.73821,-4.24421 -4.98613,-8.70413 -5.94829,-13.37976 -2.94163,-12.49616 2.05375,-26.18212 14.28318,-35.10897 0.58279,-0.45217 1.17483,-0.90447 1.81313,-1.32891 13.2562603,-9.07295 33.126862,-11.84914 49.963048,-7.34047 -2.63645,-4.07023 -1.480112,-8.96158 1.563462,-12.70473 3.256155,-3.97301 8.519897,-6.67259 13.718792,-9.07295 9.463469,-4.21646 19.574487,-7.52144 29.176716,-11.54306 13.348672,-5.48263 26.086978,-12.21082 35.707708,-21.17253 5.39316,-5.24618 10.77707,-10.51323 15.49493,-16.12809 17.90011,-21.05417 28.55692,-44.89854 41.23029,-67.84522 3.76513,-6.1785 6.97503,-12.81623 13.35811,-17.80495 6.25347,-5.08613 13.73729,-9.18426 21.30427,-13.08757 15.95737,-8.07805 32.94184,-14.91057 49.96304,-21.61092 M 10.61812,533.21566 c -11.02674471,1.16195 -21.424536,5.35053 -28.806686,11.62642 -11.10085,9.39989 -14.93064,23.05812 -10.76782,35.15071 3.95005,12.5379 15.88346,23.51729 31.5449893,28.7912 13.9593097,4.84961 30.9991037,4.75912 44.4866287,-0.9741 13.006395,-5.28792 22.02583,-15.42531 24.190587,-26.37683 C 74.485064,567.23917 66.70513,552.17555 52.274127,542.84514 40.99752,535.46293 25.521002,531.55267 10.61812,533.21566 Z"
       id="path23"
       inkscape:connector-curvature="0"
       style="fill:#090a04" />
    <path
       d="m 519.99881,992.50532 c 16.83637,-1.82297 33.48763,-4.54353 50.40708,-5.94892 2.59019,1.77421 5.12489,3.60417 7.65958,5.448 3.22849,2.98491 6.5309,5.93494 9.36171,9.1564 2.93247,4.0494 6.41989,8.7808 4.31083,13.498 -2.47928,3.9173 -8.06671,5.8863 -12.96024,7.7371 -8.33488,2.8319 -17.1508,4.8218 -26.09632,6.1785 -14.83804,2.2404 -30.17579,3.8547 -45.2636,2.1707 -13.1545,-1.7046 -24.9954,-6.7142 -36.17025,-11.9742 -12.23868,-6.1716 -24.20908,-12.8024 -34.3386,-20.90118 27.77976,-0.85587 55.55047,-2.40051 83.08981,-5.3644 z"
       id="path45"
       inkscape:connector-curvature="0"
       style="fill:#251a11" />
    <path
       d="m 204.75336,991.91391 c 26.05923,1.16881 52.17397,0.49392 78.26104,0.50793 7.77975,0.38969 15.50408,1.24543 23.26542,1.82983 13.33952,1.25242 26.78088,1.62811 40.1388,2.65096 -8.60306,6.70727 -18.67707,12.22487 -28.82509,17.52657 -9.59308,4.8218 -19.7596,9.1633 -30.74943,11.8977 -8.89918,2.2404 -18.3904,2.338 -27.65951,2.157 -12.89557,-0.8698 -25.7077,-2.4144 -38.15915,-5.0791 -7.36365,-1.8508 -14.81037,-3.799 -21.29512,-7.0691 -3.38575,-1.7186 -6.54033,-4.3903 -6.15171,-7.6675 0.57345,-6.4638 6.10537,-11.82132 11.17475,-16.75429 z"
       id="path47"
       inkscape:connector-curvature="0"
       style="fill:#251a11" />
    <path
       d="m 376.4279,-0.02825227 c 20.08328,-1.80205243 40.52724,-1.07149313 60.35159,1.87860347 17.15071,2.5743813 34.04249,6.5890106 49.50051,12.8231768 32.30336,12.788395 58.24242,33.494729 76.51256,57.074634 0.23127,-0.06962 0.70305,-0.21569 0.94357,-0.285268 0.11101,0.38964 0.34228,1.175866 0.46253,1.565504 2.91398,4.83565 6.63276,9.386032 9.51898,14.249514 18.30705,29.459228 27.25257,62.292958 25.0879,94.799688 -0.84181,13.17107 -4.0334,26.20297 -8.94543,38.84526 -6.49399,0.7097 -13.05274,0.93234 -19.53748,1.62811 -0.25902,0.32006 -0.76781,0.96017 -1.02683,1.28024 -0.35152,-0.26439 -1.04533,-0.78623 -1.39685,-1.05063 -0.7494,0.0209 -2.26652,0.0765 -3.02498,0.0973 0.23126,-0.35485 0.68455,-1.05758 0.90657,-1.41242 7.45615,-0.78625 14.99548,-1.12021 22.4792,-1.82294 11.7854,-29.38965 11.31361,-61.02666 2.33118,-90.81289 -8.49224,-28.3738 -25.08791,-55.550874 -49.58386,-78.135811 -22.15534,-20.476733 -51.9611,-36.68835 -85.94819,-43.9244333 -36.11474,-8.1475517 -75.58758,-8.718087 -111.59122,0.034737 -34.06118,7.8066186 -64.86593,22.8423716 -89.35263,42.1919436 -12.39585,10.074861 -24.09799,21.082063 -30.71233,34.016558 -6.66976,12.565746 -10.09252,25.938576 -12.60871,39.290546 -3.13599,19.03647 -3.321,38.36518 -0.20352,57.41557 3.44126,18.04847 9.11195,36.63965 23.73731,51.58494 2.6642,3.0336 7.14154,5.15571 8.53839,8.78071 -8.6679,-5.04439 -14.60685,-12.30134 -19.39872,-19.60005 -0.43487,-0.70273 -0.81406,-1.40547 -1.20259,-2.10125 -7.40981,-11.87692 -10.96208,-24.87403 -13.45052,-37.78767 -3.42276,-19.56526 -3.10824,-39.45058 0.17585,-59.0089 2.68271,-14.22168 6.494,-28.471196 14.03323,-41.732722 1.60962,-2.957058 3.76513,-5.712336 5.4025,-8.662433 l 0.6012,-0.93234 c 0.77716,-0.758393 1.73914,-1.391556 2.45144,-2.205615 10.05551,-11.535992 22.52546,-21.826545 36.30901,-30.899475 30.3979,-19.913159 68.42745,-33.6478047 108.64034,-37.1823598 z"
       id="path53"
       inkscape:connector-curvature="0" />
    <path
       d="m 305.9838,291.87129 c 1.58187,0.75144 3.10824,1.55854 4.71786,2.31693 -6.02221,1.89251 -12.17392,3.85462 -17.14155,7.11085 -2.57161,1.71857 -5.04164,4.02159 -4.84737,6.76296 0.43488,3.28407 3.93155,5.68451 7.2803,7.52825 9.1582,4.71737 19.97236,7.13867 30.61992,9.21216 21.75756,3.91026 44.19977,5.32965 66.53096,5.50359 21.42463,0.0697 42.92326,-1.11324 63.95936,-4.27207 9.60223,-1.52375 19.16746,-3.42322 28.17764,-6.40116 5.63377,-1.99688 11.57263,-4.20944 15.30066,-8.11972 2.04441,-2.08037 2.25727,-5.107 0.28687,-7.25696 -3.62628,-4.07724 -9.66708,-6.42202 -15.46727,-8.34932 -0.24977,-1.64204 2.69195,-1.75336 4.04256,-2.60917 5.66143,2.28215 11.53572,4.80086 15.1619,8.93378 2.71055,2.94314 2.99723,7.03432 0.63839,10.15141 -2.51628,3.5067 -7.00288,5.82365 -11.33211,7.94577 -1.3507,0.6749 -2.72905,1.32198 -4.13516,1.89251 -2.49769,0.48705 -5.00454,1.11325 -7.16004,2.1917 -4.6161,9.97746 -8.76967,21.06814 -20.12028,28.01896 -8.27938,4.84261 -18.66783,7.06214 -28.85285,8.36324 -5.71703,0.6262 -11.57263,1.16196 -17.31731,0.57055 -2.30343,-0.19483 -2.43294,-2.95009 -0.18511,-3.33278 11.81315,0.4732 23.76515,-1.05758 34.69938,-4.45993 5.75394,-1.8299 11.04544,-4.6478 14.69012,-8.51632 5.57817,-5.80974 8.51074,-12.71882 11.65589,-19.40523 -19.03795,4.62691 -39.03797,6.57509 -58.94548,7.6118 -27.90937,1.23152 -56.08701,0.37572 -83.5801,-3.5763 -9.38021,-1.52376 -18.88994,-3.0475 -27.66885,-6.03239 -2.25708,-1.26632 -2.50694,1.34285 -1.221,2.2752 3.72803,7.59093 6.68826,15.77328 14.03322,21.95178 3.64487,3.30493 8.99178,5.107 14.28318,6.46376 11.9149,2.83878 24.57902,3.49282 37.00281,2.87356 2.09066,0.25745 2.32193,2.69266 0.33302,3.20059 -3.47826,0.60533 -7.10463,0.50096 -10.6383,0.49399 -11.7854,-0.27135 -23.82056,-1.44721 -34.59763,-5.23919 -8.5754,-2.79008 -14.15348,-8.93378 -17.97402,-15.09838 -2.76596,-4.19553 -4.17207,-8.80158 -6.96578,-12.97625 0.34227,-0.38267 1.01757,-1.14803 1.35985,-1.5307 -0.68455,-0.59142 -1.32276,-1.1898 -1.92415,-1.80207 -0.85106,-1.25936 -1.05458,-2.92923 -2.8308,-3.65284 -5.05089,-2.31694 -10.31454,-5.0096 -12.73822,-9.23992 -1.9704,-3.27712 -0.88807,-7.20826 2.03525,-9.96353 4.74542,-4.5991 11.90547,-7.22913 18.83424,-9.53911 z"
       id="path55"
       inkscape:connector-curvature="0" />
    <path
       d="m 528.4632,419.92916 c 1.48011,-0.13924 2.98798,-0.27133 4.50509,-0.40356 4.38484,25.72981 8.80667,51.45276 13.18225,77.18257 0.38853,2.21266 0.48104,4.52954 1.8964,6.55422 -0.46254,2.12216 0.0555,4.2442 0.57354,6.33849 1.43377,11.82126 3.9223,23.55904 5.78169,35.35256 3.06189,18.00665 6.17013,36.02031 9.2137,54.03396 0.17567,2.99892 3.41342,5.05833 5.43941,7.4311 21.51714,23.38506 38.25166,49.05912 52.44214,75.35961 12.05367,22.39695 22.09993,45.37859 30.95295,68.59667 15.18031,40.65434 26.52167,82.15055 33.27478,124.07806 3.76494,23.99047 6.12396,48.17565 5.04163,72.34696 -0.14792,3.71541 -0.79556,7.42382 -0.5087,11.16024 0.26818,5.63573 -0.99917,11.87701 -6.45699,16.08633 -4.93997,4.27908 -12.28493,6.36638 -19.45423,7.57706 -12.47919,2.03868 -25.31917,2.09429 -38.02038,2.46298 -18.66801,0.43144 -37.37284,0.77925 -55.92059,2.46999 -16.91945,1.40539 -33.57071,4.12595 -50.40708,5.94892 -27.53934,2.96389 -55.30995,4.50853 -83.08972,5.3644 -14.28318,0.23659 -28.56617,0.51492 -42.84935,0.22972 -15.90186,0.0902 -31.75766,-0.835 -47.64112,-1.19681 -13.35792,-1.02285 -26.79928,-1.39854 -40.1388,-2.65096 -7.76134,-0.5844 -15.48567,-1.44014 -23.26542,-1.82983 -26.08707,-0.0134 -52.20181,0.66088 -78.26104,-0.50793 -21.19326,-1.10633 -43.30244,-2.51873 -62.28497,-10.33936 -15.80946,-6.47773 -26.14249,-18.39635 -32.12769,-30.85763 -0.36078,-0.83499 0.0463,-1.68387 0.17567,-2.49798 1.39685,-6.25502 1.89639,-12.59352 2.80296,-18.89027 3.77429,-30.3567 9.89825,-60.55344 18.65867,-90.32588 24.49586,-83.76466 68.90848,-163.98761 128.29789,-237.11396 2.65496,-2.6857 1.45246,-6.19941 1.80398,-9.29553 0.86948,-38.26084 1.72063,-76.52855 2.59936,-114.7894 0,-2.01781 0.39787,-4.08423 -0.40694,-6.03928 0.0925,-1.31505 0.36994,-2.60923 0.5272,-3.9034 0.55504,-14.04078 0.64755,-28.08857 1.06383,-42.12936 1.52636,-0.0134 3.05264,-0.0283 4.62535,-0.0283 -1.39686,58.62613 -2.63645,117.25238 -4.07956,175.87864 10.95283,5.52437 23.7188,8.53715 36.32751,11.16023 20.55506,4.09124 41.64666,6.51248 62.75677,8.29369 26.39225,2.05943 52.94177,3.08927 79.47278,2.79707 24.27385,-0.15311 48.62179,-1.30817 72.52551,-4.57828 14.91213,-2.22653 30.36072,-4.82875 42.99727,-11.52207 C 549.83232,545.12674 538.9905,482.54162 528.4632,419.92863 M 122.2556,900.80879 c -3.03423,16.38554 -4.57919,32.91019 -7.27105,49.30973 5.35606,10.83328 14.07957,21.31163 27.52084,27.3928 9.1951,4.39031 19.87051,6.65858 30.48106,8.23108 15.26366,2.11517 30.81418,2.80393 46.31836,3.10313 21.0361,0.43829 42.09986,0.27132 63.1452,-0.035 25.31002,-121.62893 50.73095,-243.24388 76.02237,-364.87968 -21.0731,-2.00381 -42.14629,-4.52254 -62.55325,-9.02421 -11.2396,-2.49786 -22.47921,-5.49663 -32.21085,-10.51321 -73.28425,90.17291 -123.2843,191.46418 -141.45268,296.41524 m 443.44168,-292.0247 c -1.54487,1.49589 -3.80204,2.40737 -5.82794,3.46495 -8.81583,4.09811 -18.79734,6.46372 -28.77894,8.37718 -19.0842,3.49283 -38.66784,5.0792 -58.23317,6.0323 25.23591,119.55551 50.7216,239.08316 75.86501,358.65241 29.82426,-4.00761 60.18498,-4.28594 90.37002,-5.05832 12.71047,-0.68176 26.4201,-0.74438 37.5671,-6.00456 6.62351,-3.18662 9.34331,-9.28852 9.03794,-14.98 -0.5272,-4.63391 0.39787,-9.2538 0.49954,-13.88082 0.95282,-22.68229 -1.2766,-45.37159 -4.62535,-67.90092 -7.73359,-48.6627 -21.32287,-96.80347 -40.47183,-143.64333 -18.27004,-43.72261 -40.97127,-86.98603 -75.40238,-125.05889 m -202.60889,15.56454 c -25.28217,121.60094 -50.76786,243.16726 -75.96677,364.77519 71.19341,6.55421 143.40439,7.68142 214.73656,1.64898 14.19058,-1.25242 28.3164,-2.87352 42.37756,-4.80085 -25.33767,-119.71536 -50.67535,-239.43097 -76.05937,-359.14633 -35.05091,1.19668 -70.21292,0.36868 -105.08798,-2.47699 z"
       id="path57"
       inkscape:connector-curvature="0" />
    <path
       d="m 343.46765,6.804295 c 36.00364,-8.7528817 75.47648,-8.1823465 111.59122,-0.034737 33.98709,7.2360838 63.79285,23.4477008 85.94819,43.9244338 24.49595,22.584937 41.09162,49.762018 49.58386,78.135808 8.98243,29.78624 9.45422,61.42323 -2.33118,90.81289 -7.48382,0.70272 -15.02314,1.0367 -22.4792,1.82293 -0.22202,0.35485 -0.67531,1.05757 -0.90657,1.41243 -12.96949,29.23657 -40.62909,54.35414 -75.43023,70.41965 -1.35061,0.8558 -4.29233,0.96712 -4.04256,2.60916 -0.30527,-0.0765 -0.91582,-0.22266 -1.221,-0.2992 -33.46914,14.24953 -73.42283,19.5444 -111.39696,15.11926 -21.86866,-2.41435 -42.98802,-8.21018 -62.08147,-16.53864 -1.60962,-0.7584 -3.13599,-1.56549 -4.71786,-2.31694 -18.95469,-9.13555 -35.70771,-20.92202 -48.81595,-34.70537 -5.59668,-5.28792 -9.69474,-11.3203 -14.30159,-17.08135 -1.39686,-3.625 -5.8742,-5.74711 -8.5384,-8.78071 -14.62545,-14.94529 -20.29613,-33.53648 -23.7373,-51.58493 -3.11749,-19.0504 -2.93247,-38.3791 0.20351,-57.41558 2.51619,-13.35196 5.93895,-26.724798 12.60871,-39.290545 6.61425,-12.934497 18.31639,-23.941697 30.71233,-34.016558 24.48652,-19.349572 55.29136,-34.385325 89.35245,-42.1919441 M 382.80164,131.09108 c -19.37107,5.82366 -39.13982,10.875 -58.96398,15.7385 -22.31279,5.29486 -44.72724,10.40882 -67.53938,14.33301 -8.5754,1.42634 -17.21565,2.80398 -26.00382,3.2284 -0.98048,-0.63316 -1.96115,-1.2524 -2.93238,-1.86468 -4.98613,27.18402 1.9889,55.52304 19.38947,79.63174 17.1323,23.67033 43.99644,43.33997 76.14263,55.29343 38.03889,14.25648 83.17297,17.19266 123.98707,8.33542 31.98903,-6.82558 61.01773,-20.99162 82.75688,-39.86806 26.93805,-23.00936 42.7104,-53.46355 42.7475,-84.15429 -23.43203,-4.96089 -46.30893,-11.27158 -68.96399,-17.95105 -16.26273,-5.14179 -32.56247,-10.28359 -48.04806,-16.67779 -16.81787,-6.87429 -33.41353,-14.60436 -46.41077,-25.33327 -8.17781,3.90333 -17.262,6.5125 -26.16117,9.28864 z"
       id="path61"
       inkscape:connector-curvature="0"
       style="fill:#756a54" />
    <path
       d="m 185.21588,57.199458 c 9.14894,-2.817907 19.87051,-1.871643 28.24239,1.982961 6.10547,2.831816 11.59113,6.561178 15.56894,11.076778 l -0.60121,0.932341 c -4.27382,-3.158827 -7.89085,-6.860368 -12.95098,-9.358212 -8.27947,-4.65474 -19.66699,-6.366357 -29.38948,-3.395389 -11.9149,3.555426 -20.4348,11.41075 -26.68828,19.544392 -10.15736,13.588534 -15.44876,28.944341 -17.99271,44.327981 -2.81212,17.67971 -2.0629,35.7073 2.61805,53.17132 3.38566,12.14828 8.69556,24.14348 17.42832,34.74017 5.54117,6.54031 12.62721,12.69098 22.05368,16.12813 6.54033,2.47696 14.32933,2.95704 21.35986,1.41938 5.9297,-1.32198 11.2027,-3.9729 15.71695,-7.11085 0.90666,-0.5914 1.54486,-1.36373 1.68372,-2.27519 0.38853,0.69577 0.76781,1.39852 1.20259,2.10124 -6.76236,5.16267 -15.63369,9.3095 -25.50428,9.53216 -9.56522,0.41051 -18.74192,-2.93619 -25.6522,-7.73009 -6.0037,-3.90331 -10.36078,-8.93378 -14.67161,-13.88077 -3.78354,4.87742 -9.20454,9.74786 -16.87328,11.00721 -7.65958,1.18283 -14.73646,-2.64396 -19.11195,-7.01344 -8.33489,-8.43977 -12.46995,-18.72336 -15.25441,-28.89563 -4.37558,-16.94915 -4.71786,-34.44795 -1.58187,-51.53625 2.35884,-11.58469 6.13321,-23.33637 14.55135,-33.348618 3.79279,-4.452967 9.27846,-8.71112 16.53101,-9.580851 4.70861,-0.598365 9.16745,1.092368 12.98789,2.977936 2.50704,-5.420106 5.72628,-10.659321 9.59307,-15.599342 6.37365,-8.008398 14.90279,-15.703697 26.73444,-19.217367 m -59.23215,37.398039 c -6.79011,5.232247 -10.63831,12.127393 -13.68179,18.959933 -5.34691,12.69098 -7.53933,26.03599 -7.71509,39.31143 0.009,15.64108 2.29418,31.51175 9.64839,46.23441 2.88622,5.71234 6.72526,11.3551 12.72897,15.58541 3.87613,2.73442 9.50972,4.39036 14.77337,3.11709 6.73451,-1.69073 11.45237,-6.1785 14.72712,-10.71497 -2.61795,-4.82869 -5.99446,-9.51823 -8.13137,-14.5348 -11.07309,-24.52616 -12.81222,-51.13964 -7.58558,-76.63988 1.45227,-7.72313 4.46809,-15.18883 7.25256,-22.668435 -2.81222,-1.335891 -5.76319,-2.776156 -9.17661,-2.894429 -4.87521,-0.173949 -9.52831,1.662911 -12.83997,4.244241 z"
       id="path63"
       inkscape:connector-curvature="0"
       style="fill:#120d07" />
    <path
       d="m 586.66871,58.584051 c 8.02027,-1.836847 16.95654,-0.911468 24.2275,2.177782 8.33489,3.381478 14.72712,8.857253 19.94461,14.701781 3.9223,-1.934258 8.79733,-3.228403 13.48752,-2.15691 7.49307,1.572451 12.5162,6.540305 16.22574,11.396843 6.82702,9.399948 10.36078,19.940973 12.47919,30.475053 3.28391,16.87956 3.06189,34.1905 -0.88816,51.00047 -2.5716,10.27665 -6.41064,20.66461 -14.13498,29.47315 -4.25541,4.96089 -11.20269,9.12165 -19.43572,8.8155 -5.37475,8.75983 -12.59021,17.26919 -23.03425,23.07198 -6.96578,3.9033 -15.83721,6.06022 -24.53287,5.07222 -8.34413,-0.86276 -15.80945,-4.39731 -21.7114,-8.78071 0.25902,-0.32007 0.76781,-0.96018 1.02683,-1.28024 6.57725,5.20441 15.69845,9.04511 25.45794,8.85726 8.47355,-0.0138 16.3644,-3.13796 22.51621,-7.34742 11.24885,-7.6953 18.15913,-18.22936 23.34877,-28.81911 6.79002,-14.70177 9.98151,-30.27327 10.40704,-45.80998 0.61055,-17.7632 -2.28492,-35.67948 -9.66698,-52.593813 -4.69945,-9.984412 -10.79557,-19.871418 -20.46256,-27.712831 -5.55967,-4.494716 -12.5162,-8.363243 -20.65691,-9.57389 -7.90926,-1.349812 -16.37374,0.160025 -23.06191,3.506709 -5.50426,2.595254 -9.89834,6.241128 -14.00556,9.970503 -0.12026,-0.389638 -0.35153,-1.175864 -0.46254,-1.565504 5.75385,-5.809745 13.58919,-10.756728 22.93249,-12.878843 m 45.29135,18.131965 c 13.7373,16.782148 19.38947,36.556144 21.47088,55.989214 1.67447,19.71137 -0.37928,39.79151 -8.21462,58.71667 -1.3506,3.99375 -3.97771,7.67443 -5.35607,11.64731 5.15255,-0.13223 9.88891,-2.0595 13.20066,-4.98873 7.84469,-6.60293 11.74849,-15.21665 14.78272,-23.62165 5.50417,-16.30206 6.52165,-33.31381 4.81962,-50.03336 -1.72063,-12.96929 -4.89363,-26.126432 -12.83998,-37.836375 -3.14524,-4.341652 -7.07679,-8.725047 -13.01583,-11.111571 -4.71786,-1.906425 -10.79557,-1.342851 -14.84738,1.238492 z"
       id="path65"
       inkscape:connector-curvature="0"
       style="fill:#120d07" />
    <path
       d="m 186.08545,58.437937 c 9.72248,-2.970968 21.11001,-1.259351 29.38948,3.395389 5.06013,2.497844 8.67716,6.199385 12.95098,9.358212 -1.63737,2.950096 -3.79288,5.705374 -5.4025,8.662433 -7.53923,13.261519 -11.35052,27.511049 -14.03323,41.732729 -3.284,19.55832 -3.59852,39.44362 -0.17585,59.00889 2.48853,12.91364 6.04071,25.91075 13.45052,37.78768 -0.13876,0.91146 -0.77706,1.68379 -1.68372,2.27519 -4.51425,3.13795 -9.78724,5.78887 -15.71694,7.11085 -7.03054,1.53766 -14.81953,1.05758 -21.35987,-1.41938 -9.42638,-3.43715 -16.51251,-9.58782 -22.05368,-16.12813 -8.73275,-10.59669 -14.04266,-22.59189 -17.42832,-34.74017 -4.68095,-17.46402 -5.43016,-35.49161 -2.61804,-53.17132 2.54394,-15.38364 7.83534,-30.739447 17.99271,-44.327981 6.25375,-8.133642 14.77355,-15.988966 26.68846,-19.544392 z"
       id="path67"
       inkscape:connector-curvature="0"
       style="fill:#756950" />
    <path
       d="m 578.20423,63.057895 c 6.68826,-3.346684 15.15265,-4.856521 23.06191,-3.506709 8.14062,1.210647 15.09724,5.079174 20.65691,9.57389 9.66698,7.841413 15.7631,17.728419 20.46255,27.712831 7.38206,16.914333 10.27753,34.830613 9.66699,52.593813 -0.42553,15.53671 -3.61703,31.10821 -10.40704,45.80998 -5.18965,10.58975 -12.09992,21.12381 -23.34878,28.81911 -6.15171,4.20946 -14.04265,7.33349 -22.51621,7.34742 -9.75949,0.18785 -18.88068,-3.65285 -25.45793,-8.85726 6.48474,-0.69577 13.04349,-0.91841 19.53748,-1.62811 4.91203,-12.64229 8.10362,-25.67419 8.94543,-38.84526 2.16467,-32.50673 -6.78085,-65.34046 -25.0879,-94.799688 -2.88622,-4.863482 -6.605,-9.413864 -9.51898,-14.249514 4.10732,-3.729375 8.5014,-7.375249 14.00557,-9.970503 z"
       id="path69"
       inkscape:connector-curvature="0"
       style="fill:#756950" />
    <path
       d="m 631.96006,76.716016 c 4.05181,-2.581343 10.12952,-3.144917 14.84729,-1.238492 5.93895,2.386524 9.8705,6.769919 13.01583,11.111571 7.94635,11.709943 11.11934,24.867085 12.83997,37.836375 1.70213,16.71955 0.68456,33.7313 -4.81961,50.03336 -3.03423,8.405 -6.93803,17.01872 -14.78272,23.62165 -3.31175,2.92923 -8.04811,4.85653 -13.20066,4.98873 1.37836,-3.97288 4.00556,-7.65356 5.35607,-11.64731 7.83534,-18.92516 9.88909,-39.0053 8.21462,-58.71667 -2.08132,-19.43307 -7.73349,-39.207066 -21.47079,-55.989214 z"
       id="path71"
       inkscape:connector-curvature="0"
       style="fill:#756950" />
    <path
       d="m 125.98373,94.597497 c 3.31175,-2.58133 7.96485,-4.41819 12.83997,-4.244241 3.41342,0.118223 6.36439,1.558538 9.17661,2.894429 -2.78447,7.479605 -5.80019,14.945305 -7.25256,22.668435 -5.22664,25.50024 -3.48751,52.11372 7.58558,76.63988 2.13701,5.01657 5.51351,9.70611 8.13137,14.5348 -3.27475,4.53647 -7.99261,9.02424 -14.72712,10.71497 -5.26356,1.27327 -10.89724,-0.38267 -14.77337,-3.11709 -6.00371,-4.23031 -9.84275,-9.87307 -12.72897,-15.58541 -7.35431,-14.72266 -9.63914,-30.59333 -9.64839,-46.23441 0.17567,-13.27544 2.36809,-26.62045 7.71509,-39.31143 3.04348,-6.83254 6.89168,-13.727686 13.68179,-18.959933 z"
       id="path73"
       inkscape:connector-curvature="0"
       style="fill:#756950" />
    <path
       d="m 382.80164,131.09103 c 8.89917,-2.77616 17.98327,-5.38532 26.16089,-9.28864 12.99724,10.72889 29.593,18.45897 46.41078,25.33327 15.48567,6.39419 31.78541,11.53599 48.04805,16.67778 22.65507,6.67947 45.53205,12.99017 68.96399,17.95106 -0.037,30.69074 -15.80945,61.14492 -42.7475,84.15428 -21.73915,18.87645 -50.76785,33.04247 -82.75687,39.86806 -40.8141,8.85724 -85.94819,5.92107 -123.98708,-8.33542 -32.14619,-11.95352 -59.01023,-31.62309 -76.14263,-55.29342 -17.40047,-24.10871 -24.3756,-52.44772 -19.38947,-79.63175 0.97123,0.61228 1.9519,1.23152 2.93238,1.86468 8.78817,-0.42441 17.42842,-1.80206 26.00382,-3.2284 22.81214,-3.92419 45.22659,-9.03815 67.53938,-14.33301 19.82453,-4.8635 39.59329,-9.91483 58.96426,-15.73849 m 66.99359,49.74808 c -1.81314,1.47506 -3.49677,3.03359 -5.07864,4.63388 -0.98048,2.06646 -2.01656,4.17467 -2.38668,6.35941 0.6753,1.94123 1.37835,3.89635 2.40518,5.75409 1.52637,1.62811 3.20074,3.17969 4.90287,4.71736 5.34682,2.85964 11.7854,4.64083 18.38115,4.72434 3.13599,-0.39661 6.31823,-0.67491 9.44497,-1.2037 2.94181,-0.93931 5.80019,-2.05951 8.54765,-3.29103 3.12673,-2.637 6.29047,-5.46882 6.51249,-9.1773 5.65218,-1.87861 11.44312,-3.51368 17.15996,-5.26704 0.89741,-0.35485 2.86781,-0.7097 2.16476,-1.78815 -0.34228,-1.24545 -2.27577,-0.45226 -3.2285,-0.21569 -5.27299,1.59333 -10.49039,3.27016 -15.80029,4.77303 -0.29593,-1.85772 -1.50786,-3.75024 -1.19334,-5.56622 4.71795,-2.57438 9.65783,-4.94003 14.32943,-7.57702 1.47086,-0.75143 -0.15726,-2.40738 -1.51711,-1.64899 -5.09714,2.46305 -9.91685,5.24616 -14.96773,7.75792 -3.93155,-4.3834 -10.89733,-6.81861 -17.7336,-7.39611 -7.7519,-1.36373 -15.6706,1.06454 -21.94257,4.41122 m -157.9095,-2.55349 c 5.06013,2.99184 10.66606,5.4688 15.69844,8.47457 -2.78446,1.85772 -2.72895,4.85652 -4.06106,7.28478 -4.7086,-1.36372 -9.33395,-2.90139 -14.06106,-4.22337 -1.71138,-0.36876 -2.46069,1.57942 -0.75865,1.9621 5.08788,1.7951 10.5458,3.01968 15.55977,4.94002 0.87882,3.32581 3.76494,5.87931 6.64191,8.38411 5.36541,2.8527 11.8224,4.64779 18.43675,4.6965 3.09898,-0.39659 6.24422,-0.6749 9.3247,-1.18977 2.96032,-0.93235 5.83729,-2.06646 8.59391,-3.30496 1.88714,-1.63507 3.70953,-3.34668 5.28215,-5.16266 0.66614,-1.8438 1.26734,-3.7085 1.65587,-5.59405 -0.33302,-2.08038 -0.96207,-4.12596 -1.68353,-6.13676 -2.29427,-2.21258 -4.29233,-4.87044 -7.80769,-6.07414 -2.65495,-0.98104 -5.09713,-2.47001 -8.14062,-2.67178 -3.61693,-0.30614 -7.2433,-1.41938 -10.86957,-0.65404 -2.85847,0.47313 -5.90195,0.6123 -8.40889,1.83685 -2.70111,1.25937 -5.9852,2.01777 -7.8075,4.09815 -5.56892,-2.56742 -10.62906,-5.72626 -16.21648,-8.25193 -1.17493,-0.66099 -2.61795,1.03671 -1.37845,1.58638 m 72.72902,70.72578 c -0.31452,5.80278 3.04349,11.58468 8.4829,15.65499 7.48382,6.07413 18.41806,9.23297 29.25072,9.88699 9.84266,0.64708 19.44489,-2.33781 27.36358,-6.52638 6.29048,-3.55543 12.61796,-7.42396 16.38299,-12.73969 0.98067,-1.49593 2.0445,-3.22841 1.43386,-4.92612 -0.98066,-1.88555 -4.07956,-2.00383 -6.29047,-2.46304 -14.05173,-1.82294 -28.38107,-1.80901 -42.5994,-1.7464 -11.3692,0.41747 -23.07134,0.20872 -34.02418,2.85965 z"
       id="path83"
       inkscape:connector-curvature="0"
       style="fill:#feddae" />
    <path
       d="m 578.06547,992.00426 c 3.90379,2.51873 8.03877,5.23917 9.36171,9.15644 -2.83081,-3.22136 -6.13322,-6.17139 -9.36171,-9.15644 z"
       id="path93"
       inkscape:connector-curvature="0"
       style="fill:#feddae" />
    <path
       d="m 221.02535,1023.4047 c 12.45144,2.6648 25.26357,4.2094 38.15915,5.0792 -13.062,0.5011 -26.02223,-1.5585 -38.15915,-5.0792 z"
       id="path97"
       inkscape:connector-curvature="0"
       style="fill:#feddae" />
    <path
       d="m 449.79523,180.83911 c 6.27197,-3.34668 14.19067,-5.77495 21.94266,-4.41122 6.83627,0.5775 13.80205,3.01271 17.7336,7.39611 5.05088,-2.51176 9.8705,-5.29487 14.96773,-7.75792 1.35985,-0.75839 2.98798,0.89756 1.51711,1.64899 -4.6716,2.63699 -9.61148,5.00264 -14.32943,7.57702 -0.31452,1.81598 0.89741,3.7085 1.19334,5.56622 5.30991,-1.50287 10.5273,-3.1797 15.8003,-4.77303 0.95273,-0.23657 2.88622,-1.02976 3.22849,0.21569 0.70305,1.07845 -1.26735,1.4333 -2.16476,1.78815 -5.71684,1.75336 -11.50778,3.38843 -17.15996,5.26704 -0.22201,3.70848 -3.38575,6.5403 -6.51249,9.1773 -2.74746,1.23152 -5.60583,2.35172 -8.54765,3.29103 -3.12674,0.52879 -6.30889,0.80709 -9.44497,1.2037 -6.59575,-0.0835 -13.03433,-1.8647 -18.38114,-4.72434 -1.70223,-1.53767 -3.37651,-3.08925 -4.90288,-4.71736 -1.02682,-1.85774 -1.72988,-3.81286 -2.40518,-5.75409 0.37003,-2.18474 1.40611,-4.29295 2.38668,-6.35941 1.58169,-1.60029 3.26541,-3.15882 5.07855,-4.63388 z"
       id="path111"
       inkscape:connector-curvature="0"
       style="fill:#0c0a00" />
    <path
       d="m 291.88573,178.28562 c -1.23959,-0.54967 0.20352,-2.24737 1.37836,-1.58638 5.58742,2.52567 10.64755,5.68451 16.21648,8.25193 1.82239,-2.08038 5.10638,-2.83878 7.8075,-4.09815 2.50694,-1.22455 5.55042,-1.36372 8.40889,-1.83685 3.62627,-0.76534 7.25264,0.3479 10.86957,0.65404 3.04348,0.20177 5.48576,1.69074 8.14062,2.67178 3.51527,1.2037 5.51342,3.86156 7.80769,6.07414 0.72146,2.0108 1.3506,4.05638 1.68353,6.13676 -0.38853,1.88555 -0.98973,3.75025 -1.65587,5.59405 -1.57262,1.81598 -3.39492,3.52759 -5.28216,5.16266 -2.75671,1.2385 -5.63367,2.37261 -8.5939,3.30496 -3.08048,0.51487 -6.22572,0.79318 -9.32471,1.18977 -6.61425,-0.0487 -13.07124,-1.8438 -18.43674,-4.6965 -2.87697,-2.5048 -5.76319,-5.0583 -6.64191,-8.38411 -5.01388,-1.92034 -10.47189,-3.14492 -15.55978,-4.94002 -1.70213,-0.38268 -0.95273,-2.33086 0.75865,-1.9621 4.72711,1.32198 9.35246,2.85965 14.06107,4.22337 1.3322,-2.42826 1.2766,-5.42706 4.06106,-7.28478 -5.03229,-3.00577 -10.63822,-5.48273 -15.69835,-8.47457 z"
       id="path113"
       inkscape:connector-curvature="0"
       style="fill:#0c0a00" />
    <path
       d="m 364.61475,249.0114 c 10.95284,-2.65093 22.65498,-2.44218 34.02409,-2.85965 14.21833,-0.0626 28.54767,-0.0765 42.59939,1.7464 2.21092,0.45921 5.30991,0.57749 6.29048,2.46304 0.61055,1.69771 -0.45328,3.43019 -1.43386,4.92612 -3.76494,5.31573 -10.09242,9.18426 -16.38299,12.73969 -7.9187,4.18857 -17.52093,7.17346 -27.36358,6.52638 -10.83267,-0.65402 -21.7669,-3.81286 -29.25072,-9.88699 -5.43923,-4.07031 -8.79733,-9.85221 -8.48281,-15.65499 z"
       id="path119"
       inkscape:connector-curvature="0"
       style="fill:#404040" />
    <path
       d="m 293.56011,301.29907 c 4.96763,-3.25623 11.11934,-5.21834 17.14155,-7.11085 19.09345,8.32846 40.2128,14.12428 62.08147,16.53864 37.97413,4.42514 77.92791,-0.86972 111.39696,-15.11925 0.30527,0.0765 0.91582,0.22265 1.221,0.29919 5.80019,1.9273 11.8409,4.27208 15.46726,8.34932 1.9704,2.14996 1.75755,5.17659 -0.28686,7.25696 -3.72803,3.91028 -9.66698,6.12284 -15.30066,8.11972 -9.01019,2.97794 -18.57541,4.87741 -28.17764,6.40116 -21.0361,3.15883 -42.53473,4.34165 -63.95936,4.27207 -22.3312,-0.17394 -44.7734,-1.59333 -66.53096,-5.50359 -10.64756,-2.07343 -21.46172,-4.49473 -30.61992,-9.21216 -3.34875,-1.84382 -6.84543,-4.24425 -7.2803,-7.52825 -0.19418,-2.74137 2.27576,-5.04439 4.84746,-6.76296 z"
       id="path139"
       inkscape:connector-curvature="0"
       style="fill:#ffffff" />
    <path
       d="m 482.61672,324.4128 c 2.1555,-1.07845 4.66235,-1.70465 7.16004,-2.1917 28.09448,11.27856 57.2526,21.47864 82.77538,35.98561 7.2433,4.27904 14.20908,9.22601 17.87227,15.73153 12.18317,19.3774 20.56431,40.00025 33.6078,59.09235 8.12212,12.89285 18.82527,24.76972 30.85119,35.76999 5.28215,4.41817 11.1841,8.41191 17.57633,11.90475 12.75663,7.11774 27.37283,11.96035 41.35073,17.50572 6.49381,2.7622 13.63554,5.51752 17.59466,10.50622 1.84089,2.58135 2.96041,5.99769 0.93432,8.69025 -17.50224,24.05309 -34.99523,48.12004 -52.45149,72.19387 -20.07402,-10.93752 -41.18403,-20.76198 -61.05464,-31.91521 -27.30798,-15.07063 -52.6734,-32.71547 -70.78628,-54.42379 -1.41536,-2.02468 -1.50786,-4.34169 -1.89639,-6.55422 -4.37559,-25.72981 -8.79742,-51.45276 -13.18225,-77.18257 -1.51712,0.13196 -3.02498,0.26432 -4.5051,0.40356 10.5273,62.613 21.36913,125.19812 32.02594,187.80424 -12.63646,6.69332 -28.08514,9.29554 -42.99727,11.52207 -23.90382,3.27009 -48.25167,4.42517 -72.52551,4.57828 -26.53111,0.2922 -53.08053,-0.73764 -79.47279,-2.79707 -21.11001,-1.78121 -42.2017,-4.20246 -62.75676,-8.29369 -12.60871,-2.62308 -25.37477,-5.63587 -36.32751,-11.16023 1.4432,-58.62626 2.6827,-117.25251 4.07956,-175.87864 -1.57271,0 -3.09899,0.0135 -4.62535,0.0283 -0.41638,14.04079 -0.50879,28.08858 -1.06383,42.12936 -7.92776,3.24237 -13.67254,8.732 -18.50141,14.32611 -7.74284,9.05895 -11.97966,19.45394 -18.90834,28.83996 -17.92787,24.86707 -46.0685,44.55059 -76.08703,61.13098 -19.63933,11.07675 -40.71234,20.62287 -60.370084,31.67875 -5.069385,-6.51248 -9.657826,-13.22666 -14.551355,-19.80875 -1.341445,-1.86471 -3.228588,-3.75029 -2.608791,-5.99068 1.739132,-16.76823 -10.804729,-33.82166 -30.582731,-41.66318 -3.16374,-1.07145 -4.162816,-3.81977 -5.66143,-5.9488 -1.322943,-4.32083 1.785293,-8.72514 6.096213,-11.48732 7.391312,-4.81473 16.466158,-7.75103 25.060154,-11.11849 15.309913,-5.73323 30.564322,-12.12047 42.673494,-21.36038 6.30888,-4.6269 11.24885,-10.15141 16.5495,-15.41158 21.49864,-22.50832 33.07127,-49.094 47.14159,-74.4203 3.98714,-6.45681 7.20629,-13.53982 14.37559,-18.47289 11.13784,-8.16147 24.58836,-14.2356 37.88162,-20.19147 19.17671,-8.39802 39.13047,-15.73151 58.74196,-23.52422 5.1989,-2.10126 10.47189,-4.16076 15.199,-6.8395 2.79371,4.17467 4.19982,8.78072 6.96578,12.97625 3.82054,6.1646 9.39862,12.3083 17.97402,15.09838 10.77707,3.79198 22.81223,4.96784 34.59763,5.23919 3.53368,0.007 7.16004,0.11136 10.63831,-0.49399 1.9889,-0.50793 1.75763,-2.94314 -0.33303,-3.20059 -12.42378,0.61926 -25.0879,-0.0348 -37.00281,-2.87356 -5.2914,-1.35676 -10.63831,-3.15883 -14.28318,-6.46376 -7.34496,-6.1785 -10.30519,-14.36085 -14.03322,-21.95178 0.5087,-0.73057 0.91582,-1.48897 1.221,-2.2752 8.77892,2.98489 18.28864,4.50863 27.66885,6.03239 27.49309,3.95202 55.67064,4.80782 83.5801,3.5763 19.90751,-1.03671 39.90753,-2.98489 58.94548,-7.61181 -3.14515,6.68642 -6.07762,13.5955 -11.65589,19.40524 -3.64468,3.86851 -8.93618,6.68642 -14.69011,8.51632 -10.93424,3.40235 -22.88624,4.93306 -34.69939,4.45993 -2.24783,0.38268 -2.11832,3.13795 0.18511,3.33278 5.74468,0.59141 11.60029,0.0556 17.31731,-0.57056 10.18503,-1.30109 20.57357,-3.52062 28.85285,-8.36323 11.35052,-6.95082 15.50409,-18.04151 20.12019,-28.01896 z"
       id="path141"
       inkscape:connector-curvature="0"
       style="fill:#ffffff" />
    <path
       d="m 122.2556,900.80879 c 18.16838,-104.95106 68.16834,-206.24233 141.45249,-296.41511 9.73165,5.01659 20.97125,8.01537 32.21085,10.51322 20.40696,4.50167 41.48016,7.02039 62.55326,9.0242 -25.29143,121.63568 -50.71226,243.25075 -76.02237,364.87956 -21.04535,0.30606 -42.10911,0.47303 -63.1452,0.035 -15.50418,-0.2992 -31.0547,-0.98797 -46.31836,-3.10327 -10.61056,-1.57237 -21.28587,-3.84064 -30.48107,-8.23108 -13.44127,-6.08103 -22.16477,-16.55937 -27.52084,-27.3928 2.69214,-16.39928 4.23701,-32.92405 7.27124,-49.30958 z"
       id="path143"
       inkscape:connector-curvature="0"
       style="fill:#ffffff" />
    <path
       d="m 565.69728,608.78399 c 34.43111,38.073 57.13234,81.33642 75.40248,125.05902 19.14895,46.83986 32.73823,94.98065 40.47182,143.64335 3.34875,22.52932 5.57817,45.21861 4.62535,67.90091 -0.10176,4.62688 -1.02683,9.24692 -0.49954,13.88081 0.30537,5.69148 -2.41443,11.79352 -9.03793,14.98001 -11.14701,5.26017 -24.85664,5.32279 -37.56711,6.00455 -30.18504,0.77238 -60.54585,1.05071 -90.37002,5.05833 -25.1435,-119.56939 -50.62909,-239.0969 -75.86501,-358.65242 19.56524,-0.9531 39.14888,-2.53947 58.23317,-6.03229 9.98151,-1.91345 19.96311,-4.27908 28.77894,-8.37719 2.02581,-1.05771 4.28298,-1.96919 5.82785,-3.46508 z"
       id="path145"
       inkscape:connector-curvature="0"
       style="fill:#ffffff" />
    <path
       d="m 363.08839,624.34853 c 34.87515,2.84581 70.03707,3.67367 105.08798,2.47699 25.38402,119.71549 50.7217,239.43097 76.05937,359.14647 -14.06116,1.92719 -28.18698,3.54842 -42.37756,4.80071 -71.33217,6.03244 -143.54315,4.90537 -214.73656,-1.64898 25.19891,-121.60793 50.6846,-243.17412 75.96677,-364.77519 z"
       id="path147"
       inkscape:connector-curvature="0"
       style="fill:#ffffff" />
    <path
       enable-background="new    "
       d="m 305.77104,325.9296 c -1.28585,-0.93235 -1.03608,-3.54152 1.221,-2.2752 -0.30519,0.78623 -0.71222,1.54463 -1.221,2.2752 z"
       id="path151"
       inkscape:connector-curvature="0"
       style="opacity:0.62000002;fill:#434343" />
    <path
       d="m 691.21072,580.82078 c 15.30066,-20.97082 30.3794,-42.03901 45.84657,-62.93307 13.58919,2.12904 25.73555,8.36318 33.74657,16.85858 10.42554,10.89592 13.57994,25.70907 7.25264,38.35133 -5.2914,11.00027 -18.13147,19.74613 -33.28403,22.4527 -19.70409,3.67367 -41.36914,-2.72044 -53.56175,-14.72954 z"
       id="path177"
       inkscape:connector-curvature="0"
       style="fill:#fedfb3" />
    <path
       d="m 10.61812,533.21566 c 14.902882,-1.66299 30.3794,2.24727 41.655914,9.62948 14.431096,9.33041 22.210937,24.39403 18.991693,38.58792 -2.164757,10.95152 -11.184192,21.08891 -24.190588,26.37683 -13.487524,5.73322 -30.527318,5.82371 -44.4866287,0.9741 -15.6615363,-5.27391 -27.5949363,-16.2533 -31.5449863,-28.7912 -4.16282,-12.09259 -0.33303,-25.75082 10.76782,-35.15071 7.38224,-6.27589 17.77993929,-10.46447 28.806776,-11.62642 z"
       id="path179"
       inkscape:connector-curvature="0"
       style="fill:#fedfb3" />
    <path
       d="m -61.296846,600.34419 c 12.93249,0.1531 26.02223,-2.6857 36.50328,-8.46066 5.46716,6.99265 13.31176,12.9902 22.8493243,16.84484 14.3847507,5.96281 32.5717237,6.86029 47.4652627,1.37066 -4.865869,8.43279 -14.801124,14.88266 -26.179396,18.01366 -18.3349847,5.18356 -39.611601,2.74145 -55.939001,-5.14181 -11.21185,-5.27392 -20.06486,-13.30328 -24.69947,-22.62669 z"
       id="path183"
       inkscape:connector-curvature="0"
       style="fill:#fedfb3" />
  </g>
</svg>
