<?xml version="1.0" encoding="utf-8"?>
<!DOCTYPE svg PUBLIC "-//W3C//DTD SVG 1.1//EN" "http://www.w3.org/Graphics/SVG/1.1/DTD/svg11.dtd">
<svg version="1.1" id="Layer_1" xmlns="http://www.w3.org/2000/svg" xmlns:xlink="http://www.w3.org/1999/xlink" x="0px" y="0px"
	 viewBox="-34 -25.4247 2213 1654.8494" enable-background="new -34 -25.4247 2213 1654.8494" xml:space="preserve">
<g>
	<path fill="#090A04" d="M277.86,3.76c19.1-4.09,38.84-4.49,58.22-2.51c27.29,2.97,53.93,10.16,79.79,19.19
		c13.12,4.13,26.01,9.44,37.36,17.3c16.89,11.4,29.8,27.82,39.42,45.62c10.43,19.34,17.99,40.04,25.44,60.66
		c7.0699,20.1,15.34,39.89,19.6299,60.84c14.66,69.13,15.32,140.54,32.19,209.26c4.6,18.14,10.75,36,20.26,52.2
		c-31.11-5.71-62.13-11.98-93.24-17.75c-9.63,16.42-19.76,32.57-29.11,49.15c9.11,4.11,17.13,10.39,23.76,17.83
		c5.06,5.77,8.62,12.62,13.21,18.75c7.51,10.24,14.55,20.81,21.41,31.49c20.97,32.88,40.41,66.72,59.07,100.95
		c31.32,57.17,60.64,115.42,88.23,174.48c0.22,0.5,0.66,1.51,0.88,2.01c13.93,31.15,28.08,62.34,38.56,94.85
		c7.4,8.03,15.16,16.3,18.75,26.85l0.49,1.59c1.23,6.11,1.79,12.4,0.72,18.58c-2.57,15.69-12.73,29.28-25.41,38.46
		c-19.11,13.72-44.48,19.2501-67.32,12.91c-10.33-2.72-19.79-8.37-27.04-16.21c-4.77,2.83-8.75,6.98-13.26,10.26
		c-6.52-4.8301-10.9-11.84-14.34-19.06c-6.16-13.06-10.19-26.9901-13.94-40.89c-7.89-30.6-13.64-61.69-19.33-92.75
		c-6.89-36.98-13.1-74.11-21.17-110.86c-3.66-15.8-7.07-31.76-12.47-47.07c-8.02,26.94-16.01,53.92-22.43,81.31
		c1.71,1.87,3.66,3.9,3.66,6.63c0.38,7.73,0.03,15.48,0.16,23.23c-0.24,4.28,0.92,9.3-2.05,12.9c-2.5,3.23-6.87,2.97-10.51,3.24
		c-0.57,4.61-1.07,9.22-1.49,13.86c-1.18,10.33,0.19,20.72,1.24,31.01c3.46,27.56,8.9,54.82,14.12,82.08
		c4.79,25.47,10.07,50.9199,12.27,76.77c0.52,9.2899,1.22,19.0199-1.98,27.9399c-1.63,4.78-6.43,7.6801-11.41,7.36
		c4.46,14.5801,2.22,29.86,2.12,44.8c-1.06,42.66-2.13,85.3099-3.19,127.97c-0.48,10.3,0.12,20.7-1.66,30.91
		c-2.69,19.46-7.19,39.28-17.9,56.0399c-2.27,0.9901-4.68,1.6001-7.15,1.77c12.52-16.1699,17.15-36.72,20.14-56.52
		c1.77-9.97,1.5-20.11,1.82-30.1899c1.12-44.65,2.23-89.3,3.35-133.95c0.2-13.7001,2.18-28.0901-2.74-41.17
		c-47-1.15-94.02-2.04-141.02-3.09c-4.97-0.02-9.98-0.5901-14.89,0.2999c-25.98,5.52-52.55,7.8-79.06,8.6
		c-33.98,1.02-68.02-0.5499-101.78-4.5199c-9.04,9.72-22.02,15.6499-35.31,15.9399c-10.99,0.41-21.97-2.61-31.54-7.96
		C89.33,1107.33,90.17,1119.71,90,1132c0,46.02,0,92.04,0,138.0601c0.11,10.9399-0.59,22.0199,1.68,32.7999
		c4.26,21.86,18.5,42.14,38.94,51.6c8.54,3.99,18,5.6901,27.39,5.55c18.34-0.01,36.67-0.02,55,0c16.89-0.1,34.12-1.11,50.16-6.84
		c9.29-3.38,18.22-8.7101,24.22-16.7201c4.81-6.4399,7.24-14.45,7.54-22.4299c0.15-6.3101,3.95-11.77,4.93-17.89
		c-4.07-21.4301-8.52-42.85-10.67-64.58c-2.9-26.28-2.04-52.8201,0.65-79.0801c1.55,0.0801,3.11,0.2001,4.66,0.3401
		c-2.57,25.9299-3.56,52.1499-0.7,78.1c2.26,22.59,7.03,44.83,11.21,67.11c-0.28,9.51-0.2,19.53,4.54,28.12
		c5.28,10.35,15.3,17.22,25.81,21.5c-3.28,0.63-6.43-0.47-9.61-1.0601c-0.32,0.15-0.96,0.4301-1.29,0.5801
		c-13.85-6.6901-22.83-21.3101-24.09-36.4601c-0.66,7.7101-1.51,15.64-5.21,22.6001c-4.68,9.2899-12.82,16.6499-22.23,20.96
		c-15.12,3.78-30.39,6.9299-45.68,9.88c-11.37,1.52-22.86,0.62-34.29,0.86c-10.4,0.03-20.8-0.15-31.2,0.25
		c-13.6-2.95-27.22-5.98-40.48-10.29c-18.15-10.9099-30.23-30.2899-34.46-50.7999C84.53,1293.59,85.05,1282.73,85,1272
		c0-46.34,0-92.6801,0-139.02c0.18-13.58-0.79-27.3099,1.83-40.73c-22.02-14.77-34.83-42.72-30.2-69.03
		c-3.35,1.13-6.7,2.3-10.02,3.53C35.48,990.49,23.3,954.5,14.56,917.56C4.02,873.3-3.7,827.36,2.24,781.84
		C4.45,765.62,9.6,750,14.61,734.48c13.66-39.59,31.36-77.62,49.95-115.1c17.46-35.48,36.44-70.17,54.46-105.35
		c0.55-1.1201,1.49-1.55,2.84-1.28c8.08-11.5,19.69-20.04,32.53-25.53c-8.55-15.01-16.64-30.3-25.38-45.18
		c-29.06,5.63-58.03,11.85-87.04,17.8c4.3-8.46,8.45-17,11.61-25.96c7.52-21.75,12.52-44.27,16.5-66.91
		c8.97-50.72,13.19-102.11,20.35-153.09c2.51-16.37,4.89-32.84,9.44-48.8c5.02-17.71,13.54-34.24,23.84-49.44
		c21.56-31.3,50.27-57.16,81.64-78.36C227.7,22.74,251.52,9.31,277.86,3.76 M243.98,20.85c-20.53,9.94-39.79,22.38-57.72,36.45
		c-17.56,13.97-33.99,29.51-47.95,47.12C121.08,125.54,107.68,150.19,102,177c-6.99,32.65-10.2,65.95-14.3,99.05
		c-4.65,38.51-9.13,77.12-17.21,115.09c-4.63,21.05-10.18,42.06-19.32,61.66c26.69-5.44,53.35-11.03,80.04-16.43l0.63,0.3
		c8.7,15.49,17.36,31.01,25.99,46.55c0.39,0.75,0.94,1.38,1.63,1.89c2.87-5.46,6.45-10.55,10.66-15.06
		c6.43-6.68,14.79-11.37,23.7-13.82c9.43-2.95,19.49-4.29,28.17-9.26c1.6-0.59,2.09-2.17,2.34-3.71c1.47,0.88,2.97,1.73,4.44,2.62
		c-0.5,1.61-0.6,3.74-2.48,4.4c-12.37,7.79-27.6,8.09-40.56,14.4c-8.2,4.07-14.87,10.88-19.44,18.75
		c14.3-3.92,29.27-4.34,43.59-8.11c9.13-0.72,18.63-0.47,27.19,3.15c0.46,0.14,1.38,0.41,1.84,0.55v0.64
		c8.45,4.39,15.86,10.45,23.55,16c6.06,4.14,11.03,9.59,16.56,14.38c13.92,12.47,27.75,25.06,41.78,37.41
		c12.33-15.88,26.58-30.19,38.37-46.5c3.44-5.11,8.53-8.79,12.87-12.95c0.49-0.22,1.47-0.67,1.96-0.9
		c4.53-2.69,9.61-4.64,14.92-4.92c7.78-0.59,15.38,1.6,23.09,2.19c3.21,0.85,6.21,2.46,9.54,2.92c12.82,2.29,26.04,2.85,38.39,7.31
		c-3.89-7.99-10.13-14.91-17.46-19.93c-15.25-10.19-35.25-8.4-50.53-18.53c1.64-1.07,3.44-1.83,5.24-2.58
		c12.47,6.43,26.92,7.08,39.77,12.52c11.59,4.83,20.81,14.12,26.96,24.94c0.62,1.93,1.9,0.2,2.32-0.76
		c9.24-15.79,18.89-31.34,28-47.19c3.63,0.36,7.19,1.23,10.78,1.88c25.24,4.88,50.49,9.72,75.73,14.61
		c-14.7-30.22-20.54-63.7-25.84-96.61c-8.06-52.53-11.12-105.82-22.25-157.87c-4.17-20.05-12.16-38.95-18.84-58.22
		c-6.85-18.91-13.78-37.86-22.78-55.87c-8.65-17.06-19.84-33.28-35.1-45.09c-11.79-9.32-25.65-15.68-39.92-20.16
		C380.37,13.42,342.96,3.61,304.93,5.3C283.84,6.26,262.94,11.52,243.98,20.85 M199.15,482.63c40.68,35.61,81.3,71.46,118.45,110.8
		c13.93,15.16,27.6,30.67,39.12,47.78c11.4,16.71,19.6,35.58,23.99,55.33c5.2,22.75,5.13,46.2,6.21,69.39
		c0.49,11.39,1.91,22.72,3.25,34.04c9.2,0.07,18.39,0.01,27.59,0.03c-2.6-37.19-6.74-74.28-12.81-111.07
		c-3.27-18.23-6.54-36.59-12.68-54.11c-2.89-8.92-8.76-16.38-14.56-23.58c-11.41-13.79-24.25-26.31-37.19-38.64
		c-25.23-23.8199-51.49-46.5-77.05-69.94c-8.73-6.38-17.19-13.28-26.68-18.52c-7.83-4.44-17.16-4.42-25.88-3.88
		C207.02,481.19,203.13,482.18,199.15,482.63 M156.11,492.08c-13.49,5.41-25.52,15.08-32.69,27.82c-0.26-0.5-0.77-1.51-1.03-2.01
		c-4.25,9.62-9.56,18.72-14.32,28.09c-29.24,55.57-58.64,111.27-81.38,169.89c-7.89,21.21-15.56,42.71-19.31,65.1
		c-6.19,45.32,1.48,91.13,12.01,135.2c8.45,35.15,19.63,69.55,30.46,104.01c36.44-12.57,72.69-25.69,109.08-38.42
		c2.27-0.5,3.32-2.73,4.22-4.63c1.88-4.1,1.76-8.73,1.76-13.13c-1.13-14.61-5.75-28.63-10.3-42.46
		c-6.31-18.87-13.32-37.52-18.81-56.65c-5.37-18.45-9.44-37.58-8.39-56.9c1.35-26.15,5.91-52.05,11.9-77.51
		c3.82-17.38,9.11-34.53,10.79-52.3c1.66,0.15,3.34,0.29,5,0.47c-1.81,18.5099-7.31,36.37-11.27,54.48
		c-1.12,5.61-3.04,11.11-3.15,16.87c0.59,12.65,1.45,25.3,1.52,37.97c2.52-4.28,8.87-5.14,12.38-1.6c3.52,3.64,2.16,9.08,2.42,13.63
		c25.97,0,51.94,0,77.91,0c-0.42-8.16,6.77-15.6,15.02-15c39.72,0.02,79.44-0.05,119.16,0.04c7.88-0.14,14.48,7.17,14,14.96
		c1.37-0.01,2.74-0.01,4.12,0c-1.48-11.5-2.76-23.02-3.33-34.59c-1.05-23.8799-1.07-48.08-6.87-71.41
		c-4.18-17.6-11.72-34.31-21.6-49.42c-20.89-30.78-47.26-57.31-73.8-83.19c-28.07-26.88-57.03-52.82-86.53-78.11
		C181.9,485.18,168.54,487.08,156.11,492.08 M380.38,489.38c-7.83,3.69-14.19,10-19.04,17.08c-11.54,15.42-25,29.27-36.9,44.4
		c6.72,6.22,13.49,12.39,20.23,18.6c6.99-10.8,15.08-20.81,22.9-31.02c13.14-16.25,26.27-32.54,39.08-49.05
		c-1.95-1.3-4.45-1.03-6.66-1.52C393.48,486.74,386.5,486.5,380.38,489.38 M410.41,489.15c-20.56,28.01-44.36,53.61-63.57,82.6
		c12.23,11.56,24.14,23.53,34.88,36.51c5.54,7.04,11.35,14.14,14.44,22.66c5.04,13.26,7.92,27.22,10.8,41.07
		c7.97,42.28,12.69,85.12,15.86,128.01c5.06,0,10.12,0,15.18,0c0.19-4.36-0.91-9.42,2.19-13.03c3.14-3.75,9.5-3.77,12.65-0.03
		c3.17,3.59,1.91,8.7,2.16,13.06c12.09,0.02,24.18-0.05,36.27,0.04c7.02-29.33,15.45-58.31,24.34-87.12
		c0.75-1.69-0.36-3.34-0.85-4.9c-2.86-7.59-6.46-14.86-10.65-21.8c1.28-0.78,2.54-1.59,3.82-2.3799c4.5,6.65,7.82,13.99,10.78,21.43
		c6.53,17.09,10.94,34.89,15.17,52.66c11.68,51.49,19.64,103.7,29.82,155.48c5.65,28.16,11.35,56.44,20.87,83.59
		c3.86,9.72,7.62,20.07,15.36,27.45c35.92-28.8699,71.8-57.7999,107.78-86.6099c-2.57-9.01-5.97-17.7401-9.27-26.4901
		c-9.46-24.28-20.06-48.09-30.96-71.75c-27.55-59.38-57.36-117.7-88.78-175.11c-18.78-34.15-38.2-67.99-59.39-100.71
		c-10.14-15.53-20.57-30.96-32.74-44.9901c-0.12-0.45-0.36-1.33-0.48-1.78c-9.72-10.68-23.16-17.49-37.23-20.32
		C436.13,493.64,422.69,493.99,410.41,489.15 M136.48,768.11c-0.92,10.66-2.99,21.19-3.58,31.88c1.56,0,3.12,0,4.68,0.02
		C137.37,789.37,137.2,778.73,136.48,768.11 M148.18,786.24c-3.22,0.33-5.56,3.52-5.16,6.7c0.02,20.38-0.14,40.78,0.08,61.16
		c-0.31,4.71,6.06,7.63,9.56,4.6c2.44-1.76,2.4-5,2.37-7.69c-0.12-19.69,0.08-39.39-0.1-59.07
		C155.07,788.5,151.6,785.39,148.18,786.24 M444.36,786.45c-3.07,1.07-4.62,4.42-4.36,7.53c-0.01,19.01,0.01,38.02-0.02,57.02
		c0.02,2.42,0.02,5.23,1.98,7c2.62,2.96,7.96,2.43,9.95-0.97c1.17-1.76,1.04-3.98,1.12-5.98c-0.09-19.37,0.04-38.73-0.06-58.09
		C453.32,788.57,448.52,784.82,444.36,786.45 M245.42,787.61c-4.85,1.48-8.41,6.3-8.38,11.38c-0.07,17.34-0.06,34.68-0.01,52.02
		c-0.07,6.33,5.48,12.12,11.88,11.97c40.04,0.04,80.08,0.04,120.12,0c6.37,0.16,12.08-5.52,11.94-11.89
		c0.05-17.36,0.04-34.72,0.01-52.08c0.07-4.6-2.81-9.06-7.04-10.86c-3.11-1.54-6.68-1.09-10.02-1.15
		c-37.63,0-75.25,0.01-112.87-0.01C249.16,787.02,247.23,786.99,245.42,787.61 M132.79,802.02c-1.42,14.37-0.1,28.89,3.11,42.94
		c1.69,0,3.39,0.02,5.08,0.04c0.05-14.32,0.01-28.64,0.02-42.96C138.26,801.97,135.52,801.98,132.79,802.02 M157.02,802
		c-0.02,14.33-0.06,28.66,0.01,43c25.99,0,51.97,0.01,77.95,0c0.01-14.34,0.04-28.67-0.01-43.01
		C208.99,801.99,183.01,802.01,157.02,802 M383.02,802.02c-0.04,14.32,0,28.64-0.01,42.96c18.32,0.05,36.63,0.01,54.95,0.03
		c0.08-14.34,0.04-28.67,0.03-42.99C419.67,801.98,401.35,802,383.02,802.02 M455,802.03c0,14.3199,0,28.64,0,42.96
		c12.01-0.02,24.03,0.08,36.04-0.04c3.79,0.3,7.2-3.04,6.92-6.84c0.07-9.75,0.08-19.49-0.01-29.23c0.17-3.73-3.19-7.07-6.91-6.83
		C479.03,801.94,467.01,801.99,455,802.03 M136.11,847.16C134.61,850.29,139.28,847.35,136.11,847.16 M157,847
		c-0.16,4.41,0.98,9.99-2.98,13.13c-4.34,3.87-12.43,0.96-12.66-5.05c-0.9,1.82-1.8,3.87-1.4,5.96
		c7.87,29.2,20.31,57.01,27.45,86.43c2.31,11.48,5.07,24.71-1.61,35.28c6.69,1.9,13.1,5.73,16.43,12.06
		c6.64,12.24,8.71,26.51,8.59,40.29c-0.55,4.28-0.13,9.84-4,12.6801c-5.05,1.72-10.01-1.5801-14.42-3.6801
		c1.09,13.52-2.47,27.47-10.41,38.52c26.91,2.98,53.98,4.51,81.06,4.36c28.47-0.1799,57.01-1.86,85.09-6.79
		c4.51-12.73,12.22-23.98,17.67-36.2899c5.8-12.4601,10.23-25.54,13.31-38.9301c6.55-32.23,16.42-63.68,23.51-95.78
		c4.66-20.42,8.42-41.18,8.36-62.19c-2.66-0.01-5.32-0.01-7.97,0c-0.04,3.26,0.21,6.72-1.24,9.76c-2.18,4.9-7.34,8.33-12.74,8.22
		c-39.68,0.05-79.36,0-119.04,0.02c-4.98,0.28-10.04-2.12-12.7-6.39c-2.37-3.38-2.39-7.66-2.32-11.61C208.99,847,182.99,847,157,847
		 M393.99,847c0.04,27.86-6.42,55.17-13.01,82.07c-6.27,25.68-13.8,51.06-19.01,76.99c-3.7,15.91-9.33,31.3799-16.77,45.93
		c-4.49,9.24-10.02,17.97-13.77,27.5701c12.08-2.38,24.1-5.55,35.33-10.6901c17.07-60.62,34.21-121.21,51.24-181.83
		c2.44-13.18,1.89-26.69,2-40.04C411.33,847,402.66,847,393.99,847 M425,847c-0.24,16.5,0.93,33.51-4.41,49.39
		c-16.54,58.52-32.93,117.1-49.58,175.58c-3.74,2.8301-8.71,4.0801-13.15,5.73c21.36,0.9,42.76,0.99,64.13,1.5901
		c26.71,0.5599,53.42,1.21,80.13,1.71c3.07,0.27,4.55-2.91,5.34-5.34c1.94-6.86,1.65-14.11,1.35-21.16
		c-1.7-25.47-7.09-50.49-11.61-75.56c-6.23-33.21-13.44-66.34-16.3-100.06c-1.12-10.66,0.25-21.32,1.62-31.88
		c-9.17,0-18.35,0-27.52,0c-0.16,4.04,0.79,8.77-2.14,12.08c-3.17,3.79-9.58,3.76-12.73-0.04c-2.84-3.35-2.01-8.0099-2.13-12.04
		C433.67,846.99,429.33,846.99,425,847 M614.83,1018.41c3.82,5.4301,9.72,9.1401,15.57,12.1301
		c13.45,6.52,29.06,7.9099,43.65,5.0599c18.15-3.4199,35.46-13.0099,46.69-27.88c7.69-10.06,12.08-23.08,10.22-35.78
		c-1.73-12.59-9.87-23.86-20.75-30.24C678.46,967.33,646.7,992.94,614.83,1018.41 M144.04,992.3
		c15.67,11.65,25.91,29.95,28.36,49.2601c3.36,1.87,6.79,3.84,10.61,4.59c1.61,0.4399,3.69-0.22,4.15-1.97
		c2.58-7.8301,1.55-16.2401,0.67-24.2701c-1.51-9.22-3.64-18.75-9.06-26.54c-3.22-4.77-8.76-7.01-14-8.8
		C158.16,987.84,150.92,989.65,144.04,992.3 M59.1,1022.23c-5.2,24.05,5.66,49.9301,24.6,65.11c12.48,10.12,29.09,15.63,45.13,13.14
		c13.67-2.0699,26.29-10.34,33.49-22.1699c8.54-13.6901,10.17-31,5.95-46.42c-3.93-15.48-13.72-29.06-26.32-38.72
		C114.26,1002.62,86.78,1012.72,59.1,1022.23z"/>
	<path fill="#090A04" d="M448.66,56.79l1.36-0.34c5.05,4.11,9.15,9.28,13.13,14.39c13.96,19.04,23.38,40.96,31.26,63.09
		c8.16,23.64,14.39,47.94,18.97,72.53c3.85,21.91,7.62,44.13,6.51,66.46c-3.73-0.29-7.45-0.6-11.17-0.9
		c-0.45-0.04-1.35-0.12-1.8-0.16c-23.1-1.92-46.2-3.84-69.3-5.76c-8.41-0.48-17.04-1.85-24.37-6.25
		c-14.03-7.64-23.72-21.04-31.43-34.66c-5.45-9.76-9.98-20.01-13.93-30.45c-11.71,15.45-24.1,30.61-39.09,43.03
		c-15.01,12.74-32.81,22.65-52.23,26.56c-9.98,2.34-20.34,2.56-30.52,1.73c-37.57-3.15-75.14-6.31-112.72-9.45
		c-0.5-0.05-1.5-0.13-2.01-0.17c-3.69-0.32-7.39-0.63-11.09-0.91c1.62-17.78,7.07-34.92,12.55-51.82
		c2.63-7.58,5.53-15.06,8.34-22.58c9.47-22.87,19.46-45.84,34.01-66.01c1.24-1.31,2.09-3.72,4.29-3.4
		c-4.55,6.71-9.46,13.19-13.36,20.32c-13.05,22.92-23.05,47.44-31.85,72.26c-5.37,16.22-10.35,32.73-12.29,49.77
		c42.34,3.52,84.68,7.16,127.02,10.61c22.13,1.73,44.46-4.64,63.07-16.53c22.23-14.06,39.76-34.22,55.18-55.26
		c-4.71-11.85-8.47-24.05-13.18-35.9c-1.38-3.49-2.6-7.06-3.28-10.76c2.83,1.3,2.48,4.93,3.72,7.39
		c9.29,24.05,16.44,49.12,29.19,71.68c7.31,12.75,16.45,25.17,29.4,32.64c6,3.73,12.98,5.67,19.99,6.2
		c28.48,2.36,56.95,4.76,85.43,7.09c0.53-12.43-0.68-24.85-2.26-37.17c-3.69-27.65-9.51-55.01-17.46-81.76
		c-6-19.4-12.94-38.6-22.29-56.66C469.41,81.27,460.16,67.94,448.66,56.79z"/>
	<path fill="#090A04" d="M389.64,81.77c12.71,4.22,23.74,12.34,33.94,20.83c13.84,11.76,25.93,25.46,36.69,40.06
		c11.69,16.25,21.76,33.95,27.48,53.23c2.22,8.5,4.03,17.28,3.15,26.11c-0.34,1.62,0.13,3.85-1.5,4.88
		c-0.71-2.25-0.01-4.58,0.04-6.86c0.62-11.16-2.43-22.11-6.07-32.54c-6.55-16.86-15.83-32.57-26.66-47.02
		c-12.16-16.05-26.08-30.89-42.13-43.11c-7.5-5.55-15.54-10.45-24.24-13.91C390.17,83.02,389.81,82.18,389.64,81.77z"/>
	<path fill="#090A04" d="M187.42,141.44c0.3,0.21,0.89,0.62,1.19,0.83c-8.62,12.27-14.69,26.09-20.24,39.95
		c-5.53,15.63-11.45,32.1-9.2,48.94c-0.32,0.23-0.97,0.69-1.29,0.92c-2.76-16.91,3.11-33.68,8.68-49.42
		C172.24,168.36,178.32,153.95,187.42,141.44z"/>
	<path fill="#090A04" d="M1200.9301,400.75c0.36,0.19,1.09,0.57,1.46,0.76c7.53,20.88,7.11,43.86,2.88,65.4
		c-3.13,14.31-8.13,28.54-17.02,40.33c-6.83,9.05-16.7,16.89-28.46,17.44l-0.1901-1.52c11.63-0.65,21.4-8.46,27.99-17.57
		c9.6-13.39,14.74-29.51,17.3401-45.64c2.45-15.89,2.61-32.29-1.03-48.01C1203.2,408.12,1201.41,404.61,1200.9301,400.75z"/>
	<path fill="#090A04" d="M758.94,464.02c0.47-1.61,0.02-4.07,2.28-4.39c-3.53,19.09-2.35,38.71,0.1201,57.85
		c3.21,21.36,8.7599,43.43,22.74,60.47c-0.42,0.05-1.25,0.13-1.66,0.18c-10.61-12.51-15.97-28.44-19.68-44.17
		c-2.5-11.51-4.19-23.21-4.81-34.97C757.3,487.34,757.08,475.57,758.94,464.02z"/>
	<path fill="#090A04" d="M1245.76,462.86c1.6,0.25,1.53,2.06,1.97,3.25c4.92,20.45,3.37,42.08-2.16,62.25
		c-3.59,12.23-8.8999,24.2-17.1699,34.02c-6.91,7.77-16.5701,14.3-27.42,13.49c-1.39-0.33-3.95,0.48-3.9299-1.66
		c6.6599,0.6,13.6399-0.16,19.4199-3.77c9.79-5.83,16.41-15.61,21.29-25.67c10.09-21.98,13.53-47,9.95-70.9
		C1247.28,470.15,1245.78,466.62,1245.76,462.86z"/>
	<path fill="#090A04" d="M808.06,472.63c0.38,0.17,1.12,0.51,1.49,0.68c-2.07,9.11-1.83,18.53-1.49,27.8
		c1.18,17.89,3.78,36.39,12.6,52.28c1.2401,2.82,4.26,4.84,4.55,7.99c-3.62-2.33-5.42-6.5-7.4901-10.11
		c-7.52-15.25-9.95-32.42-11.16-49.2C806.02,492.26,805.98,482.28,808.06,472.63z"/>
	<path fill="#090A04" d="M1827.4399,570.38c1.52-0.82,3.01-1.75,4.4701-2.72c25.85,13.17,51.9099,26.19,76.11,42.28
		c12.16,8.5,25.24,17.45,31.75,31.3c5.11,10.22,9.34,20.84,13.53,31.46c13.0299,32.99,26.09,66.7,48.0699,94.94
		c5.3101,7.28,11.09,14.29,18.01,20.11c13.92,12.3,30.7899,20.42,47.2401,28.73c8.4399,4.44,17.3799,8.76,23.6799,16.18
		c3.99,4.6201,5.6399,10.9,5.0798,16.94c22.4502,4.63,41.0601,22.87,47.03,44.88c5.3,18.28,1.4502,39.23-11.1099,53.72
		c-12.04,14.36-32,21.15-50.3501,17.77c-14.3999-2.5099-27.6199-10.52-36.84-21.8199c-3.4,5.77-6.34,11.8-9.78,17.54
		c-22.1-16.85-46.0199-31.13-68.2999-47.74c-28.36-20.91-55.53-44.58-74.98-74.26c-0.5601-3.01-1.12-6.06-0.62-9.11
		c19.58,31.2,47,56.56,76.5199,78.22c21.4801,16.03,44.3,30.15,66,45.87c18.8701-34.6,37.78-69.19,56.7-103.76
		c2.1902-3.87,0.98-8.78-1.01-12.49c-4.2798-7.17-12-11.13-19.0198-15.1c-15.1101-7.97-30.9102-14.93-44.7001-25.16
		c-6.91-5.02-13.29-10.7599-19-17.11c-13-15.81-24.5701-32.88-33.3501-51.41c-14.1-27.44-23.1599-57.08-36.33-84.93
		c-3.96-9.35-11.49-16.46-19.3199-22.61C1889.33,601.25,1857.8101,586.59,1827.4399,570.38 M2045.1899,942.05
		c13.1802,17.26,36.6001,26.45,57.9001,21.17c16.3799-3.89,30.26-16.46,35.98-32.27c6.8398-18.17,3.4299-39.46-7.8401-55.12
		c-8.6599-12.21-21.79-21.17-36.48-24.23C2078.03,881.63,2061.73,911.91,2045.1899,942.05z"/>
	<path fill="#090A04" d="M1574.58,599.57c16.25-8.55,32.9601-16.35,48.4501-26.25c0.65,0.88,1.34,1.74,2.08,2.59
		c-0.37,0.55-1.1,1.65-1.47,2.2c-5.11,3.85-10.8101,6.81-16.4301,9.83c-21.2,11.2-42.77,21.74-63.5,33.81
		c-14.37,8.56-28.9099,17.29-40.95,29.02c-7.75,7.09-11.23,17.27-15.54,26.55c-15.21,36.4-27.72,74.61-50.96,106.96
		c-5.73,7.56-11.0701,15.5-17.89,22.15c-13.09,13.28-29.58,22.46-46.13,30.7c-9.29,4.84-19.1,9.06-27.09,15.98
		c-4.66,3.97-8.02,10.3-6.59,16.51c1.62,3.06,2.7,7.01,6.12,8.55c21.38,11.27,34.9399,35.78,33.0599,59.88
		c-0.67,3.22,1.37,5.93,2.8201,8.61c5.2899,9.46,10.25,19.11,15.73,28.47c21.25-15.89,44.0299-29.61,65.26-45.53
		c32.45-23.83,62.87-52.12,82.25-87.86c7.49-13.49,12.0699-28.43,20.4399-41.45c5.22-8.04,11.4301-15.93,20-20.59
		c-0.17,1.86-0.47,3.72-0.5699,5.61c-13.5801,10.42-21.02,26.38-27.5901,41.72c-14.6,34.93-40.0399,64.16-68.7699,88.3
		c-29.05,24.79-62.14,44.1-92.8,66.71c-5.96-11.14-12.13-22.16-18.12-33.27c-1.58,3.13-2.4,6.59-3.96,9.74
		c-3.8101,7.9-9.3601,15.04-16.4501,20.26c-2.45,1.93-5.9399,3-6.91,6.29c-6.4099,14.76-20.5699,25.24-36.0099,28.97
		c-33.4601,8.65-72.3101-10.97-83.4801-44.05c0.54,0.03,1.61,0.09,2.15,0.13c5.01,13.4,14.5801,24.94,26.7001,32.52
		c17.6499,11.33,40.6499,14.84,60.47,7.39c12.2999-4.5,23.0399-13.77,28.2999-25.89c-16.1,7.89-35.76,6.6-51.3099-1.97
		c-10.3101-5.54-18.79-14.16-24.7001-24.21c-0.2699-0.44-0.7899-1.32-1.0499-1.76c-2.96-6.1-5.39-12.51-6.4301-19.23
		c-3.1799-17.96,2.2201-37.63,15.4401-50.46c0.63-0.65,1.27-1.3,1.96-1.91c14.33-13.04,35.8101-17.03,54.01-10.55
		c-2.85-5.85-1.6-12.88,1.6901-18.2599c3.5199-5.71,9.21-9.59,14.83-13.04c10.23-6.06,21.16-10.81,31.54-16.59
		c14.4299-7.88,28.2-17.55,38.6-30.4301c5.83-7.54,11.65-15.11,16.75-23.18c19.35-30.2599,30.87-64.53,44.5699-97.5099
		c4.0701-8.88,7.54-18.42,14.4401-25.59c6.76-7.31,14.85-13.2,23.0299-18.81C1537.8199,619.02,1556.1801,609.2,1574.58,599.57
		 M1309.47,873.63c-11.9199,1.67-23.1599,7.69-31.14,16.71c-12,13.5099-16.14,33.14-11.64,50.52
		c4.27,18.02,17.17,33.8,34.1001,41.38c15.09,6.97,33.51,6.84,48.09-1.4c14.0599-7.6,23.8099-22.17,26.15-37.91
		c3.48-20.4-4.9301-42.05-20.53-55.46C1342.3101,876.86,1325.58,871.24,1309.47,873.63z"/>
	<path fill="#090A04" d="M194.3,816.43c5.34-1.72,11.17,3.05,10.57,8.62c-0.02,5.45-6.21,9.35-11.2,7.35
		c-4.13-1.23-6.43-6.06-5.23-10.1C189.12,819.44,191.5,817.21,194.3,816.43 M195.18,818.3c-4.06,0.8-6.5,6.04-4.03,9.51
		c1.93,3.81,7.84,4.13,10.28,0.66C205.47,824.36,200.59,816.8,195.18,818.3z"/>
	<path fill="#090A04" d="M408.44,816.55c4.86-1.89,10.57,2.2,10.48,7.37c0.59,4.56-3.19,9.25-7.94,8.94
		c-4.64,0.21-8.48-4.39-7.91-8.91C403.09,820.66,405.37,817.63,408.44,816.55 M409.2,818.38c-5.22,1.54-5.59,9.94-0.62,12.03
		c3.68,1.82,8.45-1.24,8.37-5.33C417.63,820.89,413.32,816.88,409.2,818.38z"/>
	<path fill="#090A04" d="M479.26,816.44c4.08-1.24,8.85,1.12,10.17,5.21c1.33,3.69-0.19,8.37-3.77,10.18
		c-4.07,2.37-10.04,0.62-11.8-3.86C471.68,823.51,474.43,817.6,479.26,816.44 M480.26,818.3c-4.45,0.73-6.71,6.72-3.68,10.13
		c2.33,3.61,8.19,3.14,10.28-0.5C490.02,823.64,485.4,816.95,480.26,818.3z"/>
	<path fill="#090A04" d="M419,1384.71c18.3-4.21,36.59-8.49,54.91-12.63c0.03,0.4601,0.11,1.4,0.14,1.87
		c-18.63,4.51-37.37,8.62-56.02,13.03c-4.45,0.98-9.46,1.85-13.71-0.23c-2.49-1.3101-2.18-4.4-2.28-6.74c0.48,0,1.45-0.01,1.94-0.01
		c0.26,1.84-0.37,4.64,2.01,5.33C410.22,1386.7,414.79,1385.73,419,1384.71z"/>
	<path fill="#FDD330" d="M243.98,20.85c18.96-9.33,39.86-14.59,60.95-15.55c38.03-1.69,75.44,8.12,111.09,20.44
		c14.27,4.48,28.13,10.84,39.92,20.16c15.26,11.81,26.45,28.03,35.1,45.09c9,18.01,15.93,36.96,22.78,55.87
		c6.68,19.27,14.67,38.17,18.84,58.22c11.13,52.05,14.19,105.34,22.25,157.87c5.3,32.91,11.14,66.39,25.84,96.61
		c-25.24-4.89-50.49-9.73-75.73-14.61c-3.59-0.65-7.15-1.52-10.78-1.88c-9.11,15.85-18.76,31.4-28,47.19
		c-0.42,0.96-1.7,2.69-2.32,0.76c-6.15-10.82-15.37-20.11-26.96-24.94c-12.85-5.44-27.3-6.09-39.77-12.52
		c16.83-8.4,32.8-18.83,46.38-31.9c18.47-17.2,33.84-37.84,44.69-60.64c6.27,1.8,13.34,1.08,18.45-3.24
		c9.81-7.98,14.07-20.8,15.71-32.94c1.78-16.89-0.92-35.58-12.52-48.7c-1.12-1.09-0.94-2.71-1.18-4.12c3.72,0.3,7.44,0.61,11.17,0.9
		c1.11-22.33-2.66-44.55-6.51-66.46c-4.58-24.59-10.81-48.89-18.97-72.53c-7.88-22.13-17.3-44.05-31.26-63.09
		c-3.98-5.11-8.08-10.28-13.13-14.39l-1.36,0.34c11.5,11.15,20.75,24.48,27.79,38.85c9.35,18.06,16.29,37.26,22.29,56.66
		c7.95,26.75,13.77,54.11,17.46,81.76c1.58,12.32,2.79,24.74,2.26,37.17c-28.48-2.33-56.95-4.73-85.43-7.09
		c-7.01-0.53-13.99-2.47-19.99-6.2c-12.95-7.47-22.09-19.89-29.4-32.64c-12.75-22.56-19.9-47.63-29.19-71.68
		c-1.24-2.46-0.89-6.09-3.72-7.39c0.68,3.7,1.9,7.27,3.28,10.76c4.71,11.85,8.47,24.05,13.18,35.9
		c-15.42,21.04-32.95,41.2-55.18,55.26c-18.61,11.89-40.94,18.26-63.07,16.53c-42.34-3.45-84.68-7.09-127.02-10.61
		c1.94-17.04,6.92-33.55,12.29-49.77c8.8-24.82,18.8-49.34,31.85-72.26c3.9-7.13,8.81-13.61,13.36-20.32
		c-2.2-0.32-3.05,2.09-4.29,3.4c-14.55,20.17-24.54,43.14-34.01,66.01c-2.81,7.52-5.71,15-8.34,22.58
		c-5.48,16.9-10.93,34.04-12.55,51.82c3.7,0.28,7.4,0.59,11.09,0.91c-0.48,7.82-0.03,15.67-0.3,23.48
		c-8.64,9.58-12.9,22.35-13.73,35.09c-0.86,12.99,1.19,26.55,7.75,37.95c3.54,6.17,8.9,11.85,16.02,13.61
		c4.28,1.09,8.65-0.03,12.67-1.53c16.2,31.59,40.56,59.17,70.6,78.22c-0.25,1.54-0.74,3.12-2.34,3.71
		c-8.68,4.97-18.74,6.31-28.17,9.26c-8.91,2.45-17.27,7.14-23.7,13.82c-4.21,4.51-7.79,9.6-10.66,15.06
		c-0.69-0.51-1.24-1.14-1.63-1.89c-8.63-15.54-17.29-31.06-25.99-46.55l-0.63-0.3c-26.69,5.4-53.35,10.99-80.04,16.43
		c9.14-19.6,14.69-40.61,19.32-61.66c8.08-37.97,12.56-76.58,17.21-115.09c4.1-33.1,7.31-66.4,14.3-99.05
		c5.68-26.81,19.08-51.46,36.31-72.58c13.96-17.61,30.39-33.15,47.95-47.12C204.19,43.23,223.45,30.79,243.98,20.85 M389.64,81.77
		c0.17,0.41,0.53,1.25,0.7,1.67c8.7,3.46,16.74,8.36,24.24,13.91c16.05,12.22,29.97,27.06,42.13,43.11
		c10.83,14.45,20.11,30.16,26.66,47.02c3.64,10.43,6.69,21.38,6.07,32.54c-0.05,2.28-0.75,4.61-0.04,6.86
		c1.63-1.03,1.16-3.26,1.5-4.88c0.88-8.83-0.93-17.61-3.15-26.11c-5.72-19.28-15.79-36.98-27.48-53.23
		c-10.76-14.6-22.85-28.3-36.69-40.06C413.38,94.11,402.35,85.99,389.64,81.77 M187.42,141.44c-9.1,12.51-15.18,26.92-20.86,41.22
		c-5.57,15.74-11.44,32.51-8.68,49.42c0.32-0.23,0.97-0.69,1.29-0.92c-2.25-16.84,3.67-33.31,9.2-48.94
		c5.55-13.86,11.62-27.68,20.24-39.95C188.31,142.06,187.72,141.65,187.42,141.44z"/>
	<path fill="#251A11" d="M972.44,42.35c6.53-0.83,13.04,0.68,19.59,0.76c17.74,1.16,35.4399,3.04,53.0499,5.53
		c25.7301,3.76,51.36,10.06,74.8,21.55c16.6899,8.39,32.34,19.12,45.1801,32.77c13.3999,13.94,23.8999,30.49,31.72,48.13
		c9.15,20.96,15.78,42.91,22.08,64.86c12.4501,44.96,22.25,90.62,30.4401,136.54c8.3199,48.18,15.4199,96.66,18.5299,145.49
		c1.3,23.34,2.0801,46.85-0.71,70.11c-1.53,10.24-3.0699,21.12-9.35,29.69c-6.84,7.56-17,11.3199-26.92,12.6
		c-11.98,1.21-24.0699,0.17-35.9-1.9c-21.0599-3.56-41.5299-9.8-62.2799-14.68c8.46,7.04,16.7,14.63,22.5699,24.05
		c1.52,2.1801,0.84,5.12,2.42,7.33c41.22,86.44,82.2799,172.95,123.45,259.41c-0.6899,0.61-1.33,1.2599-1.96,1.91
		c-0.3201-2.74-1.9601-5.06-3.03-7.52c-36.64-77.04-73.28-154.07-109.92-231.11c-5.58-11.44-10.72-23.1-16.5599-34.4
		c-12.41-16.11-30.1801-27.3199-48.77-35.0699c-18.4-7.4301-37.97-12.16-57.8099-13.27c-1.8401,0.01-3.8701-0.52-5.4801,0.62
		c-16.2999,9.91-33.2499,20.25-52.48,23c-16.3199,2.44-32.63-3.11-46.5099-11.4c-6.1801-3.38-11.66-7.86-17.63-11.52
		c-17.35,0.03-34.82,1.35-51.7401,5.35c-6.9399,1.8-13.9399,4.05-19.84,8.23c-3.53,2.53-6.66,6.13-7.32,10.56
		c-0.64,4.02-3.61,7.13-4.52,11.09c-0.25-1.43-0.52-2.86-0.75-4.27c3.67-4.41,2.94-10.81,7.01-14.95
		c7.04-7.71,17.54-10.82,27.38-13.16c16.03-3.52,32.47-4.71,48.85-4.94c1.81-0.23,3.27,0.93,4.67,1.9
		c10.34,7.92,21.73,14.71,34.16,18.78c10.82,3.52,22.6,3.72,33.6,0.88c12.7-3.33,24.43-9.49,35.66-16.17
		c3.6801-1.84,6.85-4.82,10.79-6.05c19.39,0.26,38.62,4.58,56.8099,11.18c11.3101,3.98,21.8301,9.78,32.0701,15.92
		c19.97,5.36,39.96,10.78,60.21,14.98c13.99,2.75,28.3199,4.73,42.58,3.22c9.25-1.16,18.6801-4.56,25.2301-11.43
		c5.6299-7.1,7.22-16.38,8.7799-25.07c3.37-23.79,2.63-47.93,1.35-71.85c-2.7699-45.25-9.0299-90.21-16.49-134.9
		c-7.73-44.68-16.6899-89.18-28.2999-133.02c-6.4601-24.42-13.51-48.74-22.85-72.23c-12.4401-32.44-34.62-61.65-64.6101-79.68
		C1107.86,63.98,1077.89,55.76,1048,51.06c-21.5699-3.2-43.3-5.25-65.06-6.51c-8.28-0.87-16.56,0.55-24.84,0.81
		c-39.61,3.34-79.73,8.14-117.02,22.65c-19.95,7.58-38.68,18.38-55.11,32.01c-13.74,11.79-25.52,25.87-34.5699,41.56
		c-10.65,18.25-17.2401,38.48-23.17,58.66c-12.61,44.79-20.34,90.75-27.17,136.72c-7.06,49.77-12.52,99.78-16.22,149.91
		c-2.07,30.69-4.27,61.45-3.64,92.23c-0.14,8.54,5.16,16.39,12.75,20.08c13.53,6.81,29.11,7.55,43.99,7.79
		c31.55-0.05,62.86-4.78,93.92-9.84c0.97-1.53,1.94-3.06,3.14-4.42c2.5-0.77,0.89,2.11,0.3,3
		C781.67,678.22,728.12,760.79,674.38,843.23c-0.22-0.5-0.66-1.51-0.88-2.01c14.97-23.8,30.6-47.1899,45.82-70.83
		c34.96-53.8,69.93-107.6,104.88-161.41c1.93-3.18,4.36-6.07,5.78-9.53c-20.23,3.35-40.55,6.28-60.98,8.12
		c-18.33,1.5-36.91,2.42-55.17-0.3c-9.88-1.62-20.27-4.27-27.74-11.33c-5.1-4.86-7.07-12.05-6.98-18.92
		c-0.34-23.71,0.97-47.42,2.43-71.09c3.52-54.85,9.2-109.57,16.76-164.01c6.86-47,14.7-93.98,27.31-139.82
		c5.25-18.33,11.14-36.58,19.72-53.66c9.08-17.68,21.28-33.8,36.09-47.09c19.3-17.14,42.4-29.64,66.72-38.09
		C888.06,49.34,930.52,45.29,972.44,42.35z"/>
	<path fill="#251A11" d="M964.06,102.91c38.34-5.39,78.42-3.71,114.94,9.96c24.16,8.88,46.26,23.41,63.76,42.31
		c12.09,13.26,22.36,28.26,29.75,44.63c-5.88-2.97-11.03-7.19-16.99-10.02c10.34,18.57,20.51,37.47,26.8099,57.87
		c1.7101,6.47,3.5601,13.3,2.16,20c-1.9,6.08-7.58,10.04-13.61,11.36c-21.1,3.75-42.66,2-63.92,0.81
		c-19.02-1.28-38.02-3-57.0499-4.11c-9.85-0.33-20.5901-1.28-29.54,3.57c-3.67,2.38,0.38,6.44-0.53,9.68
		c-6.77-2.69-12.54-7.25-18.39-11.48c-9.28-6.78-18.14-14.11-27.14-21.25c-0.27,9.06,4.1,17.73,10.67,23.8
		c3.48,3.56,7.89,5.91,11.81,8.91c-3.29,2.64-7.72,2.74-11.74,3.04c-13.47,0.65-27.16-4.66-36.24-14.71
		c-6.52-6.93-10.51-15.71-13.76-24.53c-1.89,6.51-2.89,13.58-1.8,20.35c1.22,6.55,6.23,11.44,11.66,14.85
		c-14.96-0.98-30.65-3.67-42.8-13.09c-12.47-9.4-20.02-23.59-25.6-37.85c1.79,13.1,3.96,26.18,7.31,38.98
		c1.28,4.55,2.39,9.48,5.91,12.92c-9.16,3.41-19.09,3.49-28.73,3.96c-20.4,0.46-41.01-0.41-60.97-4.95
		c-8.34-2.09-17.05-4.63-23.35-10.82c-3.54-4.03-2.78-9.83-1.22-14.53c6.8-22.85,17.48-44.39,29.72-64.78
		c-2.41,1.02-4.91,1.85-7.34,2.81c2.5-8.26,7-15.75,12.28-22.52c12.11-15.38,28.06-27.16,44.62-37.33
		C888.23,121.12,925.68,108.5,964.06,102.91 M928.05,154.82c-40.24,9.46-79.12,23.96-117.03,40.31c-1.65,0.55-2.97,1.71-3.73,3.27
		c-11.88,19.12-21.78,39.55-28.79,60.95c-1.23,4.86-4.12,10.47-0.95,15.18c3.25,4.66,8.76,6.99,13.94,8.86
		c18.5,6.03,38.15,7.18,57.47,7.62c12.4-0.13,25.02,0.06,37.14-2.93c-3.91-7.89-5.49-16.66-7.33-25.2
		c-2.02-11.18-4.56-22.41-4.65-33.81c0.45,0.04,1.35,0.1,1.8,0.14c1.96,4.16,2.94,8.72,4.9,12.89
		c5.53,13.27,13.88,25.93,26.24,33.73c9.11,5.86,19.95,8.39,30.62,9.35c-2.52-3.04-5.06-6.25-6.02-10.17
		c-1.91-7.58-0.24-15.39,1.13-22.91c0.88-4.33,0.43-8.75,0.68-13.12c3.5601,15.36,9.04,31.62,21.95,41.68
		c10.41,8.3,24.81,11.33,37.7,8.12c-10.33-6.21-19.47-16.2-20.67-28.66c0.05-2.31-0.75-5.26,1.33-6.94
		c14.11,11.23,27.8,23.23,43.39,32.39c-0.4-2.4-0.98-5.34,1.17-7.12c3.96-3.57,9.7-3.96,14.7399-4.72
		c14.3301-0.97,28.65,0.92,42.9401,1.83c27.29,1.81,54.64,4.87,82.01,3.16c6.5-0.6,13.3199-1.21,19.14-4.42
		c3.14-2.46,5.97-6.07,5.8199-10.28c0.0701-10.56-4.09-20.49-7.72-30.21c-5.86-14.28-12.91-28.05-20.73-41.34
		c-1.3201-1.96-2.12-4.43-4.11-5.82c-33.9701-19.65-71.38-34.08-110.4501-39.1C1002.64,142.47,964.6,146.31,928.05,154.82z"/>
	<path fill="#251A11" d="M867.35,739.53c0.41,0.1899,1.22,0.56,1.63,0.75c-1.64,5.78-4.83,11.0099-7.14,16.56
		c-8.55,18.59-17.8,36.86-26.77,55.23c-0.13,24.93,1.04,49.91,1.1,74.86c-1.56,21.77-7.69,43.14-6.98,65.08
		c0.4,6.23,1.19,13.31,6.01,17.82c3.59,3.33,8.79,2.76,13.22,3.91c36.83,7.9,73.97,14.63,111.52,17.93
		c49.94,4.71,100.82,2.63,149.66-9.33c3.4301-0.98,7.55-0.77,10.16-3.57c4.4399-4.66,6.17-11.14,7.67-17.22
		c2.6899-12.34,3.5399-24.99,4.0399-37.58c0.72-24.65,0.03-49.35-1.59-73.9399c-10.74-27.4301-20.88-55.26-27.78-83.95
		c0.47,0.05,1.42,0.14,1.89,0.19c8.0701,29.86,17.97,59.25,30,87.77c14.37,33.31,31.53,65.98,55.6901,93.31
		c5.34,6.12,11.4099,11.84,18.88,15.25c19.6699,9.29,44.09,6.25,61.58-6.41c0.26,0.44,0.78,1.32,1.0499,1.76
		c-11.33,8.3-25.48,12.38-39.46,12.16c-0.54-0.04-1.61-0.1-2.15-0.13c-9.0599-0.62-18.0699-3.02-25.9199-7.65
		c-7.04-4.02-12.54-10.14-17.8301-16.17c-22.89-27.05-39.89-58.61-53.5399-91.17c1.4299,28.66,2.3099,57.41,0.2799,86.06
		c1.6001,6.87,4,13.58,5.8501,20.41c37.74,128.56,75.49,257.1199,113.21,385.69c1.54,2.9399-2.62,3.02-4.37,3.9
		c-51.47,18.4199-103.6901,35.1799-157.29,46.2799c-25.61,5.29-51.5399,9.13-77.62,11.2001c-19.69,1.4399-39.46,1.89-59.19,1.13
		c-25.65-1.14-51.24-3.8201-76.52-8.3401c-0.26,0.6101-0.77,1.8301-1.02,2.4401c-0.14-0.87-0.25-1.73-0.31-2.58
		c-43.76-7.5-86.79-18.8101-129.43-31.0801c27.63-135.22,55.32-270.4399,82.87-405.67c-4.52-22.83,1.8-45.84,4.6-68.49
		c1.48-9.92,0.59-19.95,0.53-29.93c-0.35-16.6-0.58-33.21-1-49.81c-16.04,30.38-32.4,60.66-51.15,89.49
		c-10.74,16.61-22.04,32.93-35.04,47.87c-4.42,4.71-8.35,10.39-14.51,12.96l-0.49-1.59c6.65-4.29,11.53-10.61,16.65-16.53
		c22.42-27.19,40.77-57.42,58.21-87.96C828.62,821.08,848.98,780.75,867.35,739.53 M1131.63,948.51c-0.97,8.33-2.48,16.73-5.75,24.5
		c-2.15,4.99-5.98,10.1-11.87,10.45c-41.15,10.16-83.77,13.99-126.08,12.1c-47.14-1.92-93.75-10.04-139.82-19.81
		c-3.98-1.08-8.37-0.71-12-2.88c-2.61-1.22-4.16-3.72-5.85-5.91C806.6,1083.74,782.55,1200.45,758.74,1317.2
		c-3.38,17.26-7.35,34.4301-10.36,51.74c26.81,7.26,53.53,14.91,80.68,20.8401c51.87,12.03,105.08,19.72,158.42,18
		c47.17-1.2001,93.9-9.4601,139.53-21.1c41.5-10.55,82.14-24.17,122.47-38.4501c-0.27-3.72-1.9299-7.14-2.78-10.73
		c-38.0399-129.83-76.3199-259.59-114.23-389.46C1132.26,948.16,1131.84,948.39,1131.63,948.51z"/>
	<path fill="#251A11" d="M947.31,1477.01c0.93,0.3099,1.86,0.65,2.8,1.03c3.4,2.6,4.73,6.9299,5.11,11.0499
		c0.44,5.8401-0.3,11.7001-1.2,17.48c-1.34,4.28-2.79,8.5801-2.96,13.12l-0.09,0.2301c-0.1899,0.5699-0.59,1.72-0.79,2.2899
		c-1.16,4.01-2.43,8-3.93,11.9c-2.12,5.48-6.01,10-9.93,14.28c-6.61,7.08-14,13.39-21.6,19.38c-14.03,10.52-28.75,20.6-45.41,26.48
		c-9.65,3.5-20.06,3.98-30.23,3.64c-13.67-0.92-27.19-3.26-40.45-6.63c-9.24-3.1801-18.86-6.13-26.73-12.11
		c-3.48-2.52-5.7401-6.79-4.94-11.13c1.27-8.76,6.7599-16.14,12.2-22.8201c11.16-13.0299,24.9301-23.7,39.89-32.01
		c4.78-2.5199,10.29-3.2799,15.64-3.0599c12.56,1.42,24.64,6.08,37.39,6.11c12.51,0.14,24.91-3.35,35.9-9.25
		C922.6,1499.1899,935.48,1488.52,947.31,1477.01z"/>
	<path fill="#251A11" d="M1013.83,1482.83c1.22-0.5699,2.43-1.1599,3.69-1.6499c11.14,10.8199,23.2,20.85,36.73,28.5699
		c14.38,8.26,31.39,12.5699,47.9301,9.92c11.95-1.51,23.6-6.62,35.8199-4.9801c6.61,1.0601,12.01,5.2101,17.63,8.53
		c9.5599,6.1901,18.21,13.67,26.3099,21.67c3.54,4.14,6.9,8.4399,10.26,12.75c3.28,6.41,8.03,13.89,4.7201,21.23
		c-3.62,5.97-10.5601,8.7-16.62,11.52c-20.0601,7.99-41.78,11.72-63.3301,11.73c-17.74,0.09-34-8.21-48.6799-17.39
		c-14.88-9.75-29.2101-20.6-41.23-33.7999c-3.7401-4.1801-7.2001-8.77-9.0001-14.13c-4.36-12.53-7.95-25.51-8.48-38.8201
		C1009.38,1492.67,1010.04,1486.86,1013.83,1482.83z"/>
	<path fill="#251A11" d="M1860.11,1533.74c18.2001-2.62,36.2001-6.53,54.49-8.55c2.8,2.55,5.54,5.1801,8.28,7.8301
		c3.49,4.29,7.0599,8.53,10.12,13.16c3.17,5.8199,6.9399,12.62,4.66,19.3999c-2.6801,5.63-8.7201,8.4601-14.01,11.12
		c-9.01,4.0701-18.54,6.9301-28.2101,8.88c-16.0399,3.2201-32.62,5.54-48.9299,3.12c-14.22-2.45-27.02-9.6499-39.1-17.21
		c-13.23-8.87-26.17-18.4-37.12-30.04C1800.3199,1540.22,1830.34,1538,1860.11,1533.74z"/>
	<path fill="#251A11" d="M1519.33,1532.89c28.17,1.6799,56.4,0.71,84.6001,0.73c8.4099,0.5601,16.7599,1.79,25.1499,2.63
		c14.42,1.8,28.9501,2.34,43.39,3.8101c-9.2999,9.6399-20.1899,17.5699-31.1599,25.1899c-10.3701,6.9301-21.3601,13.17-33.2401,17.1
		c-9.62,3.22-19.88,3.36-29.8999,3.1c-13.9401-1.25-27.79-3.47-41.25-7.2999c-7.9601-2.66-16.01-5.4601-23.02-10.16
		c-3.66-2.47-7.0701-6.3099-6.65-11.02C1507.87,1547.6801,1513.85,1539.98,1519.33,1532.89z"/>
	<path fill="#C4996C" d="M958.1,45.36c8.28-0.26,16.56-1.68,24.84-0.81c21.76,1.26,43.4901,3.31,65.06,6.51
		c29.89,4.7,59.86,12.92,85.6899,29.14c29.9901,18.03,52.17,47.24,64.6101,79.68c9.34,23.49,16.3899,47.81,22.85,72.23
		c11.61,43.84,20.5699,88.34,28.2999,133.02c7.4601,44.69,13.7201,89.65,16.49,134.9c1.28,23.92,2.02,48.06-1.35,71.85
		c-1.5599,8.69-3.15,17.97-8.7799,25.07c-6.55,6.87-15.9801,10.27-25.2301,11.43c-14.26,1.51-28.59-0.47-42.58-3.22
		c-20.25-4.2-40.24-9.62-60.21-14.98c-10.24-6.14-20.76-11.94-32.0701-15.92c-18.1899-6.6-37.4199-10.92-56.8099-11.18
		c-3.9401,1.23-7.11,4.21-10.79,6.05c-0.27-9.4-0.05-18.81-0.12-28.21c-0.6899-5.53,1.8101-11.93-1.84-16.7
		c27.33-6.9,52.5399-20.92,74.1899-38.84c4.2001-4.56,9.22-8.38,14.1801-11.97c-0.48-0.13-1.42-0.39-1.89-0.52
		c6.12-6.71,12.26-13.41,17.92-20.52c26.34-34.04,41.83-76.3,43.8799-119.29c1.3701-18.09-0.75-36.21-3.5599-54.06
		c6.03-1.32,11.71-5.28,13.61-11.36c1.4-6.7-0.45-13.53-2.16-20c-6.2999-20.4-16.47-39.3-26.8099-57.87
		c5.96,2.83,11.11,7.05,16.99,10.02c-7.39-16.37-17.66-31.37-29.75-44.63c-17.5-18.9-39.6-33.43-63.76-42.31
		c-36.52-13.67-76.6-15.35-114.94-9.96c-38.38,5.59-75.83,18.21-109.32,37.84c-16.56,10.17-32.51,21.95-44.62,37.33
		c-5.28,6.77-9.78,14.26-12.28,22.52c2.43-0.96,4.93-1.79,7.34-2.81c-12.24,20.39-22.92,41.93-29.72,64.78
		c-1.56,4.7-2.32,10.5,1.22,14.53c-6.69,33.67-5.92,68.87,3.33,101.99c5.8,21.47,15.22,41.92,27.35,60.53
		c7.46,11.73,16.91,21.93,26.01,32.36c-0.48,0.1-1.43,0.31-1.91,0.42c3.5,1.69,5.68,5.15,9.15,6.96c3.52,3.56,6.96,7.17,11.06,10.09
		c16.91,12.66,35.29,23.98,55.53,30.47c6.05,2.5,12.42,4.73,19,5.13c-0.86,2.22-1.8,4.5-1.65,6.94c0.17,7.01-0.12,14.04,0.33,21.04
		c0.28,4.2,0.19,8.42-0.18,12.61c-1.4-0.97-2.86-2.13-4.67-1.9c-16.38,0.23-32.82,1.42-48.85,4.94
		c-9.84,2.34-20.34,5.45-27.38,13.16c-4.07,4.14-3.34,10.54-7.01,14.95c-0.37-0.27-1.12-0.81-1.49-1.08c0.59-0.89,2.2-3.77-0.3-3
		c-1.2,1.36-2.17,2.89-3.14,4.42c-31.06,5.06-62.37,9.79-93.92,9.84c-14.88-0.24-30.46-0.98-43.99-7.79
		c-7.59-3.69-12.89-11.54-12.75-20.08c-0.63-30.78,1.57-61.54,3.64-92.23c3.7-50.13,9.16-100.14,16.22-149.91
		c6.83-45.97,14.56-91.93,27.17-136.72c5.93-20.18,12.52-40.41,23.17-58.66c9.05-15.69,20.83-29.77,34.5699-41.56
		c16.4301-13.63,35.16-24.43,55.11-32.01C878.37,53.5,918.49,48.7,958.1,45.36 M1200.9301,400.75c0.48,3.86,2.2699,7.37,2.97,11.19
		c3.64,15.72,3.48,32.12,1.03,48.01c-2.6001,16.13-7.7401,32.25-17.3401,45.64c-6.59,9.11-16.36,16.92-27.99,17.57l0.1901,1.52
		c11.76-0.55,21.63-8.39,28.46-17.44c8.89-11.79,13.89-26.02,17.02-40.33c4.23-21.54,4.65-44.52-2.88-65.4
		C1202.02,401.32,1201.29,400.94,1200.9301,400.75 M758.94,464.02c-1.86,11.55-1.64,23.32-1.01,34.97
		c0.62,11.76,2.31,23.46,4.81,34.97c3.71,15.73,9.07,31.66,19.68,44.17c0.41-0.05,1.24-0.13,1.66-0.18
		c-13.98-17.04-19.53-39.11-22.74-60.47c-2.47-19.14-3.65-38.76-0.1201-57.85C758.96,459.95,759.41,462.41,758.94,464.02
		 M1245.76,462.86c0.02,3.76,1.52,7.29,1.95,11.01c3.5801,23.9,0.14,48.92-9.95,70.9c-4.88,10.06-11.5,19.84-21.29,25.67
		c-5.78,3.61-12.76,4.37-19.4199,3.77c-0.02,2.14,2.5399,1.33,3.9299,1.66c10.85,0.81,20.51-5.72,27.42-13.49
		c8.27-9.82,13.58-21.79,17.1699-34.02c5.53-20.17,7.0801-41.8,2.16-62.25C1247.29,464.92,1247.36,463.11,1245.76,462.86
		 M808.06,472.63c-2.08,9.65-2.04,19.63-1.5,29.44c1.21,16.78,3.64,33.95,11.16,49.2c2.07,3.61,3.8701,7.78,7.4901,10.11
		c-0.29-3.15-3.31-5.17-4.55-7.99c-8.8199-15.89-11.42-34.39-12.6-52.28c-0.34-9.27-0.58-18.69,1.49-27.8
		C809.18,473.14,808.44,472.8,808.06,472.63z"/>
	<path fill="#C4996C" d="M928.05,154.82c36.55-8.51,74.59-12.35,111.93-7.27c39.0701,5.02,76.48,19.45,110.4501,39.1
		c1.99,1.39,2.7899,3.86,4.11,5.82c7.8199,13.29,14.87,27.06,20.73,41.34c3.63,9.72,7.79,19.65,7.72,30.21
		c0.15,4.21-2.6799,7.82-5.8199,10.28c-5.8201,3.21-12.64,3.82-19.14,4.42c-27.37,1.71-54.72-1.35-82.01-3.16
		c-14.29-0.91-28.61-2.8-42.9401-1.83c-5.0399,0.76-10.78,1.15-14.7399,4.72c-2.15,1.78-1.57,4.72-1.17,7.12
		c-15.59-9.16-29.28-21.16-43.39-32.39c-2.08,1.68-1.28,4.63-1.33,6.94c1.2,12.46,10.34,22.45,20.67,28.66
		c-12.89,3.21-27.29,0.18-37.7-8.12c-12.91-10.06-18.39-26.32-21.95-41.68c-0.25,4.37,0.2,8.79-0.68,13.12
		c-1.37,7.52-3.04,15.33-1.13,22.91c0.96,3.92,3.5,7.13,6.02,10.17c-10.67-0.96-21.51-3.49-30.62-9.35
		c-12.36-7.8-20.71-20.46-26.24-33.73c-1.96-4.17-2.94-8.73-4.9-12.89c-0.45-0.04-1.35-0.1-1.8-0.14
		c0.09,11.4,2.63,22.63,4.65,33.81c1.84,8.54,3.42,17.31,7.33,25.2c-12.12,2.99-24.74,2.8-37.14,2.93
		c-19.32-0.44-38.97-1.59-57.47-7.62c-5.18-1.87-10.69-4.2-13.94-8.86c-3.17-4.71-0.28-10.32,0.95-15.18
		c7.01-21.4,16.91-41.83,28.79-60.95c0.76-1.56,2.08-2.72,3.73-3.27C848.93,178.78,887.81,164.28,928.05,154.82z"/>
	<path d="M1704.91,107.23c21.71-2.59,43.8099-1.54,65.24,2.7c18.5399,3.7,36.7999,9.47,53.51,18.43
		c34.9199,18.38,62.96,48.14,82.71,82.03c0.25-0.1,0.76-0.31,1.02-0.41c0.12,0.56,0.37,1.69,0.5,2.25
		c3.15,6.95,7.17,13.49,10.29,20.48c19.7899,42.34,29.46,89.53,27.12,136.25c-0.91,18.93-4.3601,37.66-9.67,55.83
		c-7.02,1.02-14.11,1.34-21.12,2.34c-0.28,0.46-0.83,1.38-1.11,1.84c-0.38-0.38-1.13-1.13-1.51-1.51
		c-0.8101,0.03-2.4501,0.11-3.27,0.14c0.25-0.51,0.74-1.52,0.98-2.03c8.0601-1.13,16.2101-1.61,24.3-2.62
		c12.74-42.24,12.23-87.71,2.52-130.52c-9.1801-40.78-27.12-79.84-53.6001-112.3C1858.87,150.7,1826.65,127.4,1789.91,117
		c-39.04-11.71-81.7101-12.53-120.63,0.05c-36.8201,11.22-70.12,32.83-96.5901,60.64c-13.3999,14.48-26.0499,30.3-33.2,48.89
		c-7.21,18.06-10.91,37.28-13.63,56.47c-3.39,27.36-3.59,55.14-0.22,82.52c3.72,25.94,9.85,52.66,25.66,74.14
		c2.88,4.36,7.72,7.41,9.23,12.62c-9.37-7.25-15.79-17.68-20.97-28.17c-0.4701-1.01-0.88-2.02-1.3-3.02
		c-8.01-17.07-11.85-35.75-14.54-54.31c-3.7-28.12-3.36-56.7,0.1901-84.81c2.9-20.44,7.02-40.92,15.1699-59.98
		c1.74-4.25,4.0701-8.21,5.8401-12.45l0.6499-1.34c0.8401-1.09,1.88-2,2.65-3.17c10.87-16.58,24.35-31.37,39.25-44.41
		C1620.33,132.05,1661.4399,112.31,1704.91,107.23z"/>
	<path d="M1628.76,526.76c1.71,1.08,3.36,2.24,5.1,3.33c-6.51,2.72-13.16,5.54-18.53,10.22c-2.7799,2.47-5.45,5.78-5.24,9.72
		c0.4701,4.72,4.25,8.17,7.87,10.8199c9.9,6.78,21.5901,10.26,33.1001,13.2401c23.5199,5.62,47.7799,7.66,71.9199,7.91
		c23.16,0.1,46.4-1.6,69.14-6.14c10.38-2.19,20.72-4.92,30.46-9.2c6.0901-2.87,12.51-6.05,16.54-11.67
		c2.21-2.99,2.4401-7.34,0.3101-10.43c-3.92-5.86-10.4501-9.23-16.7201-12c-0.27-2.36,2.91-2.52,4.37-3.75
		c6.12,3.28,12.4701,6.9,16.39,12.84c2.9301,4.23,3.24,10.11,0.6901,14.59c-2.7201,5.04-7.5701,8.37-12.25,11.42
		c-1.4601,0.97-2.9501,1.9-4.4701,2.72c-2.7,0.7-5.4099,1.6-7.74,3.15c-4.99,14.34-9.48,30.28-21.75,40.27
		c-8.95,6.96-20.1799,10.15-31.1899,12.02c-6.1801,0.9-12.51,1.67-18.72,0.82c-2.49-0.28-2.63-4.24-0.2001-4.79
		c12.77,0.6801,25.6901-1.52,37.51-6.41c6.22-2.63,11.9401-6.68,15.88-12.24c6.03-8.35,9.2001-18.28,12.6-27.89
		c-20.58,6.65-42.2,9.45-63.72,10.94c-30.17,1.77-60.63,0.54-90.35-5.14c-10.14-2.19-20.42-4.38-29.91-8.67
		c-2.4399-1.82-2.71,1.93-1.3199,3.27c4.03,10.91,7.23,22.67,15.1699,31.55c3.9401,4.75,9.7201,7.34,15.4401,9.29
		c12.88,4.08,26.5699,5.02,40,4.13c2.26,0.37,2.51,3.87,0.36,4.6c-3.76,0.87-7.6801,0.72-11.5,0.71
		c-12.74-0.39-25.75-2.08-37.4-7.53c-9.27-4.01-15.2999-12.84-19.4299-21.7c-2.99-6.03-4.51-12.65-7.53-18.65
		c0.37-0.55,1.1-1.65,1.47-2.2c-0.74-0.85-1.4299-1.71-2.08-2.59c-0.92-1.81-1.14-4.21-3.0601-5.25
		c-5.46-3.33-11.15-7.2-13.77-13.28c-2.13-4.71-0.96-10.36,2.2001-14.32C1613.53,533.86,1621.27,530.08,1628.76,526.76z"/>
	<path d="M1869.26,710.81c1.6-0.2,3.23-0.39,4.87-0.58c4.74,36.98,9.52,73.95,14.25,110.93c0.42,3.1801,0.52,6.51,2.05,9.42
		c-0.5,3.05,0.0599,6.1,0.62,9.11c1.5499,16.99,4.24,33.86,6.25,50.81c3.3099,25.88,6.6699,51.77,9.96,77.66
		c0.1899,4.31,3.6899,7.27,5.88,10.6801c23.26,33.61,41.35,70.5099,56.6899,108.31c13.03,32.1899,23.89,65.22,33.4601,98.59
		c16.4099,58.4301,28.6699,118.0701,35.97,178.33c4.0699,34.4801,6.62,69.2401,5.45,103.9801
		c-0.1599,5.34-0.86,10.6699-0.5499,16.0399c0.2899,8.1-1.0801,17.0701-6.98,23.12c-5.3401,6.15-13.28,9.15-21.03,10.89
		c-13.49,2.9301-27.37,3.01-41.1,3.54c-20.1801,0.62-40.4,1.12-60.4501,3.5499c-18.2899,2.02-36.2899,5.9301-54.49,8.55
		c-29.77,4.26-59.79,6.48-89.8199,7.71c-15.4401,0.3401-30.88,0.74-46.3201,0.3301c-17.1899,0.13-34.33-1.2001-51.5-1.72
		c-14.4399-1.4701-28.97-2.01-43.39-3.8101c-8.39-0.84-16.74-2.0699-25.1499-2.63c-28.2001-0.02-56.4301,0.95-84.6001-0.73
		c-22.9099-1.59-46.8099-3.62-67.33-14.86c-17.09-9.3101-28.26-26.4401-34.73-44.35c-0.39-1.2001,0.0499-2.42,0.1899-3.5901
		c1.51-8.99,2.05-18.1,3.03-27.15c4.08-43.6299,10.7-87.0299,20.17-129.8199c26.48-120.39,74.49-235.6899,138.6899-340.79
		c2.87-3.86,1.5701-8.91,1.9501-13.36c0.9399-54.99,1.86-109.99,2.8099-164.98c0-2.9,0.4301-5.87-0.4399-8.68
		c0.1-1.89,0.3999-3.75,0.5699-5.61c0.6-20.18,0.7-40.37,1.15-60.55c1.65-0.02,3.2999-0.04,5-0.04
		c-1.51,84.26-2.85,168.52-4.41,252.78c11.84,7.94,25.64,12.27,39.27,16.04c22.22,5.88,45.02,9.36,67.84,11.92
		c28.53,2.96,57.23,4.44,85.91,4.02c26.24-0.22,52.5601-1.88,78.4-6.58c16.12-3.2,32.8199-6.94,46.48-16.56
		C1892.36,890.75,1880.64,800.8,1869.26,710.81 M1430.15,1401.95c-3.28,23.55-4.9501,47.3-7.86,70.87
		c5.7899,15.5701,15.22,30.63,29.75,39.37c9.9399,6.3101,21.48,9.5701,32.95,11.8301c16.5,3.04,33.3101,4.03,50.0701,4.46
		c22.74,0.63,45.5099,0.39,68.2599-0.0499c27.3601-174.8101,54.8401-349.6001,82.1801-524.42c-22.78-2.88-45.5601-6.5-67.62-12.97
		c-12.15-3.59-24.3-7.9-34.8199-15.11C1503.84,1105.53,1449.79,1251.11,1430.15,1401.95 M1909.51,982.24
		c-1.67,2.15-4.11,3.46-6.3,4.98c-9.5299,5.89-20.3199,9.29-31.11,12.04c-20.63,5.02-41.7999,7.3-62.95,8.67
		c27.28,171.83,54.83,343.6201,82.01,515.47c32.24-5.76,65.0599-6.16,97.6899-7.27c13.74-0.98,28.5601-1.0699,40.61-8.63
		c7.16-4.58,10.1001-13.35,9.77-21.53c-0.5699-6.6599,0.4301-13.2999,0.54-19.95c1.03-32.6-1.38-65.21-5-97.59
		c-8.36-69.9401-23.05-139.13-43.75-206.4501C1971.27,1099.14,1946.73,1036.96,1909.51,982.24 M1690.49,1004.61
		c-27.33,174.77-54.88,349.49-82.12,524.27c76.96,9.42,155.02,11.04,232.13,2.37c15.34-1.8,30.61-4.13,45.8101-6.9
		c-27.39-172.0599-54.78-344.12-82.2201-516.18C1766.2,1009.89,1728.1899,1008.7,1690.49,1004.61z"/>
	<path d="M251.15,793.26c37.61-0.54,75.26-0.09,112.89-0.22c6.03-0.35,11.89,4.84,11.9,10.95c0.08,13.33,0.01,26.67,0.04,40.01
		c0.54,6.46-5.48,12.51-11.95,11.98c-36.68-0.01-73.35-0.01-110.03,0c-6.48,0.53-12.46-5.55-11.97-12
		c-0.01-12.98-0.01-25.96,0-38.93C241.68,799.57,245.83,794.37,251.15,793.26 M251.16,795.25c-4.27,1.08-7.48,5.3-7.17,9.74
		c-0.03,12.98-0.02,25.96-0.01,38.94c-0.49,5.45,4.49,10.63,10.01,10.1c36.65-0.01,73.3-0.01,109.95-0.01
		c5.08,0.51,10.09-3.8,10.05-8.96c0.06-13.69,0.06-27.39,0-41.08c0.04-5.11-4.93-9.38-9.95-8.99c-24.33-0.03-48.67-0.01-73-0.01
		C277.75,795.15,264.42,794.61,251.16,795.25z"/>
	<path fill="#756A54" d="M1669.28,117.05c38.9199-12.58,81.59-11.76,120.63-0.05c36.74,10.4,68.96,33.7,92.9099,63.13
		c26.4801,32.46,44.42,71.52,53.6001,112.3c9.71,42.81,10.22,88.28-2.52,130.52c-8.09,1.01-16.24,1.49-24.3,2.62
		c-0.24,0.51-0.73,1.52-0.98,2.03c-14.02,42.02-43.92,78.12-81.54,101.21c-1.46,1.23-4.64,1.39-4.37,3.75
		c-0.33-0.11-0.99-0.32-1.3199-0.43c-36.1801,20.48-79.37,28.09-120.42,21.73c-23.64-3.47-46.47-11.8-67.11-23.77
		c-1.74-1.09-3.39-2.25-5.1-3.33c-20.49-13.13-38.6-30.07-52.77-49.88c-6.05-7.6-10.48-16.27-15.46-24.55
		c-1.51-5.21-6.35-8.26-9.23-12.62c-15.8101-21.48-21.9401-48.2-25.66-74.14c-3.37-27.38-3.17-55.16,0.22-82.52
		c2.72-19.19,6.42-38.41,13.63-56.47c7.15-18.59,19.8-34.41,33.2-48.89C1599.16,149.88,1632.46,128.27,1669.28,117.05
		 M1711.8,295.68c-20.9401,8.37-42.3101,15.63-63.74,22.62c-24.1201,7.61-48.3501,14.96-73.01,20.6
		c-9.27,2.05-18.6101,4.03-28.1101,4.64c-1.0599-0.91-2.12-1.8-3.1699-2.68c-5.39,39.07,2.15,79.8,20.96,114.45
		c18.52,34.02,47.5601,62.29,82.3101,79.47c41.12,20.49,89.9099,24.71,134.0299,11.98c34.5801-9.81,65.9601-30.17,89.4601-57.3
		c29.12-33.07,46.1699-76.84,46.21-120.95c-25.33-7.13-50.0599-16.2-74.55-25.8c-17.58-7.39-35.2-14.78-51.9399-23.97
		c-18.1801-9.88-36.12-20.99-50.17-36.41C1731.24,287.94,1721.42,291.69,1711.8,295.68z"/>
	<path fill="#120D07" d="M1498.21,189.48c9.89-4.05,21.48-2.69,30.53,2.85c6.6,4.07,12.53,9.43,16.83,15.92l-0.6499,1.34
		c-4.62-4.54-8.53-9.86-14-13.45c-8.9501-6.69-21.26-9.15-31.77-4.88c-12.88,5.11-22.09,16.4-28.85,28.09
		c-10.9801,19.53-16.7001,41.6-19.4501,63.71c-3.0399,25.41-2.23,51.32,2.8301,76.42c3.6599,17.46,9.3999,34.7,18.84,49.93
		c5.99,9.4,13.65,18.24,23.84,23.18c7.0701,3.56,15.49,4.25,23.09,2.04c6.41-1.9,12.1101-5.71,16.99-10.22
		c0.9801-0.85,1.67-1.96,1.8201-3.27c0.42,1,0.83,2.01,1.3,3.02c-7.3101,7.42-16.9,13.38-27.5701,13.7
		c-10.34,0.59-20.26-4.22-27.73-11.11c-6.49-5.61-11.2-12.84-15.86-19.95c-4.09,7.01-9.9501,14.01-18.24,15.82
		c-8.28,1.7-15.9301-3.8-20.66-10.08c-9.01-12.13-13.48-26.91-16.49-41.53c-4.73-24.36-5.1-49.51-1.71-74.07
		c2.5499-16.65,6.63-33.54,15.73-47.93c4.1-6.4,10.03-12.52,17.87-13.77c5.09-0.86,9.91,1.57,14.0399,4.28
		c2.7101-7.79,6.1901-15.32,10.3701-22.42C1476.2,205.59,1485.42,194.53,1498.21,189.48 M1434.1801,243.23
		c-7.3401,7.52-11.5,17.43-14.79,27.25c-5.78,18.24-8.15,37.42-8.34,56.5c0.01,22.48,2.48,45.29,10.4299,66.45
		c3.12,8.21,7.27,16.32,13.76,22.4c4.1901,3.93,10.28,6.31,15.97,4.48c7.28-2.43,12.38-8.88,15.92-15.4
		c-2.83-6.94-6.48-13.68-8.79-20.89c-11.97-35.25-13.85-73.5-8.2-110.15c1.5699-11.1,4.83-21.83,7.84-32.58
		c-3.04-1.92-6.23-3.99-9.9199-4.16C1442.79,236.88,1437.76,239.52,1434.1801,243.23z"/>
	<path fill="#120D07" d="M1932.1801,191.47c8.6699-2.64,18.33-1.31,26.1899,3.13c9.01,4.86,15.92,12.73,21.5601,21.13
		c4.24-2.78,9.5099-4.64,14.58-3.1c8.1,2.26,13.53,9.4,17.54,16.38c7.38,13.51,11.2,28.66,13.49,43.8
		c3.5499,24.26,3.3099,49.14-0.9601,73.3c-2.7799,14.77-6.9299,29.7-15.2799,42.36c-4.6001,7.13-12.1101,13.11-21.01,12.67
		c-5.8101,12.59-13.61,24.82-24.9,33.16c-7.53,5.61-17.12,8.71-26.52,7.29c-9.02-1.24-17.09-6.32-23.47-12.62
		c0.28-0.46,0.83-1.38,1.11-1.84c7.11,7.48,16.97,13,27.52,12.73c9.1599-0.02,17.6899-4.51,24.34-10.56
		c12.16-11.06,19.63-26.2,25.24-41.42c7.34-21.13,10.79-43.51,11.25-65.84c0.66-25.53-2.47-51.28-10.45-75.59
		c-5.0801-14.35-11.67-28.56-22.12-39.83c-6.01-6.46-13.53-12.02-22.3301-13.76c-8.5499-1.94-17.7,0.23-24.9299,5.04
		c-5.9501,3.73-10.7001,8.97-15.14,14.33c-0.13-0.56-0.38-1.69-0.5-2.25C1913.61,201.63,1922.08,194.52,1932.1801,191.47
		 M1981.14,217.53c14.85,24.12,20.96,52.54,23.21,80.47c1.8101,28.33-0.41,57.19-8.88,84.39c-1.46,5.74-4.2999,11.03-5.7899,16.74
		c5.5699-0.19,10.6899-2.96,14.2699-7.17c8.4801-9.49,12.7001-21.87,15.9801-33.95c5.95-23.43,7.0499-47.88,5.21-71.91
		c-1.86-18.64-5.29-37.55-13.88-54.38c-3.4-6.24-7.65-12.54-14.0701-15.97C1992.09,213.01,1985.52,213.82,1981.14,217.53z"/>
	<path fill="#756950" d="M1499.15,191.26c10.51-4.27,22.8199-1.81,31.77,4.88c5.47,3.59,9.38,8.91,14,13.45
		c-1.77,4.24-4.1001,8.2-5.8401,12.45c-8.1499,19.06-12.2699,39.54-15.1699,59.98c-3.55,28.11-3.89,56.69-0.1901,84.81
		c2.6901,18.56,6.53,37.24,14.54,54.31c-0.15,1.31-0.84,2.42-1.8201,3.27c-4.8799,4.51-10.58,8.32-16.99,10.22
		c-7.6,2.21-16.0199,1.52-23.09-2.04c-10.1899-4.94-17.85-13.78-23.84-23.18c-9.4401-15.23-15.1801-32.47-18.84-49.93
		c-5.0601-25.1-5.87-51.01-2.8301-76.42c2.75-22.11,8.47-44.18,19.4501-63.71C1477.0601,207.66,1486.27,196.37,1499.15,191.26z"/>
	<path fill="#756950" d="M1923.03,197.9c7.23-4.81,16.38-6.98,24.9299-5.04c8.8,1.74,16.3201,7.3,22.3301,13.76
		c10.45,11.27,17.0399,25.48,22.12,39.83c7.98,24.31,11.11,50.06,10.45,75.59c-0.46,22.33-3.91,44.71-11.25,65.84
		c-5.61,15.22-13.08,30.36-25.24,41.42c-6.65,6.05-15.1801,10.54-24.34,10.56c-10.55,0.27-20.41-5.25-27.52-12.73
		c7.01-1,14.1-1.32,21.12-2.34c5.3099-18.17,8.76-36.9,9.67-55.83c2.34-46.72-7.3301-93.91-27.12-136.25
		c-3.12-6.99-7.14-13.53-10.29-20.48C1912.33,206.87,1917.08,201.63,1923.03,197.9z"/>
	<path fill="#756950" d="M1981.14,217.53c4.38-3.71,10.95-4.52,16.0499-1.78c6.42,3.43,10.67,9.73,14.0701,15.97
		c8.59,16.83,12.02,35.74,13.88,54.38c1.84,24.03,0.74,48.48-5.21,71.91c-3.28,12.08-7.5,24.46-15.9801,33.95
		c-3.58,4.21-8.7,6.98-14.2699,7.17c1.49-5.71,4.33-11,5.7899-16.74c8.47-27.2,10.6901-56.06,8.88-84.39
		C2002.1,270.07,1995.99,241.65,1981.14,217.53z"/>
	<path fill="#756950" d="M1434.1801,243.23c3.58-3.71,8.61-6.35,13.88-6.1c3.6899,0.17,6.8799,2.24,9.9199,4.16
		c-3.01,10.75-6.27,21.48-7.84,32.58c-5.65,36.65-3.77,74.9,8.2,110.15c2.3101,7.21,5.9601,13.95,8.79,20.89
		c-3.54,6.52-8.64,12.97-15.92,15.4c-5.6899,1.83-11.7799-0.55-15.97-4.48c-6.49-6.08-10.64-14.19-13.76-22.4
		c-7.95-21.16-10.4199-43.97-10.4299-66.45c0.1899-19.08,2.5599-38.26,8.34-56.5C1422.6801,260.66,1426.84,250.75,1434.1801,243.23z
		"/>
	<path fill="#FEDDAE" d="M328.8,237.77c14.99-12.42,27.38-27.58,39.09-43.03c3.95,10.44,8.48,20.69,13.93,30.45
		c7.71,13.62,17.4,27.02,31.43,34.66c7.33,4.4,15.96,5.77,24.37,6.25c23.1,1.92,46.2,3.84,69.3,5.76
		c-0.32,39.09-11.79,78.16-33.19,110.92c-13.78,21-31.3,39.67-51.97,54.03c-30.68,21.48-68.22,33.17-105.71,32.1
		c-44.36-0.74-87.97-19.34-119.74-50.2c-11.76-10.75-21.63-23.39-30.45-36.62c-23.95-36.92-34.95-81.65-32.53-125.48
		c37.58,3.14,75.15,6.3,112.72,9.45c10.18,0.83,20.54,0.61,30.52-1.73C295.99,260.42,313.79,250.51,328.8,237.77 M394.1,289.13
		c-8.17,1.04-16.77,4.49-21.31,11.71c-3.06,3.34-3.52,8.02-4.67,12.21c0.56,3.15,1.55,6.24,2.61,9.26c1.66,2.59,3.47,5.1,5.38,7.52
		c5.54,3.95,11.98,6.78,18.86,7.02c3.7-0.63,7.46-1.08,11.07-2.12c2.92-1.56,5.97-3.01,8.62-5.01c2.6-3.59,5.97-7.02,6.35-11.67
		c1.21-3.7,0.77-7.51-0.25-11.2c-0.14-3.04-2.36-5.21-4.01-7.55c-2.4-4.08-7.11-5.69-10.94-8.09
		C401.95,290.33,398.04,289.47,394.1,289.13 M244.04,294.21c-8.14,1.05-16.61,4.59-21.21,11.69c-3.13,3.25-3.54,7.94-4.7,12.09
		c0.49,3.16,1.55,6.24,2.58,9.26c2.67,3.6,4.81,8.08,9.24,9.81c4.44,3.06,9.78,4.09,15.03,4.84c3.68-0.47,7.34-1.13,10.97-1.89
		c3.21-1.31,6.19-3.16,9.19-4.9c2.08-2.28,3.78-4.89,5.56-7.41c3.05-7.53,2.91-17.17-2.98-23.33c-2.4-4.11-7.15-5.64-10.98-8.04
		C252.6,295.29,248.31,294.26,244.04,294.21 M307.55,369.74c-6.86,0.67-13.92,0.92-20.44,3.38c-1.82,0.48-0.81,2.73-0.9,4.01
		c0.82,9.52,6.23,18.16,13.44,24.22c9.75,7.9,22.86,11.94,35.35,10.15c12.16-2.17,22.49-9.84,30.91-18.52
		c3.84-4.32,7.74-9.08,8.96-14.87c0.62-2.27-0.69-4.8-3.04-5.32c-8.31-2.63-17.14-2.82-25.77-3.41
		C333.23,368.98,320.37,368.89,307.55,369.74z"/>
	<path fill="#FEDDAE" d="M876.51,237.01c5.58,14.26,13.13,28.45,25.6,37.85c12.15,9.42,27.84,12.11,42.8,13.09
		c-5.43-3.41-10.44-8.3-11.66-14.85c-1.09-6.77-0.09-13.84,1.8-20.35c3.25,8.82,7.24,17.6,13.76,24.53
		c9.08,10.05,22.77,15.36,36.24,14.71c4.02-0.3,8.45-0.4,11.74-3.04c-3.92-3-8.33-5.35-11.81-8.91
		c-6.57-6.07-10.94-14.74-10.67-23.8c9,7.14,17.86,14.47,27.14,21.25c5.85,4.23,11.62,8.79,18.39,11.48
		c0.91-3.24-3.14-7.3,0.53-9.68c8.95-4.85,19.6901-3.9,29.54-3.57c19.0299,1.11,38.0299,2.83,57.0499,4.11
		c21.26,1.19,42.8201,2.94,63.92-0.81c2.8099,17.85,4.9301,35.97,3.5599,54.06c-2.0499,42.99-17.5399,85.25-43.8799,119.29
		c-5.66,7.11-11.8,13.81-17.92,20.52c-10.64,9.62-21.42,19.24-33.6801,26.83c-28.0399,17.98-60.64,28.84-93.91,30.9
		c-14.74,0.11-29.62,0.49-44.11-2.59c-8.63-0.88-16.8-3.86-25.15-5.97c-22.02-7.05-42.88-17.75-61.25-31.82
		c-7.46-5.61-14.0099-12.31-21.17-18.26c-9.1-10.43-18.55-20.63-26.01-32.36c-12.13-18.61-21.55-39.06-27.35-60.53
		c-9.25-33.12-10.02-68.32-3.33-101.99c6.3,6.19,15.01,8.73,23.35,10.82c19.96,4.54,40.5699,5.41,60.97,4.95
		c9.64-0.47,19.57-0.55,28.73-3.96c-3.52-3.44-4.63-8.37-5.91-12.92C880.47,263.19,878.3,250.11,876.51,237.01 M1042.27,317.36
		c-3.17,1.75-6.4301,3.4-9.39,5.47c-2.17,2.55-4.35,5.13-6.15,7.96c-1,3.05-1.9,6.14-2.61,9.27c0.6801,3.31,1.61,6.63,2.91,9.75
		c1.95,2.74,3.87,5.56,6.1899,8.01c2.91,1.74,5.9401,3.33,8.98,4.87c3.5,1,7.12,1.74,10.75,2.21c4.04-0.48,8.0701-1.22,12.0601-2.02
		c3.3199-1.5,6.52-3.31,9.67-5.16c2.0399-2.29,3.7899-4.82,5.6399-7.28c1.87-2.66,1.01-6.49,2.9-9.07
		c6.49-2.94,13.2001-5.41,19.6901-8.37c1.96-0.46,1.0699-3.47-0.77-2.86c-6.65,2.39-12.98,5.7-19.67,7.9
		c-0.48-2.75-0.99-5.48-1.7-8.17c5.14-3.98,10.5499-7.61,15.77-11.51c0.9399-0.63,2.1699-1.81,0.96-2.9
		c-1.03-1.11-2.29,0.26-3.1899,0.76c-5.1901,3.77-10.42,7.49-15.6101,11.27c-3.0699-5.18-8.5699-7.7-13.71-10.32
		c-3.97-0.83-7.97-1.54-11.97-2.06C1049.4,315.63,1045.77,316.33,1042.27,317.36 M850.14,316.05c-1.51,0.47-1.32,2.27-0.12,2.96
		c5.68,4.17,11.38,8.31,17.17,12.33c-3.03,3.39-3.56,7.95-4.91,12.11c-5.11-2.08-10.14-4.36-15.29-6.33
		c-1.82-0.71-2.84,2.33-0.97,2.81c5.5,2.55,11.25,4.55,16.72,7.19c0.95,2.99,1.21,6.35,3.27,8.87c1.79,2.21,3.21,4.76,5.27,6.76
		c2.91,1.72,5.9,3.34,8.93,4.87c3.5099,1.05,7.15,1.73,10.78,2.28c4.01-0.54,8.02-1.22,11.99-2.08c3.33-1.48,6.49-3.35,9.65-5.17
		c2.29-2.76,4.52-5.64,6.38-8.71c1.2-4.93,2.71-10.04,0.84-15.02c-0.28-4.9-4.19-8.23-6.94-11.92c-3.12-2.19-6.5099-4.05-9.91-5.77
		c-3.98-0.84-7.99-1.59-12.01-2.13c-4.72,0.92-9.82,1.24-13.87,4.06c-2.87,1.67-5.94,3.09-8.07,5.71
		c-5.35-3.53-10.44-7.47-15.66-11.19C852.36,317.03,851.42,316.04,850.14,316.05 M951.92,428.25c-6.08,0.66-12.36,1.07-17.98,3.66
		c-0.06,15.04,10.45,28.3,23.64,34.55c11.72,5.82,26.05,7.62,38.33,2.45c11.11-4.55,20.9-12.17,28.3701-21.55
		c2.6699-3.68,5.59-7.73,5.6799-12.47c-0.0599-2.4-2.33-3.83-4.4399-4.28c-7.67-2.05-15.66-2.48-23.54-3.01
		C985.3,426.84,968.56,426.81,951.92,428.25z"/>
	<path fill="#FEDDAE" d="M508.94,278.37c7.03,7.4,9.96,17.76,11.43,27.64c1.74,15.79-0.48,33.05-10.49,45.91
		c-4.61,6.18-13.13,10.13-20.63,6.98C501.17,333.73,507.45,306.12,508.94,278.37z"/>
	<path fill="#FEDDAE" d="M123.87,294.87c1.99-4.26,4.12-8.74,7.66-11.92c1.6,27.8,9.1,55.13,21.15,80.2
		c-5.06,2.51-11.37,2.52-16.16-0.61c-7.85-4.98-12.16-13.89-14.77-22.52C117.64,325.27,118.23,309.14,123.87,294.87z"/>
	<path fill="#FEDDAE" d="M1711.8,295.68c9.62-3.99,19.4399-7.74,28.2799-13.35c14.05,15.42,31.99,26.53,50.17,36.41
		c16.74,9.19,34.36,16.58,51.9399,23.97c24.4901,9.6,49.2201,18.67,74.55,25.8c-0.04,44.11-17.09,87.88-46.21,120.95
		c-23.5,27.13-54.88,47.49-89.4601,57.3c-44.12,12.73-92.9099,8.51-134.0299-11.98c-34.75-17.1801-63.79-45.45-82.3101-79.47
		c-18.8099-34.65-26.35-75.38-20.96-114.45c1.0499,0.88,2.11,1.77,3.1699,2.68c9.5-0.61,18.8401-2.59,28.1101-4.64
		c24.6599-5.64,48.8899-12.99,73.01-20.6C1669.49,311.31,1690.86,304.05,1711.8,295.68 M1784.22,367.18
		c-1.96,2.12-3.78,4.36-5.49,6.66c-1.0599,2.97-2.1799,6-2.58,9.14c0.73,2.79,1.49,5.6,2.6,8.27c1.65,2.34,3.46,4.57,5.3,6.78
		c5.7799,4.11,12.74,6.67,19.87,6.79c3.39-0.57,6.83-0.97,10.21-1.73c3.1801-1.35,6.27-2.96,9.24-4.73
		c3.38-3.79,6.8-7.86,7.04-13.19c6.11-2.7,12.37-5.05,18.5499-7.57c0.9701-0.51,3.1001-1.02,2.3401-2.57
		c-0.37-1.79-2.4601-0.65-3.49-0.31c-5.7001,2.29-11.3401,4.7-17.0801,6.86c-0.3199-2.67-1.63-5.39-1.29-8
		c5.1001-3.7,10.4401-7.1,15.4901-10.89c1.59-1.08-0.17-3.46-1.64-2.37c-5.51,3.54-10.7201,7.54-16.1801,11.15
		c-4.25-6.3-11.78-9.8-19.17-10.63C1799.5601,358.88,1791,362.37,1784.22,367.18 M1613.52,363.51c5.47,4.3,11.53,7.86,16.97,12.18
		c-3.01,2.67-2.95,6.98-4.39,10.47c-5.09-1.96-10.09-4.17-15.2-6.07c-1.85-0.53-2.66,2.27-0.8201,2.82
		c5.5,2.58,11.4,4.34,16.8201,7.1c0.95,4.78,4.0699,8.45,7.1799,12.05c5.8,4.1,12.78,6.68,19.9301,6.75
		c3.35-0.57,6.75-0.97,10.08-1.71c3.2001-1.34,6.3101-2.97,9.29-4.75c2.04-2.35,4.01-4.81,5.71-7.42
		c0.7201-2.65,1.37-5.33,1.79-8.04c-0.36-2.99-1.04-5.93-1.8199-8.82c-2.4801-3.18-4.64-7-8.4401-8.73
		c-2.87-1.41-5.51-3.55-8.8-3.84c-3.9099-0.44-7.83-2.04-11.75-0.94c-3.09,0.68-6.38,0.88-9.09,2.64
		c-2.9199,1.81-6.47,2.9-8.4399,5.89c-6.02-3.69-11.49-8.23-17.53-11.86C1613.74,360.28,1612.1801,362.72,1613.52,363.51
		 M1692.14,465.16c-0.34,8.34,3.29,16.65,9.17,22.5c8.09,8.73,19.9099,13.27,31.62,14.21c10.6399,0.93,21.0199-3.36,29.58-9.38
		c6.8-5.11,13.64-10.67,17.71-18.31c1.0601-2.15,2.2101-4.64,1.55-7.08c-1.0601-2.71-4.41-2.88-6.8-3.54
		c-15.1899-2.62-30.6799-2.6-46.0499-2.51C1716.63,461.65,1703.98,461.35,1692.14,465.16z"/>
	<path fill="#FEDDAE" d="M239.02,451.65c4.2,1.92,8.35,3.95,12.63,5.7c37.82,15.93,81.1,17.79,120.35,6.02
		c0,8.21-0.03,16.42,0.04,24.63c-4.34,4.16-9.43,7.84-12.87,12.95c-11.79,16.31-26.04,30.62-38.37,46.5
		c-14.03-12.35-27.86-24.94-41.78-37.41c-5.53-4.79-10.5-10.24-16.56-14.38c-7.69-5.55-15.1-11.61-23.55-16v-0.64
		C239.12,469.9,238.93,460.77,239.02,451.65z"/>
	<path fill="#FEDDAE" d="M1000.97,549.66c9.21-2.1299,18.88-3.62,27.03-8.74c0.0699,9.4-0.15,18.81,0.12,28.21
		c-11.23,6.68-22.96,12.84-35.66,16.17c-11,2.84-22.78,2.64-33.6-0.88c-12.43-4.07-23.82-10.86-34.16-18.78
		c0.37-4.19,0.46-8.41,0.18-12.61c7.2,3.41,15.4,2.92,23.17,2.9399C965.88,556.13,983.58,553.44,1000.97,549.66z"/>
	<path fill="#FEDDAE" d="M1012.35,1408.53c26.0801-2.0701,52.01-5.91,77.62-11.2001c-2.2999,27.8401-4.59,55.6801-6.87,83.53
		c11.9501,6.53,23.5601,13.67,35.02,21.02c6.71,4.14,12.9401,9.0699,19.88,12.8099c-12.22-1.6399-23.87,3.4701-35.8199,4.9801
		c-16.54,2.6499-33.55-1.66-47.9301-9.92c-13.53-7.72-25.59-17.75-36.73-28.5699c-1.26,0.49-2.47,1.08-3.69,1.6499
		C1013.09,1458.0699,1012.85,1433.29,1012.35,1408.53z"/>
	<path fill="#FEDDAE" d="M875.62,1403.76c0.25-0.61,0.76-1.83,1.02-2.4401c25.28,4.52,50.87,7.2001,76.52,8.3401
		c-0.98,22.7899-2.3799,45.58-3.05,68.38c-0.94-0.38-1.87-0.7201-2.8-1.03c-11.83,11.51-24.71,22.1799-39.33,29.98
		c-10.99,5.9-23.39,9.39-35.9,9.25c-12.75-0.03-24.83-4.6899-37.39-6.11c15.02-9.89,30.09-19.76,45.94-28.29
		C879.1,1455.8101,877.78,1429.72,875.62,1403.76z"/>
	<path fill="#FEDDAE" d="M1922.88,1533.02c4.22,3.62,8.6899,7.53,10.12,13.16C1929.9399,1541.55,1926.37,1537.3101,1922.88,1533.02z
		"/>
	<path fill="#FEDDAE" d="M1181.9399,1544.89c4.03,3.64,8.76,7.24,10.26,12.75C1188.84,1553.33,1185.48,1549.03,1181.9399,1544.89z"
		/>
	<path fill="#FEDDAE" d="M1536.92,1578.15c13.46,3.83,27.3099,6.0499,41.25,7.2999C1564.05,1586.17,1550.04,1583.21,1536.92,1578.15
		z"/>
	<path fill="#FEDDAE" d="M798.63,1591.26c13.26,3.37,26.78,5.71,40.45,6.63C825.32,1598.4,811.47,1596.29,798.63,1591.26z"/>
	<path fill="#6C614C" d="M131.32,256.44c0.51,0.04,1.51,0.12,2.01,0.17c-2.42,43.83,8.58,88.56,32.53,125.48
		c8.82,13.23,18.69,25.87,30.45,36.62c31.77,30.86,75.38,49.46,119.74,50.2c37.49,1.07,75.03-10.62,105.71-32.1
		c20.67-14.36,38.19-33.03,51.97-54.03c21.4-32.76,32.87-71.83,33.19-110.92c0.45,0.04,1.35,0.12,1.8,0.16
		c0.24,1.41,0.06,3.03,1.18,4.12c11.6,13.12,14.3,31.81,12.52,48.7c-1.64,12.14-5.9,24.96-15.71,32.94
		c-5.11,4.32-12.18,5.04-18.45,3.24c-10.85,22.8-26.22,43.44-44.69,60.64c-13.58,13.07-29.55,23.5-46.38,31.9
		c-1.8,0.75-3.6,1.51-5.24,2.58c-4.42,1.2-8.47,3.46-12.87,4.75c-1.63,0.72-3.66,0.87-4.99,2.09c-0.25,8.03-0.01,16.08-0.09,24.12
		c-0.49,0.23-1.47,0.68-1.96,0.9c-0.07-8.21-0.04-16.42-0.04-24.63c-39.25,11.77-82.53,9.91-120.35-6.02
		c-4.28-1.75-8.43-3.78-12.63-5.7c-0.09,9.12,0.1,18.25-0.11,27.37c-0.46-0.14-1.38-0.41-1.84-0.55c-0.23-9.36,0.12-18.74-0.18-28.1
		c-2.76-1.39-5.49-2.87-8.12-4.49c-1.47-0.89-2.97-1.74-4.44-2.62c-30.04-19.05-54.4-46.63-70.6-78.22
		c-4.02,1.5-8.39,2.62-12.67,1.53c-7.12-1.76-12.48-7.44-16.02-13.61c-6.56-11.4-8.61-24.96-7.75-37.95
		c0.83-12.74,5.09-25.51,13.73-35.09C131.29,272.11,130.84,264.26,131.32,256.44 M508.94,278.37c-1.49,27.75-7.77,55.36-19.69,80.53
		c7.5,3.15,16.02-0.8,20.63-6.98c10.01-12.86,12.23-30.12,10.49-45.91C518.9,296.13,515.97,285.77,508.94,278.37 M123.87,294.87
		c-5.64,14.27-6.23,30.4-2.12,45.15c2.61,8.63,6.92,17.54,14.77,22.52c4.79,3.13,11.1,3.12,16.16,0.61
		c-12.05-25.07-19.55-52.4-21.15-80.2C127.99,286.13,125.86,290.61,123.87,294.87z"/>
	<path fill="#0C0A00" d="M394.1,289.13c3.94,0.34,7.85,1.2,11.71,2.08c3.83,2.4,8.54,4.01,10.94,8.09c1.65,2.34,3.87,4.51,4.01,7.55
		c1.02,3.69,1.46,7.5,0.25,11.2c-0.38,4.65-3.75,8.08-6.35,11.67c-2.65,2-5.7,3.45-8.62,5.01c-3.61,1.04-7.37,1.49-11.07,2.12
		c-6.88-0.24-13.32-3.07-18.86-7.02c-1.91-2.42-3.72-4.93-5.38-7.52c-1.06-3.02-2.05-6.11-2.61-9.26c1.15-4.19,1.61-8.87,4.67-12.21
		C377.33,293.62,385.93,290.17,394.1,289.13z"/>
	<path fill="#0C0A00" d="M244.04,294.21c4.27,0.05,8.56,1.08,12.7,2.12c3.83,2.4,8.58,3.93,10.98,8.04
		c5.89,6.16,6.03,15.8,2.98,23.33c-1.78,2.52-3.48,5.13-5.56,7.41c-3,1.74-5.98,3.59-9.19,4.9c-3.63,0.76-7.29,1.42-10.97,1.89
		c-5.25-0.75-10.59-1.78-15.03-4.84c-4.43-1.73-6.57-6.21-9.24-9.81c-1.03-3.02-2.09-6.1-2.58-9.26c1.16-4.15,1.57-8.84,4.7-12.09
		C227.43,298.8,235.9,295.26,244.04,294.21z"/>
	<path fill="#0C0A00" d="M1042.27,317.36c3.5-1.03,7.13-1.73,10.75-2.25c4,0.52,8,1.23,11.97,2.06c5.14,2.62,10.64,5.14,13.71,10.32
		c5.1901-3.78,10.42-7.5,15.6101-11.27c0.8999-0.5,2.1599-1.87,3.1899-0.76c1.21,1.09-0.02,2.27-0.96,2.9
		c-5.2201,3.9-10.63,7.53-15.77,11.51c0.71,2.69,1.22,5.42,1.7,8.17c6.6901-2.2,13.02-5.51,19.67-7.9c1.84-0.61,2.73,2.4,0.77,2.86
		c-6.49,2.96-13.2001,5.43-19.6901,8.37c-1.89,2.58-1.03,6.41-2.9,9.07c-1.85,2.46-3.6,4.99-5.6399,7.28
		c-3.15,1.85-6.3501,3.66-9.67,5.16c-3.99,0.8-8.02,1.54-12.0601,2.02c-3.63-0.47-7.25-1.21-10.75-2.21
		c-3.0399-1.54-6.0699-3.13-8.98-4.87c-2.3199-2.45-4.24-5.27-6.1899-8.01c-1.3-3.12-2.23-6.44-2.91-9.75
		c0.71-3.13,1.61-6.22,2.61-9.27c1.8-2.83,3.98-5.41,6.15-7.96C1035.84,320.76,1039.1,319.11,1042.27,317.36z"/>
	<path fill="#0C0A00" d="M850.14,316.05c1.28-0.01,2.22,0.98,3.25,1.63c5.22,3.72,10.31,7.66,15.66,11.19
		c2.13-2.62,5.2-4.04,8.07-5.71c4.05-2.82,9.15-3.14,13.87-4.06c4.02,0.54,8.03,1.29,12.01,2.13c3.4,1.72,6.79,3.58,9.91,5.77
		c2.75,3.69,6.66,7.02,6.94,11.92c1.87,4.98,0.36,10.09-0.84,15.02c-1.86,3.07-4.09,5.95-6.38,8.71c-3.16,1.82-6.32,3.69-9.65,5.17
		c-3.97,0.86-7.98,1.54-11.99,2.08c-3.63-0.55-7.27-1.23-10.78-2.28c-3.03-1.53-6.02-3.15-8.93-4.87c-2.0601-2-3.48-4.55-5.27-6.76
		c-2.06-2.52-2.32-5.88-3.27-8.87c-5.47-2.64-11.22-4.64-16.72-7.19c-1.87-0.48-0.85-3.52,0.97-2.81
		c5.15,1.97,10.18,4.25,15.29,6.33c1.35-4.16,1.8799-8.72,4.91-12.11c-5.79-4.02-11.49-8.16-17.17-12.33
		C848.82,318.32,848.63,316.52,850.14,316.05z"/>
	<path fill="#0C0A00" d="M1784.22,367.18c6.78-4.81,15.3401-8.3,23.72-6.34c7.39,0.83,14.92,4.33,19.17,10.63
		c5.46-3.61,10.67-7.61,16.1801-11.15c1.47-1.09,3.23,1.29,1.64,2.37c-5.05,3.79-10.39,7.19-15.4901,10.89
		c-0.34,2.61,0.9701,5.33,1.29,8c5.74-2.16,11.38-4.57,17.0801-6.86c1.0299-0.34,3.12-1.48,3.49,0.31
		c0.76,1.55-1.37,2.06-2.3401,2.57c-6.1799,2.52-12.4399,4.87-18.5499,7.57c-0.24,5.33-3.66,9.4-7.04,13.19
		c-2.97,1.77-6.0599,3.38-9.24,4.73c-3.38,0.76-6.8199,1.16-10.21,1.73c-7.13-0.12-14.0901-2.68-19.87-6.79
		c-1.8401-2.21-3.65-4.44-5.3-6.78c-1.11-2.67-1.87-5.48-2.6-8.27c0.4-3.14,1.52-6.17,2.58-9.14
		C1780.4399,371.54,1782.26,369.3,1784.22,367.18z"/>
	<path fill="#0C0A00" d="M1613.52,363.51c-1.34-0.79,0.22-3.23,1.49-2.28c6.04,3.63,11.51,8.17,17.53,11.86
		c1.97-2.99,5.52-4.08,8.4399-5.89c2.71-1.76,6-1.96,9.09-2.64c3.92-1.1,7.8401,0.5,11.75,0.94c3.29,0.29,5.9301,2.43,8.8,3.84
		c3.8,1.73,5.96,5.55,8.4401,8.73c0.7799,2.89,1.46,5.83,1.8199,8.82c-0.42,2.71-1.0699,5.39-1.79,8.04
		c-1.7,2.61-3.6699,5.07-5.71,7.42c-2.98,1.78-6.09,3.41-9.29,4.75c-3.33,0.74-6.73,1.14-10.08,1.71
		c-7.15-0.07-14.13-2.65-19.9301-6.75c-3.11-3.6-6.23-7.27-7.1799-12.05c-5.42-2.76-11.3201-4.52-16.8201-7.1
		c-1.84-0.55-1.0299-3.35,0.8201-2.82c5.11,1.9,10.11,4.11,15.2,6.07c1.4401-3.49,1.38-7.8,4.39-10.47
		C1625.05,371.37,1618.99,367.81,1613.52,363.51z"/>
	<path fill="#404040" d="M307.55,369.74c12.82-0.85,25.68-0.76,38.51-0.36c8.63,0.59,17.46,0.78,25.77,3.41
		c2.35,0.52,3.66,3.05,3.04,5.32c-1.22,5.79-5.12,10.55-8.96,14.87c-8.42,8.68-18.75,16.35-30.91,18.52
		c-12.49,1.79-25.6-2.25-35.35-10.15c-7.21-6.06-12.62-14.7-13.44-24.22c0.09-1.28-0.92-3.53,0.9-4.01
		C293.63,370.66,300.69,370.41,307.55,369.74z"/>
	<path fill="#404040" d="M951.92,428.25c16.64-1.44,33.38-1.41,50.06-0.65c7.88,0.53,15.87,0.96,23.54,3.01
		c2.11,0.45,4.38,1.88,4.4399,4.28c-0.09,4.74-3.01,8.79-5.6799,12.47c-7.47,9.38-17.26,17-28.3701,21.55
		c-12.28,5.17-26.61,3.37-38.33-2.45c-13.19-6.25-23.7-19.51-23.64-34.55C939.56,429.32,945.84,428.91,951.92,428.25z"/>
	<path fill="#404040" d="M1692.14,465.16c11.84-3.81,24.49-3.51,36.78-4.11c15.37-0.09,30.86-0.11,46.0499,2.51
		c2.39,0.66,5.74,0.83,6.8,3.54c0.66,2.44-0.49,4.93-1.55,7.08c-4.0699,7.64-10.9099,13.2-17.71,18.31
		c-8.5601,6.02-18.9401,10.31-29.58,9.38c-11.7101-0.94-23.53-5.48-31.62-14.21C1695.4301,481.81,1691.8,473.5,1692.14,465.16z"/>
	<path fill="#FAD490" d="M831.46,472.4c0.48-0.11,1.43-0.32,1.91-0.42c7.16,5.95,13.71,12.65,21.17,18.26
		c18.37,14.07,39.23,24.77,61.25,31.82c8.35,2.11,16.52,5.09,25.15,5.97c14.49,3.08,29.37,2.7,44.11,2.59
		c33.27-2.06,65.8701-12.92,93.91-30.9c12.26-7.59,23.04-17.21,33.6801-26.83c0.47,0.13,1.41,0.39,1.89,0.52
		c-4.9601,3.59-9.98,7.41-14.1801,11.97c-21.65,17.92-46.86,31.94-74.1899,38.84c3.65,4.77,1.15,11.17,1.84,16.7
		c-8.15,5.12-17.82,6.61-27.03,8.74c-17.39,3.78-35.09,6.47-52.92,6.31c-7.77-0.02-15.97,0.47-23.17-2.9399
		c-0.45-7-0.16-14.03-0.33-21.04c-0.15-2.44,0.79-4.72,1.65-6.94c-6.58-0.4-12.95-2.63-19-5.13c-20.24-6.49-38.62-17.81-55.53-30.47
		c-4.1-2.92-7.54-6.53-11.06-10.09C837.14,477.55,834.96,474.09,831.46,472.4z"/>
	<path fill="#ECECEA" d="M199.15,482.63c3.98-0.45,7.87-1.44,11.76-2.37c8.72-0.54,18.05-0.56,25.88,3.88
		c9.49,5.24,17.95,12.14,26.68,18.52c25.56,23.44,51.82,46.12,77.05,69.94c12.94,12.33,25.78,24.85,37.19,38.64
		c5.8,7.2,11.67,14.66,14.56,23.58c6.14,17.52,9.41,35.88,12.68,54.11c6.07,36.79,10.21,73.88,12.81,111.07
		c-9.2-0.02-18.39,0.04-27.59-0.03c-1.34-11.3199-2.76-22.65-3.25-34.04c-1.08-23.19-1.01-46.64-6.21-69.39
		c-4.39-19.75-12.59-38.62-23.99-55.33c-11.52-17.11-25.19-32.62-39.12-47.78C280.45,554.09,239.83,518.24,199.15,482.63z"/>
	<path fill="#ECECEA" d="M156.11,492.08c12.43-5,25.79-6.9,38.97-8.8c29.5,25.29,58.46,51.23,86.53,78.11
		c26.54,25.88,52.91,52.41,73.8,83.19c9.88,15.11,17.42,31.82,21.6,49.42c5.8,23.33,5.82,47.53,6.87,71.41
		c0.57,11.57,1.85,23.09,3.33,34.59c-1.38-0.01-2.75-0.01-4.12,0c0.48-7.79-6.12-15.1-14-14.96c-39.72-0.09-79.44-0.02-119.16-0.04
		c-8.25-0.6-15.44,6.84-15.02,15c-25.97,0-51.94,0-77.91,0c-0.26-4.55,1.1-9.99-2.42-13.63c-3.51-3.54-9.86-2.68-12.38,1.6
		c-0.07-12.67-0.93-25.3199-1.52-37.97c0.11-5.76,2.03-11.26,3.15-16.87c3.96-18.11,9.46-35.97,11.27-54.48
		c-1.66-0.1801-3.34-0.32-5-0.47c-1.68,17.77-6.97,34.92-10.79,52.3c-5.99,25.46-10.55,51.36-11.9,77.51
		c-1.05,19.32,3.02,38.45,8.39,56.9c5.49,19.13,12.5,37.78,18.81,56.65c4.55,13.83,9.17,27.85,10.3,42.46
		c0,4.4,0.12,9.03-1.76,13.13c-0.9,1.9-1.95,4.13-4.22,4.63c-36.39,12.73-72.64,25.85-109.08,38.42
		c-10.83-34.46-22.01-68.86-30.46-104.01C8.86,872.1,1.19,826.29,7.38,780.97c3.75-22.39,11.42-43.89,19.31-65.1
		c22.74-58.62,52.14-114.32,81.38-169.89c4.76-9.37,10.07-18.47,14.32-28.09c0.26,0.5,0.77,1.51,1.03,2.01
		C130.59,507.16,142.62,497.49,156.11,492.08z"/>
	<path fill="#ECECEA" d="M380.38,489.38c6.12-2.88,13.1-2.64,19.61-1.51c2.21,0.49,4.71,0.22,6.66,1.52
		c-12.81,16.51-25.94,32.8-39.08,49.05c-7.82,10.21-15.91,20.22-22.9,31.02c-6.74-6.21-13.51-12.38-20.23-18.6
		c11.9-15.13,25.36-28.98,36.9-44.4C366.19,499.38,372.55,493.07,380.38,489.38z"/>
	<path fill="#ECECEA" d="M410.41,489.15c12.28,4.84,25.72,4.49,38.45,7.54c14.07,2.83,27.51,9.64,37.23,20.32
		c0.12,0.45,0.36,1.33,0.48,1.78c12.17,14.03,22.6,29.46,32.74,44.9901c21.19,32.72,40.61,66.56,59.39,100.71
		c31.42,57.41,61.23,115.73,88.78,175.11c10.9,23.66,21.5,47.47,30.96,71.75c3.3,8.75,6.7,17.48,9.27,26.4901
		c-35.98,28.81-71.86,57.74-107.78,86.6099c-7.74-7.3799-11.5-17.73-15.36-27.45c-9.52-27.15-15.22-55.43-20.87-83.59
		c-10.18-51.78-18.14-103.99-29.82-155.48c-4.23-17.77-8.64-35.57-15.17-52.66c-2.96-7.44-6.28-14.78-10.78-21.43
		c-1.28,0.79-2.54,1.6-3.82,2.3799c4.19,6.94,7.79,14.21,10.65,21.8c0.49,1.56,1.6,3.21,0.85,4.9
		c-8.89,28.81-17.32,57.79-24.34,87.12c-12.09-0.09-24.18-0.02-36.27-0.04c-0.25-4.36,1.01-9.47-2.16-13.06
		c-3.15-3.74-9.51-3.72-12.65,0.03c-3.1,3.61-2,8.67-2.19,13.03c-5.06,0-10.12,0-15.18,0c-3.17-42.89-7.89-85.73-15.86-128.01
		c-2.88-13.85-5.76-27.81-10.8-41.07c-3.09-8.52-8.9-15.62-14.44-22.66c-10.74-12.98-22.65-24.95-34.88-36.51
		C366.05,542.76,389.85,517.16,410.41,489.15z"/>
	<path fill="#ECECEA" d="M157,847c25.99,0,51.99,0,77.98,0c-0.07,3.95-0.05,8.23,2.32,11.61c2.66,4.27,7.72,6.67,12.7,6.39
		c39.68-0.02,79.36,0.03,119.04-0.02c5.4,0.11,10.56-3.32,12.74-8.22c1.45-3.04,1.2-6.5,1.24-9.76c2.65-0.01,5.31-0.01,7.97,0
		c0.06,21.01-3.7,41.77-8.36,62.19c-7.09,32.1-16.96,63.55-23.51,95.78c-3.08,13.39-7.51,26.47-13.31,38.9301
		c-5.45,12.3099-13.16,23.5599-17.67,36.2899c-28.08,4.9301-56.62,6.6101-85.09,6.79c-27.08,0.15-54.15-1.38-81.06-4.36
		c7.94-11.05,11.5-25,10.41-38.52c4.41,2.1,9.37,5.4,14.42,3.6801c3.87-2.8401,3.45-8.4,4-12.6801c0.12-13.78-1.95-28.05-8.59-40.29
		c-3.33-6.33-9.74-10.16-16.43-12.06c6.68-10.57,3.92-23.8,1.61-35.28c-7.14-29.42-19.58-57.23-27.45-86.43
		c-0.4-2.09,0.5-4.14,1.4-5.96c0.23,6.01,8.32,8.92,12.66,5.05C157.98,856.99,156.84,851.41,157,847z"/>
	<path fill="#ECECEA" d="M393.99,847c8.67,0,17.34,0,26.01,0c-0.11,13.35,0.44,26.86-2,40.04
		c-17.03,60.62-34.17,121.21-51.24,181.83c-11.23,5.14-23.25,8.3101-35.33,10.6901c3.75-9.6001,9.28-18.3301,13.77-27.5701
		c7.44-14.55,13.07-30.02,16.77-45.93c5.21-25.93,12.74-51.31,19.01-76.99C387.57,902.17,394.03,874.86,393.99,847z"/>
	<path fill="#ECECEA" d="M425,847c4.33-0.01,8.67-0.01,13,0c0.12,4.03-0.71,8.69,2.13,12.04c3.15,3.8,9.56,3.83,12.73,0.04
		c2.93-3.31,1.98-8.04,2.14-12.08c9.17,0,18.35,0,27.52,0c-1.37,10.56-2.74,21.22-1.62,31.88c2.86,33.72,10.07,66.85,16.3,100.06
		c4.52,25.07,9.91,50.09,11.61,75.56c0.3,7.05,0.59,14.3-1.35,21.16c-0.79,2.4299-2.27,5.61-5.34,5.34
		c-26.71-0.5-53.42-1.15-80.13-1.71c-21.37-0.6001-42.77-0.6901-64.13-1.5901c4.44-1.6499,9.41-2.8999,13.15-5.73
		c16.65-58.48,33.04-117.06,49.58-175.58C425.93,880.51,424.76,863.5,425,847z"/>
	<path fill="#ECECEA" d="M339.08,1083.09c4.91-0.89,9.92-0.3199,14.89-0.2999c47,1.0499,94.02,1.9399,141.02,3.09
		c4.92,13.08,2.94,27.47,2.74,41.17c-1.12,44.6499-2.23,89.2999-3.35,133.95c-0.32,10.08-0.05,20.22-1.82,30.1899
		c-2.99,19.8-7.62,40.3501-20.14,56.52c-2.14,1.61-4.85,2.05-7.36,2.78c-11.53,3.0701-23.16,6.05-35.04,7.39
		c-21.6-0.99-43.19-2.53-64.78-3.73c-10.15-1.0601-20.24-3.13-29.88-6.51c-10.51-4.28-20.53-11.15-25.81-21.5
		c-4.74-8.59-4.82-18.61-4.54-28.12c-4.18-22.28-8.95-44.52-11.21-67.11c-2.86-25.9501-1.87-52.17,0.7-78.1
		c-1.55-0.14-3.11-0.26-4.66-0.3401c-2.69,26.26-3.55,52.8-0.65,79.0801c2.15,21.73,6.6,43.1499,10.67,64.58
		c-0.98,6.12-4.78,11.58-4.93,17.89c-0.3,7.98-2.73,15.99-7.54,22.4299c-6,8.01-14.93,13.3401-24.22,16.7201
		c-16.04,5.73-33.27,6.74-50.16,6.84c-18.33-0.02-36.66-0.01-55,0c-9.39,0.14-18.85-1.5601-27.39-5.55
		c-20.44-9.46-34.68-29.74-38.94-51.6c-2.27-10.78-1.57-21.86-1.68-32.7999c0-46.02,0-92.04,0-138.0601
		c0.17-12.29-0.67-24.67,1.39-36.85c9.57,5.35,20.55,8.37,31.54,7.96c13.29-0.29,26.27-6.22,35.31-15.9399
		c33.76,3.97,67.8,5.5399,101.78,4.5199C286.53,1090.89,313.1,1088.61,339.08,1083.09z"/>
	<path fill="#FFFFFF" d="M1615.33,540.31c5.37-4.68,12.02-7.5,18.53-10.22c20.64,11.97,43.47,20.3,67.11,23.77
		c41.05,6.36,84.24-1.25,120.42-21.73c0.33,0.11,0.99,0.32,1.3199,0.43c6.27,2.77,12.8,6.14,16.7201,12
		c2.13,3.09,1.8999,7.44-0.3101,10.43c-4.03,5.62-10.45,8.8-16.54,11.67c-9.74,4.28-20.08,7.01-30.46,9.2
		c-22.74,4.54-45.98,6.24-69.14,6.14c-24.14-0.25-48.4-2.29-71.9199-7.91c-11.51-2.98-23.2001-6.46-33.1001-13.2401
		c-3.62-2.65-7.3999-6.1-7.87-10.8199C1609.88,546.09,1612.55,542.78,1615.33,540.31z"/>
	<path fill="#FFFFFF" d="M1819.7,573.53c2.3301-1.55,5.04-2.45,7.74-3.15c30.3701,16.21,61.89,30.87,89.4801,51.72
		c7.83,6.15,15.36,13.26,19.3199,22.61c13.17,27.85,22.23,57.49,36.33,84.93c8.78,18.53,20.3501,35.6,33.3501,51.41
		c5.71,6.35,12.09,12.09,19,17.11c13.7899,10.23,29.59,17.19,44.7001,25.16c7.0198,3.97,14.74,7.93,19.0198,15.1
		c1.99,3.71,3.2002,8.62,1.01,12.49c-18.9199,34.57-37.8298,69.16-56.7,103.76c-21.7-15.72-44.5199-29.84-66-45.87
		c-29.5199-21.66-56.9399-47.02-76.5199-78.22c-1.53-2.91-1.63-6.24-2.05-9.42c-4.73-36.98-9.51-73.95-14.25-110.93
		c-1.64,0.19-3.27,0.38-4.87,0.58c11.38,89.99,23.1,179.94,34.62,269.92c-13.66,9.62-30.36,13.36-46.48,16.56
		c-25.84,4.7-52.16,6.36-78.4,6.58c-28.6801,0.42-57.38-1.06-85.91-4.02c-22.8199-2.56-45.62-6.04-67.84-11.92
		c-13.63-3.77-27.4301-8.1-39.27-16.04c1.5601-84.26,2.9-168.52,4.41-252.78c-1.7001,0-3.35,0.02-5,0.04
		c-0.4501,20.18-0.55,40.37-1.15,60.55c-8.5699,4.66-14.78,12.55-20,20.59c-8.37,13.02-12.95,27.96-20.4399,41.45
		c-19.38,35.74-49.8,64.03-82.25,87.86c-21.2301,15.92-44.01,29.64-65.26,45.53c-5.48-9.36-10.4401-19.01-15.73-28.47
		c-1.4501-2.68-3.4901-5.39-2.8201-8.61c1.88-24.1-11.6799-48.61-33.0599-59.88c-3.42-1.54-4.5-5.49-6.12-8.55
		c-1.4301-6.21,1.9299-12.54,6.59-16.51c7.99-6.92,17.7999-11.14,27.09-15.98c16.55-8.24,33.04-17.42,46.13-30.7
		c6.8199-6.65,12.16-14.59,17.89-22.15c23.24-32.35,35.75-70.5601,50.96-106.96c4.3101-9.28,7.79-19.46,15.54-26.55
		c12.04-11.73,26.58-20.46,40.95-29.02c20.73-12.07,42.3-22.61,63.5-33.81c5.62-3.02,11.3201-5.98,16.4301-9.83
		c3.02,6,4.54,12.62,7.53,18.65c4.13,8.86,10.1599,17.69,19.4299,21.7c11.65,5.45,24.66,7.14,37.4,7.53
		c3.8199,0.01,7.74,0.16,11.5-0.71c2.15-0.73,1.9-4.23-0.36-4.6c-13.4301,0.89-27.12-0.05-40-4.13
		c-5.72-1.95-11.5-4.54-15.4401-9.29c-7.9399-8.88-11.1399-20.64-15.1699-31.55c0.5499-1.05,0.99-2.14,1.3199-3.27
		c9.49,4.29,19.77,6.48,29.91,8.67c29.72,5.68,60.1799,6.91,90.35,5.14c21.52-1.49,43.14-4.29,63.72-10.94
		c-3.3999,9.61-6.5699,19.54-12.6,27.89c-3.9399,5.56-9.66,9.61-15.88,12.24c-11.8199,4.89-24.74,7.09-37.51,6.41
		c-2.4299,0.55-2.2899,4.51,0.2001,4.79c6.21,0.85,12.5399,0.08,18.72-0.82c11.01-1.87,22.24-5.06,31.1899-12.02
		C1810.22,603.81,1814.71,587.87,1819.7,573.53z"/>
	<path fill="#FFFFFF" d="M1430.15,1401.95c19.64-150.84,73.6899-296.4199,152.91-426.02c10.5199,7.21,22.6699,11.52,34.8199,15.11
		c22.0599,6.47,44.84,10.09,67.62,12.97c-27.34,174.8199-54.8199,349.61-82.1801,524.42
		c-22.75,0.4399-45.5199,0.6799-68.2599,0.0499c-16.76-0.4299-33.5701-1.4199-50.0701-4.46c-11.47-2.26-23.01-5.52-32.95-11.8301
		c-14.53-8.74-23.9601-23.7999-29.75-39.37C1425.2,1449.25,1426.87,1425.5,1430.15,1401.95z"/>
	<path fill="#FFFFFF" d="M1909.51,982.24c37.22,54.72,61.76,116.9,81.51,179.74c20.7,67.3201,35.39,136.51,43.75,206.4501
		c3.62,32.38,6.03,64.99,5,97.59c-0.11,6.65-1.11,13.29-0.54,19.95c0.3301,8.1801-2.61,16.9501-9.77,21.53
		c-12.0499,7.5601-26.87,7.65-40.61,8.63c-32.63,1.11-65.45,1.51-97.6899,7.27c-27.1801-171.85-54.73-343.64-82.01-515.47
		c21.15-1.37,42.3199-3.65,62.95-8.67c10.79-2.75,21.5801-6.15,31.11-12.04C1905.4,985.7,1907.84,984.39,1909.51,982.24z"/>
	<path fill="#FFFFFF" d="M1690.49,1004.61c37.7,4.09,75.71,5.28,113.6,3.56c27.4401,172.06,54.8301,344.1201,82.2201,516.18
		c-15.2001,2.77-30.4701,5.1-45.8101,6.9c-77.11,8.67-155.17,7.05-232.13-2.37C1635.61,1354.1,1663.16,1179.38,1690.49,1004.61z"/>
	<path fill="#D8BEEC" d="M1037.58,565.75c1.61-1.14,3.64-0.61,5.4801-0.62c19.84,1.11,39.4099,5.84,57.8099,13.27
		c18.59,7.75,36.36,18.96,48.77,35.0699c5.84,11.3,10.98,22.96,16.5599,34.4c36.64,77.04,73.28,154.07,109.92,231.11
		c1.0699,2.46,2.71,4.78,3.03,7.52c-13.22,12.83-18.62,32.5-15.4401,50.46c1.04,6.72,3.4701,13.13,6.4301,19.23
		c-17.49,12.66-41.91,15.7-61.58,6.41c-7.4701-3.41-13.54-9.13-18.88-15.25c-24.16-27.33-41.3201-60-55.6901-93.31
		c-12.03-28.52-21.9299-57.91-30-87.77c-0.47-0.05-1.42-0.14-1.89-0.19c6.9,28.69,17.04,56.52,27.78,83.95
		c1.62,24.59,2.3099,49.29,1.59,73.9399c-0.5,12.59-1.35,25.2401-4.0399,37.58c-1.5,6.08-3.2301,12.56-7.67,17.22
		c-2.61,2.8-6.73,2.59-10.16,3.57c-48.84,11.96-99.72,14.04-149.66,9.33c-37.55-3.3-74.69-10.03-111.52-17.93
		c-4.43-1.15-9.63-0.58-13.22-3.91c-4.82-4.51-5.61-11.59-6.01-17.82c-0.71-21.94,5.42-43.31,6.98-65.08
		c-0.06-24.95-1.23-49.93-1.1-74.86c8.97-18.37,18.22-36.64,26.77-55.23c2.31-5.55,5.5-10.78,7.14-16.56
		c-0.41-0.19-1.22-0.5601-1.63-0.75c-18.37,41.22-38.73,81.55-60.8,120.91c-17.44,30.54-35.79,60.77-58.21,87.96
		c-5.1201,5.92-10,12.24-16.65,16.53c-3.59-10.55-11.35-18.82-18.75-26.85c-10.48-32.51-24.63-63.7-38.56-94.85
		c53.74-82.44,107.29-165.01,160.92-247.52c0.37,0.27,1.12,0.81,1.49,1.08c0.23,1.41,0.5,2.84,0.75,4.27
		c0.91-3.96,3.88-7.07,4.52-11.09c0.66-4.43,3.79-8.03,7.32-10.56c5.9-4.18,12.9-6.43,19.84-8.23c16.92-4,34.39-5.32,51.7401-5.35
		c5.97,3.66,11.45,8.14,17.63,11.52c13.8799,8.29,30.19,13.84,46.5099,11.4C1004.33,586,1021.28,575.66,1037.58,565.75z"/>
	<path opacity="0.62" fill="#434343" enable-background="new    " d="M1628.53,575.71c-1.39-1.34-1.12-5.09,1.3199-3.27
		C1629.52,573.57,1629.08,574.66,1628.53,575.71z"/>
	<path fill="#605A3C" d="M148.18,786.24c3.42-0.85,6.89,2.26,6.75,5.7c0.18,19.68-0.02,39.38,0.1,59.07
		c0.03,2.69,0.07,5.93-2.37,7.69c-3.5,3.03-9.87,0.11-9.56-4.6c-0.22-20.38-0.06-40.78-0.08-61.16
		C142.62,789.76,144.96,786.57,148.18,786.24z"/>
	<path fill="#605A3C" d="M444.36,786.45c4.16-1.63,8.96,2.12,8.61,6.51c0.1,19.36-0.03,38.72,0.06,58.09
		c-0.08,2,0.05,4.22-1.12,5.98c-1.99,3.4-7.33,3.93-9.95,0.97c-1.96-1.77-1.96-4.58-1.98-7c0.03-19,0.01-38.01,0.02-57.02
		C439.74,790.87,441.29,787.52,444.36,786.45z"/>
	<path fill="#605A3C" d="M132.79,802.02c2.73-0.04,5.47-0.05,8.21,0.02c-0.01,14.32,0.03,28.64-0.02,42.96
		c-1.69-0.02-3.39-0.04-5.08-0.04C132.69,830.91,131.37,816.39,132.79,802.02z"/>
	<path fill="#605A3C" d="M157.02,802c25.99,0.01,51.97-0.01,77.95-0.01c0.05,14.34,0.02,28.67,0.01,43.01
		c-25.98,0.01-51.96,0-77.95,0C156.96,830.66,157,816.33,157.02,802 M194.3,816.43c-2.8,0.78-5.18,3.01-5.86,5.87
		c-1.2,4.04,1.1,8.87,5.23,10.1c4.99,2,11.18-1.9,11.2-7.35C205.47,819.48,199.64,814.71,194.3,816.43z"/>
	<path fill="#605A3C" d="M383.02,802.02c18.33-0.02,36.65-0.04,54.97,0c0.01,14.32,0.05,28.65-0.03,42.99
		c-18.32-0.02-36.63,0.02-54.95-0.03C383.02,830.66,382.98,816.34,383.02,802.02 M408.44,816.55c-3.07,1.08-5.35,4.11-5.37,7.4
		c-0.57,4.52,3.27,9.12,7.91,8.91c4.75,0.31,8.53-4.38,7.94-8.94C419.01,818.75,413.3,814.66,408.44,816.55z"/>
	<path fill="#605A3C" d="M455,802.03c12.01-0.04,24.03-0.09,36.04,0.02c3.72-0.24,7.08,3.1,6.91,6.83
		c0.09,9.74,0.08,19.48,0.01,29.23c0.28,3.8-3.13,7.14-6.92,6.84c-12.01,0.12-24.03,0.02-36.04,0.04
		C455,830.67,455,816.35,455,802.03 M479.26,816.44c-4.83,1.16-7.58,7.07-5.4,11.53c1.76,4.48,7.73,6.23,11.8,3.86
		c3.58-1.81,5.1-6.49,3.77-10.18C488.11,817.56,483.34,815.2,479.26,816.44z"/>
	<path fill="#EBECEC" d="M245.42,787.61c1.81-0.62,3.74-0.59,5.63-0.62c37.62,0.02,75.24,0.01,112.87,0.01
		c3.34,0.06,6.91-0.39,10.02,1.15c4.23,1.8,7.11,6.2599,7.04,10.86c0.03,17.36,0.04,34.72-0.01,52.08
		c0.14,6.37-5.57,12.05-11.94,11.89c-40.04,0.04-80.08,0.04-120.12,0c-6.4,0.15-11.95-5.64-11.88-11.97
		c-0.05-17.34-0.06-34.68,0.01-52.02C237.01,793.91,240.57,789.09,245.42,787.61 M251.15,793.26c-5.32,1.11-9.47,6.31-9.12,11.79
		c-0.01,12.97-0.01,25.95,0,38.93c-0.49,6.45,5.49,12.53,11.97,12c36.68-0.01,73.35-0.01,110.03,0c6.47,0.53,12.49-5.52,11.95-11.98
		c-0.03-13.34,0.04-26.68-0.04-40.01c-0.01-6.11-5.87-11.3-11.9-10.95C326.41,793.17,288.76,792.72,251.15,793.26z"/>
	<path fill="#FAFBFD" d="M251.16,795.25c13.26-0.64,26.59-0.1,39.88-0.27c24.33,0,48.67-0.02,73,0.01c5.02-0.39,9.99,3.88,9.95,8.99
		c0.06,13.69,0.06,27.39,0,41.08c0.04,5.16-4.97,9.47-10.05,8.96c-36.65,0-73.3,0-109.95,0.01c-5.52,0.53-10.5-4.65-10.01-10.1
		c-0.01-12.98-0.02-25.96,0.01-38.94C243.68,800.55,246.89,796.33,251.16,795.25z"/>
	<path fill="#3A3D37" d="M195.18,818.3c5.41-1.5,10.29,6.06,6.25,10.17c-2.44,3.47-8.35,3.15-10.28-0.66
		C188.68,824.34,191.12,819.1,195.18,818.3z"/>
	<path fill="#3A3D37" d="M409.2,818.38c4.12-1.5,8.43,2.51,7.75,6.7c0.08,4.09-4.69,7.15-8.37,5.33
		C403.61,828.32,403.98,819.92,409.2,818.38z"/>
	<path fill="#3A3D37" d="M480.26,818.3c5.14-1.35,9.76,5.34,6.6,9.63c-2.09,3.64-7.95,4.11-10.28,0.5
		C473.55,825.02,475.81,819.03,480.26,818.3z"/>
	<path opacity="0.48" fill="#030401" enable-background="new    " d="M136.11,847.16C139.28,847.35,134.61,850.29,136.11,847.16z"/>
	<path fill="#FEDFB3" d="M2045.1899,942.05c16.54-30.14,32.8401-60.42,49.5601-90.45c14.6899,3.06,27.8201,12.02,36.48,24.23
		c11.27,15.66,14.6799,36.95,7.8401,55.12c-5.72,15.81-19.6001,28.38-35.98,32.27C2081.79,968.5,2058.3701,959.31,2045.1899,942.05z
		"/>
	<path fill="#FEDFB3" d="M1309.47,873.63c16.11-2.39,32.8401,3.23,45.03,13.84c15.6,13.41,24.01,35.0601,20.53,55.46
		c-2.3401,15.74-12.0901,30.31-26.15,37.91c-14.58,8.24-33,8.37-48.09,1.4c-16.9301-7.58-29.8301-23.36-34.1001-41.38
		c-4.5-17.38-0.36-37.01,11.64-50.52C1286.3101,881.32,1297.55,875.3,1309.47,873.63z"/>
	<path fill="#FEDFB3" d="M614.83,1018.41c31.87-25.47,63.63-51.08,95.38-76.71c10.88,6.38,19.02,17.65,20.75,30.24
		c1.86,12.7-2.53,25.72-10.22,35.78c-11.23,14.8701-28.54,24.4601-46.69,27.88c-14.59,2.85-30.2,1.4601-43.65-5.0599
		C624.55,1027.55,618.65,1023.84,614.83,1018.41z"/>
	<path fill="#FEDFB3" d="M1231.73,970.11c13.98,0.22,28.13-3.86,39.46-12.16c5.91,10.05,14.39,18.67,24.7001,24.21
		c15.5499,8.57,35.21,9.86,51.3099,1.97c-5.26,12.12-16,21.39-28.2999,25.89c-19.8201,7.45-42.8201,3.94-60.47-7.39
		C1246.3101,995.05,1236.74,983.51,1231.73,970.11z"/>
	<path fill="#FEDFB3" d="M144.04,992.3c6.88-2.65,14.12-4.46,20.73-7.73c5.24,1.79,10.78,4.03,14,8.8
		c5.42,7.79,7.55,17.32,9.06,26.54c0.88,8.03,1.91,16.44-0.67,24.2701c-0.46,1.75-2.54,2.4099-4.15,1.97
		c-3.82-0.75-7.25-2.72-10.61-4.59C169.95,1022.25,159.71,1003.95,144.04,992.3z"/>
	<path fill="#FEDFB3" d="M59.1,1022.23c27.68-9.51,55.16-19.61,82.85-29.06c12.6,9.66,22.39,23.24,26.32,38.72
		c4.22,15.42,2.59,32.73-5.95,46.42c-7.2,11.83-19.82,20.1-33.49,22.1699c-16.04,2.49-32.65-3.02-45.13-13.14
		C64.76,1072.16,53.9,1046.28,59.1,1022.23z"/>
	<path fill="#9751CB" d="M1131.63,948.51c0.21-0.12,0.63-0.35,0.84-0.47c37.91,129.8701,76.1901,259.6301,114.23,389.46
		c0.8501,3.59,2.51,7.01,2.78,10.73c-40.33,14.28-80.97,27.9-122.47,38.4501c-45.63,11.6399-92.36,19.8999-139.53,21.1
		c-53.34,1.72-106.55-5.97-158.42-18c-27.15-5.9301-53.87-13.5801-80.68-20.8401c3.01-17.3099,6.98-34.48,10.36-51.74
		c23.81-116.75,47.86-233.46,71.52-350.2399c1.69,2.19,3.24,4.69,5.85,5.91c3.63,2.17,8.02,1.8,12,2.88
		c46.07,9.77,92.68,17.89,139.82,19.81c42.31,1.89,84.93-1.94,126.08-12.1c5.89-0.35,9.72-5.46,11.87-10.45
		C1129.15,965.24,1130.66,956.84,1131.63,948.51z"/>
	<path fill="#040000" d="M324.46,1347.16c0.33-0.15,0.97-0.4301,1.29-0.5801c3.18,0.5901,6.33,1.6901,9.61,1.0601
		c9.64,3.38,19.73,5.45,29.88,6.51c21.59,1.2,43.18,2.74,64.78,3.73c11.88-1.34,23.51-4.3199,35.04-7.39
		c2.51-0.73,5.22-1.17,7.36-2.78c2.47-0.1699,4.88-0.7799,7.15-1.77c0.2,1.3401,0.43,2.6801,0.46,4.0801
		c-0.07,30.3099-0.01,60.63-0.03,90.95c0.21,5.5701-0.43,11.22,0.29,16.75c8.86,11.86,14.39,26.3401,14.64,41.22
		c0.18,26.3501-0.01,52.7001,0.1,79.05c-0.08,1.4301,0.28,3.71-1.53,4.24c-32.91,7.8101-66.61,13.15-100.51,12.76
		c-26.17-0.33-52.29-2.52-78.47-2.55c-3.86-3.83-7.7-7.6699-11.52-11.5299c0.04-26.9601-0.07-53.9301,0.05-80.89
		c0.2-18.79,8.34-37.23,21.93-50.17c0.02-11.53,0.05-23.0499-0.01-34.5699c-1.12-0.26-1.89-0.89-2.28-1.89
		c3.24,0,2.14-3.33,2.34-5.4401c-0.07-16.6599-0.01-33.33-0.03-49.99C324.94,1354.35,325.36,1350.6899,324.46,1347.16
		 M330.01,1352.71c-0.03,19.78,0,39.5701-0.01,59.3501c24.38-3.2401,48.72-6.75,73.09-10.0701c10.61-1.26,21.24-3.91,31.97-2.5
		c2.43,0.45,5.7,0.98,6.61,3.7c0.3,1.52,1.02,4.28-1.46,3.92c-0.28-1.79,0.05-4.39-2.19-4.9399c-9.88-2.9-20.12,0.0399-30.05,1.0699
		c-25.98,3.58-51.95,7.25-77.95,10.73c-0.01,10.4401-0.1,20.9,0.05,31.35c12.56-9.5399,28.08-15.2,43.91-15.2699
		c16.36-0.1001,32.71-0.05,49.07-0.03c12.4,0.01,24.79,3.16,35.62,9.23c6.02,3.21,11.12,7.75,16.28,12.14
		c0.09-32.83,0.07-65.67,0.01-98.5c-22.43,6.45-45.48,12.11-69,11.61C380.22,1364.3,355,1358.34,330.01,1352.71 M333.28,1449.3101
		c-15.42,11.98-25.08,31.08-25.22,50.6499c-0.1,26.3101-0.09,52.63-0.01,78.9401c2.91,2.83,5.73,5.74,8.65,8.5699
		c33.94,0.0601,67.85,4.0701,101.79,1.8101c24.1-1.72,47.97-5.91,71.49-11.35c0.01-26,0.07-51.9901-0.03-77.9901
		c-0.08-19.83-10.03-39.2-25.82-51.12c-11.42-8.7699-25.7-13.6499-40.1-13.7699c-16.68-0.0801-33.37-0.0901-50.06,0
		C359.32,1435.1899,344.8,1440.24,333.28,1449.3101z"/>
	<path fill="#040000" d="M227.25,1364.14c15.29-2.9501,30.56-6.1,45.68-9.88c0.15,21.59,0.06,43.1799,0.04,64.77
		c-0.19,1.38,0.45,2.61,0.95,3.88c-0.57,1.2999-1.07,2.65-0.95,4.14c0.11,10.58-0.09,21.1699,0.11,31.76
		c13.91,13.11,22,32.0599,21.9,51.1699c0.05,26.64,0,53.28,0.02,79.9301c-3.81,3.87-7.69,7.6899-11.52,11.5499
		c-24.94,0.01-49.81,1.9601-74.74,2.54h-16.39c-29.29-1.1899-58.34-5.9399-86.82-12.77c-1.39-0.37-1.61-2.03-1.53-3.2
		c-0.01-24.01,0.01-48.03-0.01-72.04c-0.14-8.48,0.34-17.05,2.74-25.23c2.18-8.3101,6.35-15.89,11.08-22.97
		c0.48-7.5801,0.04-15.2101,0.19-22.8c0-30.24,0-60.48,0-90.72c0.82,0.1699,2.46,0.51,3.28,0.6899
		c13.26,4.3101,26.88,7.3401,40.48,10.29c10.34,1.45,20.78,2.47,31.23,2.25C204.49,1367.45,215.9,1365.85,227.25,1364.14
		 M123.03,1360.88c-0.05,6.42-0.06,12.84,0,19.26c18.37,3.9399,36.64,8.33,54.97,12.4c4.58,1.11,9.47,2.33,14.11,0.8199
		c2.38-0.73,1.76-3.62,2.09-5.49c1.46-0.0699,2.03,0.63,1.72,2.09c0.32,2.52-1.45,4.9301-3.92,5.48
		c-4.31,0.9801-8.83,0.39-13.05-0.71c-18.64-4.23-37.27-8.51-55.91-12.6899c-0.04,26.4399-0.11,52.89,0.03,79.33
		c4.64-4.12,9.17-8.4399,14.55-11.61c11.16-6.95,24.25-10.62,37.38-10.73c12.32-0.0801,24.64-0.01,36.97-0.03
		c8.39,0.05,16.88-0.38,25.15,1.34c11.21,2.01,21.77,6.99,30.8,13.89c0.14-10.39,0.11-20.79,0.02-31.1699
		c-30.64-4.5-61.27-9.0701-91.91-13.5901c-5.8-0.61-12.03-1.1699-17.54,1.11c-2.51,0.8401-0.31,5.24-3.17,5.3401
		c-0.69-2.8501-0.1-6.4301,3.07-7.42c8.6-2.84,17.86-0.92,26.59,0.33c27.66,4.13,55.32,8.26,83,12.3101
		c0.04-20.14,0.02-40.28,0.01-60.42c-26.6,6-53.51,12.39-80.97,11.76C165.2,1372.27,143.9,1366.8101,123.03,1360.88 M147.24,1450.26
		c-22.23,10.08-37.72,33.26-38.15,57.72c-0.18,26.3201-0.09,52.66-0.04,78.99c32.11,7.4301,64.96,12.5701,98,12
		c24.86-0.4199,49.66-2.36,74.53-2.53c2.64-2.96,5.72-5.5199,8.28-8.5399c0.32-25.61,0.06-51.25,0.13-76.87
		c0.3-16.9401-6.19-33.91-17.91-46.16c-12.07-12.86-29.42-20.53-47.05-20.8C209.02,1443.91,193.01,1444.04,177,1444
		C166.79,1443.92,156.51,1445.91,147.24,1450.26z"/>
	<path fill="#796F22" d="M330.01,1352.71c24.99,5.63,50.21,11.5901,75.95,11.79c23.52,0.5,46.57-5.16,69-11.61
		c0.06,32.83,0.08,65.67-0.01,98.5c-5.16-4.39-10.26-8.9301-16.28-12.14c-10.83-6.0699-23.22-9.22-35.62-9.23
		c-16.36-0.02-32.71-0.0701-49.07,0.03c-15.83,0.0699-31.35,5.73-43.91,15.2699c-0.15-10.45-0.06-20.9099-0.05-31.35
		c26-3.48,51.97-7.15,77.95-10.73c9.93-1.03,20.17-3.97,30.05-1.0699c2.24,0.5499,1.91,3.1499,2.19,4.9399
		c2.48,0.36,1.76-2.4,1.46-3.92c-0.91-2.72-4.18-3.25-6.61-3.7c-10.73-1.41-21.36,1.24-31.97,2.5
		c-24.37,3.3201-48.71,6.83-73.09,10.0701C330.01,1392.28,329.98,1372.49,330.01,1352.71 M419,1384.71
		c-4.21,1.02-8.78,1.99-13.01,0.62c-2.38-0.6899-1.75-3.49-2.01-5.33c-0.49,0-1.46,0.01-1.94,0.01c0.1,2.34-0.21,5.4299,2.28,6.74
		c4.25,2.08,9.26,1.21,13.71,0.23c18.65-4.41,37.39-8.52,56.02-13.03c-0.03-0.47-0.11-1.4099-0.14-1.87
		C455.59,1376.22,437.3,1380.5,419,1384.71z"/>
	<path fill="#796F22" d="M123.03,1360.88c20.87,5.9301,42.17,11.39,63.99,11.6c27.46,0.63,54.37-5.76,80.97-11.76
		c0.01,20.14,0.03,40.28-0.01,60.42c-27.68-4.05-55.34-8.1801-83-12.3101c-8.73-1.25-17.99-3.1699-26.59-0.33
		c-3.17,0.99-3.76,4.5699-3.07,7.42c2.86-0.1001,0.66-4.5,3.17-5.3401c5.51-2.2799,11.74-1.72,17.54-1.11
		c30.64,4.52,61.27,9.0901,91.91,13.5901c0.09,10.3799,0.12,20.7799-0.02,31.1699c-9.03-6.9-19.59-11.88-30.8-13.89
		c-8.27-1.72-16.76-1.2899-25.15-1.34c-12.33,0.02-24.65-0.05-36.97,0.03c-13.13,0.11-26.22,3.78-37.38,10.73
		c-5.38,3.17-9.91,7.49-14.55,11.61c-0.14-26.4399-0.07-52.89-0.03-79.33c18.64,4.1799,37.27,8.46,55.91,12.6899
		c4.22,1.1,8.74,1.6901,13.05,0.71c2.47-0.5499,4.24-2.96,3.92-5.48c0.31-1.46-0.26-2.1599-1.72-2.09
		c-0.33,1.87,0.29,4.76-2.09,5.49c-4.64,1.51-9.53,0.29-14.11-0.8199c-18.33-4.0701-36.6-8.4601-54.97-12.4
		C122.97,1373.72,122.98,1367.3,123.03,1360.88z"/>
	<path fill="#796F22" d="M333.28,1449.3101c11.52-9.0701,26.04-14.1201,40.69-14.26c16.69-0.0901,33.38-0.0801,50.06,0
		c14.4,0.12,28.68,5,40.1,13.7699c15.79,11.92,25.74,31.29,25.82,51.12c0.1,26,0.04,51.9901,0.03,77.9901
		c-23.52,5.4399-47.39,9.63-71.49,11.35c-33.94,2.26-67.85-1.75-101.79-1.8101c-2.92-2.83-5.74-5.74-8.65-8.5699
		c-0.08-26.3101-0.09-52.63,0.01-78.9401C308.2,1480.39,317.86,1461.29,333.28,1449.3101z"/>
	<path fill="#796F22" d="M147.24,1450.26c9.27-4.35,19.55-6.34,29.76-6.26c16.01,0.04,32.02-0.09,48.03,0.0699
		c17.63,0.27,34.98,7.9401,47.05,20.8c11.72,12.25,18.21,29.22,17.91,46.16c-0.07,25.62,0.19,51.26-0.13,76.87
		c-2.56,3.02-5.64,5.58-8.28,8.5399c-24.87,0.17-49.67,2.1101-74.53,2.53c-33.04,0.5701-65.89-4.5699-98-12
		c-0.05-26.33-0.14-52.6699,0.04-78.99C109.52,1483.52,125.01,1460.34,147.24,1450.26z"/>
	<path opacity="0.74" fill="#4E4131" enable-background="new    " d="M951.06,1519.6899c0.17-4.5399,1.62-8.84,2.96-13.12
		C953.74,1511.0601,952.83,1515.53,951.06,1519.6899z"/>
	<path opacity="0.75" fill="#483B2C" enable-background="new    " d="M950.18,1522.21c0.2-0.5699,0.6-1.72,0.79-2.2899
		C950.78,1520.49,950.38,1521.64,950.18,1522.21z"/>
</g>
</svg>
