<?xml version="1.0" encoding="UTF-8" standalone="no"?>
<!-- Created with Inkscape (http://www.inkscape.org/) -->

<svg
   xmlns:dc="http://purl.org/dc/elements/1.1/"
   xmlns:cc="http://creativecommons.org/ns#"
   xmlns:rdf="http://www.w3.org/1999/02/22-rdf-syntax-ns#"
   xmlns:svg="http://www.w3.org/2000/svg"
   xmlns="http://www.w3.org/2000/svg"
   xmlns:sodipodi="http://sodipodi.sourceforge.net/DTD/sodipodi-0.dtd"
   xmlns:inkscape="http://www.inkscape.org/namespaces/inkscape"
   width="210mm"
   height="297mm"
   viewBox="0 0 744.09448819 1052.3622047"
   id="svg3875"
   version="1.1"
   inkscape:version="0.91 r"
   sodipodi:docname="girl3.svg">
  <defs
     id="defs3877" />
  <sodipodi:namedview
     id="base"
     pagecolor="#ffffff"
     bordercolor="#666666"
     borderopacity="1.0"
     inkscape:pageopacity="0.0"
     inkscape:pageshadow="2"
     inkscape:zoom="0.35"
     inkscape:cx="375"
     inkscape:cy="520"
     inkscape:document-units="px"
     inkscape:current-layer="layer1"
     showgrid="false"
     inkscape:window-width="1355"
     inkscape:window-height="712"
     inkscape:window-x="0"
     inkscape:window-y="0"
     inkscape:window-maximized="1" />
  <metadata
     id="metadata3880">
    <rdf:RDF>
      <cc:Work
         rdf:about="">
        <dc:format>image/svg+xml</dc:format>
        <dc:type
           rdf:resource="http://purl.org/dc/dcmitype/StillImage" />
        <dc:title></dc:title>
      </cc:Work>
    </rdf:RDF>
  </metadata>
  <g
     inkscape:label="Layer 1"
     inkscape:groupmode="layer"
     id="layer1">
    <path
       inkscape:connector-curvature="0"
       style="fill:#090a04"
       d="m 483.65147,35.714564 1.36,-0.225165 c 5.05,2.721907 9.15,6.14583 13.13,9.530002 13.96,12.609537 23.38,27.126404 31.26,41.782344 8.16,15.655955 14.39,31.749015 18.97,48.034125 3.85,14.51024 7.62,29.22578 6.51,44.01418 -3.73,-0.19206 -7.45,-0.39735 -11.17,-0.59604 -0.45,-0.0265 -1.35,-0.0795 -1.8,-0.10596 -23.1,-1.27155 -46.2,-2.5431 -69.3,-3.81466 -8.41,-0.31788 -17.04,-1.22519 -24.37,-4.13915 -14.03,-5.05972 -23.72,-13.93407 -31.43,-22.95414 -5.45,-6.4637 -9.98,-13.25193 -13.93,-20.16599 -11.71,10.23201 -24.1,20.27196 -39.09,28.4973 -15.01,8.43726 -32.81,15.00032 -52.23,17.58978 -9.98,1.5497 -20.34,1.6954 -30.52,1.14572 -37.57,-2.08614 -75.14,-4.1789 -112.72,-6.25842 -0.5,-0.0331 -1.5,-0.0861 -2.01,-0.11258 -3.69,-0.21192 -7.39,-0.41723 -11.09,-0.60266 1.62,-11.77509 7.07,-23.12632 12.55,-34.3186 2.63,-5.01998 5.53,-9.97373 8.34,-14.95396 9.47,-15.14602 19.46,-30.358267 34.01,-43.716162 1.24,-0.867564 2.09,-2.463629 4.29,-2.251702 -4.55,4.443806 -9.46,8.735284 -13.36,13.457234 -13.05,15.17913 -23.05,31.41789 -31.85,47.85532 -5.37,10.74194 -10.35,21.67595 -12.29,32.96096 42.34,2.33118 84.68,4.74183 127.02,7.02664 22.13,1.14572 44.46,-3.07291 63.07,-10.94725 22.23,-9.31146 39.76,-22.66273 55.18,-36.59681 -4.71,-7.84784 -8.47,-15.92748 -13.18,-23.77533 -1.38,-2.311312 -2.6,-4.675593 -3.28,-7.125983 2.83,0.860945 2.48,3.264975 3.72,4.894144 9.29,15.927489 16.44,32.530499 29.19,47.471209 7.31,8.44388 16.45,16.66922 29.4,21.61635 6,2.47025 12.98,3.75505 19.99,4.10605 28.48,1.56295 56.95,3.15239 85.43,4.69546 0.53,-8.23196 -0.68,-16.4573 -2.26,-24.61641 -3.69,-18.31165 -9.51,-36.43124 -17.46,-54.146851 -6,-12.847945 -12.94,-25.563449 -22.29,-37.523967 -7.04,-9.516756 -16.29,-18.34476 -27.79,-25.729028 z"
       id="path7" />
    <path
       inkscape:connector-curvature="0"
       style="fill:#090a04"
       d="m 424.63147,52.257969 c 12.71,2.794762 23.74,8.172358 33.94,13.794995 13.84,7.788246 25.93,16.861282 36.69,26.530362 11.69,10.761814 21.76,22.483914 27.48,35.252394 2.22,5.62926 4.03,11.44395 3.15,17.29176 -0.34,1.07287 0.13,2.54972 -1.5,3.23186 -0.71,-1.4901 -0.01,-3.03318 0.04,-4.54315 0.62,-7.39088 -2.43,-14.64269 -6.07,-21.55012 -6.55,-11.1658 -15.83,-21.56999 -26.66,-31.139736 -12.16,-10.629357 -26.08,-20.457379 -42.13,-28.550272 -7.5,-3.675573 -15.54,-6.920673 -24.24,-9.212108 -0.17,-0.278153 -0.53,-0.83446 -0.7,-1.105985 z"
       id="path9" />
    <path
       inkscape:connector-curvature="0"
       style="fill:#090a04"
       d="m 222.41147,91.775361 c 0.3,0.139072 0.89,0.410597 1.19,0.549678 -8.62,8.126001 -14.69,17.278511 -20.24,26.457511 -5.53,10.35121 -11.45,21.25873 -9.2,32.41128 -0.32,0.15233 -0.97,0.45697 -1.29,0.60929 -2.76,-11.19892 3.11,-22.30511 8.68,-32.72917 5.68,-9.4704 11.76,-19.01365 20.86,-27.298589 z"
       id="path11" />
    <path
       inkscape:connector-curvature="0"
       style="fill:#090a04"
       d="m 229.29147,538.79806 c 5.34,-1.13909 11.17,2.01991 10.57,5.70873 -0.02,3.60935 -6.21,6.19218 -11.2,4.86765 -4.13,-0.81458 -6.43,-4.01332 -5.23,-6.68888 0.68,-1.89408 3.06,-3.37093 5.86,-3.8875 m 0.88,1.23844 c -4.06,0.52981 -6.5,4.00009 -4.03,6.29814 1.93,2.52324 7.84,2.73517 10.28,0.4371 4.04,-2.72191 -0.84,-7.72864 -6.25,-6.73524 z"
       id="path25" />
    <path
       inkscape:connector-curvature="0"
       style="fill:#090a04"
       d="m 443.43147,538.87754 c 4.86,-1.25169 10.57,1.45698 10.48,4.8809 0.59,3.01992 -3.19,6.12595 -7.94,5.92065 -4.64,0.13907 -8.48,-2.90735 -7.91,-5.90079 0.02,-2.17885 2.3,-4.18552 5.37,-4.90076 m 0.76,1.21194 c -5.22,1.01989 -5.59,6.58292 -0.62,7.96706 3.68,1.20532 8.45,-0.82121 8.37,-3.52988 0.68,-2.7749 -3.63,-5.43058 -7.75,-4.43718 z"
       id="path27" />
    <path
       inkscape:connector-curvature="0"
       style="fill:#090a04"
       d="m 514.25147,538.80468 c 4.08,-0.8212 8.85,0.74174 10.17,3.45041 1.33,2.44376 -0.19,5.54316 -3.77,6.74186 -4.07,1.56957 -10.04,0.41061 -11.8,-2.55634 -2.18,-2.95371 0.57,-6.86769 5.4,-7.63593 m 1,1.23182 c -4.45,0.48345 -6.71,4.45043 -3.68,6.70875 2.33,2.39078 8.19,2.07952 10.28,-0.33113 3.16,-2.84112 -1.46,-7.27168 -6.6,-6.37762 z"
       id="path29" />
    <path
       inkscape:connector-curvature="0"
       style="fill:#090a04"
       d="m 453.99147,915.15033 c 18.3,-2.78813 36.59,-5.62267 54.91,-8.36438 0.03,0.30468 0.11,0.92712 0.14,1.23839 -18.63,2.98687 -37.37,5.70872 -56.02,8.62931 -4.45,0.64908 -9.46,1.2252 -13.71,-0.15224 -2.49,-0.8677 -2.18,-2.91401 -2.28,-4.46375 0.48,0 1.45,-0.009 1.94,-0.009 0.26,1.21861 -0.37,3.07293 2.01,3.52986 4.23,0.90734 8.8,0.26494 13.01,-0.4106 z"
       id="path31" />
    <path
       inkscape:connector-curvature="0"
       style="fill:#fdd330"
       d="m 278.97147,11.912743 c 18.96,-6.1789431 39.86,-9.6624555 60.95,-10.2982355 38.03,-1.11923203 75.44,5.3775966 111.09,13.5367075 14.27,2.966956 28.13,7.178961 39.92,13.351276 15.26,7.821359 26.45,18.563314 35.1,29.861567 9,11.927404 15.93,24.477342 22.78,37.000783 6.68,12.761859 14.67,25.278679 18.84,38.557099 11.13,34.47093 14.19,69.76308 22.25,104.55189 5.3,21.79516 11.14,43.96782 25.84,63.98148 -25.24,-3.23847 -50.49,-6.44384 -75.73,-9.6757 -3.59,-0.43047 -7.15,-1.00664 -10.78,-1.24506 -9.11,10.49692 -18.76,20.79514 -28,31.25232 -0.42,0.63578 -1.7,1.7815 -2.32,0.50332 -6.15,-7.16571 -15.37,-13.31816 -26.96,-16.51691 -12.85,-3.60271 -27.3,-4.03319 -39.77,-8.29156 16.83,-5.56303 32.8,-12.47046 46.38,-21.12627 18.47,-11.39098 33.84,-25.06014 44.69,-40.1598 6.27,1.19209 13.34,0.71526 18.45,-2.14573 9.81,-5.28489 14.07,-13.77513 15.71,-21.81504 1.78,-11.18566 -0.92,-23.56341 -12.52,-32.25234 -1.12,-0.72186 -0.94,-1.79473 -1.18,-2.72853 3.72,0.19869 7.44,0.40398 11.17,0.59604 1.11,-14.7884 -2.66,-29.50394 -6.51,-44.01418 -4.58,-16.28511 -10.81,-32.37817 -18.97,-48.034125 -7.88,-14.65594 -17.3,-29.172807 -31.26,-41.782344 -3.98,-3.384172 -8.08,-6.808095 -13.13,-9.530002 l -1.36,0.225165 c 11.5,7.384268 20.75,16.212272 27.79,25.729028 9.35,11.960518 16.29,24.676022 22.29,37.523967 7.95,17.715611 13.77,35.835201 17.46,54.146851 1.58,8.15911 2.79,16.38445 2.26,24.61641 -28.48,-1.54307 -56.95,-3.13251 -85.43,-4.69546 -7.01,-0.351 -13.99,-1.6358 -19.99,-4.10605 -12.95,-4.94713 -22.09,-13.17247 -29.4,-21.61635 -12.75,-14.94071 -19.9,-31.54372 -29.19,-47.471209 -1.24,-1.629169 -0.89,-4.033199 -3.72,-4.894144 0.68,2.45039 1.9,4.814671 3.28,7.125983 4.71,7.84785 8.47,15.92749 13.18,23.77533 -15.42,13.93408 -32.95,27.28535 -55.18,36.59681 -18.61,7.87434 -40.94,12.09297 -63.07,10.94725 -42.34,-2.28481 -84.68,-4.69546 -127.02,-7.02664 1.94,-11.28501 6.92,-22.21902 12.29,-32.96096 8.8,-16.43743 18.8,-32.67619 31.85,-47.85532 3.9,-4.72195 8.81,-9.013428 13.36,-13.457234 -2.2,-0.211927 -3.05,1.384138 -4.29,2.251702 -14.55,13.357895 -24.54,28.570142 -34.01,43.716162 -2.81,4.98023 -5.71,9.93398 -8.34,14.95396 -5.48,11.19228 -10.93,22.54351 -12.55,34.3186 3.7,0.18543 7.4,0.39074 11.09,0.60266 -0.48,5.17892 -0.03,10.3777 -0.3,15.55 -8.64,6.3445 -12.9,14.80163 -13.73,23.23891 -0.86,8.60283 1.19,17.58314 7.75,25.13298 3.54,4.08618 8.9,7.84784 16.02,9.01343 4.28,0.72187 8.65,-0.0199 12.67,-1.01327 16.2,20.92098 40.56,39.18626 70.6,51.80243 -0.25,1.01988 -0.74,2.06627 -2.34,2.457 -8.68,3.29146 -18.74,4.1789 -28.17,6.13258 -8.91,1.62255 -17.27,4.72858 -23.7,9.15251 -4.21,2.98682 -7.79,6.35776 -10.66,9.97372 -0.69,-0.33775 -1.24,-0.75498 -1.63,-1.25168 -8.63,-10.29161 -17.29,-20.56997 -25.99,-30.82847 l -0.63,-0.19868 c -26.69,3.57624 -53.35,7.2783 -80.039997,10.88103 9.14,-12.98041 14.689997,-26.89461 19.319997,-40.8353 8.08,-25.14623 12.56,-50.7163 17.21,-76.22016 4.1,-21.921 7.31,-43.97444 14.3,-65.59742 5.68,-17.755337 19.08,-34.080185 36.31,-48.06724 13.96,-11.662499 30.39,-21.954106 47.95,-31.205955 17.93,-9.318076 37.19,-17.556661 57.72,-24.139582 m 145.66,40.345226 c 0.17,0.271525 0.53,0.827832 0.7,1.105985 8.7,2.291435 16.74,5.536535 24.24,9.212108 16.05,8.092893 29.97,17.920915 42.13,28.550272 10.83,9.569746 20.11,19.973936 26.66,31.139736 3.64,6.90743 6.69,14.15924 6.07,21.55012 -0.05,1.50997 -0.75,3.05305 -0.04,4.54315 1.63,-0.68214 1.16,-2.15899 1.5,-3.23186 0.88,-5.84781 -0.93,-11.6625 -3.15,-17.29176 -5.72,-12.76848 -15.79,-24.49058 -27.48,-35.252394 -10.76,-9.66908 -22.85,-18.742116 -36.69,-26.530362 -10.2,-5.622637 -21.23,-11.000233 -33.94,-13.794995 m -202.22,39.517392 c -9.1,8.284939 -15.18,17.828189 -20.86,27.298589 -5.57,10.42406 -11.44,21.53025 -8.68,32.72917 0.32,-0.15232 0.97,-0.45696 1.29,-0.60929 -2.25,-11.15255 3.67,-22.06007 9.2,-32.41128 5.55,-9.179 11.62,-18.33151 20.24,-26.457511 -0.3,-0.139081 -0.89,-0.410606 -1.19,-0.549678 z"
       id="path33" />
    <path
       inkscape:connector-curvature="0"
       d="m 286.14147,523.45336 c 37.61,-0.35761 75.26,-0.0596 112.89,-0.14569 6.03,-0.23179 11.89,3.20536 11.9,7.25181 0.08,8.828 0.01,17.66263 0.04,26.49725 0.54,4.27823 -5.48,8.28494 -11.95,7.93394 -36.68,-0.007 -73.35,-0.007 -110.03,0 -6.48,0.351 -12.46,-3.67557 -11.97,-7.94719 -0.01,-8.59621 -0.01,-17.19241 0,-25.782 -0.35,-3.62922 3.8,-7.073 9.12,-7.80812 m 0.01,1.31792 c -4.27,0.71524 -7.48,3.51 -7.17,6.45046 -0.03,8.59622 -0.02,17.19242 -0.01,25.78863 -0.49,3.60935 4.49,7.03988 10.01,6.68888 36.65,-0.007 73.3,-0.007 109.95,-0.007 5.08,0.33775 10.09,-2.51661 10.05,-5.9339 0.06,-9.06642 0.06,-18.13946 0,-27.20587 0.04,-3.38418 -4.93,-6.21206 -9.95,-5.95377 -24.33,-0.0199 -48.67,-0.007 -73,-0.007 -13.29,0.11258 -26.62,-0.24504 -39.88,0.17881 z"
       id="path59" />
    <path
       inkscape:connector-curvature="0"
       style="fill:#feddae"
       d="m 363.79147,155.57141 c 14.99,-8.22534 27.38,-18.26529 39.09,-28.4973 3.95,6.91406 8.48,13.70229 13.93,20.16599 7.71,9.02007 17.4,17.89442 31.43,22.95414 7.33,2.91396 15.96,3.82127 24.37,4.13915 23.1,1.27156 46.2,2.54311 69.3,3.81466 -0.32,25.88796 -11.79,51.76268 -33.19,73.45851 -13.78,13.90757 -31.3,26.27208 -51.97,35.78221 -30.68,14.22546 -68.22,21.96735 -105.71,21.25873 -44.36,-0.49008 -87.97,-12.80822 -119.74,-33.24574 -11.76,-7.11935 -21.63,-15.49039 -30.45,-24.25217 -23.95,-24.45084 -34.95,-54.07399 -32.53,-83.1011 37.58,2.07952 75.15,4.17228 112.72,6.25842 10.18,0.54968 20.54,0.40398 30.52,-1.14572 19.42,-2.58946 37.22,-9.15252 52.23,-17.58978 m 65.3,34.01396 c -8.17,0.68876 -16.77,2.97358 -21.31,7.75514 -3.06,2.21197 -3.52,5.31137 -4.67,8.08626 0.56,2.08614 1.55,4.13254 2.61,6.13258 1.66,1.71527 3.47,3.37756 5.38,4.98024 5.54,2.61595 11.98,4.49016 18.86,4.64911 3.7,-0.41723 7.46,-0.71525 11.07,-1.40401 2.92,-1.03313 5.97,-1.99342 8.62,-3.31795 2.6,-2.37753 5.97,-4.64911 6.35,-7.72864 1.21,-2.45038 0.77,-4.97361 -0.25,-7.41737 -0.14,-2.01329 -2.36,-3.45041 -4.01,-5.00011 -2.4,-2.70205 -7.11,-3.76829 -10.94,-5.35773 -3.86,-0.58279 -7.77,-1.15234 -11.71,-1.37752 m -150.06,3.36432 c -8.14,0.69538 -16.61,3.0398 -21.21,7.74188 -3.13,2.15237 -3.54,5.25839 -4.7,8.0068 0.49,2.09275 1.55,4.13254 2.58,6.13258 2.67,2.38415 4.81,5.3511 9.24,6.49682 4.44,2.02654 9.78,2.70867 15.03,3.20537 3.68,-0.31127 7.34,-0.74836 10.97,-1.25169 3.21,-0.86756 6.19,-2.09275 9.19,-3.2451 2.08,-1.50996 3.78,-3.23848 5.56,-4.90738 3.05,-4.98687 2.91,-11.37111 -2.98,-15.45066 -2.4,-2.72192 -7.15,-3.73518 -10.98,-5.32462 -4.14,-0.68876 -8.43,-1.37089 -12.7,-1.404 m 63.51,50.02093 c -6.86,0.44371 -13.92,0.60927 -20.44,2.23845 -1.82,0.31789 -0.81,1.80798 -0.9,2.65568 0.82,6.30477 6.23,12.02675 13.44,16.04008 9.75,5.2319 22.86,7.90745 35.35,6.72199 12.16,-1.43711 22.49,-6.51669 30.91,-12.26515 3.84,-2.86099 7.74,-6.01338 8.96,-9.84789 0.62,-1.50334 -0.69,-3.17888 -3.04,-3.52325 -8.31,-1.74177 -17.14,-1.86759 -25.77,-2.25833 -12.83,-0.26491 -25.69,-0.32451 -38.51,0.23842 z"
       id="path75" />
    <path
       inkscape:connector-curvature="0"
       style="fill:#feddae"
       d="m 543.93147,182.4594 c 7.03,4.90076 9.96,11.76184 11.43,18.30502 1.74,10.45717 -0.48,21.88788 -10.49,30.40462 -4.61,4.0928 -13.13,6.70875 -20.63,4.62262 11.92,-16.66923 18.2,-34.95439 19.69,-53.33226 z"
       id="path79" />
    <path
       inkscape:connector-curvature="0"
       style="fill:#feddae"
       d="m 158.86147,193.38678 c 1.99,-2.82125 4.12,-5.7882 7.66,-7.89421 1.6,18.41099 9.1,36.51071 21.15,53.11371 -5.06,1.66229 -11.37,1.66891 -16.16,-0.40398 -7.85,-3.29808 -12.16,-9.19887 -14.77,-14.91422 -4.11,-9.76842 -3.52,-20.45076 2.12,-29.9013 z"
       id="path81" />
    <path
       inkscape:connector-curvature="0"
       style="fill:#feddae"
       d="m 274.01147,297.2168 c 4.2,1.27155 8.35,2.61594 12.63,3.77491 37.82,10.54989 81.1,11.7817 120.35,3.98684 0,5.4372 -0.03,10.8744 0.04,16.3116 -4.34,2.75502 -9.43,5.19217 -12.87,8.57634 -11.79,10.80155 -26.04,20.27857 -38.37,30.79536 -14.03,-8.17899 -27.86,-16.51691 -41.78,-24.77537 -5.53,-3.17225 -10.5,-6.7816 -16.56,-9.52338 -7.69,-3.67557 -15.1,-7.6889 -23.55,-10.59625 l 0,-0.42385 c 0.21,-6.03986 0.02,-12.08634 0.11,-18.1262 z"
       id="path85" />
    <path
       inkscape:connector-curvature="0"
       style="fill:#6c614c"
       d="m 166.31147,167.93591 c 0.51,0.0264 1.51,0.0795 2.01,0.11258 -2.42,29.02711 8.58,58.65026 32.53,83.1011 8.82,8.76178 18.69,17.13282 30.45,24.25217 31.77,20.43752 75.38,32.75566 119.74,33.24574 37.49,0.70862 75.03,-7.03327 105.71,-21.25873 20.67,-9.51013 38.19,-21.87464 51.97,-35.78221 21.4,-21.69583 32.87,-47.57055 33.19,-73.45851 0.45,0.0265 1.35,0.0795 1.8,0.10596 0.24,0.9338 0.06,2.00667 1.18,2.72853 11.6,8.68893 14.3,21.06668 12.52,32.25234 -1.64,8.03991 -5.9,16.53015 -15.71,21.81504 -5.11,2.86099 -12.18,3.33782 -18.45,2.14573 -10.85,15.09966 -26.22,28.76882 -44.69,40.1598 -13.58,8.65581 -29.55,15.56324 -46.38,21.12627 -1.8,0.4967 -3.6,1.00003 -5.24,1.70864 -4.42,0.79472 -8.47,2.29145 -12.87,3.14577 -1.63,0.47683 -3.66,0.57617 -4.99,1.38413 -0.25,5.318 -0.01,10.64924 -0.09,15.97385 -0.49,0.15232 -1.47,0.45034 -1.96,0.59604 -0.07,-5.4372 -0.04,-10.8744 -0.04,-16.3116 -39.25,7.79486 -82.53,6.56305 -120.35,-3.98684 -4.28,-1.15897 -8.43,-2.50336 -12.63,-3.77491 -0.09,6.03986 0.1,12.08634 -0.11,18.1262 -0.46,-0.0927 -1.38,-0.27152 -1.84,-0.36424 -0.23,-6.1988 0.12,-12.41086 -0.18,-18.60967 -2.76,-0.92054 -5.49,-1.90069 -8.12,-2.97357 -1.47,-0.58942 -2.97,-1.15234 -4.44,-1.73513 -30.04,-12.61617 -54.4,-30.88145 -70.6,-51.80243 -4.02,0.9934 -8.39,1.73514 -12.67,1.01327 -7.12,-1.16559 -12.48,-4.92725 -16.02,-9.01343 -6.56,-7.54984 -8.61,-16.53015 -7.75,-25.13298 0.83,-8.43728 5.09,-16.89441 13.73,-23.23891 0.27,-5.1723 -0.18,-10.37108 0.3,-15.55 m 377.62,14.52349 c -1.49,18.37787 -7.77,36.66303 -19.69,53.33226 7.5,2.08613 16.02,-0.52982 20.63,-4.62262 10.01,-8.51674 12.23,-19.94745 10.49,-30.40462 -1.47,-6.54318 -4.4,-13.40426 -11.43,-18.30502 m -385.07,10.92738 c -5.64,9.45054 -6.23,20.13288 -2.12,29.9013 2.61,5.71535 6.92,11.61614 14.77,14.91422 4.79,2.07289 11.1,2.06627 16.16,0.40398 -12.05,-16.603 -19.55,-34.70272 -21.15,-53.11371 -3.54,2.10601 -5.67,5.07296 -7.66,7.89421 z"
       id="path101" />
    <path
       inkscape:connector-curvature="0"
       style="fill:#0c0a00"
       d="m 429.09147,189.58537 c 3.94,0.22518 7.85,0.79473 11.71,1.37752 3.83,1.58944 8.54,2.65568 10.94,5.35773 1.65,1.5497 3.87,2.98682 4.01,5.00011 1.02,2.44376 1.46,4.96699 0.25,7.41737 -0.38,3.07953 -3.75,5.35111 -6.35,7.72864 -2.65,1.32453 -5.7,2.28482 -8.62,3.31795 -3.61,0.68876 -7.37,0.98678 -11.07,1.40401 -6.88,-0.15895 -13.32,-2.03316 -18.86,-4.64911 -1.91,-1.60268 -3.72,-3.26497 -5.38,-4.98024 -1.06,-2.00004 -2.05,-4.04644 -2.61,-6.13258 1.15,-2.77489 1.61,-5.87429 4.67,-8.08626 4.54,-4.78156 13.14,-7.06638 21.31,-7.75514 z"
       id="path103" />
    <path
       inkscape:connector-curvature="0"
       style="fill:#0c0a00"
       d="m 279.03147,192.94969 c 4.27,0.0331 8.56,0.71524 12.7,1.404 3.83,1.58944 8.58,2.6027 10.98,5.32462 5.89,4.07955 6.03,10.46379 2.98,15.45066 -1.78,1.6689 -3.48,3.39742 -5.56,4.90738 -3,1.15235 -5.98,2.37754 -9.19,3.2451 -3.63,0.50333 -7.29,0.94042 -10.97,1.25169 -5.25,-0.4967 -10.59,-1.17883 -15.03,-3.20537 -4.43,-1.14572 -6.57,-4.11267 -9.24,-6.49682 -1.03,-2.00004 -2.09,-4.03983 -2.58,-6.13258 1.16,-2.74841 1.57,-5.85443 4.7,-8.0068 4.6,-4.70208 13.07,-7.0465 21.21,-7.74188 z"
       id="path105" />
    <path
       inkscape:connector-curvature="0"
       style="fill:#404040"
       d="m 342.54147,242.97062 c 12.82,-0.56293 25.68,-0.50333 38.51,-0.23842 8.63,0.39074 17.46,0.51656 25.77,2.25833 2.35,0.34437 3.66,2.01991 3.04,3.52325 -1.22,3.83451 -5.12,6.9869 -8.96,9.84789 -8.42,5.74846 -18.75,10.82804 -30.91,12.26515 -12.49,1.18546 -25.6,-1.49009 -35.35,-6.72199 -7.21,-4.01333 -12.62,-9.73531 -13.44,-16.04008 0.09,-0.8477 -0.92,-2.33779 0.9,-2.65568 6.52,-1.62918 13.58,-1.79474 20.44,-2.23845 z"
       id="path115" />
    <path
       inkscape:connector-curvature="0"
       style="fill:#ececea"
       d="m 234.14147,317.73378 c 3.98,-0.29801 7.87,-0.95366 11.76,-1.56957 8.72,-0.35762 18.05,-0.37086 25.88,2.56959 9.49,3.47028 17.95,8.03991 26.68,12.26517 25.56,15.5235 51.82,30.54369 77.05,46.31886 12.94,8.16573 25.78,16.45729 37.19,25.58995 5.8,4.76831 11.67,9.7088 14.56,15.61622 6.14,11.60289 9.41,23.76209 12.68,35.83519 6.07,24.36476 10.21,48.92819 12.81,73.55785 -9.2,-0.0133 -18.39,0.0265 -27.59,-0.0199 -1.34,-7.49678 -2.76,-15.00032 -3.25,-22.54352 -1.08,-15.35794 -1.01,-30.88807 -6.21,-45.95462 -4.39,-13.07974 -12.59,-25.5767 -23.99,-36.64316 -11.52,-11.33137 -25.19,-21.60311 -39.12,-31.64305 -37.15,-26.05353 -77.77,-49.79576 -118.45,-73.37904 z"
       id="path123" />
    <path
       inkscape:connector-curvature="0"
       style="fill:#ececea"
       d="m 191.10147,323.99219 c 12.43,-3.31132 25.79,-4.56963 38.97,-5.82793 29.5,16.74869 58.46,33.92787 86.53,51.72957 26.54,17.13943 52.91,34.70934 73.8,55.09388 9.88,10.00683 17.42,21.07329 21.6,32.72917 5.8,15.45066 5.82,31.47748 6.87,47.29239 0.57,7.66242 1.85,15.29172 3.33,22.90777 -1.38,-0.007 -2.75,-0.007 -4.12,0 0.48,-5.15905 -6.12,-10.00021 -14,-9.9075 -39.72,-0.0596 -79.44,-0.0133 -119.16,-0.0265 -8.25,-0.39736 -15.44,4.5299 -15.02,9.93398 -25.97,0 -51.94,0 -77.91,0 -0.26,-3.0133 1.1,-6.61603 -2.42,-9.02667 -3.51,-2.34442 -9.86,-1.77488 -12.38,1.05962 -0.07,-8.39091 -0.93,-16.76851 -1.52,-25.14622 0.11,-3.81466 2.03,-7.45712 3.15,-11.17243 3.96,-11.99363 9.46,-23.8217 11.27,-36.08024 -1.66,-0.11927 -3.34,-0.21192 -5,-0.31126 -1.68,11.76846 -6.97,23.12632 -10.79,34.6365 -5.99,16.86128 -10.55,34.01396 -11.9,51.33221 -1.05,12.79497 3.02,25.46411 8.39,37.68291 5.49,12.66915 12.5,25.0204 18.81,37.51736 4.55,9.15912 9.17,18.4441 10.3,28.1198 0,2.91397 0.12,5.98025 -1.76,8.69554 -0.9,1.2583 -1.95,2.73516 -4.22,3.0663 -36.39,8.43063 -72.64,17.11956 -109.079997,25.44423 -10.83,-22.82167 -22.01,-45.6036 -30.46,-68.88224 -10.53,-29.18605 -18.2,-59.52444 -12.01,-89.53832 3.75,-14.82813 11.42,-29.06684 19.31,-43.1135 22.74,-38.82201 52.139997,-75.7102 81.379997,-112.51231 4.76,-6.20543 10.07,-12.23204 14.32,-18.60305 0.26,0.33114 0.77,1.00003 1.03,1.33116 7.17,-8.43726 19.2,-14.84137 32.69,-18.42423 z"
       id="path125" />
    <path
       inkscape:connector-curvature="0"
       style="fill:#ececea"
       d="m 415.37147,322.20408 c 6.12,-1.90733 13.1,-1.74839 19.61,-1.00002 2.21,0.3245 4.71,0.14569 6.66,1.00664 -12.81,10.934 -25.94,21.72232 -39.08,32.48413 -7.82,6.76173 -15.91,13.39102 -22.9,20.54348 -6.74,-4.11267 -13.51,-8.19885 -20.23,-12.31814 11.9,-10.02008 25.36,-19.19246 36.9,-29.40459 4.85,-4.68885 11.21,-8.86774 19.04,-11.3115 z"
       id="path127" />
    <path
       inkscape:connector-curvature="0"
       style="fill:#ececea"
       d="m 445.40147,322.05176 c 12.28,3.20536 25.72,2.97357 38.45,4.99348 14.07,1.87421 27.51,6.38424 37.23,13.45724 0.12,0.29801 0.36,0.88081 0.48,1.17883 12.17,9.29159 22.6,19.51035 32.74,29.7954 21.19,21.66933 40.61,44.0804 59.39,66.69678 31.42,38.02067 61.23,76.644 88.78,115.96934 10.9,15.6692 21.5,31.43774 30.96,47.51755 3.3,5.79483 6.7,11.57641 9.27,17.54349 -35.98,19.07988 -71.86,38.23922 -107.78,57.35875 -7.74,-4.88743 -11.5,-11.74196 -15.36,-18.17918 -9.52,-17.98051 -15.22,-36.70939 -20.87,-55.35878 -10.18,-34.29212 -18.14,-68.86901 -29.82,-102.96907 -4.23,-11.76846 -8.64,-23.55679 -15.17,-34.87492 -2.96,-4.92724 -6.28,-9.78828 -10.78,-14.19235 -1.28,0.52319 -2.54,1.05963 -3.82,1.57613 4.19,4.59612 7.79,9.4108 10.65,14.43739 0.49,1.03313 1.6,2.12587 0.85,3.2451 -8.89,19.07987 -17.32,38.27234 -24.34,57.69659 -12.09,-0.0596 -24.18,-0.0133 -36.27,-0.0265 -0.25,-2.88747 1.01,-6.27165 -2.16,-8.64919 -3.15,-2.47687 -9.51,-2.46363 -12.65,0.0199 -3.1,2.39077 -2,5.74184 -2.19,8.62931 -5.06,0 -10.12,0 -15.18,0 -3.17,-28.40457 -7.89,-56.77603 -15.86,-84.77662 -2.88,-9.17238 -5.76,-18.41761 -10.8,-27.19926 -3.09,-5.6425 -8.9,-10.34458 -14.44,-15.00694 -10.74,-8.5962 -22.65,-16.52353 -34.88,-24.17931 19.21,-19.19909 43.01,-36.15309 63.57,-54.70315 z"
       id="path129" />
    <path
       inkscape:connector-curvature="0"
       style="fill:#ececea"
       d="m 191.99147,559.04353 c 25.99,0 51.99,0 77.98,0 -0.07,2.61595 -0.05,5.45044 2.32,7.6889 2.66,2.82787 7.72,4.41732 12.7,4.23187 39.68,-0.0133 79.36,0.0199 119.04,-0.0133 5.4,0.0729 10.56,-2.19872 12.74,-5.44383 1.45,-2.01328 1.2,-4.30473 1.24,-6.46371 2.65,-0.007 5.31,-0.007 7.97,0 0.06,13.9142 -3.7,27.66284 -8.36,41.1863 -7.09,21.25873 -16.96,42.08698 -23.51,63.43181 -3.08,8.86771 -7.51,17.53017 -13.31,25.78202 -5.45,8.15244 -13.16,15.60297 -17.67,24.03363 -28.08,3.265 -56.62,4.37759 -85.09,4.49679 -27.08,0.0993 -54.15,-0.91393 -81.06,-2.88754 7.94,-7.31797 11.5,-16.55664 10.41,-25.51041 4.41,1.39073 9.37,3.57619 14.42,2.43713 3.87,-1.88087 3.45,-5.56298 4,-8.3976 0.12,-9.12597 -1.95,-18.57651 -8.59,-26.68264 -3.33,-4.19214 -9.74,-6.72862 -16.43,-7.98693 6.68,-7.00014 3.92,-15.76192 1.61,-23.36473 -7.14,-19.48386 -19.58,-37.90146 -27.45,-57.23962 -0.4,-1.38414 0.5,-2.74178 1.4,-3.94711 0.23,3.98022 8.32,5.90741 12.66,3.34444 3.96,-2.0795 2.82,-5.77495 2.98,-8.69554 z"
       id="path131" />
    <path
       inkscape:connector-curvature="0"
       style="fill:#ececea"
       d="m 428.98147,559.04353 c 8.67,0 17.34,0 26.01,0 -0.11,8.84124 0.44,17.78845 -2,26.51712 -17.03,40.14653 -34.17,80.27321 -51.24,120.41978 -11.23,3.40406 -23.25,5.50346 -35.33,7.07966 3.75,-6.3578 9.28,-12.13939 13.77,-18.25871 7.44,-9.63599 13.07,-19.88123 16.77,-30.41788 5.21,-17.17255 12.74,-33.98085 19.01,-50.98783 6.59,-17.81495 13.05,-35.90142 13.01,-54.35214 z"
       id="path133" />
    <path
       inkscape:connector-curvature="0"
       style="fill:#ececea"
       d="m 459.99147,559.04353 c 4.33,-0.007 8.67,-0.007 13,0 0.12,2.66893 -0.71,5.75509 2.13,7.97368 3.15,2.5166 9.56,2.53647 12.73,0.0265 2.93,-2.1921 1.98,-5.32462 2.14,-8.00017 9.17,0 18.35,0 27.52,0 -1.37,6.99352 -2.74,14.05327 -1.62,21.11303 2.86,22.3316 10.07,44.27246 16.3,66.2663 4.52,16.603 9.91,33.17288 11.61,50.04078 0.3,4.669 0.59,9.47038 -1.35,14.01359 -0.79,1.60925 -2.27,3.71524 -5.34,3.53644 -26.71,-0.33113 -53.42,-0.76159 -80.13,-1.13246 -21.37,-0.39741 -42.77,-0.45701 -64.13,-1.05308 4.44,-1.09264 9.41,-1.92052 13.15,-3.7948 16.65,-38.72926 33.04,-77.52478 49.58,-116.28057 5.34,-10.51671 4.17,-21.78185 4.41,-32.70923 z"
       id="path135" />
    <path
       inkscape:connector-curvature="0"
       style="fill:#ececea"
       d="m 374.07147,715.3978 c 4.91,-0.58939 9.92,-0.21185 14.89,-0.19858 47,0.69532 94.02,1.28472 141.02,2.0464 4.92,8.66246 2.94,18.19243 2.74,27.26548 -1.12,29.57006 -2.23,59.1402 -3.35,88.71043 -0.32,6.67565 -0.05,13.39105 -1.82,19.99375 -2.99,13.11283 -7.62,26.72247 -20.14,37.43123 -2.14,1.06627 -4.85,1.35767 -7.36,1.84114 -11.53,2.03321 -23.16,4.00664 -35.04,4.89412 -21.6,-0.65568 -43.19,-1.67553 -64.78,-2.47027 -10.15,-0.70208 -20.24,-2.07285 -29.88,-4.31132 -10.51,-2.83453 -20.53,-7.38425 -25.81,-14.23867 -4.74,-5.68885 -4.82,-12.32478 -4.54,-18.62298 -4.18,-14.75523 -8.95,-29.484 -11.21,-44.44465 -2.86,-17.18585 -1.87,-34.55032 0.7,-51.72289 -1.55,-0.0927 -3.11,-0.17221 -4.66,-0.22521 -2.69,17.39101 -3.55,34.96759 -0.65,52.37197 2.15,14.39104 6.6,28.57674 10.67,42.76912 -0.98,4.05306 -4.78,7.66906 -4.93,11.84791 -0.3,5.28493 -2.73,10.58965 -7.54,14.85452 -6,5.3048 -14.93,8.83475 -24.22,11.07321 -16.04,3.7948 -33.27,4.46365 -50.16,4.52985 -18.33,-0.0132 -36.66,-0.009 -55,0 -9.39,0.0927 -18.85,-1.03322 -27.39,-3.67552 -20.44,-6.26506 -34.68,-19.69581 -38.94,-34.17291 -2.27,-7.13926 -1.57,-14.4771 -1.68,-21.72228 0,-30.4774 0,-60.95488 0,-91.43245 0.17,-8.13916 -0.67,-16.33801 1.39,-24.40448 9.57,3.54312 20.55,5.54319 31.54,5.27166 13.29,-0.19207 26.27,-4.11925 35.31,-10.55643 33.76,2.6292 67.8,3.66883 101.78,2.99338 26.51,-0.52979 53.08,-2.0398 79.06,-5.69553 z"
       id="path137" />
    <path
       inkscape:connector-curvature="0"
       style="fill:#605a3c"
       d="m 183.17147,518.80426 c 3.42,-0.56293 6.89,1.49673 6.75,3.77492 0.18,13.03338 -0.02,26.08002 0.1,39.12003 0.03,1.7815 0.07,3.92724 -2.37,5.09282 -3.5,2.00666 -9.87,0.0729 -9.56,-3.04642 -0.22,-13.49697 -0.06,-27.0072 -0.08,-40.50416 -0.4,-2.10601 1.94,-4.21864 5.16,-4.43719 z"
       id="path153" />
    <path
       inkscape:connector-curvature="0"
       style="fill:#605a3c"
       d="m 479.35147,518.94334 c 4.16,-1.0795 8.96,1.40401 8.61,4.31135 0.1,12.82146 -0.03,25.64292 0.06,38.47101 -0.08,1.32453 0.05,2.79476 -1.12,3.96035 -1.99,2.2517 -7.33,2.60271 -9.95,0.6424 -1.96,-1.17221 -1.96,-3.03318 -1.98,-4.63586 0.03,-12.58305 0.01,-25.17272 0.02,-37.76239 -0.26,-2.05964 1.29,-4.27823 4.36,-4.98686 z"
       id="path155" />
    <path
       inkscape:connector-curvature="0"
       style="fill:#605a3c"
       d="m 167.78147,529.25481 c 2.73,-0.0265 5.47,-0.0331 8.21,0.0133 -0.01,9.48364 0.03,18.96728 -0.02,28.45093 -1.69,-0.0133 -3.39,-0.0265 -5.08,-0.0265 -3.21,-9.30482 -4.53,-18.92093 -3.11,-28.43768 z"
       id="path157" />
    <path
       inkscape:connector-curvature="0"
       style="fill:#605a3c"
       d="m 192.01147,529.24157 c 25.99,0.007 51.97,-0.007 77.95,-0.007 0.05,9.49688 0.02,18.98715 0.01,28.48404 -25.98,0.007 -51.96,0 -77.95,0 -0.07,-9.49689 -0.03,-18.98716 -0.01,-28.47743 m 37.28,9.5565 c -2.8,0.51657 -5.18,1.99342 -5.86,3.8875 -1.2,2.67556 1.1,5.8743 5.23,6.68888 4.99,1.32453 11.18,-1.2583 11.2,-4.86765 0.6,-3.68882 -5.23,-6.84783 -10.57,-5.70873 z"
       id="path159" />
    <path
       inkscape:connector-curvature="0"
       style="fill:#605a3c"
       d="m 418.01147,529.25481 c 18.33,-0.0133 36.65,-0.0265 54.97,0 0.01,9.48365 0.05,18.97392 -0.03,28.47081 -18.32,-0.0133 -36.63,0.0133 -54.95,-0.0199 0.01,-9.48364 -0.03,-18.96729 0.01,-28.45094 m 25.42,9.62273 c -3.07,0.71524 -5.35,2.72191 -5.37,4.90076 -0.57,2.99344 3.27,6.03986 7.91,5.90079 4.75,0.2053 8.53,-2.90073 7.94,-5.92065 0.09,-3.42392 -5.62,-6.13259 -10.48,-4.8809 z"
       id="path161" />
    <path
       inkscape:connector-curvature="0"
       style="fill:#605a3c"
       d="m 489.99147,529.26143 c 12.01,-0.0265 24.03,-0.0596 36.04,0.0133 3.72,-0.15894 7.08,2.05302 6.91,4.52328 0.09,6.45047 0.08,12.90093 0.01,19.35802 0.28,2.51661 -3.13,4.72858 -6.92,4.5299 -12.01,0.0795 -24.03,0.0133 -36.04,0.0265 0,-9.48364 0,-18.96729 0,-28.45094 m 24.26,9.54325 c -4.83,0.76824 -7.58,4.68222 -5.4,7.63593 1.76,2.96695 7.73,4.12591 11.8,2.55634 3.58,-1.1987 5.1,-4.2981 3.77,-6.74186 -1.32,-2.70867 -6.09,-4.27161 -10.17,-3.45041 z"
       id="path163" />
    <path
       inkscape:connector-curvature="0"
       style="fill:#ebecec"
       d="m 280.41147,519.71157 c 1.81,-0.41061 3.74,-0.39074 5.63,-0.41061 37.62,0.0133 75.24,0.007 112.87,0.007 3.34,0.0397 6.91,-0.25829 10.02,0.76161 4.23,1.19207 7.11,4.14571 7.04,7.1922 0.03,11.49694 0.04,22.99386 -0.01,34.49079 0.14,4.21863 -5.57,7.98031 -11.94,7.87434 -40.04,0.0265 -80.08,0.0265 -120.12,0 -6.4,0.0993 -11.95,-3.73517 -11.88,-7.92732 -0.05,-11.48368 -0.06,-22.96737 0.01,-34.45105 -0.03,-3.36432 3.53,-6.55644 8.38,-7.53659 m 5.73,3.7418 c -5.32,0.73512 -9.47,4.1789 -9.12,7.80811 -0.01,8.58959 -0.01,17.1858 0,25.78201 -0.49,4.27161 5.49,8.29818 11.97,7.94718 36.68,-0.007 73.35,-0.007 110.03,0 6.47,0.351 12.49,-3.6557 11.95,-7.93393 -0.03,-8.83463 0.04,-17.66925 -0.04,-26.49726 -0.01,-4.04644 -5.87,-7.48359 -11.9,-7.2518 -37.63,0.0861 -75.28,-0.21193 -112.89,0.14569 z"
       id="path165" />
    <path
       inkscape:connector-curvature="0"
       style="fill:#fafbfd"
       d="m 286.15147,524.77128 c 13.26,-0.42386 26.59,-0.0662 39.88,-0.17882 24.33,0 48.67,-0.0133 73,0.007 5.02,-0.25829 9.99,2.56958 9.95,5.95376 0.06,9.06642 0.06,18.13946 0,27.20587 0.04,3.4173 -4.97,6.27166 -10.05,5.93391 -36.65,0 -73.3,0 -109.95,0.007 -5.52,0.351 -10.5,-3.07954 -10.01,-6.68888 -0.01,-8.59621 -0.02,-17.19242 0.01,-25.78863 -0.31,-2.94046 2.9,-5.73522 7.17,-6.45047 z"
       id="path167" />
    <path
       inkscape:connector-curvature="0"
       style="fill:#3a3d37"
       d="m 230.17147,540.0365 c 5.41,-0.9934 10.29,4.01333 6.25,6.73524 -2.44,2.29807 -8.35,2.08614 -10.28,-0.4371 -2.47,-2.29805 -0.03,-5.76833 4.03,-6.29814 z"
       id="path169" />
    <path
       inkscape:connector-curvature="0"
       style="fill:#3a3d37"
       d="m 444.19147,540.08948 c 4.12,-0.9934 8.43,1.66228 7.75,4.43718 0.08,2.70867 -4.69,4.7352 -8.37,3.52988 -4.97,-1.38414 -4.6,-6.94717 0.62,-7.96706 z"
       id="path171" />
    <path
       inkscape:connector-curvature="0"
       style="fill:#3a3d37"
       d="m 515.25147,540.0365 c 5.14,-0.89406 9.76,3.5365 6.6,6.37762 -2.09,2.41065 -7.95,2.72191 -10.28,0.33113 -3.03,-2.25832 -0.77,-6.2253 3.68,-6.70875 z"
       id="path173" />
    <path
       inkscape:connector-curvature="0"
       style="opacity:0.47999998;fill:#030401"
       enable-background="new    "
       d="m 171.10147,559.14949 c 3.17,0.12583 -1.5,2.07289 0,0 z"
       id="path175" />
    <path
       inkscape:connector-curvature="0"
       style="fill:#fedfb3"
       d="m 179.03147,655.27073 c 6.88,-1.75501 14.12,-2.95371 20.73,-5.11932 5.24,1.18546 10.78,2.66893 14,5.82794 5.42,5.15905 7.55,11.47044 9.06,17.57653 0.88,5.31799 1.91,10.88765 -0.67,16.07326 -0.46,1.159 -2.54,1.59597 -4.15,1.30466 -3.82,-0.49674 -7.25,-1.80141 -10.61,-3.03979 -2.45,-12.78839 -12.69,-24.90789 -28.36,-32.62328 z"
       id="path185" />
    <path
       inkscape:connector-curvature="0"
       style="fill:#fedfb3"
       d="m 94.091473,675.09235 c 27.679997,-6.29816 55.159997,-12.98704 82.849997,-19.24546 12.6,6.39749 22.39,15.39106 26.32,25.6429 4.22,10.2122 2.59,21.67597 -5.95,30.74243 -7.2,7.83458 -19.82,13.3115 -33.49,14.68235 -16.04,1.64907 -32.65,-2.00007 -45.13,-8.70219 C 99.751473,708.15929 88.891473,691.01986 94.091473,675.09235 Z"
       id="path187" />
    <path
       inkscape:connector-curvature="0"
       style="fill:#040000"
       d="m 359.45147,890.28224 c 0.33,-0.0993 0.97,-0.28481 1.29,-0.38414 3.18,0.39082 6.33,1.11927 9.61,0.70208 9.64,2.23847 19.73,3.60932 29.88,4.31132 21.59,0.79474 43.18,1.81459 64.78,2.47027 11.88,-0.88748 23.51,-2.86091 35.04,-4.89412 2.51,-0.48347 5.22,-0.77487 7.36,-1.84114 2.47,-0.11252 4.88,-0.51652 7.15,-1.1722 0.2,0.88748 0.43,1.77495 0.46,2.70207 -0.07,20.07322 -0.01,40.1532 -0.03,60.2331 0.21,3.68887 -0.43,7.43057 0.29,11.09299 8.86,7.85444 14.39,17.44411 14.64,27.29854 0.18,17.45079 -0.01,34.90149 0.1,52.35209 -0.08,0.9471 0.28,2.457 -1.53,2.808 -32.91,5.1724 -66.61,8.7088 -100.51,8.4505 -26.17,-0.2185 -52.29,-1.6689 -78.47,-1.6888 -3.86,-2.5364 -7.7,-5.0795 -11.52,-7.6358 0.04,-17.8547 -0.07,-35.716 0.05,-53.57064 0.2,-12.44397 8.34,-24.65615 21.93,-33.22587 0.02,-7.63592 0.05,-15.26515 -0.01,-22.89448 -1.12,-0.1722 -1.89,-0.58939 -2.28,-1.25166 3.24,0 2.14,-2.20541 2.34,-3.60281 -0.07,-11.03331 -0.01,-22.07329 -0.03,-33.10668 -0.06,-2.39089 0.36,-4.81483 -0.54,-7.15262 m 5.55,3.6756 c -0.03,13.09965 0,26.20589 -0.01,39.30554 24.38,-2.14581 48.72,-4.47033 73.09,-6.66906 10.61,-0.83447 21.24,-2.58947 31.97,-1.65567 2.43,0.298 5.7,0.64899 6.61,2.4504 0.3,1.00659 1.02,2.83445 -1.46,2.59606 -0.28,-1.18547 0.05,-2.90733 -2.19,-3.27151 -9.88,-1.9206 -20.12,0.0264 -30.05,0.7085 -25.98,2.37094 -51.95,4.80147 -77.95,7.10613 -0.01,6.91414 -0.1,13.84138 0.05,20.76202 12.56,-6.31798 28.08,-10.06645 43.91,-10.11268 16.36,-0.0668 32.71,-0.0334 49.07,-0.0202 12.4,0.009 24.79,2.09272 35.62,6.11264 6.02,2.12594 11.12,5.1326 16.28,8.03992 0.09,-21.74215 0.07,-43.49099 0.01,-65.23314 -22.43,4.27158 -45.48,8.02006 -69,7.68892 -25.74,-0.13256 -50.96,-4.0796 -75.95,-7.80821 m 3.27,63.97498 c -15.42,7.93391 -25.08,20.58314 -25.22,33.54364 -0.1,17.4242 -0.09,34.8551 -0.01,52.2793 2.91,1.8742 5.73,3.8014 8.65,5.6756 33.94,0.04 67.85,2.6955 101.79,1.1987 24.1,-1.1391 47.97,-3.9139 71.49,-7.5167 0.01,-17.2189 0.07,-34.4313 -0.03,-51.65017 -0.08,-13.1327 -10.03,-25.96082 -25.82,-33.855 -11.42,-5.80796 -25.7,-9.03982 -40.1,-9.11929 -16.68,-0.0527 -33.37,-0.0598 -50.06,0 -14.65,0.0926 -29.17,3.43703 -40.69,9.44392 z"
       id="path191" />
    <path
       inkscape:connector-curvature="0"
       style="fill:#040000"
       d="m 262.24147,901.52756 c 15.29,-1.95374 30.56,-4.03987 45.68,-6.54319 0.15,14.29831 0.06,28.59652 0.04,42.89492 -0.19,0.91393 0.45,1.72853 0.95,2.56959 -0.57,0.86093 -1.07,1.755 -0.95,2.7418 0.11,7.00679 -0.09,14.02009 0.11,21.03356 13.91,8.68233 22,21.23214 21.9,33.88806 0.05,17.6428 0,35.2855 0.02,52.935 -3.81,2.5629 -7.69,5.0927 -11.52,7.6491 -24.94,0.01 -49.81,1.2981 -74.74,1.6821 l -16.39,0 c -29.29,-0.788 -58.34,-3.9338 -86.82,-8.4571 -1.39,-0.2451 -1.61,-1.3444 -1.53,-2.1193 -0.01,-15.9009 0.01,-31.8086 -0.01,-47.7096 -0.14,-5.616 0.34,-11.29158 2.74,-16.70899 2.18,-5.50347 6.35,-10.52337 11.08,-15.21224 0.48,-5.01999 0.04,-10.07313 0.19,-15.09963 0,-20.02689 0,-40.05378 0,-60.08076 0.82,0.11251 2.46,0.33781 3.28,0.45692 13.26,2.8544 26.88,4.86107 40.48,6.81472 10.34,0.96026 20.78,1.6358 31.23,1.49006 11.5,-0.0334 22.91,-1.09256 34.26,-2.22502 m -104.22,-2.159 c -0.05,4.25172 -0.06,8.50344 0,12.75525 18.37,2.60924 36.64,5.51665 54.97,8.21204 4.58,0.73513 9.47,1.54314 14.11,0.54306 2.38,-0.48347 1.76,-2.39748 2.09,-3.63586 1.46,-0.0466 2.03,0.41719 1.72,1.38413 0.32,1.66893 -1.45,3.265 -3.92,3.62918 -4.31,0.64908 -8.83,0.25835 -13.05,-0.47019 -18.64,-2.8014 -37.27,-5.63585 -55.91,-8.40411 -0.04,17.5103 -0.11,35.02728 0.03,52.53758 4.64,-2.72853 9.17,-5.58943 14.55,-7.68892 11.16,-4.60272 24.25,-7.03325 37.38,-7.10613 12.32,-0.0527 24.64,-0.009 36.97,-0.0202 8.39,0.0334 16.88,-0.25167 25.15,0.88747 11.21,1.33112 21.77,4.62918 30.8,9.19884 0.14,-6.88091 0.11,-13.76851 0.02,-20.64274 -30.64,-2.98019 -61.27,-6.0068 -91.91,-9.00027 -5.8,-0.404 -12.03,-0.77478 -17.54,0.73514 -2.51,0.55634 -0.31,3.47025 -3.17,3.53653 -0.69,-1.88746 -0.1,-4.2584 3.07,-4.91398 8.6,-1.88087 17.86,-0.60926 26.59,0.21853 27.66,2.7352 55.32,5.47032 83,8.15252 0.04,-13.33795 0.02,-26.676 0.01,-40.01404 -26.6,3.97359 -53.51,8.20544 -80.97,7.78825 -21.82,-0.13924 -43.12,-3.75515 -63.99,-7.68242 m 24.21,59.19329 c -22.23,6.67566 -37.72,22.02696 -38.15,38.226 -0.18,17.4308 -0.09,34.8749 -0.04,52.3124 32.11,4.9206 64.96,8.3247 98,7.9472 24.86,-0.2782 49.66,-1.5631 74.53,-1.6756 2.64,-1.9603 5.72,-3.6556 8.28,-5.6557 0.32,-16.9606 0.06,-33.9411 0.13,-50.90836 0.3,-11.21887 -6.19,-22.45743 -17.91,-30.57013 -12.07,-8.5168 -29.42,-13.59631 -47.05,-13.77519 -16.01,-0.10602 -32.02,-0.0202 -48.03,-0.0466 -10.21,-0.0527 -20.49,1.26493 -29.76,4.14579 z"
       id="path193" />
    <path
       inkscape:connector-curvature="0"
       style="fill:#796f22"
       d="m 365.00147,893.95784 c 24.99,3.7286 50.21,7.67573 75.95,7.80812 23.52,0.33113 46.57,-3.41725 69,-7.68893 0.06,21.74224 0.08,43.49099 -0.01,65.23323 -5.16,-2.90741 -10.26,-5.91415 -16.28,-8.03992 -10.83,-4.01992 -23.22,-6.10614 -35.62,-6.11273 -16.36,-0.0132 -32.71,-0.0466 -49.07,0.0202 -15.83,0.0466 -31.35,3.7948 -43.91,10.11269 -0.15,-6.92065 -0.06,-13.84789 -0.05,-20.76203 26,-2.30466 51.97,-4.73519 77.95,-7.10612 9.93,-0.68213 20.17,-2.62911 30.05,-0.70851 2.24,0.36419 1.91,2.08604 2.19,3.27151 2.48,0.2384 1.76,-1.58947 1.46,-2.59605 -0.91,-1.80141 -4.18,-2.15241 -6.61,-2.4504 -10.73,-0.9338 -21.36,0.82119 -31.97,1.65566 -24.37,2.19882 -48.71,4.52325 -73.09,6.66907 0.01,-13.09957 -0.02,-26.20581 0.01,-39.30546 m 88.99,21.19249 c -4.21,0.67554 -8.78,1.31794 -13.01,0.4106 -2.38,-0.45684 -1.75,-2.31125 -2.01,-3.52986 -0.49,0 -1.46,0.009 -1.94,0.009 0.1,1.54974 -0.21,3.59605 2.28,4.46374 4.25,1.37745 9.26,0.80133 13.71,0.15225 18.65,-2.92059 37.39,-5.64244 56.02,-8.62931 -0.03,-0.31127 -0.11,-0.93371 -0.14,-1.23839 -18.32,2.74171 -36.61,5.57625 -54.91,8.36438 z"
       id="path195" />
    <path
       inkscape:connector-curvature="0"
       style="fill:#796f22"
       d="m 158.02147,899.36856 c 20.87,3.92727 42.17,7.54318 63.99,7.68225 27.46,0.41727 54.37,-3.81467 80.97,-7.78826 0.01,13.33805 0.03,26.67609 -0.01,40.01414 -27.68,-2.6822 -55.34,-5.41741 -83,-8.15253 -8.73,-0.82787 -17.99,-2.09931 -26.59,-0.21861 -3.17,0.65567 -3.76,3.02651 -3.07,4.91407 2.86,-0.0659 0.66,-2.9802 3.17,-3.53663 5.51,-1.50983 11.74,-1.13905 17.54,-0.73505 30.64,2.99338 61.27,6.01999 91.91,9.00019 0.09,6.87432 0.12,13.76182 -0.02,20.64283 -9.03,-4.56967 -19.59,-7.86772 -30.8,-9.19893 -8.27,-1.13906 -16.76,-0.85425 -25.15,-0.88739 -12.33,0.0132 -24.65,-0.0334 -36.97,0.0202 -13.13,0.073 -26.22,2.50331 -37.38,7.10612 -5.38,2.09931 -9.91,4.96031 -14.55,7.68884 -0.14,-17.51022 -0.07,-35.0272 -0.03,-52.5375 18.64,2.76817 37.27,5.6028 55.91,8.40411 4.22,0.72846 8.74,1.11928 13.05,0.4702 2.47,-0.36419 4.24,-1.96034 3.92,-3.62928 0.31,-0.96685 -0.26,-1.43036 -1.72,-1.38413 -0.33,1.23848 0.29,3.1524 -2.09,3.63587 -4.64,0.99999 -9.53,0.19207 -14.11,-0.54298 -18.33,-2.69547 -36.6,-5.60288 -54.97,-8.21213 -0.06,-4.25163 -0.05,-8.50335 0,-12.75507 z"
       id="path197" />
    <path
       inkscape:connector-curvature="0"
       style="fill:#796f22"
       d="m 368.27147,957.93281 c 11.52,-6.00689 26.04,-9.35127 40.69,-9.44392 16.69,-0.0598 33.38,-0.0527 50.06,0 14.4,0.0791 28.68,3.31133 40.1,9.11929 15.79,7.89418 25.74,20.7223 25.82,33.855 0.1,17.21892 0.04,34.43132 0.03,51.65022 -23.52,3.6026 -47.39,6.3776 -71.49,7.5167 -33.94,1.4967 -67.85,-1.159 -101.79,-1.1987 -2.92,-1.8743 -5.74,-3.8015 -8.65,-5.6756 -0.08,-17.4243 -0.09,-34.8551 0.01,-52.27934 0.14,-12.9605 9.8,-25.60983 25.22,-33.54365 z"
       id="path199" />
    <path
       inkscape:connector-curvature="0"
       style="fill:#796f22"
       d="m 182.23147,958.56185 c 9.27,-2.88086 19.55,-4.19871 29.76,-4.1458 16.01,0.0264 32.02,-0.0598 48.03,0.0466 17.63,0.1788 34.98,5.25839 47.05,13.77511 11.72,8.1127 18.21,19.35135 17.91,30.57013 -0.07,16.96732 0.19,33.94772 -0.13,50.90842 -2.56,2 -5.64,3.6954 -8.28,5.6557 -24.87,0.1126 -49.67,1.3974 -74.53,1.6755 -33.04,0.3775 -65.89,-3.0265 -98,-7.9472 -0.05,-17.4374 -0.14,-34.8814 0.04,-52.31236 0.43,-16.19887 15.92,-31.55017 38.15,-38.22583 z"
       id="path201" />
  </g>
</svg>
