<?xml version="1.0" encoding="UTF-8" standalone="no"?>
<!-- Created with Inkscape (http://www.inkscape.org/) -->

<svg
   xmlns:dc="http://purl.org/dc/elements/1.1/"
   xmlns:cc="http://creativecommons.org/ns#"
   xmlns:rdf="http://www.w3.org/1999/02/22-rdf-syntax-ns#"
   xmlns:svg="http://www.w3.org/2000/svg"
   xmlns="http://www.w3.org/2000/svg"
   xmlns:xlink="http://www.w3.org/1999/xlink"
   xmlns:sodipodi="http://sodipodi.sourceforge.net/DTD/sodipodi-0.dtd"
   xmlns:inkscape="http://www.inkscape.org/namespaces/inkscape"
   width="210mm"
   height="297mm"
   viewBox="0 0 744.09448819 1052.3622047"
   id="svg3546"
   version="1.1"
   inkscape:version="0.91 r"
   sodipodi:docname="man1.svg">
  <defs
     id="defs3548">
    <linearGradient
       id="linearGradient11760"
       y2="283.5"
       gradientUnits="userSpaceOnUse"
       y1="320.64999"
       x2="631.10999"
       x1="546.14001"
       inkscape:collect="always">
      <stop
         id="stop11756"
         style="stop-color:rgb(227, 152, 39)"
         offset="0" />
      <stop
         id="stop11758"
         style="stop-color:rgb(227, 152, 39);stop-opacity:0"
         offset="1" />
    </linearGradient>
    <radialGradient
       inkscape:collect="always"
       xlink:href="#linearGradient6382"
       id="radialGradient3487"
       gradientUnits="userSpaceOnUse"
       cx="214.14999"
       cy="588.70001"
       r="64.650002" />
    <linearGradient
       id="linearGradient6382"
       inkscape:collect="always">
      <stop
         id="stop6384"
         style="stop-color:rgb(226, 185, 167)"
         offset="0" />
      <stop
         id="stop6386"
         style="stop-color:rgb(226, 185, 167);stop-opacity:0"
         offset="1" />
    </linearGradient>
    <radialGradient
       id="radialGradient6400"
       cx="214.14999"
       xlink:href="#linearGradient6382"
       gradientUnits="userSpaceOnUse"
       cy="588.70001"
       r="64.650002"
       inkscape:collect="always" />
    <radialGradient
       id="radialGradient7303"
       cx="378.62"
       xlink:href="#linearGradient6382"
       gradientUnits="userSpaceOnUse"
       cy="747.51001"
       r="336.76999"
       gradientTransform="matrix(-0.8624,1.3642e-6,-5.6729e-7,-0.35709,705.15,1042.6)"
       inkscape:collect="always" />
    <radialGradient
       id="radialGradient8192"
       gradientUnits="userSpaceOnUse"
       cx="378.62"
       cy="2186.7"
       r="336.76999"
       gradientTransform="matrix(-1.4354,2.92e-7,-6.1482e-8,-0.26369,922.08,843.66)"
       inkscape:collect="always">
      <stop
         id="stop8196"
         style="stop-color:rgb(226, 185, 167)"
         offset="0" />
      <stop
         id="stop8198"
         style="stop-color:rgb(226, 185, 167);stop-opacity:0"
         offset="1" />
    </radialGradient>
    <radialGradient
       id="radialGradient9978"
       cx="502.82001"
       gradientUnits="userSpaceOnUse"
       cy="222.48"
       r="224.85001"
       gradientTransform="matrix(1,0,0,0.47462,0,127.4)"
       inkscape:collect="always">
      <stop
         id="stop9974"
         style="stop-color:rgb(224, 146, 36)"
         offset="0" />
      <stop
         id="stop9976"
         style="stop-color:rgb(224, 146, 36);stop-opacity:0"
         offset="1" />
    </radialGradient>
    <filter
       id="filter3027"
       inkscape:collect="always">
      <feBlend
         id="feBlend3029"
         in2="BackgroundImage"
         mode="lighten"
         inkscape:collect="always" />
    </filter>
    <linearGradient
       id="linearGradient3530"
       y2="141.91"
       gradientUnits="userSpaceOnUse"
       x2="77.190002"
       y1="141.91"
       x1="34.375"
       inkscape:collect="always"
       gradientTransform="matrix(9.9335806,0,0,5.1381205,-192.88456,68.342452)">
      <stop
         id="stop3526"
         style="stop-color:#3465a4"
         offset="0" />
      <stop
         id="stop3534"
         style="stop-color:#5184c5"
         offset=".22506" />
      <stop
         id="stop3536"
         style="stop-color:#386caf"
         offset=".52463" />
      <stop
         id="stop3532"
         style="stop-color:#5184c5"
         offset=".77431" />
      <stop
         id="stop3528"
         style="stop-color:#3465a4"
         offset="1" />
    </linearGradient>
    <radialGradient
       id="radialGradient3731"
       xlink:href="#linearGradient3725"
       gradientUnits="userSpaceOnUse"
       cy="179.57001"
       cx="45.717999"
       gradientTransform="matrix(4.4430919,-2.9944453,5.6020428,2.2238813,-947.82675,741.02466)"
       r="7.9554"
       inkscape:collect="always" />
    <linearGradient
       id="linearGradient3725">
      <stop
         id="stop3727"
         style="stop-color:#cf6935"
         offset="0" />
      <stop
         id="stop3750"
         style="stop-color:#945637"
         offset="1" />
    </linearGradient>
    <radialGradient
       id="radialGradient3733"
       xlink:href="#linearGradient3725"
       gradientUnits="userSpaceOnUse"
       cy="201.39999"
       cx="62.754002"
       gradientTransform="matrix(5.1097345,-3.1668806,5.421649,2.3404653,-952.47566,728.0766)"
       r="7.9554"
       inkscape:collect="always" />
  </defs>
  <sodipodi:namedview
     id="base"
     pagecolor="#ffffff"
     bordercolor="#666666"
     borderopacity="1.0"
     inkscape:pageopacity="0.0"
     inkscape:pageshadow="2"
     inkscape:zoom="0.35"
     inkscape:cx="375"
     inkscape:cy="520"
     inkscape:document-units="px"
     inkscape:current-layer="layer1"
     showgrid="false"
     inkscape:window-width="1355"
     inkscape:window-height="712"
     inkscape:window-x="0"
     inkscape:window-y="0"
     inkscape:window-maximized="1" />
  <metadata
     id="metadata3551">
    <rdf:RDF>
      <cc:Work
         rdf:about="">
        <dc:format>image/svg+xml</dc:format>
        <dc:type
           rdf:resource="http://purl.org/dc/dcmitype/StillImage" />
        <dc:title></dc:title>
      </cc:Work>
    </rdf:RDF>
  </metadata>
  <g
     inkscape:label="Layer 1"
     inkscape:groupmode="layer"
     id="layer1">
    <path
       id="path3540"
       sodipodi:nodetypes="ccccc"
       style="fill:none;stroke:#000000;stroke-width:14.28844833;enable-background:new"
       d="m 398.39185,955.74672 c 7.9866,35.19613 -23.96974,88.27288 63.29678,76.66068 74.93892,-9.2999 76.39917,-29.0817 89.45188,-37.97063 l -4.75818,-51.53535 c -8.01639,-65.20275 -148.55669,-44.70164 -147.99048,12.8453 z"
       inkscape:connector-curvature="0" />
    <path
       id="path3538"
       sodipodi:nodetypes="ccccc"
       style="fill:none;stroke:#000000;stroke-width:14.28844833;enable-background:new"
       d="m 340.2804,958.0075 c -8.26473,35.2475 24.80416,88.3243 -65.49208,76.6608 -77.54155,-9.3001 -79.06137,-29.0304 -92.56111,-37.91937 l 4.91713,-51.53535 c 8.29453,-65.20276 153.72215,-44.75304 153.13606,12.79392 z"
       inkscape:connector-curvature="0" />
    <path
       id="path3064"
       sodipodi:nodetypes="ccccc"
       style="fill:url(#radialGradient3733);fill-rule:evenodd;enable-background:accumulate"
       d="m 398.39185,955.74672 c 7.9866,35.19613 -23.96974,88.27288 63.29678,76.66068 74.93892,-9.2999 76.39917,-29.0817 89.45188,-37.97063 l -4.75818,-51.53535 c -8.01639,-65.20275 -148.55669,-44.70164 -147.99048,12.8453 z"
       inkscape:connector-curvature="0" />
    <path
       id="path2904"
       sodipodi:nodetypes="ccccc"
       style="fill:url(#radialGradient3731);fill-rule:evenodd;enable-background:new"
       d="m 340.2804,958.0075 c -8.26473,35.2475 24.80416,88.3243 -65.49208,76.6608 -77.54155,-9.3001 -79.06137,-29.0304 -92.56111,-37.91937 l 4.91713,-51.53535 c 8.29453,-65.20276 153.72215,-44.75304 153.13606,12.79392 z"
       inkscape:connector-curvature="0" />
    <ellipse
       id="path2896"
       style="fill:none;enable-background:accumulate"
       transform="matrix(0.9848735,-0.17327489,0.54944146,0.83553222,0,0)"
       cx="167.39037"
       cy="361.33414"
       rx="200.52606"
       ry="129.90189" />
    <path
       id="path3056"
       sodipodi:nodetypes="ccsccsc"
       style="fill:#e9b96e;fill-rule:evenodd;enable-background:new"
       d="M 346.70742,698.22412 326.29393,802.7335 c -4.74826,39.15247 -41.47271,33.80882 -81.45536,39.51213 -43.42962,6.16575 -62.85971,-9.2486 -79.08124,-41.97843 l -0.62582,-103.01932 c 5.47341,-22.7105 39.59525,-56.3138 101.04439,-51.6895 66.69405,5.03537 81.37588,29.13314 80.53152,52.66574 z"
       inkscape:connector-curvature="0" />
    <path
       id="path3058"
       sodipodi:nodetypes="ccsccsc"
       style="fill:#e9b96e;fill-rule:evenodd;enable-background:new"
       d="m 388.03113,696.22025 20.41351,92.99999 c 8.08592,38.94694 52.58837,50.61048 93.66373,47.93866 49.24076,-3.23702 58.79685,-12.69116 72.20718,-45.83203 l -4.90718,-101.11822 c -7.41046,-22.50497 -44.36337,-55.13203 -105.38534,-48.81214 -66.22719,6.88507 -78.84284,31.34253 -75.9919,54.82374 z"
       inkscape:connector-curvature="0" />
    <path
       id="path3060"
       sodipodi:nodetypes="ccsccsc"
       style="fill:#e9b96e;fill-rule:evenodd;enable-background:new"
       d="m 319.67815,834.53846 8.94023,88.88948 c 4.13238,37.14861 -32.96955,44.70165 -66.01857,52.15192 -35.89996,8.01548 -68.57152,-11.35524 -89.32277,-41.41324 l -9.34749,-91.35579 c -0.0596,-21.73424 22.11215,-55.18342 75.72368,-53.89888 58.18098,1.3359 75.81309,23.37845 80.02492,45.62651 z"
       inkscape:connector-curvature="0" />
    <path
       id="path3062"
       sodipodi:nodetypes="ccsccsc"
       style="fill:#e9b96e;fill-rule:evenodd;enable-background:new"
       d="m 424.50723,834.53846 -6.0098,89.14639 c -2.91056,37.30275 34.38012,44.13646 67.61787,50.91877 36.09863,7.34752 68.08476,-12.69115 87.82279,-43.21159 l 6.32769,-91.66407 c -0.65562,-21.73424 -23.89026,-54.77237 -77.36273,-52.40884 -58.05184,2.51768 -74.929,24.86851 -78.39582,47.21934 z"
       inkscape:connector-curvature="0" />
    <path
       id="path3542"
       sodipodi:nodetypes="cccccccc"
       style="fill:none;stroke:#000000;stroke-width:15.71729183;enable-background:new"
       d="m 166.13481,611.33901 c -30.07889,115.29891 -15.08912,236.7127 -2.28473,362.90495 52.3003,13.05082 156.89097,6.47403 195.70147,1.79834 6.49656,-85.65247 -2.97014,-120.95136 12.15869,-243.8552 14.85072,127.68229 12.06932,165.75577 5.24495,237.68946 26.86039,31.49664 204.9993,10.01933 195.37366,-4.57293 4.57937,-111.2917 -0.43708,-228.69775 -21.69495,-356.37953 -135.87151,33.34588 -349.99977,14.90056 -384.49909,2.41491 z"
       inkscape:connector-curvature="0" />
    <path
       id="path2900"
       sodipodi:nodetypes="cccccccc"
       style="fill:url(#linearGradient3530);fill-rule:evenodd;enable-background:new"
       d="m 166.13481,611.33901 c -30.07889,115.29891 -15.08912,236.7127 -2.28473,362.90495 52.3003,13.05082 156.89097,6.47403 195.70147,1.79834 6.49656,-85.65247 -2.97014,-120.95136 12.15869,-243.8552 14.85072,127.68229 12.06932,165.75577 5.24495,237.68946 26.86039,31.49664 204.9993,10.01933 195.37366,-4.57293 4.57937,-111.2917 -0.43708,-228.69775 -21.69495,-356.37953 -135.87151,33.34588 -349.99977,14.90056 -384.49909,2.41491 z"
       inkscape:connector-curvature="0" />
    <path
       id="path3606"
       sodipodi:nodetypes="cccccscccccsccccsccscsscsssscccccccccccccccccssccsccsccccscccccsccccccccccc"
       style="fill:#e8cdba;fill-rule:evenodd;stroke:#000000;stroke-width:11.25966358;stroke-linecap:round;stroke-linejoin:round;enable-background:accumulate"
       d="m 323.99213,298.3834 c -31.35739,0 -60.17657,15.97572 -60.18644,32.43783 l -9.56031,48.73447 -4.63201,0 c -14.04416,0 -27.31796,1.35889 -39.81154,3.76076 -2.89376,-1.28868 -5.39249,-3.52508 -9.57018,-3.76076 -49.30271,-2.82308 -86.24025,11.99933 -105.242328,31.65057 l -73.154084,84.7726 C -7.2604839,513.0076 -10.322151,531.1395 -4.7024987,546.59372 l 5.24434067,50.79536 7.72328853,49.49114 c -2.7851232,20.00726 2.0444165,53.65354 20.6712015,59.21947 5.165318,1.55445 10.281274,-0.30086 12.96763,-3.76076 -0.227153,-0.85244 -0.671586,-2.20632 -0.92837,-3.10889 -1.935762,-4.66336 -3.209811,-10.48 -4.325843,-17.70066 1.412321,6.51866 2.90365,12.38544 4.325843,17.70066 4.424597,10.58027 11.061499,14.94275 18.824306,14.69203 4.187572,-0.10028 12.315804,-0.20057 12.345435,-5.31521 -7.130726,-11.33243 -11.76273,-36.70504 -12.957756,-49.49162 6.409735,26.87691 9.718314,58.06616 27.466106,56.41143 10.123257,-0.95273 6.291237,-2.60746 12.651596,-6.11751 -3.239443,-4.51291 -4.97767,-10.7307 -6.17271,-17.39979 -0.56296,-3.15904 -0.938257,-6.26794 -1.234545,-9.57741 -0.829617,-9.17626 -1.214786,-18.60324 -1.846881,-25.67347 1.10616,6.36822 0.997519,16.04592 1.846881,25.67347 0.286416,3.20918 0.65184,6.51865 1.234545,9.57741 2.350563,12.28516 7.782551,22.364 21.609441,22.26371 8.78995,-0.10029 15.51574,-7.82238 12.03926,-15.39405 -6.15296,-13.33818 -6.76528,-28.73223 -6.79492,-41.31825 16.65152,11.93416 31.89072,23.91846 54.62606,10.48 l -54.93223,-42.02025 7.71343,-60.77844 c 4.5925,-7.64186 4.44435,-16.23145 0,-24.13407 6.39988,-3.80087 34.83387,-25.77876 40.88807,-32.07679 l -6.26161,64.58984 c 0,35.8526 65.48018,45.68023 131.49366,45.68023 l 141.44901,-4.56257 c 66.01349,0 116.50136,-15.54447 116.50136,-51.37702 l 0.5432,-57.0633 24.75999,19.76657 c 6.01469,7.07023 12.26643,12.37039 18.51815,16.61254 -4.10855,6.3582 -5.62951,13.26295 -4.0098,19.90195 l -10.49855,60.63302 -61.41112,35.75231 c 16.59227,15.54448 33.78698,5.16478 52.15698,-4.86391 -3.61474,12.38544 -8.56278,27.57892 -17.90581,40.11479 -5.28384,7.07024 -1.40243,15.34391 6.47889,16.29664 24.79949,3.00861 31.08086,-37.60762 38.58688,-54.05469 -5.48138,14.59176 -11.39731,39.21222 -23.15015,50.74522 4.72089,4.11176 0.74072,5.4155 9.57017,7.37109 15.46635,3.45991 27.30809,-26.82677 40.73993,-52.65067 -4.74065,12.48573 -16.2861,37.05605 -25.9254,47.48589 -1.43208,5.01435 6.15295,5.86679 9.87634,6.41837 6.98257,1.00287 13.92565,-2.80803 20.98722,-12.98717 2.716,-4.9642 5.91594,-10.3797 8.94798,-16.49721 -2.9629,6.76938 -5.98506,12.18488 -8.94798,16.49721 -0.57282,1.00287 -1.34317,2.45703 -1.85675,3.40976 1.44195,3.66048 5.42211,5.86679 10.49855,4.86392 18.32063,-3.56018 32.59195,-36.10332 35.80176,-56.06043 l 20.67119,-47.98683 19.44651,-49.50166 c 8.7702,-23.15627 2.86415,-40.93214 -22.52794,-59.07908 l -70.67512,-82.5763 c -18.32061,-19.05454 -47.04102,-30.72292 -97.83507,-29.14842 -2.13329,0.0651 -3.10117,1.34886 -4.632,2.03582 -16.27622,-5.32022 -35.06103,-8.51938 -55.24828,-9.08599 l -11.11089,-49.83262 c 0,-16.45709 -25.11554,-31.49513 -56.48282,-31.49513 l -72.83803,0 z M 34.496706,658.46337 c 0.207408,8.22353 0.977761,15.09319 1.846882,21.31099 -1.451825,-7.17053 -2.597475,-14.49147 -1.846882,-21.31099 z m 613.567934,5.16478 c -1.37282,7.32095 -4.65177,15.14334 -8.33564,22.56457 2.78512,-6.36823 5.57026,-13.73932 8.33564,-22.56457 z"
       inkscape:connector-curvature="0" />
    <path
       id="path3054"
       sodipodi:nodetypes="cccccscccccccscscsccsscsscssssccccccccccccccccssccsccsccccscccccsccccc"
       style="fill:#e8cdba;fill-rule:evenodd;enable-background:accumulate"
       d="m 323.99213,298.3834 c -31.35739,0 -60.17657,15.97572 -60.18644,32.43783 l -9.56031,48.73447 -4.63201,0 c -14.04416,0 -27.31796,1.35889 -39.81154,3.76076 -2.89376,-1.28868 -5.39249,-3.52508 -9.57018,-3.76076 -49.30271,-2.82308 -86.24025,11.99933 -105.242328,31.65057 l -73.154084,84.7726 c -21.0267393,16.69779 -33.382047,30.12622 -26.5377367,50.61485 l 5.24434067,50.79536 7.72328853,49.49114 c -2.7851232,20.00726 2.0444165,53.65354 20.6712015,59.21947 10.696075,0.8023 14.133039,-0.45129 12.503452,-5.46564 -0.839489,-2.00574 -7.377638,-14.09032 -8.809704,-21.31098 -1.856753,-9.42698 -1.876513,-16.89836 1.224673,-19.10468 -0.177776,10.07885 0.237025,13.03731 1.995011,22.013 1.560465,7.92267 7.723303,15.69491 8.385016,18.15194 4.434483,10.58028 7.802311,13.78946 15.565118,13.53874 4.187572,-0.10028 9.984986,-0.65185 10.014617,-5.7665 -7.130711,-11.33243 -13.619484,-45.48014 -10.626938,-49.04033 3.032035,12.73644 3.506099,23.11615 7.022071,33.84686 3.901156,11.88401 11.11089,23.41701 20.444035,22.56457 10.123257,-0.95273 8.622055,-1.65474 11.259034,-6.61894 -2.785123,-5.46564 -3.12093,-5.51579 -4.315956,-12.18487 -0.553088,-3.1089 -2.330818,-11.48286 -2.627107,-14.74219 -0.839489,-9.2264 -6.340614,-23.36687 -0.918511,-25.22218 -0.720962,7.07023 1.787617,16.09606 3.713507,26.1749 0.612336,3.20919 2.508594,10.48 3.101171,13.5889 2.340705,12.28515 4.049299,17.85108 17.876189,17.75079 8.78995,-0.10029 15.51574,-7.82238 12.03926,-15.39405 -6.15296,-13.33818 -6.76528,-28.73223 -6.79492,-41.31825 16.65152,11.93416 31.89072,23.91846 54.62606,10.48 l -54.93223,-42.02025 7.71343,-60.77844 c 4.5925,-7.64186 4.44435,-16.23145 0,-24.13407 6.39988,-3.80087 29.24385,-23.88836 35.29805,-30.18638 3.50611,16.06597 8.37514,31.20931 -2.53821,57.0282 0,35.85761 58.66548,36.25876 124.67898,36.25876 l 135.37505,2.85818 c 66.01349,0 125.65674,-1.25359 125.65674,-37.08112 l 7.99983,-59.90142 c 17.31324,9.79303 27.1402,21.82747 41.42139,32.59328 -4.10855,6.3582 -5.62951,13.26295 -4.0098,19.90195 l -10.49855,60.63302 -61.41112,35.75231 c 16.59227,15.54448 33.78698,5.16478 52.15698,-4.86391 -3.61474,12.38544 -8.56278,27.57892 -17.90581,40.11479 -5.28384,7.07024 -1.40243,15.34391 6.47889,16.29664 24.79949,3.00861 42.94234,-51.6478 38.58688,-54.05469 -6.79493,22.26371 -14.69601,37.55747 -26.44886,49.09048 4.7209,4.06163 4.03943,7.07024 12.86888,9.02583 15.46635,3.45991 33.90549,-33.84686 40.73993,-52.65067 4.49373,5.11464 -13.64912,36.05317 -23.28843,46.48302 -1.43206,5.01436 3.51598,6.86966 7.23937,7.42124 6.98257,1.00287 13.92565,-2.80803 20.98722,-12.98717 2.716,-4.9642 15.80216,-21.11041 20.80946,-37.55747 4.30608,3.05875 -7.43689,23.61758 -20.15762,38.86121 -4.52336,2.70775 1.30368,3.86105 0.79011,4.81377 1.44194,3.61033 2.12341,3.15904 7.19985,2.15617 18.32063,-3.56018 32.59195,-36.10332 35.80176,-56.06043 l 20.67119,-47.98683 19.44651,-49.50166 c 5.36287,-20.31814 9.7776,-38.09402 -22.52794,-59.07908 l -70.67512,-82.5763 c -18.32061,-19.05454 -54.49767,-30.72292 -97.83507,-29.14842 -2.13329,0.0752 -3.10117,1.34886 -4.632,2.03582 -16.27622,-5.32022 -35.06103,-8.51938 -55.24828,-9.08599 l -11.11089,-49.83262 c 0,-16.45709 -25.11554,-31.49513 -56.48282,-31.49513 l -72.83803,0 z"
       inkscape:connector-curvature="0" />
    <path
       id="path3934"
       sodipodi:nodetypes="cccccccscscsccsscsscssssccccccc"
       style="fill:#e8cdba;fill-rule:evenodd;stroke:#000000;stroke-width:7.0372901;stroke-linecap:round;stroke-linejoin:round;enable-background:accumulate"
       d="M 64.87635,449.00444 24.136424,496.01397 C 3.109685,512.70674 -9.2554949,526.14019 -2.4013124,546.62882 l 5.2443407,50.76026 7.7134157,49.54128 c -2.7752503,20.00726 2.054289,53.65355 20.681075,59.21947 10.696074,0.8023 14.291069,-0.45129 12.651596,-5.46564 -0.839489,-2.00573 -7.525782,-14.14046 -8.947976,-21.31098 -1.866626,-9.42698 -1.866626,-16.9485 1.234545,-19.15482 -0.187648,10.12899 0.404929,12.98717 2.162929,21.96286 1.550578,7.92267 7.66404,15.69491 8.335625,18.15194 4.424611,10.58027 7.664054,13.88975 15.426861,13.63903 4.187557,-0.10029 10.152875,-0.65186 10.182506,-5.76651 -7.130726,-11.38257 -13.787373,-45.48014 -10.794842,-49.09047 3.032035,12.78658 3.585108,23.16629 7.091207,33.84686 3.901156,11.93415 11.031882,23.46716 20.374899,22.56457 10.113385,-0.95273 8.780072,-1.65474 11.417061,-6.5688 -2.77526,-5.46564 -3.130798,-5.56593 -4.315966,-12.23501 -0.562945,-3.1089 -2.478963,-11.43272 -2.785123,-14.69204 -0.829617,-9.22641 -6.340614,-23.36688 -0.918498,-25.22218 -0.720976,7.07022 1.767859,16.04591 3.703621,26.12475 0.612336,3.20919 2.498721,10.42986 3.081426,13.48861 2.34069,12.28515 4.07893,18.00151 17.90581,17.85108 8.78994,-0.0501 15.51574,-7.77224 12.02939,-15.34391 -6.1431,-13.38832 -6.75542,-28.78237 -6.78505,-41.36839 16.64163,11.93416 31.89072,23.9686 54.62607,10.53014 l -54.93225,-42.02025 7.71343,-60.79348 c 4.59251,-7.64688 4.44436,-16.23145 0,-24.13407 6.39988,-3.80087 29.43152,-23.94351 35.49559,-30.24154 C 146.93889,454.4049 123.62084,454.54029 64.87635,449.00444 Z"
       inkscape:connector-curvature="0" />
    <path
       id="path4026"
       style="fill:#e8cdba;fill-rule:evenodd;stroke:#000000;stroke-width:7.0372901;stroke-linecap:round;stroke-linejoin:round;enable-background:accumulate"
       d="m 676.93319,454.35977 27.06118,49.48662 c 16.10832,18.05166 24.5526,32.24227 11.99975,52.01886 l -19.51565,49.84766 -21.59957,48.48826 c -2.89376,20.00725 -17.16509,52.95154 -37.16467,57.11344 -10.8146,0 -14.01454,-1.5043 -10.98251,-6.36821 1.40245,-1.90546 11.42694,-13.38833 14.87378,-20.45855 4.50361,-9.17627 6.61715,-16.5975 4.16782,-19.00439 -2.66661,10.0287 -4.0493,12.78659 -8.32576,21.5617 -3.78265,7.77224 -12.00963,14.99291 -13.37258,17.3998 -7.36775,10.12898 -11.49606,13.13759 -19.12059,12.38544 -4.09869,-0.45129 -9.8566,-1.45416 -8.44428,-6.51865 10.26153,-10.68057 26.4686,-43.97586 24.52297,-47.73661 -6.5974,12.38544 -10.07387,22.61472 -16.57252,32.99442 -7.20973,11.48286 -17.52064,22.364 -26.51797,20.8597 -9.74796,-1.70489 -8.227,-2.30661 -9.45167,-7.3711 4.29621,-5.21493 4.6715,-5.26507 7.7233,-11.78373 1.45182,-3.05875 5.68877,-11.13185 6.90357,-14.39118 3.42709,-9.02582 12.86888,-22.61472 8.02947,-24.87118 -1.28393,7.07024 -6.29124,15.79521 -11.04176,25.62333 -1.51107,3.1089 -5.41224,10.129 -6.85418,13.08746 -5.77767,11.98429 -9.09612,17.50008 -22.75509,16.39692 -8.68132,-0.70201 -13.1553,-8.82525 -7.57516,-16.04592 9.85658,-12.83673 14.80463,-28.03022 18.37987,-40.4658 -19.84157,10.58028 -38.32021,21.41127 -57.02602,6.41836 l 66.21102,-37.55747 9.51092,-60.74835 c -2.39008,-7.90262 0.17778,-16.3869 6.80481,-23.88336 -5.2641,-4.2321 -22.3798,-25.83893 -26.597,-32.51304 33.98449,-54.58621 57.02602,-52.75597 116.72852,-53.96443 z"
       sodipodi:nodetypes="cccccccscscsccsscsscssssccccccc"
       inkscape:transform-center-y="-24.216672"
       inkscape:transform-center-x="33.388286"
       inkscape:connector-curvature="0" />
    <g
       id="g3634"
       style="enable-background:new"
       transform="matrix(9.8763449,0,0,5.0143499,-951.68585,61.585757)">
      <path
         id="path3575"
         sodipodi:nodetypes="ccccc"
         style="fill:#729fcf;fill-rule:evenodd;stroke:#000000;stroke-width:0.99966002;stroke-linejoin:round"
         d="m 135.62,69.448 c 3.85,-1.12 6.28,1.822 8.29,5.997 1.54,-6.318 2.84,-11.507 6.22,-17.591 -2.99,-1.458 -4.26,-1.741 -7.25,0 l -7.26,11.594 z"
         inkscape:connector-curvature="0" />
      <path
         id="path3577"
         sodipodi:nodetypes="ccccc"
         style="fill:#729fcf;fill-rule:evenodd;stroke:#000000;stroke-width:0.99934px;stroke-linejoin:round"
         d="m 131.12,69.744 c -3.95,-0.384 -6.28,1.778 -7.68,6.275 -2.41,-5.945 -2.34,-12.205 -8.12,-16.461 2.75,-1.309 3.3,-1.457 6.5,-1.691 3.49,2.065 6.72,7.704 9.3,11.877 z"
         inkscape:connector-curvature="0" />
      <path
         id="path3579"
         sodipodi:nodetypes="csccccccccccccccsccccc"
         style="fill:#000000;fill-rule:evenodd;stroke:#000000;stroke-width:1.92920005;stroke-linejoin:round;filter:url(#filter3027)"
         transform="matrix(0.92884,0,0,1.0752,81.401,-11.028)"
         d="m 44.099,65.103 c -5.725,1.974 -11.027,-0.568 -17.5,7.875 -4.687,6.115 -6.335,11.693 -8.312,17.063 3.291,3.708 10.913,5.503 16.537,6.88 l 1.75,-10.758 0.423,2.491 -1.136,9.106 -2.031,0.021 -1.543,12.819 c 14.165,2.82 28.855,3.02 44.187,0 L 76.08,97.475 74.221,97.154 72.523,88.48 l 0.23,-1.804 2.234,9.927 c 7.318,-0.711 12.918,-3.559 16.8,-6.562 C 89.475,83.452 85.343,75.312 83.223,72.355 79.771,67.541 71.807,64.001 65.537,65.978 l -6.563,9.625 -2.625,6.125 -3.5,-7.875 -8.75,-8.75 z"
         inkscape:connector-curvature="0" />
      <path
         id="path2436"
         sodipodi:nodetypes="cc"
         style="fill:none;stroke:#000000;stroke-width:1.00259995px;stroke-linecap:round"
         d="m 133.76,75.442 c -1.51,9.283 -1.43,24.263 -1.61,34.698"
         inkscape:connector-curvature="0" />
      <circle
         id="path3208"
         style="opacity:0.98999999;fill:#3465a4;fill-rule:evenodd;stroke:#000000;stroke-width:0.60000002;stroke-linecap:round;stroke-linejoin:round;enable-background:accumulate"
         transform="translate(97.423,56.152)"
         cx="39.105324"
         cy="26.094931"
         r="1.4681181" />
      <circle
         id="path3210"
         style="opacity:0.98999999;fill:#3465a4;fill-rule:evenodd;stroke:#000000;stroke-width:0.60000002;stroke-linecap:round;stroke-linejoin:round;enable-background:accumulate"
         transform="translate(97.423,65.762)"
         cx="39.105324"
         cy="26.094931"
         r="1.4681181" />
      <circle
         id="path3212"
         style="opacity:0.98999999;fill:#3465a4;fill-rule:evenodd;stroke:#000000;stroke-width:0.60000002;stroke-linecap:round;stroke-linejoin:round;enable-background:accumulate"
         transform="translate(97.156,74.57)"
         cx="39.105324"
         cy="26.094931"
         r="1.4681181" />
      <path
         id="path3218"
         style="opacity:0.98999999;fill:#729fcf;fill-rule:evenodd;stroke:#000000;stroke-width:0.16016001;stroke-linecap:round;stroke-linejoin:round;enable-background:accumulate"
         d="m 124.49,109.82 c -4.26,-0.38 -12.95,-1.85 -12.95,-2.19 0,-0.09 0.3,-2.98 0.67,-6.43 0.37,-3.453 0.67,-6.426 0.67,-6.609 0,-0.202 0.36,-0.334 0.91,-0.334 0.65,0 0.96,-0.138 1.05,-0.467 0.36,-1.27 1.02,-9.756 0.86,-10.87 -0.11,-0.692 -0.26,-1.186 -0.35,-1.1 -0.09,0.087 -0.5,2.578 -0.91,5.535 -0.41,2.957 -0.81,5.439 -0.89,5.516 -0.27,0.269 -7.89,-2.382 -10.26,-3.571 -1.41,-0.706 -2.89,-1.692 -3.593,-2.394 l -1.195,-1.195 0.679,-2.066 c 2.749,-8.359 4.269,-11.828 6.999,-15.974 2.52,-3.828 5.83,-6.5 8.61,-6.951 0.87,-0.14 1.02,-0.05 2.16,1.25 1.7,1.941 2.69,4.024 4.06,8.532 0.64,2.128 1.34,4.349 1.55,4.937 0.54,1.5 1.19,1.419 1.83,-0.229 1.22,-3.086 3,-4.647 5.46,-4.778 l 1.24,-0.065 1.01,2.582 1.01,2.582 -0.36,2.89 c -0.48,3.947 -0.86,11.827 -1.08,22.579 l -0.18,9.01 -2.97,-0.05 c -1.63,-0.02 -3.44,-0.09 -4.03,-0.14 z"
         inkscape:connector-curvature="0" />
      <path
         id="path2428"
         style="fill:#73a0cf;fill-rule:evenodd;stroke:#000000;stroke-width:0.30199999;stroke-linecap:round;stroke-linejoin:round;enable-background:accumulate"
         d="m 132.87,101.74 c 0.19,-12.293 0.62,-20.542 1.31,-25.042 0.2,-1.26 1.88,-6.175 2.28,-6.663 0.32,-0.387 1.52,-0.269 2.57,0.253 1.25,0.625 2.56,2.096 3.6,4.047 0.85,1.601 1.2,1.92 1.62,1.483 0.14,-0.144 0.64,-1.757 1.11,-3.585 1.1,-4.295 2.16,-7.49 3.32,-10.078 1.05,-2.344 0.92,-2.278 2.81,-1.409 2.9,1.342 5.88,3.997 7.4,6.599 1.82,3.114 4.59,9.538 6.6,15.289 l 1.08,3.114 -0.96,0.78 c -4.07,3.289 -9.69,5.787 -13.42,5.963 l -1.1,0.052 -0.99,-5.059 c -0.54,-2.783 -1.03,-5.105 -1.09,-5.161 -0.06,-0.056 -0.16,0.28 -0.23,0.746 -0.09,0.606 0.1,2.218 0.68,5.663 l 0.8,4.815 0.81,0.121 c 0.68,0.103 0.82,0.198 0.9,0.631 0.05,0.28 0.15,3.443 0.22,7.031 l 0.13,6.52 -3.18,0.6 c -4.92,0.92 -8.86,1.37 -14.32,1.63 l -2.08,0.1 0.13,-8.44 z m 4.56,0.33 c 0.92,-0.72 0.78,-2.464 -0.24,-3.009 -0.99,-0.53 -2.31,-0.023 -2.65,1.019 -0.56,1.71 1.47,3.11 2.89,1.99 z m -0.29,-8.503 c 1.67,-0.582 1.5,-3.162 -0.23,-3.487 -0.72,-0.135 -1.68,0.275 -1.99,0.849 -0.51,0.944 -0.04,2.248 0.94,2.632 0.61,0.242 0.6,0.242 1.28,0.006 z m 0.12,-9.69 c 0.76,-0.318 1.05,-0.787 1.05,-1.711 0,-1.228 -1.31,-2.081 -2.46,-1.604 -0.76,0.312 -1.13,0.872 -1.12,1.689 0,0.762 0.44,1.415 1.13,1.684 0.63,0.25 0.67,0.248 1.4,-0.058 z"
         inkscape:connector-curvature="0" />
      <g
         id="g3204"
         style="stroke:#000000"
         transform="matrix(0.99591,0.090381,-0.090381,0.99591,74.471,5.0857)">
        <path
           id="path2430"
           d="m 21.517,23.536 10.193,0.189 0.188,8.305 -5.473,3.208 c 0,0 -5.096,-2.453 -5.096,-3.397 0,-0.944 0.188,-8.683 0.188,-8.305 z"
           style="fill:none;stroke:#000000;stroke-width:1px"
           transform="translate(29.815,46.086)"
           inkscape:connector-curvature="0" />
        <path
           id="path2432"
           d="m 21.329,26.933 10.569,0"
           style="fill:none;stroke:#000000;stroke-width:1px;stroke-linecap:round"
           transform="translate(29.815,46.086)"
           inkscape:connector-curvature="0" />
      </g>
    </g>
    <g
       id="g3215"
       style="enable-background:new"
       inkscape:label="Layer 1"
       transform="matrix(0.7364558,-0.0071312,0.01226798,0.33896181,89.119758,66.026187)">
      <g
         id="g11781"
         transform="matrix(1.0000138,-8.3064909e-4,-6.5770628e-4,1.0394826,-16.64741,-5.2531275)">
        <path
           id="path9980"
           style="fill:#eebb46"
           d="M 355.07,834.51 C 276.31,827.1 206.55,783.17 156.69,709.58 127.97,667.21 106.6,611.33 98.641,557.81 c -1.086,-7.3 -2.233,-13.69 -2.55,-14.2 -0.316,-0.51 -2.715,-0.68 -5.33,-0.37 -10.526,1.25 -24.186,-4.81 -35.088,-15.56 -7.67,-7.57 -8.307,-8.94 -13.12,-28.18 -1.179,-4.71 -0.864,-14.45 0.903,-27.92 1.994,-15.2 4.005,-22.55 9.057,-33.11 4.026,-8.41 6.268,-11.74 10.849,-16.11 3.176,-3.03 6.773,-5.83 7.992,-6.21 2.349,-0.75 2.957,-3 1.118,-4.14 -0.605,-0.37 -2.404,-3.43 -3.999,-6.8 -3.481,-7.36 -3.662,-12.06 -0.8,-20.75 1.155,-3.51 2.462,-10.88 2.903,-16.38 1.128,-14.07 3.662,-28.96 5.547,-32.6 2.977,-5.76 7.511,-21.01 8.453,-28.44 0.699,-5.51 2.065,-9.63 5.378,-16.23 2.442,-4.86 5.183,-9.46 6.091,-10.21 1.565,-1.3 5.695,-7.32 10.315,-15.02 1.15,-1.93 4.85,-6.2 8.21,-9.5 3.36,-3.3 7.41,-8.26 9,-11.03 1.59,-2.76 4.08,-6.13 5.54,-7.5 1.46,-1.36 3.94,-5.32 5.52,-8.79 1.91,-4.19 6.13,-9.99 12.54,-17.25 5.32,-6.01 10.03,-10.93 10.46,-10.93 0.43,0 2.73,-2.05 5.11,-4.55 2.38,-2.5 6.69,-6.14 9.58,-8.1 2.89,-1.95 5.25,-3.95 5.25,-4.43 0,-1.6 13.31,-15.03 16.44,-16.6 1.68,-0.85 5.31,-3.7 8.06,-6.35 2.75,-2.64 9.05,-7.27 14,-10.29 4.95,-3.01 11.04,-7.44 13.54,-9.85 2.64,-2.56 6.3,-4.92 8.76,-5.66 2.33,-0.69 5.76,-2.6 7.62,-4.23 3.82,-3.36 16.49,-10.24 21.66,-11.77 1.88,-0.55 6,-1.95 9.15,-3.09 3.16,-1.15 8.15,-2.08 11.14,-2.08 3.69,0 7.72,-0.94 12.62,-2.93 3.95,-1.61 9.02,-3.24 11.25,-3.61 2.23,-0.38 5.55,-1.31 7.38,-2.08 1.82,-0.76 4.97,-1.38 6.98,-1.38 2.02,0 5.07,-0.86 6.78,-1.9 1.72,-1.04 4.7,-2.202 6.62,-2.587 1.93,-0.384 5.53,-1.41 8,-2.279 3.66,-1.283 10.93,-1.661 38.76,-2.015 42.35,-0.539 45.09,-0.138 65.04,9.551 7.43,3.6 14.9,7.77 16.6,9.25 1.71,1.49 4.68,3.49 6.6,4.47 1.93,0.97 10.78,9.05 19.67,17.96 17.87,17.91 18.81,19.49 18.16,30.67 -0.32,5.61 -0.2,5.92 3.81,10.08 4.6,4.77 6.75,8.55 7.86,13.8 0.4,1.92 0.9,3.78 1.1,4.12 0.37,0.64 11.17,-2.74 17.62,-5.52 8.12,-3.5 18.38,-1.02 27.53,6.67 2.34,1.96 5.69,3.88 7.46,4.27 6.59,1.45 17.93,7.75 21.14,11.75 1.73,2.16 5.26,6.02 7.83,8.57 2.96,2.93 6.42,8.12 9.43,14.14 4.56,9.12 10.47,18.15 13.55,20.72 0.81,0.67 2.41,3.36 3.56,5.99 1.14,2.63 3.7,8.48 5.68,13 1.98,4.51 3.6,8.65 3.6,9.19 0,0.54 1.97,2.83 4.37,5.08 4.62,4.33 5.13,5.32 11.55,22.36 3.11,8.25 4.08,12.26 4.08,16.8 0,3.78 0.64,7.13 1.75,9.16 1.51,2.77 1.73,5.95 1.62,23.87 -0.08,15.61 -0.49,21.85 -1.66,25.5 -5.08,15.9 -6.71,21.44 -6.71,22.8 0,1.04 1.04,1.55 3.25,1.61 15.11,0.41 20.35,1.08 25.83,3.29 6.23,2.52 12.54,7.37 15.24,11.72 3.32,5.35 9.66,25.33 9.67,30.46 0.01,2.78 0.95,7.82 2.09,11.2 1.66,4.93 1.98,7.79 1.6,14.45 -0.74,12.92 -2.57,29.92 -3.59,33.26 -0.51,1.67 -1.19,4.64 -1.51,6.6 -0.89,5.33 -8.97,14.74 -16.32,19.01 -8.38,4.87 -15.18,6.22 -29.14,5.79 l -11.53,-0.36 -2.68,16.5 c -3.15,19.31 -9.34,44.56 -15.09,61.5 -5.25,15.43 -16.33,41.67 -21.76,51.5 -1.06,1.92 -3.58,6.62 -5.6,10.43 -2.01,3.81 -4.46,8.08 -5.43,9.5 -0.97,1.41 -4.39,6.62 -7.61,11.57 -41.76,64.27 -106.17,110.25 -172.92,123.43 -21.03,4.15 -48.15,5.77 -67,4 z"
           inkscape:connector-curvature="0" />
        <path
           id="path3705"
           style="fill:#eebb46"
           d="M 355.07,834.51 C 276.31,827.1 206.55,783.17 156.69,709.58 127.97,667.21 106.6,611.33 98.641,557.81 c -1.086,-7.3 -2.233,-13.69 -2.55,-14.2 -0.316,-0.51 -2.715,-0.68 -5.33,-0.37 -10.526,1.25 -24.186,-4.81 -35.088,-15.56 -7.67,-7.57 -8.307,-8.94 -13.12,-28.18 -1.179,-4.71 -0.864,-14.45 0.903,-27.92 1.994,-15.2 4.005,-22.55 9.057,-33.11 4.026,-8.41 6.268,-11.74 10.849,-16.11 3.176,-3.03 6.773,-5.83 7.992,-6.21 2.349,-0.75 2.957,-3 1.118,-4.14 -0.605,-0.37 -2.404,-3.43 -3.999,-6.8 -3.481,-7.36 -3.662,-12.06 -0.8,-20.75 1.155,-3.51 2.462,-10.88 2.903,-16.38 1.128,-14.07 3.662,-28.96 5.547,-32.6 2.977,-5.76 7.511,-21.01 8.453,-28.44 0.699,-5.51 2.065,-9.63 5.378,-16.23 2.442,-4.86 5.183,-9.46 6.091,-10.21 1.565,-1.3 5.695,-7.32 10.315,-15.02 1.15,-1.93 4.85,-6.2 8.21,-9.5 3.36,-3.3 7.41,-8.26 9,-11.03 1.59,-2.76 4.08,-6.13 5.54,-7.5 1.46,-1.36 3.94,-5.32 5.52,-8.79 1.91,-4.19 6.13,-9.99 12.54,-17.25 5.32,-6.01 10.03,-10.93 10.46,-10.93 0.43,0 2.73,-2.05 5.11,-4.55 2.38,-2.5 6.69,-6.14 9.58,-8.1 2.89,-1.95 5.25,-3.95 5.25,-4.43 0,-1.6 13.31,-15.03 16.44,-16.6 1.68,-0.85 5.31,-3.7 8.06,-6.35 2.75,-2.64 9.05,-7.27 14,-10.29 4.95,-3.01 11.04,-7.44 13.54,-9.85 2.64,-2.56 6.3,-4.92 8.76,-5.66 2.33,-0.69 5.76,-2.6 7.62,-4.23 3.82,-3.36 16.49,-10.24 21.66,-11.77 1.88,-0.55 6,-1.95 9.15,-3.09 3.16,-1.15 8.15,-2.08 11.14,-2.08 3.69,0 7.72,-0.94 12.62,-2.93 3.95,-1.61 9.02,-3.24 11.25,-3.61 2.23,-0.38 5.55,-1.31 7.38,-2.08 1.82,-0.76 4.97,-1.38 6.98,-1.38 2.02,0 5.07,-0.86 6.78,-1.9 1.72,-1.04 4.7,-2.202 6.62,-2.587 1.93,-0.384 5.53,-1.41 8,-2.279 3.66,-1.283 10.93,-1.661 38.76,-2.015 42.35,-0.539 45.09,-0.138 65.04,9.551 7.43,3.6 14.9,7.77 16.6,9.25 1.71,1.49 4.68,3.49 6.6,4.47 1.93,0.97 10.78,9.05 19.67,17.96 17.87,17.91 18.81,19.49 18.16,30.67 -0.32,5.61 -0.2,5.92 3.81,10.08 4.6,4.77 6.75,8.55 7.86,13.8 0.4,1.92 0.9,3.78 1.1,4.12 0.37,0.64 11.17,-2.74 17.62,-5.52 8.12,-3.5 18.38,-1.02 27.53,6.67 2.34,1.96 5.69,3.88 7.46,4.27 6.59,1.45 17.93,7.75 21.14,11.75 1.73,2.16 5.26,6.02 7.83,8.57 2.96,2.93 6.42,8.12 9.43,14.14 4.56,9.12 10.47,18.15 13.55,20.72 0.81,0.67 2.41,3.36 3.56,5.99 1.14,2.63 3.7,8.48 5.68,13 1.98,4.51 3.6,8.65 3.6,9.19 0,0.54 1.97,2.83 4.37,5.08 4.62,4.33 5.13,5.32 11.55,22.36 3.11,8.25 4.08,12.26 4.08,16.8 0,3.78 0.64,7.13 1.75,9.16 1.51,2.77 1.73,5.95 1.62,23.87 -0.08,15.61 -0.49,21.85 -1.66,25.5 -5.08,15.9 -6.71,21.44 -6.71,22.8 0,1.04 1.04,1.55 3.25,1.61 15.11,0.41 20.35,1.08 25.83,3.29 6.23,2.52 12.54,7.37 15.24,11.72 3.32,5.35 9.66,25.33 9.67,30.46 0.01,2.78 0.95,7.82 2.09,11.2 1.66,4.93 1.98,7.79 1.6,14.45 -0.74,12.92 -2.57,29.92 -3.59,33.26 -0.51,1.67 -1.19,4.64 -1.51,6.6 -0.89,5.33 -8.97,14.74 -16.32,19.01 -8.38,4.87 -15.18,6.22 -29.14,5.79 l -11.53,-0.36 -2.68,16.5 c -3.15,19.31 -9.34,44.56 -15.09,61.5 -5.25,15.43 -16.33,41.67 -21.76,51.5 -1.06,1.92 -3.58,6.62 -5.6,10.43 -2.01,3.81 -4.46,8.08 -5.43,9.5 -0.97,1.41 -4.39,6.62 -7.61,11.57 -41.76,64.27 -106.17,110.25 -172.92,123.43 -21.03,4.15 -48.15,5.77 -67,4 z"
           inkscape:connector-curvature="0" />
        <path
           id="path9982"
           style="fill:url(#linearGradient11760)"
           d="M 355.07,834.51 C 276.31,827.1 206.55,783.17 156.69,709.58 127.97,667.21 106.6,611.33 98.641,557.81 c -1.086,-7.3 -2.233,-13.69 -2.55,-14.2 -0.316,-0.51 -2.715,-0.68 -5.33,-0.37 -10.526,1.25 -24.186,-4.81 -35.088,-15.56 -7.67,-7.57 -8.307,-8.94 -13.12,-28.18 -1.179,-4.71 -0.864,-14.45 0.903,-27.92 1.994,-15.2 4.005,-22.55 9.057,-33.11 4.026,-8.41 6.268,-11.74 10.849,-16.11 3.176,-3.03 6.773,-5.83 7.992,-6.21 2.349,-0.75 2.957,-3 1.118,-4.14 -0.605,-0.37 -2.404,-3.43 -3.999,-6.8 -3.481,-7.36 -3.662,-12.06 -0.8,-20.75 1.155,-3.51 2.462,-10.88 2.903,-16.38 1.128,-14.07 3.662,-28.96 5.547,-32.6 2.977,-5.76 7.511,-21.01 8.453,-28.44 0.699,-5.51 2.065,-9.63 5.378,-16.23 2.442,-4.86 5.183,-9.46 6.091,-10.21 1.565,-1.3 5.695,-7.32 10.315,-15.02 1.15,-1.93 4.85,-6.2 8.21,-9.5 3.36,-3.3 7.41,-8.26 9,-11.03 1.59,-2.76 4.08,-6.13 5.54,-7.5 1.46,-1.36 3.94,-5.32 5.52,-8.79 1.91,-4.19 6.13,-9.99 12.54,-17.25 5.32,-6.01 10.03,-10.93 10.46,-10.93 0.43,0 2.73,-2.05 5.11,-4.55 2.38,-2.5 6.69,-6.14 9.58,-8.1 2.89,-1.95 5.25,-3.95 5.25,-4.43 0,-1.6 13.31,-15.03 16.44,-16.6 1.68,-0.85 5.31,-3.7 8.06,-6.35 2.75,-2.64 9.05,-7.27 14,-10.29 4.95,-3.01 11.04,-7.44 13.54,-9.85 2.64,-2.56 6.3,-4.92 8.76,-5.66 2.33,-0.69 5.76,-2.6 7.62,-4.23 3.82,-3.36 16.49,-10.24 21.66,-11.77 1.88,-0.55 6,-1.95 9.15,-3.09 3.16,-1.15 8.15,-2.08 11.14,-2.08 3.69,0 7.72,-0.94 12.62,-2.93 3.95,-1.61 9.02,-3.24 11.25,-3.61 2.23,-0.38 5.55,-1.31 7.38,-2.08 1.82,-0.76 4.97,-1.38 6.98,-1.38 2.02,0 5.07,-0.86 6.78,-1.9 1.72,-1.04 4.7,-2.202 6.62,-2.587 1.93,-0.384 5.53,-1.41 8,-2.279 3.66,-1.283 10.93,-1.661 38.76,-2.015 42.35,-0.539 45.09,-0.138 65.04,9.551 7.43,3.6 14.9,7.77 16.6,9.25 1.71,1.49 4.68,3.49 6.6,4.47 1.93,0.97 10.78,9.05 19.67,17.96 17.87,17.91 18.81,19.49 18.16,30.67 -0.32,5.61 -0.2,5.92 3.81,10.08 4.6,4.77 6.75,8.55 7.86,13.8 0.4,1.92 0.9,3.78 1.1,4.12 0.37,0.64 11.17,-2.74 17.62,-5.52 8.12,-3.5 18.38,-1.02 27.53,6.67 2.34,1.96 5.69,3.88 7.46,4.27 6.59,1.45 17.93,7.75 21.14,11.75 1.73,2.16 5.26,6.02 7.83,8.57 2.96,2.93 6.42,8.12 9.43,14.14 4.56,9.12 10.47,18.15 13.55,20.72 0.81,0.67 2.41,3.36 3.56,5.99 1.14,2.63 3.7,8.48 5.68,13 1.98,4.51 3.6,8.65 3.6,9.19 0,0.54 1.97,2.83 4.37,5.08 4.62,4.33 5.13,5.32 11.55,22.36 3.11,8.25 4.08,12.26 4.08,16.8 0,3.78 0.64,7.13 1.75,9.16 1.51,2.77 1.73,5.95 1.62,23.87 -0.08,15.61 -0.49,21.85 -1.66,25.5 -5.08,15.9 -6.71,21.44 -6.71,22.8 0,1.04 1.04,1.55 3.25,1.61 15.11,0.41 20.35,1.08 25.83,3.29 6.23,2.52 12.54,7.37 15.24,11.72 3.32,5.35 9.66,25.33 9.67,30.46 0.01,2.78 0.95,7.82 2.09,11.2 1.66,4.93 1.98,7.79 1.6,14.45 -0.74,12.92 -2.57,29.92 -3.59,33.26 -0.51,1.67 -1.19,4.64 -1.51,6.6 -0.89,5.33 -8.97,14.74 -16.32,19.01 -8.38,4.87 -15.18,6.22 -29.14,5.79 l -11.53,-0.36 -2.68,16.5 c -3.15,19.31 -9.34,44.56 -15.09,61.5 -5.25,15.43 -16.33,41.67 -21.76,51.5 -1.06,1.92 -3.58,6.62 -5.6,10.43 -2.01,3.81 -4.46,8.08 -5.43,9.5 -0.97,1.41 -4.39,6.62 -7.61,11.57 -41.76,64.27 -106.17,110.25 -172.92,123.43 -21.03,4.15 -48.15,5.77 -67,4 z"
           inkscape:connector-curvature="0" />
        <path
           id="path3703"
           style="fill:#e8cdba"
           d="M 355.07,834.51 C 276.31,827.1 206.55,783.17 156.69,709.58 127.97,667.21 106.6,611.33 98.641,557.81 c -1.086,-7.3 -2.233,-13.69 -2.55,-14.2 -0.316,-0.51 -2.715,-0.68 -5.33,-0.37 -10.526,1.25 -24.186,-4.81 -35.088,-15.56 -7.67,-7.57 -8.307,-8.94 -13.12,-28.18 -1.179,-4.71 -0.864,-14.45 0.903,-27.92 1.994,-15.2 4.005,-22.55 9.057,-33.11 4.026,-8.41 6.268,-11.74 10.849,-16.11 3.176,-3.03 6.773,-5.83 7.992,-6.21 2.349,-0.75 2.957,-3 1.118,-4.14 -0.605,-0.37 -2.404,-3.43 -3.999,-6.8 -3.481,-7.36 -3.662,-12.06 -0.8,-20.75 1.155,-3.51 2.462,-10.88 2.903,-16.38 1.128,-14.07 3.662,-28.96 5.547,-32.6 2.977,-5.76 7.511,-21.01 8.453,-28.44 0.699,-5.51 2.065,-9.63 5.378,-16.23 2.442,-4.86 5.183,-9.46 6.091,-10.21 1.565,-1.3 5.695,-7.32 10.315,-15.02 1.15,-1.93 4.85,-6.2 8.21,-9.5 3.36,-3.3 7.41,-8.26 9,-11.03 1.59,-2.76 4.08,-6.13 5.54,-7.5 1.46,-1.36 3.94,-5.32 5.52,-8.79 1.91,-4.19 6.13,-9.99 12.54,-17.25 5.32,-6.01 10.03,-10.93 10.46,-10.93 0.43,0 2.73,-2.05 5.11,-4.55 2.38,-2.5 6.69,-6.14 9.58,-8.1 2.89,-1.95 5.25,-3.95 5.25,-4.43 0,-1.6 13.31,-15.03 16.44,-16.6 1.68,-0.85 5.31,-3.7 8.06,-6.35 2.75,-2.64 9.05,-7.27 14,-10.29 4.95,-3.01 11.04,-7.44 13.54,-9.85 2.64,-2.56 6.3,-4.92 8.76,-5.66 2.33,-0.69 5.76,-2.6 7.62,-4.23 3.82,-3.36 16.49,-10.24 21.66,-11.77 1.88,-0.55 6,-1.95 9.15,-3.09 3.16,-1.15 8.15,-2.08 11.14,-2.08 3.69,0 7.72,-0.94 12.62,-2.93 3.95,-1.61 9.02,-3.24 11.25,-3.61 2.23,-0.38 5.55,-1.31 7.38,-2.08 1.82,-0.76 4.97,-1.38 6.98,-1.38 2.02,0 5.07,-0.86 6.78,-1.9 1.72,-1.04 4.7,-2.202 6.62,-2.587 1.93,-0.384 5.53,-1.41 8,-2.279 3.66,-1.283 10.93,-1.661 38.76,-2.015 42.35,-0.539 45.09,-0.138 65.04,9.551 7.43,3.6 14.9,7.77 16.6,9.25 1.71,1.49 4.68,3.49 6.6,4.47 1.93,0.97 10.78,9.05 19.67,17.96 17.87,17.91 18.81,19.49 18.16,30.67 -0.32,5.61 -0.2,5.92 3.81,10.08 4.6,4.77 6.75,8.55 7.86,13.8 0.4,1.92 0.9,3.78 1.1,4.12 0.37,0.64 11.17,-2.74 17.62,-5.52 8.12,-3.5 18.38,-1.02 27.53,6.67 2.34,1.96 5.69,3.88 7.46,4.27 6.59,1.45 17.93,7.75 21.14,11.75 1.73,2.16 5.26,6.02 7.83,8.57 2.96,2.93 6.42,8.12 9.43,14.14 4.56,9.12 10.47,18.15 13.55,20.72 0.81,0.67 2.41,3.36 3.56,5.99 1.14,2.63 3.7,8.48 5.68,13 1.98,4.51 3.6,8.65 3.6,9.19 0,0.54 1.97,2.83 4.37,5.08 4.62,4.33 5.13,5.32 11.55,22.36 3.11,8.25 4.08,12.26 4.08,16.8 0,3.78 0.64,7.13 1.75,9.16 1.51,2.77 1.73,5.95 1.62,23.87 -0.08,15.61 -0.49,21.85 -1.66,25.5 -5.08,15.9 -6.71,21.44 -6.71,22.8 0,1.04 1.04,1.55 3.25,1.61 15.11,0.41 20.35,1.08 25.83,3.29 6.23,2.52 12.54,7.37 15.24,11.72 3.32,5.35 9.66,25.33 9.67,30.46 0.01,2.78 0.95,7.82 2.09,11.2 1.66,4.93 1.98,7.79 1.6,14.45 -0.74,12.92 -2.57,29.92 -3.59,33.26 -0.51,1.67 -1.19,4.64 -1.51,6.6 -0.89,5.33 -8.97,14.74 -16.32,19.01 -8.38,4.87 -15.18,6.22 -29.14,5.79 l -11.53,-0.36 -2.68,16.5 c -3.15,19.31 -9.34,44.56 -15.09,61.5 -5.25,15.43 -16.33,41.67 -21.76,51.5 -1.06,1.92 -3.58,6.62 -5.6,10.43 -2.01,3.81 -4.46,8.08 -5.43,9.5 -0.97,1.41 -4.39,6.62 -7.61,11.57 -41.76,64.27 -106.17,110.25 -172.92,123.43 -21.03,4.15 -48.15,5.77 -67,4 z M 635.01,423.06 c 8.28,-4.4 14.26,-8.7 15.84,-11.38 3.38,-5.75 8.92,-24.77 9.78,-33.6 1.42,-14.44 1.15,-33.5 -0.55,-39.09 -0.82,-2.7 -1.49,-7.27 -1.5,-10.16 -0.01,-3.54 -1.1,-8.07 -3.39,-14 -1.87,-4.81 -4.19,-10.99 -5.17,-13.72 -1.15,-3.21 -3.48,-6.6 -6.61,-9.6 -2.66,-2.55 -4.84,-4.99 -4.84,-5.42 0,-0.44 -0.87,-2.64 -1.93,-4.9 -1.06,-2.26 -3.15,-7.45 -4.65,-11.53 -1.49,-4.07 -4.13,-9.02 -5.85,-11 -4.49,-5.13 -8.32,-11.22 -13.88,-22.08 -3.03,-5.9 -6.28,-10.71 -8.6,-12.68 -2.04,-1.75 -5.01,-5.04 -6.58,-7.32 -2.13,-3.07 -4.88,-5.13 -10.67,-8.02 -4.29,-2.14 -9.6,-4.38 -11.8,-4.97 -2.19,-0.59 -6.1,-2.9 -8.67,-5.13 -5.86,-5.07 -8,-5.88 -15.51,-5.88 -4.51,0 -7.04,0.59 -10.18,2.4 -2.3,1.32 -5.68,2.71 -7.51,3.1 -1.9,0.39 -5.19,2.49 -7.63,4.84 -3.75,3.63 -4.43,4.98 -5.4,10.66 -1.17,6.87 -0.33,12.45 2.48,16.46 0.76,1.09 1.38,2.93 1.38,4.08 0,1.16 1.13,5.41 2.5,9.46 1.38,4.04 2.5,8.39 2.5,9.67 0,1.28 1.84,7.61 4.1,14.07 2.25,6.47 4.42,13.33 4.83,15.26 0.4,1.92 1.47,4.9 2.37,6.62 0.89,1.73 2.54,6.41 3.65,10.42 1.11,4.01 3.56,9.88 5.44,13.03 1.88,3.16 3.75,6.8 4.14,8.09 0.4,1.28 2.41,5.26 4.47,8.84 2.06,3.57 4.45,9.31 5.31,12.76 0.91,3.63 3.88,10.15 7.06,15.5 3.02,5.08 6.7,12.16 8.18,15.74 5.27,12.78 9.04,19.5 14.95,26.62 3.3,3.98 7.29,9.32 8.87,11.87 2.22,3.58 4.24,5.3 8.86,7.54 3.29,1.59 6.5,3.31 7.13,3.82 3.47,2.82 11.41,2.64 17.08,-0.37 z m -8.89,-32.41 c -0.32,-0.51 -0.8,-6.92 -1.06,-14.25 -0.27,-7.33 -1,-15.22 -1.61,-17.54 -1.25,-4.72 -5.86,-9.98 -13.4,-15.3 l -4.98,-3.52 -0.13,-7.03 c -0.09,-4.79 -0.96,-9.34 -2.72,-14.22 -2.48,-6.88 -9.79,-20.28 -12.06,-22.12 -3.41,-2.77 -10.72,-5.98 -13.2,-5.8 l -2.89,0.21 0.26,-6.5 c 0.14,-3.58 0.92,-8.82 1.75,-11.66 3.02,-10.43 1.22,-17.2 -8.76,-32.97 -3.31,-5.23 -11.44,-12.93 -15.18,-14.38 -1.14,-0.45 -4.49,-1.78 -7.44,-2.98 -4.66,-1.89 -6.46,-2.08 -13.62,-1.49 -5.97,0.5 -8.46,0.36 -9,-0.5 -1.29,-2.1 0.8,-2.92 9.2,-3.62 6.96,-0.58 9.41,-0.33 16.3,1.66 6.71,1.94 9.26,3.31 14.84,8.01 4.42,3.73 7.86,7.7 9.98,11.55 1.79,3.23 4.63,8.35 6.33,11.37 3.06,5.47 3.07,5.53 2.43,16.5 -0.35,6.05 -0.74,12.78 -0.87,14.95 -0.21,3.86 -0.08,4.02 5.78,7.28 3.3,1.83 7.35,4.84 9,6.69 5.18,5.81 10.43,16.15 12.09,23.81 0.86,4 1.98,8.66 2.49,10.35 0.51,1.69 0.92,4.46 0.92,6.15 0,2.59 0.71,3.5 4.4,5.66 8.54,5.01 12.35,11.54 13.75,23.62 1.92,16.5 2.17,23.91 0.87,25.48 -1.44,1.73 -2.64,1.94 -3.47,0.59 z"
           inkscape:connector-curvature="0" />
        <g
           id="g6394"
           transform="translate(-2.0203,-6.0609)">
          <circle
             id="path5495"
             style="fill:url(#radialGradient3487)"
             transform="translate(-9.0914,-28.284)"
             cx="214.15234"
             cy="588.70215"
             r="64.649765" />
          <circle
             id="path6390"
             style="fill:url(#radialGradient6400)"
             transform="translate(309.11,-25.254)"
             cx="214.15234"
             cy="588.70215"
             r="64.649765" />
        </g>
        <path
           id="path6402"
           style="fill:url(#radialGradient7303)"
           d="M 355.07,834.51 C 276.31,827.1 206.55,783.17 156.69,709.58 127.97,667.21 106.6,611.33 98.641,557.81 c -1.086,-7.3 -2.233,-13.69 -2.55,-14.2 -0.316,-0.51 -2.715,-0.68 -5.33,-0.37 -10.526,1.25 -24.186,-4.81 -35.088,-15.56 -7.67,-7.57 -8.307,-8.94 -13.12,-28.18 -1.179,-4.71 -0.864,-14.45 0.903,-27.92 1.994,-15.2 4.005,-22.55 9.057,-33.11 4.026,-8.41 6.268,-11.74 10.849,-16.11 3.176,-3.03 6.773,-5.83 7.992,-6.21 2.349,-0.75 2.957,-3 1.118,-4.14 -0.605,-0.37 -2.404,-3.43 -3.999,-6.8 -3.481,-7.36 -3.662,-12.06 -0.8,-20.75 1.155,-3.51 2.462,-10.88 2.903,-16.38 1.128,-14.07 3.662,-28.96 5.547,-32.6 2.977,-5.76 7.511,-21.01 8.453,-28.44 0.699,-5.51 2.065,-9.63 5.378,-16.23 2.442,-4.86 5.183,-9.46 6.091,-10.21 1.565,-1.3 5.695,-7.32 10.315,-15.02 1.15,-1.93 4.85,-6.2 8.21,-9.5 3.36,-3.3 7.41,-8.26 9,-11.03 1.59,-2.76 4.08,-6.13 5.54,-7.5 1.46,-1.36 3.94,-5.32 5.52,-8.79 1.91,-4.19 6.13,-9.99 12.54,-17.25 5.32,-6.01 10.03,-10.93 10.46,-10.93 0.43,0 2.73,-2.05 5.11,-4.55 2.38,-2.5 6.69,-6.14 9.58,-8.1 2.89,-1.95 5.25,-3.95 5.25,-4.43 0,-1.6 13.31,-15.03 16.44,-16.6 1.68,-0.85 5.31,-3.7 8.06,-6.35 2.75,-2.64 9.05,-7.27 14,-10.29 4.95,-3.01 11.04,-7.44 13.54,-9.85 2.64,-2.56 6.3,-4.92 8.76,-5.66 2.33,-0.69 5.76,-2.6 7.62,-4.23 3.82,-3.36 16.49,-10.24 21.66,-11.77 1.88,-0.55 6,-1.95 9.15,-3.09 3.16,-1.15 8.15,-2.08 11.14,-2.08 3.69,0 7.72,-0.94 12.62,-2.93 3.95,-1.61 9.02,-3.24 11.25,-3.61 2.23,-0.38 5.55,-1.31 7.38,-2.08 1.82,-0.76 4.97,-1.38 6.98,-1.38 2.02,0 5.07,-0.86 6.78,-1.9 1.72,-1.04 4.7,-2.202 6.62,-2.587 1.93,-0.384 5.53,-1.41 8,-2.279 3.66,-1.283 10.93,-1.661 38.76,-2.015 42.35,-0.539 45.09,-0.138 65.04,9.551 7.43,3.6 14.9,7.77 16.6,9.25 1.71,1.49 4.68,3.49 6.6,4.47 1.93,0.97 10.78,9.05 19.67,17.96 17.87,17.91 18.81,19.49 18.16,30.67 -0.32,5.61 -0.2,5.92 3.81,10.08 4.6,4.77 6.75,8.55 7.86,13.8 0.4,1.92 0.9,3.78 1.1,4.12 0.37,0.64 11.17,-2.74 17.62,-5.52 8.12,-3.5 18.38,-1.02 27.53,6.67 2.34,1.96 5.69,3.88 7.46,4.27 6.59,1.45 17.93,7.75 21.14,11.75 1.73,2.16 5.26,6.02 7.83,8.57 2.96,2.93 6.42,8.12 9.43,14.14 4.56,9.12 10.47,18.15 13.55,20.72 0.81,0.67 2.41,3.36 3.56,5.99 1.14,2.63 3.7,8.48 5.68,13 1.98,4.51 3.6,8.65 3.6,9.19 0,0.54 1.97,2.83 4.37,5.08 4.62,4.33 5.13,5.32 11.55,22.36 3.11,8.25 4.08,12.26 4.08,16.8 0,3.78 0.64,7.13 1.75,9.16 1.51,2.77 1.73,5.95 1.62,23.87 -0.08,15.61 -0.49,21.85 -1.66,25.5 -5.08,15.9 -6.71,21.44 -6.71,22.8 0,1.04 1.04,1.55 3.25,1.61 15.11,0.41 20.35,1.08 25.83,3.29 6.23,2.52 12.54,7.37 15.24,11.72 3.32,5.35 9.66,25.33 9.67,30.46 0.01,2.78 0.95,7.82 2.09,11.2 1.66,4.93 1.98,7.79 1.6,14.45 -0.74,12.92 -2.57,29.92 -3.59,33.26 -0.51,1.67 -1.19,4.64 -1.51,6.6 -0.89,5.33 -8.97,14.74 -16.32,19.01 -8.38,4.87 -15.18,6.22 -29.14,5.79 l -11.53,-0.36 -2.68,16.5 c -3.15,19.31 -9.34,44.56 -15.09,61.5 -5.25,15.43 -16.33,41.67 -21.76,51.5 -1.06,1.92 -3.58,6.62 -5.6,10.43 -2.01,3.81 -4.46,8.08 -5.43,9.5 -0.97,1.41 -4.39,6.62 -7.61,11.57 -41.76,64.27 -106.17,110.25 -172.92,123.43 -21.03,4.15 -48.15,5.77 -67,4 z M 635.01,423.06 c 8.28,-4.4 14.26,-8.7 15.84,-11.38 3.38,-5.75 8.92,-24.77 9.78,-33.6 1.42,-14.44 1.15,-33.5 -0.55,-39.09 -0.82,-2.7 -1.49,-7.27 -1.5,-10.16 -0.01,-3.54 -1.1,-8.07 -3.39,-14 -1.87,-4.81 -4.19,-10.99 -5.17,-13.72 -1.15,-3.21 -3.48,-6.6 -6.61,-9.6 -2.66,-2.55 -4.84,-4.99 -4.84,-5.42 0,-0.44 -0.87,-2.64 -1.93,-4.9 -1.06,-2.26 -3.15,-7.45 -4.65,-11.53 -1.49,-4.07 -4.13,-9.02 -5.85,-11 -4.49,-5.13 -8.32,-11.22 -13.88,-22.08 -3.03,-5.9 -6.28,-10.71 -8.6,-12.68 -2.04,-1.75 -5.01,-5.04 -6.58,-7.32 -2.13,-3.07 -4.88,-5.13 -10.67,-8.02 -4.29,-2.14 -9.6,-4.38 -11.8,-4.97 -2.19,-0.59 -6.1,-2.9 -8.67,-5.13 -5.86,-5.07 -8,-5.88 -15.51,-5.88 -4.51,0 -7.04,0.59 -10.18,2.4 -2.3,1.32 -5.68,2.71 -7.51,3.1 -1.9,0.39 -5.19,2.49 -7.63,4.84 -3.75,3.63 -4.43,4.98 -5.4,10.66 -1.17,6.87 -0.33,12.45 2.48,16.46 0.76,1.09 1.38,2.93 1.38,4.08 0,1.16 1.13,5.41 2.5,9.46 1.38,4.04 2.5,8.39 2.5,9.67 0,1.28 1.84,7.61 4.1,14.07 2.25,6.47 4.42,13.33 4.83,15.26 0.4,1.92 1.47,4.9 2.37,6.62 0.89,1.73 2.54,6.41 3.65,10.42 1.11,4.01 3.56,9.88 5.44,13.03 1.88,3.16 3.75,6.8 4.14,8.09 0.4,1.28 2.41,5.26 4.47,8.84 2.06,3.57 4.45,9.31 5.31,12.76 0.91,3.63 3.88,10.15 7.06,15.5 3.02,5.08 6.7,12.16 8.18,15.74 5.27,12.78 9.04,19.5 14.95,26.62 3.3,3.98 7.29,9.32 8.87,11.87 2.22,3.58 4.24,5.3 8.86,7.54 3.29,1.59 6.5,3.31 7.13,3.82 3.47,2.82 11.41,2.64 17.08,-0.37 z m -8.89,-32.41 c -0.32,-0.51 -0.8,-6.92 -1.06,-14.25 -0.27,-7.33 -1,-15.22 -1.61,-17.54 -1.25,-4.72 -5.86,-9.98 -13.4,-15.3 l -4.98,-3.52 -0.13,-7.03 c -0.09,-4.79 -0.96,-9.34 -2.72,-14.22 -2.48,-6.88 -9.79,-20.28 -12.06,-22.12 -3.41,-2.77 -10.72,-5.98 -13.2,-5.8 l -2.89,0.21 0.26,-6.5 c 0.14,-3.58 0.92,-8.82 1.75,-11.66 3.02,-10.43 1.22,-17.2 -8.76,-32.97 -3.31,-5.23 -11.44,-12.93 -15.18,-14.38 -1.14,-0.45 -4.49,-1.78 -7.44,-2.98 -4.66,-1.89 -6.46,-2.08 -13.62,-1.49 -5.97,0.5 -8.46,0.36 -9,-0.5 -1.29,-2.1 0.8,-2.92 9.2,-3.62 6.96,-0.58 9.41,-0.33 16.3,1.66 6.71,1.94 9.26,3.31 14.84,8.01 4.42,3.73 7.86,7.7 9.98,11.55 1.79,3.23 4.63,8.35 6.33,11.37 3.06,5.47 3.07,5.53 2.43,16.5 -0.35,6.05 -0.74,12.78 -0.87,14.95 -0.21,3.86 -0.08,4.02 5.78,7.28 3.3,1.83 7.35,4.84 9,6.69 5.18,5.81 10.43,16.15 12.09,23.81 0.86,4 1.98,8.66 2.49,10.35 0.51,1.69 0.92,4.46 0.92,6.15 0,2.59 0.71,3.5 4.4,5.66 8.54,5.01 12.35,11.54 13.75,23.62 1.92,16.5 2.17,23.91 0.87,25.48 -1.44,1.73 -2.64,1.94 -3.47,0.59 z"
           inkscape:connector-curvature="0" />
        <path
           id="path7305"
           style="fill:url(#radialGradient8192)"
           d="M 355.07,834.51 C 276.31,827.1 206.55,783.17 156.69,709.58 127.97,667.21 106.6,611.33 98.641,557.81 c -1.086,-7.3 -2.233,-13.69 -2.55,-14.2 -0.316,-0.51 -2.715,-0.68 -5.33,-0.37 -10.526,1.25 -24.186,-4.81 -35.088,-15.56 -7.67,-7.57 -8.307,-8.94 -13.12,-28.18 -1.179,-4.71 -0.864,-14.45 0.903,-27.92 1.994,-15.2 4.005,-22.55 9.057,-33.11 4.026,-8.41 6.268,-11.74 10.849,-16.11 3.176,-3.03 6.773,-5.83 7.992,-6.21 2.349,-0.75 2.957,-3 1.118,-4.14 -0.605,-0.37 -2.404,-3.43 -3.999,-6.8 -3.481,-7.36 -3.662,-12.06 -0.8,-20.75 1.155,-3.51 2.462,-10.88 2.903,-16.38 1.128,-14.07 3.662,-28.96 5.547,-32.6 2.977,-5.76 7.511,-21.01 8.453,-28.44 0.699,-5.51 2.065,-9.63 5.378,-16.23 2.442,-4.86 5.183,-9.46 6.091,-10.21 1.565,-1.3 5.695,-7.32 10.315,-15.02 1.15,-1.93 4.85,-6.2 8.21,-9.5 3.36,-3.3 7.41,-8.26 9,-11.03 1.59,-2.76 4.08,-6.13 5.54,-7.5 1.46,-1.36 3.94,-5.32 5.52,-8.79 1.91,-4.19 6.13,-9.99 12.54,-17.25 5.32,-6.01 10.03,-10.93 10.46,-10.93 0.43,0 2.73,-2.05 5.11,-4.55 2.38,-2.5 6.69,-6.14 9.58,-8.1 2.89,-1.95 5.25,-3.95 5.25,-4.43 0,-1.6 13.31,-15.03 16.44,-16.6 1.68,-0.85 5.31,-3.7 8.06,-6.35 2.75,-2.64 9.05,-7.27 14,-10.29 4.95,-3.01 11.04,-7.44 13.54,-9.85 2.64,-2.56 6.3,-4.92 8.76,-5.66 2.33,-0.69 5.76,-2.6 7.62,-4.23 3.82,-3.36 16.49,-10.24 21.66,-11.77 1.88,-0.55 6,-1.95 9.15,-3.09 3.16,-1.15 8.15,-2.08 11.14,-2.08 3.69,0 7.72,-0.94 12.62,-2.93 3.95,-1.61 9.02,-3.24 11.25,-3.61 2.23,-0.38 5.55,-1.31 7.38,-2.08 1.82,-0.76 4.97,-1.38 6.98,-1.38 2.02,0 5.07,-0.86 6.78,-1.9 1.72,-1.04 4.7,-2.202 6.62,-2.587 1.93,-0.384 5.53,-1.41 8,-2.279 3.66,-1.283 10.93,-1.661 38.76,-2.015 42.35,-0.539 45.09,-0.138 65.04,9.551 7.43,3.6 14.9,7.77 16.6,9.25 1.71,1.49 4.68,3.49 6.6,4.47 1.93,0.97 10.78,9.05 19.67,17.96 17.87,17.91 18.81,19.49 18.16,30.67 -0.32,5.61 -0.2,5.92 3.81,10.08 4.6,4.77 6.75,8.55 7.86,13.8 0.4,1.92 0.9,3.78 1.1,4.12 0.37,0.64 11.17,-2.74 17.62,-5.52 8.12,-3.5 18.38,-1.02 27.53,6.67 2.34,1.96 5.69,3.88 7.46,4.27 6.59,1.45 17.93,7.75 21.14,11.75 1.73,2.16 5.26,6.02 7.83,8.57 2.96,2.93 6.42,8.12 9.43,14.14 4.56,9.12 10.47,18.15 13.55,20.72 0.81,0.67 2.41,3.36 3.56,5.99 1.14,2.63 3.7,8.48 5.68,13 1.98,4.51 3.6,8.65 3.6,9.19 0,0.54 1.97,2.83 4.37,5.08 4.62,4.33 5.13,5.32 11.55,22.36 3.11,8.25 4.08,12.26 4.08,16.8 0,3.78 0.64,7.13 1.75,9.16 1.51,2.77 1.73,5.95 1.62,23.87 -0.08,15.61 -0.49,21.85 -1.66,25.5 -5.08,15.9 -6.71,21.44 -6.71,22.8 0,1.04 1.04,1.55 3.25,1.61 15.11,0.41 20.35,1.08 25.83,3.29 6.23,2.52 12.54,7.37 15.24,11.72 3.32,5.35 9.66,25.33 9.67,30.46 0.01,2.78 0.95,7.82 2.09,11.2 1.66,4.93 1.98,7.79 1.6,14.45 -0.74,12.92 -2.57,29.92 -3.59,33.26 -0.51,1.67 -1.19,4.64 -1.51,6.6 -0.89,5.33 -8.97,14.74 -16.32,19.01 -8.38,4.87 -15.18,6.22 -29.14,5.79 l -11.53,-0.36 -2.68,16.5 c -3.15,19.31 -9.34,44.56 -15.09,61.5 -5.25,15.43 -16.33,41.67 -21.76,51.5 -1.06,1.92 -3.58,6.62 -5.6,10.43 -2.01,3.81 -4.46,8.08 -5.43,9.5 -0.97,1.41 -4.39,6.62 -7.61,11.57 -41.76,64.27 -106.17,110.25 -172.92,123.43 -21.03,4.15 -48.15,5.77 -67,4 z M 635.01,423.06 c 8.28,-4.4 14.26,-8.7 15.84,-11.38 3.38,-5.75 8.92,-24.77 9.78,-33.6 1.42,-14.44 1.15,-33.5 -0.55,-39.09 -0.82,-2.7 -1.49,-7.27 -1.5,-10.16 -0.01,-3.54 -1.1,-8.07 -3.39,-14 -1.87,-4.81 -4.19,-10.99 -5.17,-13.72 -1.15,-3.21 -3.48,-6.6 -6.61,-9.6 -2.66,-2.55 -4.84,-4.99 -4.84,-5.42 0,-0.44 -0.87,-2.64 -1.93,-4.9 -1.06,-2.26 -3.15,-7.45 -4.65,-11.53 -1.49,-4.07 -4.13,-9.02 -5.85,-11 -4.49,-5.13 -8.32,-11.22 -13.88,-22.08 -3.03,-5.9 -6.28,-10.71 -8.6,-12.68 -2.04,-1.75 -5.01,-5.04 -6.58,-7.32 -2.13,-3.07 -4.88,-5.13 -10.67,-8.02 -4.29,-2.14 -9.6,-4.38 -11.8,-4.97 -2.19,-0.59 -6.1,-2.9 -8.67,-5.13 -5.86,-5.07 -8,-5.88 -15.51,-5.88 -4.51,0 -7.04,0.59 -10.18,2.4 -2.3,1.32 -5.68,2.71 -7.51,3.1 -1.9,0.39 -5.19,2.49 -7.63,4.84 -3.75,3.63 -4.43,4.98 -5.4,10.66 -1.17,6.87 -0.33,12.45 2.48,16.46 0.76,1.09 1.38,2.93 1.38,4.08 0,1.16 1.13,5.41 2.5,9.46 1.38,4.04 2.5,8.39 2.5,9.67 0,1.28 1.84,7.61 4.1,14.07 2.25,6.47 4.42,13.33 4.83,15.26 0.4,1.92 1.47,4.9 2.37,6.62 0.89,1.73 2.54,6.41 3.65,10.42 1.11,4.01 3.56,9.88 5.44,13.03 1.88,3.16 3.75,6.8 4.14,8.09 0.4,1.28 2.41,5.26 4.47,8.84 2.06,3.57 4.45,9.31 5.31,12.76 0.91,3.63 3.88,10.15 7.06,15.5 3.02,5.08 6.7,12.16 8.18,15.74 5.27,12.78 9.04,19.5 14.95,26.62 3.3,3.98 7.29,9.32 8.87,11.87 2.22,3.58 4.24,5.3 8.86,7.54 3.29,1.59 6.5,3.31 7.13,3.82 3.47,2.82 11.41,2.64 17.08,-0.37 z m -8.89,-32.41 c -0.32,-0.51 -0.8,-6.92 -1.06,-14.25 -0.27,-7.33 -1,-15.22 -1.61,-17.54 -1.25,-4.72 -5.86,-9.98 -13.4,-15.3 l -4.98,-3.52 -0.13,-7.03 c -0.09,-4.79 -0.96,-9.34 -2.72,-14.22 -2.48,-6.88 -9.79,-20.28 -12.06,-22.12 -3.41,-2.77 -10.72,-5.98 -13.2,-5.8 l -2.89,0.21 0.26,-6.5 c 0.14,-3.58 0.92,-8.82 1.75,-11.66 3.02,-10.43 1.22,-17.2 -8.76,-32.97 -3.31,-5.23 -11.44,-12.93 -15.18,-14.38 -1.14,-0.45 -4.49,-1.78 -7.44,-2.98 -4.66,-1.89 -6.46,-2.08 -13.62,-1.49 -5.97,0.5 -8.46,0.36 -9,-0.5 -1.29,-2.1 0.8,-2.92 9.2,-3.62 6.96,-0.58 9.41,-0.33 16.3,1.66 6.71,1.94 9.26,3.31 14.84,8.01 4.42,3.73 7.86,7.7 9.98,11.55 1.79,3.23 4.63,8.35 6.33,11.37 3.06,5.47 3.07,5.53 2.43,16.5 -0.35,6.05 -0.74,12.78 -0.87,14.95 -0.21,3.86 -0.08,4.02 5.78,7.28 3.3,1.83 7.35,4.84 9,6.69 5.18,5.81 10.43,16.15 12.09,23.81 0.86,4 1.98,8.66 2.49,10.35 0.51,1.69 0.92,4.46 0.92,6.15 0,2.59 0.71,3.5 4.4,5.66 8.54,5.01 12.35,11.54 13.75,23.62 1.92,16.5 2.17,23.91 0.87,25.48 -1.44,1.73 -2.64,1.94 -3.47,0.59 z"
           inkscape:connector-curvature="0" />
        <path
           id="path3701"
           style="fill:#000000"
           d="M 355.07,834.51 C 276.31,827.1 206.55,783.17 156.69,709.58 127.97,667.21 106.6,611.33 98.641,557.81 c -1.086,-7.3 -2.233,-13.69 -2.55,-14.2 -0.316,-0.51 -2.715,-0.68 -5.33,-0.37 -10.526,1.25 -24.186,-4.81 -35.088,-15.56 -7.67,-7.57 -8.307,-8.94 -13.12,-28.18 -1.179,-4.71 -0.864,-14.45 0.903,-27.92 1.994,-15.2 4.005,-22.55 9.057,-33.11 4.026,-8.41 6.268,-11.74 10.849,-16.11 3.176,-3.03 6.773,-5.83 7.992,-6.21 2.349,-0.75 2.957,-3 1.118,-4.14 -0.605,-0.37 -2.404,-3.43 -3.999,-6.8 -3.481,-7.36 -3.662,-12.06 -0.8,-20.75 1.155,-3.51 2.462,-10.88 2.903,-16.38 1.128,-14.07 3.662,-28.96 5.547,-32.6 2.977,-5.76 7.511,-21.01 8.453,-28.44 0.699,-5.51 2.065,-9.63 5.378,-16.23 2.442,-4.86 5.183,-9.46 6.091,-10.21 1.565,-1.3 5.695,-7.32 10.315,-15.02 1.15,-1.93 4.85,-6.2 8.21,-9.5 3.36,-3.3 7.41,-8.26 9,-11.03 1.59,-2.76 4.08,-6.13 5.54,-7.5 1.46,-1.36 3.94,-5.32 5.52,-8.79 1.91,-4.19 6.13,-9.99 12.54,-17.25 5.32,-6.01 10.03,-10.93 10.46,-10.93 0.43,0 2.73,-2.05 5.11,-4.55 2.38,-2.5 6.69,-6.14 9.58,-8.1 2.89,-1.95 5.25,-3.95 5.25,-4.43 0,-1.6 13.31,-15.03 16.44,-16.6 1.68,-0.85 5.31,-3.7 8.06,-6.35 2.75,-2.64 9.05,-7.27 14,-10.29 4.95,-3.01 11.04,-7.44 13.54,-9.85 2.64,-2.56 6.3,-4.92 8.76,-5.66 2.33,-0.69 5.76,-2.6 7.62,-4.23 3.82,-3.36 16.49,-10.24 21.66,-11.77 1.88,-0.55 6,-1.95 9.15,-3.09 3.16,-1.15 8.15,-2.08 11.14,-2.08 3.69,0 7.72,-0.94 12.62,-2.93 3.95,-1.61 9.02,-3.24 11.25,-3.61 2.23,-0.38 5.55,-1.31 7.38,-2.08 1.82,-0.76 4.97,-1.38 6.98,-1.38 2.02,0 5.07,-0.86 6.78,-1.9 1.72,-1.04 4.7,-2.202 6.62,-2.587 1.93,-0.384 5.53,-1.41 8,-2.279 3.66,-1.283 10.93,-1.661 38.76,-2.015 42.35,-0.539 45.09,-0.138 65.04,9.551 7.43,3.6 14.9,7.77 16.6,9.25 1.71,1.49 4.68,3.49 6.6,4.47 1.93,0.97 10.78,9.05 19.67,17.96 17.87,17.91 18.81,19.49 18.16,30.67 -0.32,5.61 -0.2,5.92 3.81,10.08 4.6,4.77 6.75,8.55 7.86,13.8 0.4,1.92 0.9,3.78 1.1,4.12 0.37,0.64 11.17,-2.74 17.62,-5.52 8.12,-3.5 18.38,-1.02 27.53,6.67 2.34,1.96 5.69,3.88 7.46,4.27 6.59,1.45 17.93,7.75 21.14,11.75 1.73,2.16 5.26,6.02 7.83,8.57 2.96,2.93 6.42,8.12 9.43,14.14 4.56,9.12 10.47,18.15 13.55,20.72 0.81,0.67 2.41,3.36 3.56,5.99 1.14,2.63 3.7,8.48 5.68,13 1.98,4.51 3.6,8.65 3.6,9.19 0,0.54 1.97,2.83 4.37,5.08 4.62,4.33 5.13,5.32 11.55,22.36 3.11,8.25 4.08,12.26 4.08,16.8 0,3.78 0.64,7.13 1.75,9.16 1.51,2.77 1.73,5.95 1.62,23.87 -0.08,15.61 -0.49,21.85 -1.66,25.5 -5.08,15.9 -6.71,21.44 -6.71,22.8 0,1.04 1.04,1.55 3.25,1.61 15.11,0.41 20.35,1.08 25.83,3.29 6.23,2.52 12.54,7.37 15.24,11.72 3.32,5.35 9.66,25.33 9.67,30.46 0.01,2.78 0.95,7.82 2.09,11.2 1.66,4.93 1.98,7.79 1.6,14.45 -0.74,12.92 -2.57,29.92 -3.59,33.26 -0.51,1.67 -1.19,4.64 -1.51,6.6 -0.89,5.33 -8.97,14.74 -16.32,19.01 -8.38,4.87 -15.18,6.22 -29.14,5.79 l -11.53,-0.36 -2.68,16.5 c -3.15,19.31 -9.34,44.56 -15.09,61.5 -5.25,15.43 -16.33,41.67 -21.76,51.5 -1.06,1.92 -3.58,6.62 -5.6,10.43 -2.01,3.81 -4.46,8.08 -5.43,9.5 -0.97,1.41 -4.39,6.62 -7.61,11.57 -41.76,64.27 -106.17,110.25 -172.92,123.43 -21.03,4.15 -48.15,5.77 -67,4 z m 46.5,-5.05 c 11.46,-1.38 30.61,-5.35 41,-8.51 25.98,-7.91 55.2,-22.87 77.47,-39.67 68.21,-51.47 114.67,-134.96 128.04,-230.1 0.76,-5.45 1.81,-10.32 2.33,-10.84 0.58,-0.58 3.27,-0.34 7.13,0.65 17.14,4.39 35.77,-1.25 43.96,-13.3 4.43,-6.53 6.53,-13.89 8.17,-28.61 2.2,-19.85 2.2,-22.75 -0.02,-29.51 -1.14,-3.48 -2.08,-8.75 -2.08,-11.72 0,-3.6 -0.8,-7.13 -2.41,-10.59 -1.32,-2.85 -2.73,-6.74 -3.12,-8.64 -1.34,-6.43 -4.17,-11.52 -8.74,-15.73 -5.35,-4.93 -8.79,-5.99 -22.23,-6.88 -11.18,-0.74 -16.97,0.32 -21.93,4.04 -1.69,1.26 -5.77,3.81 -9.07,5.66 -5.43,3.05 -6.75,3.36 -14,3.35 -7.04,-0.02 -8.74,-0.41 -14.21,-3.25 -7.41,-3.85 -12.81,-8.4 -14.98,-12.63 -0.87,-1.71 -4.17,-6.03 -7.32,-9.6 -5.19,-5.89 -13.97,-21.08 -14,-24.23 -0.02,-1.58 -5.21,-11.92 -10.83,-21.58 -2.35,-4.02 -5.18,-10.29 -6.3,-13.92 -1.13,-3.64 -5.64,-13.59 -10.03,-22.11 -4.4,-8.52 -9.03,-18.91 -10.3,-23.08 -1.26,-4.17 -3.51,-10.73 -5,-14.58 -2.48,-6.44 -6.02,-18.13 -11.41,-37.67 -1.17,-4.21 -2.12,-8.82 -2.12,-10.23 0,-1.42 -1.29,-4.02 -2.88,-5.8 l -2.89,-3.23 -1.86,3.03 c -1.03,1.67 -5.24,6.75 -9.37,11.29 -8.27,9.09 -15.33,13.44 -28.89,17.75 -6.7,2.14 -9.17,2.36 -26.5,2.34 -17.11,-0.01 -20.02,-0.26 -27.84,-2.42 -4.81,-1.33 -11.34,-4.03 -14.52,-5.99 -4.23,-2.61 -6.92,-3.57 -9.98,-3.57 -2.31,0 -6.13,-0.63 -8.48,-1.39 -9.51,-3.09 -9.38,-3.11 -15.27,2.46 -3.77,3.57 -5.9,6.57 -7,9.87 -0.87,2.61 -3.47,7.03 -5.8,9.83 -2.32,2.8 -5.41,7.1 -6.87,9.56 -3.92,6.61 -9.55,9.51 -21,10.8 -5.14,0.58 -13.62,0.87 -18.85,0.65 -8.46,-0.36 -10.32,-0.81 -17,-4.07 -4.12,-2.01 -9.07,-4.57 -10.98,-5.68 -1.92,-1.12 -4.42,-2.03 -5.56,-2.03 -2.79,0 -7.74,5.33 -11,11.87 -1.48,2.96 -4.15,7.01 -5.94,9 -1.78,2 -4.04,5.2 -5.01,7.13 -0.97,1.92 -3.63,5.31 -5.92,7.52 -2.78,2.69 -4.91,6.09 -6.42,10.23 -3.09,8.49 -6.06,11.63 -14.98,15.86 -4.2,1.99 -9.07,4.72 -10.81,6.05 l -3.18,2.42 -0.35,12.71 -0.36,12.71 -4.53,8.5 c -4.95,9.29 -10.19,13.9 -18.28,16.08 -2.28,0.62 -6.18,2.15 -8.66,3.4 -2.49,1.25 -7.89,2.98 -12.02,3.83 -4.12,0.85 -12.31,3.6 -18.19,6.12 -5.87,2.51 -11.79,4.57 -13.15,4.57 -1.35,0 -4.87,1.12 -7.81,2.49 -4.98,2.32 -6.43,2.49 -21.06,2.5 -13.372,0 -16.471,-0.29 -20.789,-1.99 -5.507,-2.17 -11.39,-2.57 -15.427,-1.03 -4.562,1.73 -11.411,9.05 -15.331,16.37 -7.769,14.51 -10.812,26.66 -12.857,51.3 -0.46,5.55 -0.142,8.67 1.424,14 1.11,3.77 2.5,8.69 3.09,10.92 0.589,2.24 2.7,6.16 4.691,8.72 3.323,4.26 14.1,12.44 21.327,16.17 4.073,2.11 15.873,2.08 18.904,-0.04 2.9,-2.03 5.178,-0.41 5.178,3.68 0,4.59 5.8,37.47 8.62,48.91 18.29,74.12 54.24,134.99 106.38,180.14 47.5,41.14 106.81,62.97 166,61.12 6.33,-0.2 15.33,-0.82 20,-1.38 z m -47.36,-71.58 c -0.44,-0.44 -4.03,-1.1 -7.97,-1.47 -13.16,-1.23 -24.6,-4.21 -33.7,-8.79 -3.04,-1.53 -7.01,-3.11 -8.82,-3.51 -1.81,-0.4 -4.79,-2.03 -6.61,-3.63 -1.82,-1.6 -5.77,-4.03 -8.77,-5.41 -3.01,-1.38 -6.32,-3.46 -7.37,-4.64 -1.04,-1.17 -3.33,-2.74 -5.09,-3.48 -3.34,-1.42 -22.31,-21.62 -22.31,-23.76 0,-1.45 -7.15,-13.54 -11,-18.61 -1.46,-1.93 -3.46,-6.2 -4.43,-9.5 -0.98,-3.3 -3.1,-8.02 -4.71,-10.48 -1.61,-2.46 -4.04,-8.09 -5.38,-12.51 -1.35,-4.42 -3.16,-9.04 -4.03,-10.28 -0.86,-1.24 -1.98,-4.38 -2.47,-6.99 -0.5,-2.61 -1.56,-7.44 -2.36,-10.74 -3.05,-12.59 -5.76,-25.17 -6.31,-29.24 -0.69,-5.19 -2.11,-6.59 -5.02,-4.96 -1.18,0.66 -5.13,2.92 -8.78,5.03 -6.75,3.9 -9.51,4.17 -9.51,0.91 0,-1.22 2.16,-2.95 6.57,-5.28 3.61,-1.9 10.02,-5.34 14.25,-7.64 4.22,-2.29 8.81,-4.69 10.18,-5.33 1.38,-0.64 4.33,-2.04 6.57,-3.12 4.14,-1.99 7.43,-1.7 7.43,0.65 0,1.73 -6.13,5.48 -8.94,5.48 -1.22,0 -3.53,1.31 -5.14,2.92 -4.3,4.31 -4.07,8.56 1.89,34.58 0.5,2.2 1.61,5.8 2.47,8 0.85,2.2 1.81,5.84 2.12,8.09 0.32,2.26 2.1,7.44 3.96,11.52 1.86,4.09 3.72,8.99 4.14,10.91 0.42,1.91 2,5.28 3.52,7.49 1.52,2.21 3.7,7.19 4.85,11.05 1.38,4.63 3.09,7.98 5.02,9.83 1.6,1.53 4.83,6.59 7.17,11.22 4.58,9.07 14.53,21.27 20.06,24.57 1.86,1.11 4.51,3.08 5.88,4.36 1.38,1.29 4.75,3.33 7.5,4.52 2.75,1.19 6.13,3.22 7.51,4.51 1.38,1.29 5.77,3.69 9.75,5.33 3.98,1.64 8.24,3.68 9.46,4.54 1.23,0.86 3.36,1.57 4.75,1.58 1.39,0.01 4.56,0.94 7.03,2.07 14.73,6.7 49.9,8.35 63,2.94 2.48,-1.02 6.01,-2.42 7.85,-3.11 1.84,-0.69 6.18,-3.09 9.65,-5.34 8.36,-5.42 15.33,-9.79 18.15,-11.37 1.26,-0.71 7.53,-6.56 13.93,-13 8.48,-8.54 12.28,-13.16 14.01,-17.04 1.3,-2.94 4.56,-7.95 7.23,-11.15 2.85,-3.41 5.82,-8.44 7.2,-12.17 1.28,-3.49 3.62,-8.26 5.2,-10.59 1.57,-2.33 3.54,-6.15 4.36,-8.48 0.82,-2.33 2.31,-5.63 3.32,-7.33 1,-1.7 2.61,-5.54 3.57,-8.52 0.97,-2.99 2.78,-7.23 4.02,-9.43 1.25,-2.2 3.27,-7.38 4.51,-11.5 1.23,-4.13 4.14,-12.9 6.45,-19.5 6.11,-17.41 8.02,-25.5 6.36,-26.99 -1.03,-0.94 -12.51,-4.91 -20.56,-7.11 -0.69,-0.19 -1.25,-1.03 -1.25,-1.87 0,-2.87 8.84,-1.9 18.62,2.04 4.88,1.97 11.18,4.18 13.99,4.91 2.81,0.74 6.96,2.28 9.21,3.43 2.26,1.15 4.82,2.09 5.69,2.09 2.23,0 7.49,2.84 7.49,4.05 0,2.95 -4.87,2.22 -17.71,-2.66 -3.42,-1.29 -6.89,-2.1 -7.71,-1.79 -1.38,0.54 -4.58,9.37 -4.58,12.66 0,0.8 -1.34,4.11 -2.99,7.35 -1.64,3.24 -2.99,6.54 -3,7.34 -0.02,2.98 -7.3,23.84 -11,31.55 -2.12,4.4 -4.15,9.12 -4.52,10.5 -0.53,2.02 -8.2,18.17 -18.28,38.5 -0.82,1.65 -3.26,5.15 -5.44,7.78 -2.17,2.64 -4.38,6.36 -4.91,8.27 -0.53,1.92 -2.18,4.81 -3.66,6.44 -1.48,1.62 -4.72,5.3 -7.2,8.16 -2.47,2.87 -5.62,6.27 -7,7.56 -5.25,4.92 -12.56,10.99 -14,11.62 -0.82,0.36 -4.7,2.8 -8.6,5.41 -3.91,2.62 -8.86,5.92 -11,7.35 -4.65,3.08 -15.58,6.81 -23.9,8.14 -8.25,1.31 -28.87,2.06 -29.86,1.07 z M 665.33,519.01 c -2.8,-1.52 -5.76,-6.1 -5.76,-8.92 0,-3.14 2.93,-2.73 6.35,0.89 2.98,3.17 3.8,3.52 6.77,2.96 4.36,-0.82 7.14,-3.38 8.77,-8.09 0.71,-2.08 2.41,-6.62 3.77,-10.1 2.2,-5.64 2.42,-7.44 2.03,-16.5 -0.84,-19.37 -3.64,-26.1 -13.05,-31.38 -6.51,-3.67 -10.19,-4.08 -14.94,-1.68 -5.38,2.72 -7.7,5.43 -7.7,9 0,1.8 -0.47,3.56 -1.04,3.91 -2.02,1.25 -3.96,-1.72 -3.96,-6.06 0,-3.61 0.52,-4.72 3.25,-7.03 4.61,-3.88 8.88,-5.43 14.98,-5.43 7.39,0 18.77,4.31 18.77,7.1 0,0.48 1.43,3.19 3.18,6.04 3.97,6.44 4.97,11.2 5.51,26.26 0.43,11.66 0.37,12.03 -2.63,18.12 -1.68,3.42 -3.06,6.72 -3.06,7.32 0,0.6 -1.09,3.57 -2.43,6.59 -1.93,4.36 -3.01,5.62 -5.25,6.1 -1.55,0.33 -3.85,1.02 -5.12,1.54 -3.13,1.27 -5.21,1.11 -8.44,-0.64 z M 79.47,505.59 c -4.345,-2.3 -6.663,-5.62 -7.868,-11.28 -0.497,-2.33 -1.451,-6.03 -2.121,-8.23 -0.669,-2.2 -1.406,-7.99 -1.638,-12.86 -0.342,-7.22 -0.047,-9.8 1.606,-14 1.114,-2.83 2.505,-7.02 3.092,-9.32 1.567,-6.14 8.38,-12.8 13.998,-13.7 7.049,-1.13 12.426,0.14 15.77,3.72 3.95,4.23 5.97,9.35 4.34,10.96 -0.94,0.93 -1.52,0.78 -2.59,-0.67 -0.76,-1.03 -2.77,-3.39 -4.459,-5.25 -2.764,-3.04 -3.624,-3.38 -8.419,-3.38 -7.915,0 -9.598,1.65 -15.539,15.24 -1.139,2.6 -2.072,5.61 -2.072,6.69 0,1.07 -0.45,2.23 -1,2.57 -2.063,1.27 -0.829,13.22 2.324,22.5 0.28,0.82 0.778,2.73 1.107,4.23 0.953,4.35 6.292,9.77 9.626,9.77 3.873,0 7.78,-1.91 8.492,-4.16 0.802,-2.53 4.335,-4.36 5.726,-2.97 0.744,0.75 0.524,2.24 -0.737,5.04 -1.468,3.26 -2.629,4.27 -6.345,5.54 -5.872,2 -8.86,1.9 -13.293,-0.44 z M 394.6,405.3 c -3.19,-1.62 -7.03,-7.33 -7.03,-10.47 0,-6.25 5.88,-12.25 12,-12.25 6.27,0 12,5.64 12,11.8 0,5.79 -6.29,12.17 -12,12.17 -1.37,0 -3.61,-0.57 -4.97,-1.25 z m -39.15,-6.23 c -2.64,-1.43 -5.88,-6.91 -5.88,-9.93 0,-3.75 3.89,-9.21 7.82,-10.98 5.02,-2.26 9.16,-1.46 13.18,2.57 2.44,2.44 3,3.84 3,7.47 0,2.46 -0.66,5.75 -1.47,7.32 -2.42,4.68 -11.15,6.54 -16.65,3.55 z m 92.01,-22.36 c -2.98,-2.33 -15.96,-8.9 -21.35,-10.79 -2.22,-0.79 -5.63,-2.53 -7.58,-3.88 -1.95,-1.34 -5.7,-2.85 -8.34,-3.34 -5.49,-1.03 -7.16,-2.28 -6.24,-4.67 0.46,-1.21 1.27,-1.49 2.88,-0.99 1.23,0.38 4.21,1.1 6.61,1.6 2.4,0.51 5.78,1.78 7.5,2.83 1.72,1.05 8.25,4.22 14.51,7.03 13.31,5.98 19.8,10.55 18.03,12.69 -1.56,1.87 -3.18,1.75 -6.02,-0.48 z M 306.07,359.57 c -1.42,-2.3 1.21,-2.84 16,-3.3 8.25,-0.26 18.6,-1.05 23,-1.75 12.01,-1.9 19.89,-1.83 20.28,0.18 0.26,1.3 -0.85,1.75 -5.48,2.24 -3.19,0.34 -8.72,1.1 -12.3,1.69 -10.09,1.67 -40.62,2.36 -41.5,0.94 z m 328.94,63.49 c 8.28,-4.4 14.26,-8.7 15.84,-11.38 3.38,-5.75 8.92,-24.77 9.78,-33.6 1.42,-14.44 1.15,-33.5 -0.55,-39.09 -0.82,-2.7 -1.49,-7.27 -1.5,-10.16 -0.01,-3.54 -1.1,-8.07 -3.39,-14 -1.87,-4.81 -4.19,-10.99 -5.17,-13.72 -1.15,-3.21 -3.48,-6.6 -6.61,-9.6 -2.66,-2.55 -4.84,-4.99 -4.84,-5.42 0,-0.44 -0.87,-2.64 -1.93,-4.9 -1.06,-2.26 -3.15,-7.45 -4.65,-11.53 -1.49,-4.07 -4.13,-9.02 -5.85,-11 -4.49,-5.13 -8.32,-11.22 -13.88,-22.08 -3.03,-5.9 -6.28,-10.71 -8.6,-12.68 -2.04,-1.75 -5.01,-5.04 -6.58,-7.32 -2.13,-3.07 -4.88,-5.13 -10.67,-8.02 -4.29,-2.14 -9.6,-4.38 -11.8,-4.97 -2.19,-0.59 -6.1,-2.9 -8.67,-5.13 -5.86,-5.07 -8,-5.88 -15.51,-5.88 -4.51,0 -7.04,0.59 -10.18,2.4 -2.3,1.32 -5.68,2.71 -7.51,3.1 -1.9,0.39 -5.19,2.49 -7.63,4.84 -3.75,3.63 -4.43,4.98 -5.4,10.66 -1.17,6.87 -0.33,12.45 2.48,16.46 0.76,1.09 1.38,2.93 1.38,4.08 0,1.16 1.13,5.41 2.5,9.46 1.38,4.04 2.5,8.39 2.5,9.67 0,1.28 1.84,7.61 4.1,14.07 2.25,6.47 4.42,13.33 4.83,15.26 0.4,1.92 1.47,4.9 2.37,6.62 0.89,1.73 2.54,6.41 3.65,10.42 1.11,4.01 3.56,9.88 5.44,13.03 1.88,3.16 3.75,6.8 4.14,8.09 0.4,1.28 2.41,5.26 4.47,8.84 2.06,3.57 4.45,9.31 5.31,12.76 0.91,3.63 3.88,10.15 7.06,15.5 3.02,5.08 6.7,12.16 8.18,15.74 5.27,12.78 9.04,19.5 14.95,26.62 3.3,3.98 7.29,9.32 8.87,11.87 2.22,3.58 4.24,5.3 8.86,7.54 3.29,1.59 6.5,3.31 7.13,3.82 3.47,2.82 11.41,2.64 17.08,-0.37 z m -8.89,-32.41 c -0.32,-0.51 -0.8,-6.92 -1.06,-14.25 -0.27,-7.33 -1,-15.22 -1.61,-17.54 -1.25,-4.72 -5.86,-9.98 -13.4,-15.3 l -4.98,-3.52 -0.13,-7.03 c -0.09,-4.79 -0.96,-9.34 -2.72,-14.22 -2.48,-6.88 -9.79,-20.28 -12.06,-22.12 -3.41,-2.77 -10.72,-5.98 -13.2,-5.8 l -2.89,0.21 0.26,-6.5 c 0.14,-3.58 0.92,-8.82 1.75,-11.66 3.02,-10.43 1.22,-17.2 -8.76,-32.97 -3.31,-5.23 -11.44,-12.93 -15.18,-14.38 -1.14,-0.45 -4.49,-1.78 -7.44,-2.98 -4.66,-1.89 -6.46,-2.08 -13.62,-1.49 -5.97,0.5 -8.46,0.36 -9,-0.5 -1.29,-2.1 0.8,-2.92 9.2,-3.62 6.96,-0.58 9.41,-0.33 16.3,1.66 6.71,1.94 9.26,3.31 14.84,8.01 4.42,3.73 7.86,7.7 9.98,11.55 1.79,3.23 4.63,8.35 6.33,11.37 3.06,5.47 3.07,5.53 2.43,16.5 -0.35,6.05 -0.74,12.78 -0.87,14.95 -0.21,3.86 -0.08,4.02 5.78,7.28 3.3,1.83 7.35,4.84 9,6.69 5.18,5.81 10.43,16.15 12.09,23.81 0.86,4 1.98,8.66 2.49,10.35 0.51,1.69 0.92,4.46 0.92,6.15 0,2.59 0.71,3.5 4.4,5.66 8.54,5.01 12.35,11.54 13.75,23.62 1.92,16.5 2.17,23.91 0.87,25.48 -1.44,1.73 -2.64,1.94 -3.47,0.59 z"
           inkscape:connector-curvature="0" />
        <path
           id="path3699"
           style="fill:#eebb46"
           d="m 92.071,416.96 c -2.2,-0.83 -5.313,-1.91 -6.918,-2.42 -12.918,-4.08 -17.086,-14.69 -12.553,-31.96 1.227,-4.68 2.179,-11.1 2.115,-14.27 -0.177,-8.73 4.224,-28.45 8.93,-40 3.183,-7.82 4.346,-12.24 4.926,-18.75 0.672,-7.55 1.293,-9.49 5.441,-17 2.575,-4.67 5.955,-9.83 7.508,-11.48 1.56,-1.65 4.31,-5.7 6.11,-9 1.8,-3.3 6.34,-9.15 10.09,-13 3.75,-3.85 8.21,-9.25 9.93,-12 1.71,-2.75 4.57,-6.58 6.36,-8.5 1.78,-1.93 4.03,-5.65 4.99,-8.28 1.87,-5.09 11.72,-17.12 20.55,-25.09 1.91,-1.72 5.06,-4.81 7,-6.85 1.93,-2.05 5.6,-5.04 8.15,-6.65 2.55,-1.62 5.47,-4.17 6.5,-5.68 3.45,-5.04 12.82,-14.06 17.41,-16.75 2.5,-1.46 5.54,-3.99 6.75,-5.63 1.21,-1.64 4.35,-4.21 6.96,-5.7 2.61,-1.49 5.65,-3.48 6.75,-4.42 1.1,-0.95 3.58,-2.5 5.5,-3.45 1.93,-0.95 4.56,-3.04 5.85,-4.65 2.43,-3.02 8.93,-6.85 11.61,-6.85 0.84,0 3.22,-1.5 5.29,-3.32 4.32,-3.83 14.92,-9.78 20.75,-11.65 2.2,-0.71 6.67,-2.4 9.93,-3.75 4.14,-1.72 7.16,-2.33 10,-2.02 2.91,0.31 6.92,-0.54 14.07,-3 14.96,-5.15 22.63,-7.26 26.29,-7.26 1.81,0 4.96,-0.85 7,-1.89 2.04,-1.03 7.31,-2.92 11.71,-4.19 7.64,-2.199 9.55,-2.305 42.5,-2.36 22.74,-0.038 36.42,0.342 40.11,1.11 6.52,1.36 34.44,15.04 37.39,18.32 1.1,1.22 3.8,3.13 6,4.24 4.12,2.07 29.56,26.92 33.05,32.27 1.55,2.38 1.95,4.75 1.95,11.54 l 0,8.55 5.22,5.21 c 7.56,7.57 9.49,17.43 4.41,22.51 -2.25,2.25 -3.56,1.69 -5.7,-2.45 -2.15,-4.16 -9.33,-13.43 -14.82,-19.11 -4.04,-4.2 -5.07,-4.76 -8.84,-4.77 -2.35,-0.01 -4.76,-0.34 -5.35,-0.75 -0.6,-0.4 -2.61,-3.66 -4.48,-7.23 -4.28,-8.18 -12.1,-15.98 -19.63,-19.57 -3.19,-1.53 -6.48,-3.34 -7.31,-4.02 -2.42,-2.01 -19.67,-9.27 -30.5,-12.83 -16.59,-5.45 -27.44,-7.83 -38,-8.32 -9.7,-0.45 -10.2,-0.36 -16.5,2.77 -8.45,4.2 -17.12,10.61 -20.05,14.8 -2.24,3.22 -2.5,3.31 -7.39,2.73 -13.43,-1.62 -24.54,-1.7 -32.28,-0.24 -20.21,3.82 -40.81,19.23 -45.85,34.32 -2.41,7.18 -4.51,8.99 -11.23,9.64 -8.7,0.83 -23.64,6.2 -34.2,12.28 -10.87,6.26 -19.25,14.7 -23.49,23.64 -2.33,4.93 -3.39,5.94 -10.3,9.89 -4.24,2.43 -9.05,5.57 -10.7,6.98 -1.66,1.42 -5.7,4.35 -8.99,6.5 -8.05,5.28 -20.97,18.2 -23.02,23.02 -2.02,4.74 -1.49,11.38 1.43,17.98 l 2.02,4.57 -2.29,2.18 c -3.64,3.46 -11.82,10.02 -14.77,11.85 -2.78,1.73 -4.9,3.9 -14.18,14.54 -4.72,5.41 -5.75,7.4 -8.06,15.54 -3.245,11.43 -3.491,18.23 -0.71,19.71 4.95,2.65 9.47,-0.59 5.09,-3.65 -1.99,-1.4 -2.16,-2.12 -1.57,-6.79 0.97,-7.79 3.21,-14.39 6.25,-18.43 1.49,-1.98 3.07,-3.75 3.51,-3.93 0.44,-0.19 2.18,-2.34 3.86,-4.78 1.69,-2.45 4.94,-5.67 7.24,-7.16 4.7,-3.04 19.77,-15.04 20.94,-16.67 0.99,-1.37 -0.03,-5.62 -1.81,-7.6 -0.77,-0.86 -2.06,-3.44 -2.87,-5.74 -1.84,-5.22 -0.83,-8.73 4.45,-15.44 3.6,-4.57 11.45,-11.77 12.83,-11.77 0.37,0 2.92,-1.78 5.66,-3.96 2.74,-2.18 6.28,-4.99 7.87,-6.25 1.59,-1.26 6.54,-4.33 11,-6.83 7.65,-4.27 8.29,-4.89 11.28,-11 4.65,-9.5 13.95,-18.75 23.83,-23.7 12.18,-6.09 22.93,-9.5 31.73,-10.04 l 7.73,-0.48 2.54,-4.33 c 1.39,-2.38 2.79,-5.58 3.1,-7.12 0.86,-4.29 8.39,-14.32 13.93,-18.56 8.23,-6.3 19.3,-11.62 27.75,-13.34 7.65,-1.56 11.63,-1.54 33.4,0.19 l 7.19,0.58 1.56,-3.03 c 2.12,-4.1 11.51,-11.57 19.75,-15.72 8.3,-4.18 12.73,-4.35 25.87,-1 5.2,1.33 11.48,2.73 13.95,3.12 7.32,1.14 21.94,6.95 39.79,15.79 14.55,7.21 20.56,12.55 26.66,23.68 l 4.1,7.5 4.98,0.3 c 4.28,0.27 5.58,0.89 9.34,4.5 2.4,2.31 5.89,6.45 7.75,9.2 11.92,17.63 11.38,16.57 11.38,22.35 0,4.83 -0.46,6.08 -4.03,10.81 -4.33,5.73 -5.85,6.49 -6.68,3.34 -0.66,-2.53 -0.89,-2.51 -7.58,0.45 -10.54,4.66 -29.35,4.27 -43.5,-0.89 -8.87,-3.24 -23.3,-12.46 -26.37,-16.85 -1.23,-1.77 -4.05,-5.39 -6.27,-8.05 -3.8,-4.56 -4.25,-4.8 -8.04,-4.37 -2.22,0.25 -8.49,1.86 -13.94,3.58 -9.81,3.09 -10.13,3.13 -31,3.1 -20.12,-0.02 -21.37,-0.13 -27.09,-2.49 -6.68,-2.76 -9.78,-3.1 -11.22,-1.23 -0.54,0.68 -2.05,3.94 -3.38,7.23 -1.81,4.52 -4.28,7.86 -10.11,13.7 -10.94,10.97 -12.93,11.82 -27.97,11.82 -8.88,0 -13.42,-0.45 -16.49,-1.62 -6.49,-2.48 -8.11,-1.52 -15.02,8.84 -4.31,6.47 -11.25,14.36 -22.91,26.07 -9.2,9.23 -17.95,17.51 -19.43,18.38 -1.48,0.88 -3.46,2.89 -4.39,4.46 -0.93,1.58 -2.09,2.87 -2.57,2.87 -0.48,0 -3.42,2.58 -6.52,5.73 l -5.65,5.73 0.83,4.52 c 0.46,2.48 0.83,10.37 0.82,17.52 0,11.04 -0.29,13.41 -1.88,15.77 -2.08,3.08 -14.64,12.23 -21.61,15.73 -2.47,1.25 -8.26,5.17 -12.86,8.71 -4.6,3.54 -10.23,7.39 -12.5,8.56 -9.43,4.83 -17.81,12.3 -21.23,18.89 -1.98,3.84 -1.57,13.34 0.58,13.34 1.02,0 1.71,-1.55 2.19,-4.92 0.43,-2.97 1.86,-6.53 3.64,-9 2.75,-3.82 12.3,-11.24 18.81,-14.6 1.58,-0.82 6.02,-4.01 9.87,-7.09 3.85,-3.09 9.48,-7.01 12.51,-8.71 14.5,-8.16 22.46,-14.2 24.99,-18.98 2.38,-4.47 2.5,-5.54 2.55,-21.8 0.07,-20.18 -1.17,-17.61 15.9,-32.88 6.34,-5.66 13.16,-12.26 15.16,-14.66 2,-2.4 4.63,-5.04 5.85,-5.86 1.22,-0.83 3.76,-3.3 5.63,-5.5 1.88,-2.2 4.44,-4.83 5.69,-5.84 1.25,-1.02 4.07,-4.4 6.27,-7.51 7.23,-10.22 9.44,-13.05 10.52,-13.5 0.59,-0.25 3.52,0.2 6.5,1 3.76,1.01 9.12,1.35 17.43,1.11 14.04,-0.39 16.37,-1.3 26.48,-10.33 6.96,-6.21 10.87,-11.45 13.55,-18.18 1.86,-4.7 2.83,-4.99 8.97,-2.78 5.9,2.12 49.63,2.1 58,-0.03 8.28,-2.11 11.71,-3.09 13.72,-3.92 1.87,-0.77 6.54,3.61 11.76,11.03 3.21,4.56 14.92,11.97 26.42,16.71 11.72,4.84 37.63,6 49.35,2.23 3.31,-1.07 2.86,1.06 -1.31,6.14 -2.26,2.76 -6.01,5.57 -10.29,7.72 -11.89,5.97 -15.76,6.65 -37.8,6.63 -22.89,-0.02 -31.45,-1.56 -39.09,-7.05 -3.43,-2.46 -5.95,-3.36 -11.1,-3.94 -3.66,-0.41 -10.16,-1.78 -14.44,-3.03 l -7.77,-2.29 -6.08,6.41 c -3.89,4.11 -7.24,8.94 -9.31,13.42 -1.78,3.85 -4.02,7.65 -4.99,8.45 -0.98,0.8 -3.28,3.82 -5.13,6.71 -4.78,7.47 -9.26,10.12 -19.23,11.37 -4.51,0.56 -12.13,0.85 -16.95,0.63 -7.28,-0.33 -9.94,-0.94 -15.76,-3.65 -3.85,-1.79 -8.03,-4.08 -9.3,-5.07 -1.27,-1 -4.58,-2.57 -7.35,-3.49 l -5.04,-1.68 -4.51,4.36 c -2.65,2.57 -5.94,7.37 -8.01,11.67 -1.92,4.02 -4.39,7.85 -5.48,8.5 -1.08,0.66 -2.9,3 -4.03,5.2 -1.13,2.2 -4.16,6.31 -6.74,9.13 -2.57,2.82 -5.49,7.32 -6.49,10 -2.72,7.29 -5.69,10.64 -12.71,14.3 -10.51,5.5 -15.71,9.1 -16.45,11.39 -0.39,1.2 -0.76,7.35 -0.82,13.68 -0.11,11.17 -0.22,11.7 -3.74,18.5 -4.64,8.93 -7.92,11.98 -16.06,14.94 -3.61,1.3 -7.68,3.11 -9.05,4 -1.36,0.9 -5.27,2.08 -8.68,2.63 -3.41,0.55 -12.43,3.46 -20.04,6.46 -7.61,3.01 -14.76,5.47 -15.89,5.47 -1.12,0 -3.97,1.01 -6.33,2.25 -3.83,2.01 -5.87,2.27 -19.28,2.43 -11.21,0.14 -16.009,-0.19 -18.999,-1.3 z"
           inkscape:connector-curvature="0" />
        <path
           id="path9085"
           style="fill:url(#radialGradient9978)"
           d="m 92.071,416.96 c -2.2,-0.83 -5.313,-1.91 -6.918,-2.42 -12.918,-4.08 -17.086,-14.69 -12.553,-31.96 1.227,-4.68 2.179,-11.1 2.115,-14.27 -0.177,-8.73 4.224,-28.45 8.93,-40 3.183,-7.82 4.346,-12.24 4.926,-18.75 0.672,-7.55 1.293,-9.49 5.441,-17 2.575,-4.67 5.955,-9.83 7.508,-11.48 1.56,-1.65 4.31,-5.7 6.11,-9 1.8,-3.3 6.34,-9.15 10.09,-13 3.75,-3.85 8.21,-9.25 9.93,-12 1.71,-2.75 4.57,-6.58 6.36,-8.5 1.78,-1.93 4.03,-5.65 4.99,-8.28 1.87,-5.09 11.72,-17.12 20.55,-25.09 1.91,-1.72 5.06,-4.81 7,-6.85 1.93,-2.05 5.6,-5.04 8.15,-6.65 2.55,-1.62 5.47,-4.17 6.5,-5.68 3.45,-5.04 12.82,-14.06 17.41,-16.75 2.5,-1.46 5.54,-3.99 6.75,-5.63 1.21,-1.64 4.35,-4.21 6.96,-5.7 2.61,-1.49 5.65,-3.48 6.75,-4.42 1.1,-0.95 3.58,-2.5 5.5,-3.45 1.93,-0.95 4.56,-3.04 5.85,-4.65 2.43,-3.02 8.93,-6.85 11.61,-6.85 0.84,0 3.22,-1.5 5.29,-3.32 4.32,-3.83 14.92,-9.78 20.75,-11.65 2.2,-0.71 6.67,-2.4 9.93,-3.75 4.14,-1.72 7.16,-2.33 10,-2.02 2.91,0.31 6.92,-0.54 14.07,-3 14.96,-5.15 22.63,-7.26 26.29,-7.26 1.81,0 4.96,-0.85 7,-1.89 2.04,-1.03 7.31,-2.92 11.71,-4.19 7.64,-2.199 9.55,-2.305 42.5,-2.36 22.74,-0.038 36.42,0.342 40.11,1.11 6.52,1.36 34.44,15.04 37.39,18.32 1.1,1.22 3.8,3.13 6,4.24 4.12,2.07 29.56,26.92 33.05,32.27 1.55,2.38 1.95,4.75 1.95,11.54 l 0,8.55 5.22,5.21 c 7.56,7.57 9.49,17.43 4.41,22.51 -2.25,2.25 -3.56,1.69 -5.7,-2.45 -2.15,-4.16 -9.33,-13.43 -14.82,-19.11 -4.04,-4.2 -5.07,-4.76 -8.84,-4.77 -2.35,-0.01 -4.76,-0.34 -5.35,-0.75 -0.6,-0.4 -2.61,-3.66 -4.48,-7.23 -4.28,-8.18 -12.1,-15.98 -19.63,-19.57 -3.19,-1.53 -6.48,-3.34 -7.31,-4.02 -2.42,-2.01 -19.67,-9.27 -30.5,-12.83 -16.59,-5.45 -27.44,-7.83 -38,-8.32 -9.7,-0.45 -10.2,-0.36 -16.5,2.77 -8.45,4.2 -17.12,10.61 -20.05,14.8 -2.24,3.22 -2.5,3.31 -7.39,2.73 -13.43,-1.62 -24.54,-1.7 -32.28,-0.24 -20.21,3.82 -40.81,19.23 -45.85,34.32 -2.41,7.18 -4.51,8.99 -11.23,9.64 -8.7,0.83 -23.64,6.2 -34.2,12.28 -10.87,6.26 -19.25,14.7 -23.49,23.64 -2.33,4.93 -3.39,5.94 -10.3,9.89 -4.24,2.43 -9.05,5.57 -10.7,6.98 -1.66,1.42 -5.7,4.35 -8.99,6.5 -8.05,5.28 -20.97,18.2 -23.02,23.02 -2.02,4.74 -1.49,11.38 1.43,17.98 l 2.02,4.57 -2.29,2.18 c -3.64,3.46 -11.82,10.02 -14.77,11.85 -2.78,1.73 -4.9,3.9 -14.18,14.54 -4.72,5.41 -5.75,7.4 -8.06,15.54 -3.245,11.43 -3.491,18.23 -0.71,19.71 4.95,2.65 9.47,-0.59 5.09,-3.65 -1.99,-1.4 -2.16,-2.12 -1.57,-6.79 0.97,-7.79 3.21,-14.39 6.25,-18.43 1.49,-1.98 3.07,-3.75 3.51,-3.93 0.44,-0.19 2.18,-2.34 3.86,-4.78 1.69,-2.45 4.94,-5.67 7.24,-7.16 4.7,-3.04 19.77,-15.04 20.94,-16.67 0.99,-1.37 -0.03,-5.62 -1.81,-7.6 -0.77,-0.86 -2.06,-3.44 -2.87,-5.74 -1.84,-5.22 -0.83,-8.73 4.45,-15.44 3.6,-4.57 11.45,-11.77 12.83,-11.77 0.37,0 2.92,-1.78 5.66,-3.96 2.74,-2.18 6.28,-4.99 7.87,-6.25 1.59,-1.26 6.54,-4.33 11,-6.83 7.65,-4.27 8.29,-4.89 11.28,-11 4.65,-9.5 13.95,-18.75 23.83,-23.7 12.18,-6.09 22.93,-9.5 31.73,-10.04 l 7.73,-0.48 2.54,-4.33 c 1.39,-2.38 2.79,-5.58 3.1,-7.12 0.86,-4.29 8.39,-14.32 13.93,-18.56 8.23,-6.3 19.3,-11.62 27.75,-13.34 7.65,-1.56 11.63,-1.54 33.4,0.19 l 7.19,0.58 1.56,-3.03 c 2.12,-4.1 11.51,-11.57 19.75,-15.72 8.3,-4.18 12.73,-4.35 25.87,-1 5.2,1.33 11.48,2.73 13.95,3.12 7.32,1.14 21.94,6.95 39.79,15.79 14.55,7.21 20.56,12.55 26.66,23.68 l 4.1,7.5 4.98,0.3 c 4.28,0.27 5.58,0.89 9.34,4.5 2.4,2.31 5.89,6.45 7.75,9.2 11.92,17.63 11.38,16.57 11.38,22.35 0,4.83 -0.46,6.08 -4.03,10.81 -4.33,5.73 -5.85,6.49 -6.68,3.34 -0.66,-2.53 -0.89,-2.51 -7.58,0.45 -10.54,4.66 -29.35,4.27 -43.5,-0.89 -8.87,-3.24 -23.3,-12.46 -26.37,-16.85 -1.23,-1.77 -4.05,-5.39 -6.27,-8.05 -3.8,-4.56 -4.25,-4.8 -8.04,-4.37 -2.22,0.25 -8.49,1.86 -13.94,3.58 -9.81,3.09 -10.13,3.13 -31,3.1 -20.12,-0.02 -21.37,-0.13 -27.09,-2.49 -6.68,-2.76 -9.78,-3.1 -11.22,-1.23 -0.54,0.68 -2.05,3.94 -3.38,7.23 -1.81,4.52 -4.28,7.86 -10.11,13.7 -10.94,10.97 -12.93,11.82 -27.97,11.82 -8.88,0 -13.42,-0.45 -16.49,-1.62 -6.49,-2.48 -8.11,-1.52 -15.02,8.84 -4.31,6.47 -11.25,14.36 -22.91,26.07 -9.2,9.23 -17.95,17.51 -19.43,18.38 -1.48,0.88 -3.46,2.89 -4.39,4.46 -0.93,1.58 -2.09,2.87 -2.57,2.87 -0.48,0 -3.42,2.58 -6.52,5.73 l -5.65,5.73 0.83,4.52 c 0.46,2.48 0.83,10.37 0.82,17.52 0,11.04 -0.29,13.41 -1.88,15.77 -2.08,3.08 -14.64,12.23 -21.61,15.73 -2.47,1.25 -8.26,5.17 -12.86,8.71 -4.6,3.54 -10.23,7.39 -12.5,8.56 -9.43,4.83 -17.81,12.3 -21.23,18.89 -1.98,3.84 -1.57,13.34 0.58,13.34 1.02,0 1.71,-1.55 2.19,-4.92 0.43,-2.97 1.86,-6.53 3.64,-9 2.75,-3.82 12.3,-11.24 18.81,-14.6 1.58,-0.82 6.02,-4.01 9.87,-7.09 3.85,-3.09 9.48,-7.01 12.51,-8.71 14.5,-8.16 22.46,-14.2 24.99,-18.98 2.38,-4.47 2.5,-5.54 2.55,-21.8 0.07,-20.18 -1.17,-17.61 15.9,-32.88 6.34,-5.66 13.16,-12.26 15.16,-14.66 2,-2.4 4.63,-5.04 5.85,-5.86 1.22,-0.83 3.76,-3.3 5.63,-5.5 1.88,-2.2 4.44,-4.83 5.69,-5.84 1.25,-1.02 4.07,-4.4 6.27,-7.51 7.23,-10.22 9.44,-13.05 10.52,-13.5 0.59,-0.25 3.52,0.2 6.5,1 3.76,1.01 9.12,1.35 17.43,1.11 14.04,-0.39 16.37,-1.3 26.48,-10.33 6.96,-6.21 10.87,-11.45 13.55,-18.18 1.86,-4.7 2.83,-4.99 8.97,-2.78 5.9,2.12 49.63,2.1 58,-0.03 8.28,-2.11 11.71,-3.09 13.72,-3.92 1.87,-0.77 6.54,3.61 11.76,11.03 3.21,4.56 14.92,11.97 26.42,16.71 11.72,4.84 37.63,6 49.35,2.23 3.31,-1.07 2.86,1.06 -1.31,6.14 -2.26,2.76 -6.01,5.57 -10.29,7.72 -11.89,5.97 -15.76,6.65 -37.8,6.63 -22.89,-0.02 -31.45,-1.56 -39.09,-7.05 -3.43,-2.46 -5.95,-3.36 -11.1,-3.94 -3.66,-0.41 -10.16,-1.78 -14.44,-3.03 l -7.77,-2.29 -6.08,6.41 c -3.89,4.11 -7.24,8.94 -9.31,13.42 -1.78,3.85 -4.02,7.65 -4.99,8.45 -0.98,0.8 -3.28,3.82 -5.13,6.71 -4.78,7.47 -9.26,10.12 -19.23,11.37 -4.51,0.56 -12.13,0.85 -16.95,0.63 -7.28,-0.33 -9.94,-0.94 -15.76,-3.65 -3.85,-1.79 -8.03,-4.08 -9.3,-5.07 -1.27,-1 -4.58,-2.57 -7.35,-3.49 l -5.04,-1.68 -4.51,4.36 c -2.65,2.57 -5.94,7.37 -8.01,11.67 -1.92,4.02 -4.39,7.85 -5.48,8.5 -1.08,0.66 -2.9,3 -4.03,5.2 -1.13,2.2 -4.16,6.31 -6.74,9.13 -2.57,2.82 -5.49,7.32 -6.49,10 -2.72,7.29 -5.69,10.64 -12.71,14.3 -10.51,5.5 -15.71,9.1 -16.45,11.39 -0.39,1.2 -0.76,7.35 -0.82,13.68 -0.11,11.17 -0.22,11.7 -3.74,18.5 -4.64,8.93 -7.92,11.98 -16.06,14.94 -3.61,1.3 -7.68,3.11 -9.05,4 -1.36,0.9 -5.27,2.08 -8.68,2.63 -3.41,0.55 -12.43,3.46 -20.04,6.46 -7.61,3.01 -14.76,5.47 -15.89,5.47 -1.12,0 -3.97,1.01 -6.33,2.25 -3.83,2.01 -5.87,2.27 -19.28,2.43 -11.21,0.14 -16.009,-0.19 -18.999,-1.3 z"
           inkscape:connector-curvature="0" />
      </g>
    </g>
    <path
       id="path3708"
       sodipodi:nodetypes="ccccc"
       style="fill:#8f5902;fill-rule:evenodd;stroke:#000000;stroke-width:7.14422417px;stroke-linejoin:round;enable-background:new"
       d="m 159.16142,620.51622 c 134.8881,17.726 265.67363,10.01932 395.61478,-2.92873 l 9.3773,28.15638 c -126.00745,12.99945 -257.90554,18.75414 -408.74696,0.92487 l 3.75488,-26.15252 z"
       inkscape:connector-curvature="0" />
    <path
       id="path3710"
       sodipodi:nodetypes="ccccc"
       style="fill:#3f71b2;fill-rule:evenodd;stroke:#000000;stroke-width:7.14422417px;stroke-linejoin:round;enable-background:new"
       d="m 237.23937,626.93886 c -7.51972,12.07407 -12.14876,25.58733 -6.6257,36.326 l 29.16499,1.3873 c -4.27143,-13.9757 -0.51654,-21.16906 2.65226,-37.04535 l -25.19155,-0.66795 z"
       inkscape:connector-curvature="0" />
    <path
       id="path3712"
       sodipodi:nodetypes="ccccc"
       style="fill:#3f71b2;fill-rule:evenodd;stroke:#000000;stroke-width:7.14422417px;stroke-linejoin:round;enable-background:new"
       d="m 481.83392,625.98266 c 5.49327,12.38235 7.8972,26.04975 0.62583,36.48014 l -29.29414,0.10276 c 6.54624,-13.71878 3.9933,-21.06629 3.4569,-36.99395 l 25.21141,0.41105 z"
       inkscape:connector-curvature="0" />
    <path
       id="rect3714"
       sodipodi:nodetypes="ccccccccccccccc"
       style="fill:#babdb6;fill-rule:evenodd;stroke:#000000;stroke-width:3.75364637;stroke-linecap:round;stroke-linejoin:round;enable-background:accumulate"
       d="m 321.59533,623.9788 0,40.79616 79.11104,0 0,-40.79616 -79.11104,0 z m 15.46659,8.1177 48.17788,0 1.33109,6.78233 -25.28097,-0.56519 -8.15546,4.93259 9.23823,4.1105 24.1982,-0.46244 0,9.45415 -50.84006,0 1.33109,-24.25194 z"
       inkscape:connector-curvature="0" />
  </g>
</svg>
