<?xml version="1.0" encoding="UTF-8" standalone="no"?>
<!-- Created with Inkscape (http://www.inkscape.org/) -->
<svg xmlns:rdf="http://www.w3.org/1999/02/22-rdf-syntax-ns#" xmlns="http://www.w3.org/2000/svg" xmlns:cc="http://web.resource.org/cc/" xmlns:dc="http://purl.org/dc/elements/1.1/" xmlns:svg="http://www.w3.org/2000/svg" xmlns:inkscape="http://www.inkscape.org/namespaces/inkscape" xmlns:sodipodi="http://sodipodi.sourceforge.net/DTD/sodipodi-0.dtd" xmlns:ns1="http://sozi.baierouge.fr" xmlns:xlink="http://www.w3.org/1999/xlink" id="Layer_1" xml:space="preserve" version="1.0" viewBox="0 0 224.982 640.642" inkscape:version="0.91 r13725">
<g id="g5">
	<path id="path7" style="stroke:#000000;stroke-width:.036;stroke-miterlimit:10;fill-rule:evenodd" d="m77.13 160.31c-3.744 3.21-8.316 6.91-13.716 11.27-5.472 4.39-11.7 9.11-18.828 14.69-4.032 0.72-7.92 2.05-12.24 4.14-4.464 1.98-9.468 4.5-13.212 8.1-3.6 3.53-5.688 6.59-8.352 13.21-2.736 6.66-6.084 15.8-7.812 26.17-1.872 10.23-2.952 24.81-2.952 34.99-0.036 10.08 1.332 18.22 2.7 24.99 1.152 6.55 0.252 5.47 4.644 14.65 4.32 9.25 11.376 22.36 21.312 40.14 1.368 0.04 2.664-0.07 3.888-0.47 1.224-0.47 2.16-1.08 3.204-1.98 0.396 2.88 0.504 5.55 0.468 7.85-0.252 2.3-1.044 4.21-0.972 6.12 0 1.76 0.864 3.67 1.476 4.9 0.504 1.15 1.188 1.65 2.196 2.19 1.008 0.43 2.268 0.72 3.924 0.72v7.35c-1.908 0.03-3.996 0.1-5.868 0.5-1.908 0.36-3.996 0.76-5.868 1.48-1.188 15.3-1.764 31.6-1.728 50.04 0.036 18.36 0.684 37.73 1.944 59.22 4.5 0.07 9.072 0.07 13.716 0 4.644-0.18 9.252-0.44 13.968-0.76l1.224-27.9c0.792 5.62 1.764 11.2 2.916 16.89 1.188 5.68 2.772 13.24 3.924 17.13 1.044 3.75 1.224 4.14 2.196 5.62 0.864 1.37 1.8 2.27 2.952 2.7 1.584 9.32 2.736 18.47 3.888 27.72 0.972 9.29 1.98 19.26 2.448 27.39 0.324 7.96 0.036 14.51 0.252 20.35 0.18 5.68 0.504 10.33 0.972 13.93 2.232 0.03 4.248 0.03 5.904 0 1.692-0.11 3.024-0.15 4.14-0.25v1.72c-3.816 1.37-7.848 4.11-12.24 8.07-4.464 4.07-10.728 10.4-13.932 15.66-3.348 5.11-5.148 10.62-5.4 14.43-0.252 3.68 1.188 7.1 4.176 7.35 2.988 0.07 8.316-3.03 13.212-6.37 4.788-3.5 9.828-7.96 15.408-13.94h7.596c1.762-1.9 3.602-3.81 5.362-5.86 1.66-2.09 4.21-4.07 5.15-6.38 0.79-2.55 0.86-5.43 0.5-8.06-0.32-2.59-1-5.04-2.19-7.34 1.51-0.9 2.52-1.59 3.17-2.45 0.57-0.9 0.79-1.59 0.5-2.45 0.61-0.14 1.37-0.14 2.66 0 1.19 0.04 2.74 0.25 4.65 0.5-1.51 1.34-2.67 2.96-3.17 4.86-0.54 1.88-0.4 4-0.25 6.38 0 2.16 0.22 4.5 0.5 6.87 0.98 2.56 2.49 4.75 4.4 6.59 1.87 1.87 4.28 3.24 7.09 4.39l7.59-1.69c2.7 3.42 6.52 6.55 11.74 9.54 5.15 2.95 14.76 7.78 19.12 8.06 4.24 0.11 7.05-2.95 6.33-7.09-0.97-4.28-6.87-12.42-11.48-17.6-4.75-5.33-11.52-10.37-16.02-13.32-4.43-2.88-8.03-4.29-10.66-4.07l0.72-3.42c1.8-0.32 3.57-0.61 5.15-0.72 1.55-0.22 3.06-0.25 4.39-0.25-1.29-15.91-1.58-30.57-0.72-44.79 0.87-14.22 2.59-27.32 5.62-39.88 1.37-0.18 2.41-1.66 3.67-4.72 1.04-3.06 1.69-3.06 3.2-13.46 1.44-10.73 3.53-34.06 5.87-49.43 2.2-15.41 4.93-28.98 7.81-41.83 4.22-0.72 7.28-2.09 9.33-4.25 1.94-2.23 1.91-5.04 2.66-8.57 0.72-3.6 1.3-7.74 1.73-12.71 2.48-0.18 4.21-0.75 5.62-1.73 1.22-1.15 1.83-2.19 2.23-4.39 0.36-2.27-0.36-6.05 0.21-8.57 0.54-2.52 1.48-4.64 2.96-6.37 0.86 0.97 2.08 1.87 3.67 2.7 1.51 0.79 3.38 1.41 5.61 1.98 6.09-24.62 10.8-43.63 14.44-58.43 3.56-14.69 6.08-20.23 6.88-29.12 0.72-8.97 0.03-14.4-2.45-24.23-2.67-10.01-9-26.39-12.75-34.7-3.78-8.28-4.1-11.06-9.28-14.69-5.33-3.71-12.5-6.16-22.04-7.35-3.85-3.7-8.78-6.98-14.94-10.26-6.22-3.27-13.42-6.3-21.99-9.07-21.35-0.86-42.735-1.73-64.12-2.63z"/>
	<path id="path9" style="fill-rule:evenodd;stroke:#000000;stroke-width:.036;stroke-miterlimit:10;fill:#ffffff" d="m61.831 175.04l16.956-13.43 62.243 2.09 14.44 6.3c-3.57 3.49-7.35 7.7-11.74 12.78-4.43 5-10.37 12.42-14.22 17.38-3.81 4.83-6.73 8.79-8.6 11.74-1.26-6.23-2.74-11.56-4.83-16.56-2.05-5.04-5.61-10.15-7.34-13-1.8-2.88-2.92-4.32-3.35-4.17-2.7 4.28-5.33 9.21-7.738 14.65-2.556 5.51-4.68 11.34-6.912 18.04-3.42-5.69-6.912-10.95-10.476-15.92-3.636-5.11-8.136-10.51-11.124-13.86-3.17-3.34-5.473-5.36-7.309-6.04z"/>
	<path id="path11" style="fill-rule:evenodd;stroke:#000000;stroke-width:.036;stroke-miterlimit:10;fill:#a80000" d="m104.99 180.69c-2.91 6.66-5.108 11.99-6.728 16.13-1.656 4.14-2.7 6.91-3.132 8.6 1.296 3.17 2.556 5.83 3.78 8.39 1.22 2.45 2.41 4.61 3.56 6.48 0.44 0.14 1.16 0.14 2.31 0 1.11-0.15 3.78-1.12 4.39-0.83 0.4 0.11-0.29 1.33-1.48 1.87-1.26 0.43-3.16 0.83-5.86 1.05-1.77 6.58-3.352 12.78-4.612 18.86-1.332 6.08-2.376 11.63-3.132 17.17 1.008 1.59 2.592 4.29 5.04 8.39 2.414 4.03 5.434 9.18 9.214 15.73 0.9-3.49 1.91-7.2 3.57-11.52 1.54-4.28 3.38-8.96 5.65-14.04-1.69-6.8-3.1-13.39-4.21-19.91-1.12-6.58-1.95-12.85-2.49-19.08 2.09-2.34 3.71-4.24 5.01-5.86 1.26-1.73 2.05-2.81 2.52-3.78-1.26-5.73-2.95-10.95-5.22-15.52-2.31-4.64-4.94-8.64-8.18-12.13z"/>
	<path id="path13" style="fill-rule:evenodd;stroke:#000000;stroke-width:.036;stroke-miterlimit:10;fill:#ffffff" d="m61.614 175.86l-1.908 1.26c4.572 11.27 8.424 21.14 11.952 30.17 3.384 8.93 5.004 15.01 8.604 23.26 3.528 8.17 7.668 16.59 12.564 25.56 1.116-7.49 2.304-14.19 3.564-20.09 1.188-6.01 2.448-11.05 3.78-15.52-1.8-3.99-2.952-7.02-3.996-9.21-1.008-2.23-1.584-3.57-1.872-4-0.9 2.7-1.62 4.36-2.304 5.26-0.648 0.86-0.864 0.97-1.908-0.22-1.152-1.29-2.7-3.81-5.22-7.56-2.772-3.89-6.588-10.47-10.476-15.3-3.888-4.82-8.1-9.36-12.78-13.61z"/>
	<path id="path15" style="fill-rule:evenodd;stroke:#000000;stroke-width:.036;stroke-miterlimit:10;fill:#ffffff" d="m156.33 170.82l1.44 0.44c0.9 2.34 0.83 5.65-0.61 10.47-1.48 4.79-4.43 11.2-7.74 17.82-3.46 6.52-8.75 14.47-12.39 20.95-3.7 6.27-6.73 11.27-9.64 16.96-2.95 5.76-5.73 11.2-8.17 16.99-1.73-7.56-3.17-14-4.18-19.91-1.08-5.9-1.73-10.83-2.09-15.08 1.01-1.44 2.05-2.84 3.13-4.21 1.01-1.48 2.06-2.74 3.14-4.18 0.21 0.69 0.5 1.19 0.86 1.66 0.29 0.43 0.61 1.04 1.26 0.86 0.54-0.32 0.54-0.21 2.52-2.73 1.91-2.7 5.87-8.39 9.4-12.78 3.49-4.5 8.31-9.72 11.55-13.43 3.06-3.71 5.4-6.59 7.31-8.79 1.98-2.3 3.2-4.03 4.21-5.04z"/>
	<path id="path17" style="fill-rule:evenodd;stroke:#000000;stroke-width:.036;stroke-miterlimit:10;fill:#294b70" d="m58.267 178.17c-2.556 1.65-4.68 3.13-6.912 4.82-2.196 1.66-4.176 3.13-6.084 4.83 1.944 4.75 3.636 9.21 5.22 13.39 1.476 4.21 2.412 7.77 4.212 11.52 1.764 3.63 3.924 7.02 6.48 10.29 0.612 0.72 1.728 1.16 3.348 1.44 1.584 0.18 3.636 0.18 6.3 0 0.612 1.3 1.008 3.21 1.044 5.87 0.036 2.63-0.18 5.87-0.648 9.87 0.684 1.62 2.556 4.78 5.472 9.64 2.952 4.9 8.388 13.86 12.132 19.26 3.564 5.19 6.732 8.97 9.648 12.17 2.921 3.28 5.291 5.47 7.561 7.13l1.87-4.82c-4.75-6.2-9.107-12.71-13.211-19.7-4.176-7.05-7.488-13.68-11.304-22.21-3.996-8.71-7.956-19.33-11.736-28.94-3.888-9.72-8.64-22.68-10.908-28.48-2.269-5.83-3.097-7.81-2.484-6.08z"/>
	<path id="path19" style="fill-rule:evenodd;stroke:#000000;stroke-width:.036;stroke-miterlimit:10;fill:#294b70" d="m159.68 172.08c3.1 1.12 6.05 2.78 9 4.83 2.95 2.12 5.72 4.46 8.6 7.56-1.58 4.32-3.49 8.85-5.86 14.04-2.45 5.15-6.09 12.78-8.39 16.52-2.38 3.49-2.99 3.78-5.44 5.04-2.52 1.26-5.61 2.05-9.43 2.52-0.79 1.33-1.01 3.49-0.65 6.48 0.36 2.95 1.23 6.73 2.74 11.34-3.46 5.26-7.1 10.44-10.91 15.7-3.85 5.22-7.02 9.93-12.13 15.51-5.3 5.58-11.56 11.27-19.08 17.61-0.04-1.12 0.75-4.07 2.52-9 1.83-5.08 5-14.33 7.95-20.56 2.81-6.19 5.08-10.19 8.61-16.56 3.35-6.62 8.1-15.51 11.91-22.21 3.82-6.7 7.53-12.35 10.69-17.78 3.1-5.55 5.76-10.44 7.56-15.09 1.62-4.75 2.09-10.11 2.53-12.78 0.32-2.7 0.25-3.71-0.22-3.17z"/>
	<path id="path21" style="stroke:#000000;stroke-width:.036;stroke-miterlimit:10;fill-rule:evenodd" d="m37.386 112.47c-0.072 3.92 0.576 8.24 1.8 13.1 1.188 4.79 2.952 10.69 5.436 15.91 2.448 5.15 5.22 10.44 8.856 15.2 3.492 4.82 7.488 9.03 12.132 13.03 4.572 3.78 9.576 7.27 15.588 9.79 6.048 2.52 13.644 4.39 20.272 5.07 6.51 0.47 12.63-0.07 18.64-1.62 5.98-1.65 11.85-4.14 17.18-7.45 5.22-3.42 10-8.46 13.97-12.49 3.67-4.14 6.3-7.74 8.85-11.91 2.59-4.22 4.82-8.61 6.7-13.04 1.8-4.5 3.2-9.54 4.35-13.6 1.08-4.11 1.8-7.67 2.16-10.84 1.04 0.5 2.38 0.76 4 0.76 1.62-0.04 3.85 0.03 5.58-0.9 1.65-1.08 3.09-2.6 4.17-5.08 0.94-2.52 1.66-6.48 1.62-9.937-0.14-3.672-1.19-8.388-2.16-11.231-1.08-2.809-2.3-4.536-3.81-5.616-1.66-1.152-3.64-1.296-5.4-1.26-1.77-0.036-3.35 0.216-4.9 0.899 0.94-3.563 0.94-7.884 0-13.392-1.04-5.508-2.84-12.708-5.8-19.368-3.13-6.768-8.96-15.948-11.95-20.735-2.98-4.717-3.02-5.509-5.54-7.813-2.52-2.448-5.4-4.932-9.47-6.624-4.18-1.908-9.25-3.24-15.08-3.996-5.94-0.899-12.75-1.08-19.88-0.396-7.303 0.647-15.799 2.16-22.963 5.075-7.236 2.952-13.644 7.345-19.368 12.492-5.832 5.076-10.728 11.305-14.688 17.568-3.996 6.084-6.804 14.22-8.856 19.008-2.196 4.68-2.808 6.552-3.636 9.216-0.828 2.7-1.188 4.681-1.08 6.336 0.108 1.477 0.468 2.269 1.476 2.521-2.484-0.18-4.428 0.359-5.976 1.476-1.584 1.08-2.484 2.916-3.276 5.221-0.936 2.268-1.872 5.004-1.98 8.352-0.072 3.312 0.036 8.604 1.44 11.414 1.296 2.63 4.536 4.21 6.516 5.04 1.982 0.72 3.529 0.79 5.077-0.18z"/>
	<path id="path23" style="fill-rule:evenodd;stroke:#000000;stroke-width:.036;stroke-miterlimit:10;fill:#e8cdba" d="m41.707 81.327c2.304-1.224 4.788-2.844 7.452-4.859 2.592-2.124 5.832-4.788 8.316-7.416 2.448-2.881 4.392-6.049 5.976-8.532 1.404-2.376 2.196-4.356 2.52-5.796 5.796 1.476 11.196 2.304 16.488 2.916 5.292 0.359 10.296 0.323 15.012 0.18 4.569-0.144 8.029 0.036 12.309-0.72 4.25-0.828 8.86-2.628 12.86-3.996 3.88-1.477 7.12-2.664 10.15-4.536 2.88-1.98 5.18-4.176 7.05-6.876 1.48 3.096 2.99 6.372 4.68 9.972 1.7 3.528 3.32 7.38 5.26 11.412 1.87 3.996 3.85 8.964 5.8 12.528 1.76 3.456 3.63 6.372 5.07 8.315 1.37 1.801 1.87 2.017 3.06 2.736 1.15 0.612 2.23 1.08 3.64 1.26-0.25 0.648-0.33 1.368-0.36 2.16-0.07 0.648 0.03 2.269 0.18 2.521 0.11 0.18 0.29-0.108 0.54-0.721 0.18-0.611 0.29-1.836 0.72-2.699 0.36-1.009 0.9-1.98 1.62-2.916 0.61-1.045 1.51-2.196 2.56-2.881 0.97-0.756 2.23-1.367 3.78-1.439 1.47-0.216 3.88-0.396 5.43 0.72 1.51 1.116 2.92 3.636 3.82 6.156 0.72 2.376 1.08 5.147 1.08 8.315 0.03 3.099-0.33 7.599-1.08 10.149-0.87 2.34-2.31 3.86-4.18 4.68-2.02 0.83-5.54 1.01-7.23 0.4-1.7-0.72-2.49-3.6-3.07-4.18-0.75-0.57-0.97-0.14-0.93 0.72-0.04 0.72 1.22 1.73 1.29 4 0.04 2.2-0.1 4.82-1.11 9.4-1.23 4.5-3.13 11.88-5.58 17.42-2.52 5.47-5.55 10.44-8.93 15.19-3.35 4.65-6.88 8.89-11.27 12.89-4.57 3.92-10.51 8.1-15.73 10.73-5.33 2.45-9.79 3.89-15.73 4.46-6.12 0.58-13.825 0.25-20.053-0.97-6.336-1.37-11.592-3.67-17.136-6.91-5.58-3.39-11.34-7.99-15.912-12.85-4.644-5.01-8.46-11.31-11.448-16.42-3.024-5.22-4.896-9.9-6.444-14.33-1.692-4.57-2.628-8.82-3.204-12.17-0.612-3.31-0.72-5.94-0.324-7.74 1.08-1.22 1.908-2.26 2.34-3.27 0.432-1.08 0.36-2.77 0.18-2.74-0.36-0.07-1.008 1.77-1.8 2.74-0.828 0.93-1.8 2.55-3.06 3.06-1.548 0.32-3.528 0.32-5.256-0.54-1.764-0.94-3.6-2.52-4.536-4.9-0.972-2.37-1.224-6.225-0.9-9.213 0.216-3.168 1.224-6.84 2.34-9.072 1.044-2.304 2.52-3.312 3.996-4.14 1.368-0.864 3.096-0.648 4.356-0.72 1.044-0.145 1.656-0.288 2.52 0 1.008 0.144 2.016 0.432 2.88 1.26 0.684 0.684 0.936 3.168 1.296 3.42 0.252 0.144 0.504-0.972 0.36-1.98-0.255-1.083-0.759-2.379-1.658-4.178z"/>
	<path id="path25" style="stroke:#000000;stroke-width:.036;stroke-miterlimit:10;fill-rule:evenodd" d="m32.13 95.294c0.252-1.115 0.54-2.844 1.26-3.815 0.684-1.008 1.584-2.124 2.556-2.521 0.756-0.54 1.728-1.188 2.52-0.54 0.684 0.612 2.052 3.097 2.16 3.96 0.072 0.648-1.26 0.721-1.62 0.36-0.504-0.54-0.684-2.268-1.08-2.7-0.468-0.504-1.116-0.54-1.8 0.181-0.72 0.647-2.376 2.52-2.736 3.96-0.504 1.332-0.468 3.204-0.18 4.355 0.144 1.08 0.612 1.796 1.26 2.156 0.612 0.18 2.16-0.824 2.556-0.54 0.288 0.29 0 1.66-0.72 2.02-0.792 0.18-3.168 0.15-3.816-0.54-0.792-0.79-0.504-2.556-0.54-3.636-0.179-1.043-0.072-1.763 0.18-2.7z"/>
	<path id="path27" style="stroke:#000000;stroke-width:.036;stroke-miterlimit:10;fill-rule:evenodd" d="m180.52 98.607c-0.14-1.188-0.29-2.88-0.72-3.96-0.57-1.26-1.33-2.269-2.12-2.88-0.72-0.576-1.62-1.477-2.41-0.9-0.94 0.432-2.6 2.88-2.74 3.601-0.25 0.684 1.01 0.936 1.55 0.611 0.47-0.432 0.86-2.195 1.48-2.52 0.46-0.468 1.15-0.324 1.76 0.432 0.61 0.792 1.76 2.844 2.09 4.356 0.21 1.403-0.11 3.173-0.43 4.323-0.4 0.93-0.98 1.76-1.59 1.94-0.72 0-2.12-1.04-2.41-0.9-0.36 0.18-0.36 1.66 0.4 2.09 0.68 0.25 2.98 0.57 3.85 0 0.72-0.69 0.9-2.45 1.08-3.49 0.21-0.98 0.29-1.731 0.21-2.703z"/>
	<path id="path29" style="stroke:#000000;stroke-width:.036;stroke-miterlimit:10;fill-rule:evenodd" d="m176.2 95.115c-0.14 0.36 0.83 1.836 1.12 2.88 0.14 1.008 0.21 2.735 0.36 3.095 0.18 0.18 0.61-0.79 0.72-1.654 0-0.937-0.43-2.916-0.72-3.601-0.4-0.793-1.44-1.081-1.48-0.72z"/>
	<path id="path31" style="stroke:#000000;stroke-width:.036;stroke-miterlimit:10;fill-rule:evenodd" d="m92.214 86.583c0 2.412 1.944 4.356 4.356 4.356s4.36-1.944 4.36-4.356c0-2.376-1.948-4.319-4.36-4.319s-4.356 1.943-4.356 4.319z"/>
	<path id="path33" style="stroke:#000000;stroke-width:.036;stroke-miterlimit:10;fill-rule:evenodd" d="m109.78 86.763c0 2.412 1.95 4.355 4.36 4.355 2.37 0 4.32-1.943 4.32-4.355 0-2.376-1.95-4.32-4.32-4.32-2.41 0-4.36 1.944-4.36 4.32z"/>
	<path id="path35" style="stroke:#000000;stroke-width:.036;stroke-miterlimit:10;fill-rule:evenodd" d="m87.174 75.17c1.26-0.54 4.392-1.151 6.876-1.439 2.268-0.396 6.48-0.468 7.24-0.36 0.68 0.108-0.33 0.468-2.74 1.08-2.556 0.504-9.864 1.872-11.772 2.017-1.872 0.034-0.9-0.901 0.396-1.298z"/>
	<path id="path37" style="stroke:#000000;stroke-width:.036;stroke-miterlimit:10;fill-rule:evenodd" d="m115.18 74.487c1.23 0.036 4.61 0.468 6.95 1.152 2.34 0.54 6.12 1.907 6.88 2.304 0.57 0.324-0.54 0.432-2.95 0.036-2.56-0.504-9.87-1.872-11.67-2.448-1.87-0.576-0.5-1.153 0.79-1.044z"/>
	<path id="path39" style="stroke:#000000;stroke-width:.036;stroke-miterlimit:10;fill-rule:evenodd" d="m68.167 58.827c1.188 0.54 4.356 1.044 6.876 1.656 2.412 0.504 6.516 1.008 7.596 1.08 0.828-0.216-0.036-0.972-1.62-1.44-1.584-0.396-5.472-0.576-7.632-0.936-2.268-0.468-4.536-1.656-5.4-1.62-1.045-0.072-0.937 0.72 0.18 1.26z"/>
	<path id="path41" style="stroke:#000000;stroke-width:.036;stroke-miterlimit:10;fill-rule:evenodd" d="m140.74 52.491c0.51 1.656 1.44 4.464 2.52 6.336 0.83 1.729 2.77 4.212 2.92 3.996-0.04-0.396-1.23-3.924-2.2-6.156-1.11-2.34-2.77-7.164-3.42-7.812-0.5-0.685-0.39 1.872 0.18 3.636z"/>
	<path id="path43" style="stroke:#000000;stroke-width:.036;stroke-miterlimit:10;fill-rule:evenodd" d="m84.079 61.023c0 0.288 0.684 0.54 1.548 0.54 0.828 0 1.548-0.252 1.548-0.54 0-0.324-0.72-0.54-1.548-0.54-0.865 0-1.548 0.216-1.548 0.54z"/>
	<path id="path45" style="stroke:#000000;stroke-width:.036;stroke-miterlimit:10;fill-rule:evenodd" d="m146.97 64.191c-0.29 0.144-0.14 0.864 0.25 1.584 0.44 0.756 0.98 1.224 1.23 1.08 0.25-0.145 0.14-0.864-0.25-1.584-0.44-0.756-0.98-1.225-1.23-1.08z"/>
	<path id="path47" style="stroke:#000000;stroke-width:.036;stroke-miterlimit:10;fill-rule:evenodd" d="m76.123 130l1.62-0.72c0.576 3.31 1.548 6.44 2.916 9.4 1.224 2.91 2.916 5.72 5.22 8.13 2.34 2.27 5.148 4.14 8.712 5.62 3.528 1.36 7.959 3.17 12.309 2.91 4.22-0.39 9.29-2.52 12.86-4.71 3.38-2.2 5.94-5.58 7.95-8.5 1.95-3.17 2.99-6.88 3.96-9.61 0.87-2.74 1.51-4.97 1.66-6.7l2.16 0.18c-1.08 3.78-2.31 7.46-3.82 10.88-1.47 3.49-3.17 6.87-5.22 9.75-2.12 2.81-4.53 4.86-7.81 6.7-3.42 1.62-8.28 3.13-12.49 3.27-4.29 0-9.075-0.75-12.999-2.7-4.068-2.05-8.244-5.61-10.872-8.89-2.664-3.24-3.924-7.88-4.896-10.33-1.045-2.56-1.512-4.07-1.26-4.68z"/>
	<path id="path49" style="stroke:#000000;stroke-width:.036;stroke-miterlimit:10;fill-rule:evenodd" d="m74.502 129.82c1.008-0.61 2.088-0.9 3.24-1.26 1.188-0.47 3.672-1.8 3.996-1.48 0.252 0.25-1.296 1.87-2.556 2.92-1.512 0.97-4.212 2.19-5.616 2.7-1.404 0.29-2.952-0.07-2.7-0.54 0.18-0.58 2.412-1.73 3.636-2.34z"/>
	<path id="path51" style="stroke:#000000;stroke-width:.036;stroke-miterlimit:10;fill-rule:evenodd" d="m136.53 125.46c-1.3-0.25-2.27-0.57-3.46-0.57-1.4-0.4-3.99-0.79-4.17-0.61-0.18 0.28 1.44 1.58 3.06 2.34 1.44 0.64 4.61 1.33 6.05 1.47 1.47 0 2.7-0.68 2.55-1.08-0.32-0.47-2.77-1.26-4.03-1.55z"/>
	<path id="path53" style="fill-rule:evenodd;stroke:#000000;stroke-width:.036;stroke-miterlimit:10;fill:#78605c" d="m64.926 54.219c-0.72 2.268-1.944 4.355-3.276 6.659-1.44 2.232-2.952 4.068-5.22 6.624-2.448 2.376-6.3 5.832-9.036 8.028-2.88 2.124-5.544 4.104-7.452 4.824-1.98 0.612-3.348 0-3.96-1.008-0.684-1.152-0.216-2.845 0.432-5.509 0.576-2.735 1.476-6.264 3.384-10.728 1.908-4.608 4.68-11.268 7.884-16.38 3.06-5.292 6.444-10.08 10.584-14.508 4.032-4.536 8.64-8.641 13.824-11.88 5.112-3.24 10.296-5.509 16.524-7.2 6.084-1.765 13.966-2.844 19.906-3.24 5.8-0.468 10.23-0.036 15.23 0.72 4.82 0.576 9.9 1.332 14.26 3.384 4.39 1.98 8.53 5.688 11.59 8.893 2.81 3.096 4 6.336 6.08 9.864 2.2 3.527 4.68 7.523 6.63 11.016 1.8 3.276 2.73 5.04 4.21 8.892 1.33 3.816 3.2 9.721 4.1 13.824 0.8 3.924 0.94 6.984 0.98 9.756-0.04 2.664-0.18 4.824-0.83 6.48-0.79 1.584-1.69 2.988-3.1 3.24-1.44 0.035-3.13-0.252-5.07-2.376-2.09-2.269-4.22-6.265-6.52-10.584-2.3-4.5-4.61-9.864-7.06-15.408-2.59-5.544-5.07-11.196-7.88-17.353 1.15-1.8 1.94-3.96 2.38-6.624 0.35-2.844 0.18-8.172 0.14-9.468-0.14-1.188-0.47 0.54-0.68 2.124-0.33 1.548-0.11 4.032-0.72 6.624-0.69 2.484-1.44 5.544-3.24 8.208-2.02 2.448-4.25 4.608-8.21 6.769-4.14 2.088-10.66 4.607-15.81 6.048-5.18 1.368-9.47 1.8-14.79 2.268-5.439 0.252-12.207 0.108-17.247-0.144-5.076-0.217-9.216-0.685-12.564-1.404-3.348-1.008-5.58-2.304-7.668-3.744-2.304-1.584-5.04-4.355-5.724-4.716-0.72-0.288 0.684 2.124 1.44 3.06 0.648 0.756 1.584 1.152 2.664 2.017 1.079 0.756 2.304 1.836 3.815 2.952z"/>
	<path id="path55" style="stroke:#000000;stroke-width:.036;stroke-miterlimit:10;fill-rule:evenodd" d="m46.026 72.794c0.468-0.863 3.42-2.592 4.824-3.779 1.26-1.152 2.016-1.872 3.384-3.276 1.368-1.584 4.176-5.22 4.932-5.616 0.504-0.432 0.036 1.62-0.972 3.097-1.08 1.476-3.06 3.636-4.824 5.508-1.8 1.8-4.284 4.14-5.508 4.932-1.296 0.539-2.376-0.074-1.836-0.866z"/>
	<path id="path57" style="stroke:#000000;stroke-width:.036;stroke-miterlimit:10;fill-rule:evenodd" d="m43.074 75.603c0.108 0.216 0.684 0.072 1.26-0.324 0.576-0.36 0.936-0.828 0.792-1.044-0.108-0.18-0.684-0.036-1.26 0.324-0.575 0.396-0.936 0.863-0.792 1.044z"/>
	<path id="path59" style="stroke:#000000;stroke-width:.036;stroke-miterlimit:10;fill-rule:evenodd" d="m64.351 47.487c1.044 0.828 4.176 2.52 6.768 3.672 2.376 0.937 5.148 1.872 8.316 2.412 3.168 0.432 9.432 0.612 10.872 0.54 1.368-0.18-0.72-0.684-2.521-0.972-1.944-0.252-5.94-0.396-8.496-0.721-2.664-0.575-4.788-1.224-6.768-1.943-1.98-0.721-3.528-1.477-4.788-2.124-1.332-0.685-2.412-1.8-2.952-1.836-0.612-0.181-1.548 0.144-0.431 0.972z"/>
	<path id="path61" style="stroke:#000000;stroke-width:.036;stroke-miterlimit:10;fill-rule:evenodd" d="m76.194 48.891c0.144 0.576 1.26 2.592 1.98 3.527 0.648 0.9 1.584 1.62 1.836 1.584 0.108-0.18-0.72-1.584-1.116-2.412-0.576-0.899-1.044-2.447-1.548-2.844-0.468-0.503-1.367-0.503-1.152 0.145z"/>
	<path id="path63" style="stroke:#000000;stroke-width:.036;stroke-miterlimit:10;fill-rule:evenodd" d="m73.386 49.754c-0.072 0.36 0.576 1.44 1.116 2.124 0.432 0.54 1.692 1.656 1.836 1.549 0.108-0.217-0.864-1.801-1.116-2.412-0.252-0.648-0.54-1.296-0.72-1.404-0.324-0.252-1.151-0.252-1.116 0.143z"/>
	<path id="path65" style="stroke:#000000;stroke-width:.036;stroke-miterlimit:10;fill-rule:evenodd" d="m106.69 51.267c2.19-1.116 9.07-3.168 12.99-4.788 3.86-1.62 7.24-3.276 10.15-4.824 2.74-1.692 5.04-3.384 6.77-4.644 1.73-1.44 2.81-2.521 3.68-2.952 0.79-0.324 1.4-0.145 1 0.684-0.54 0.685-2.37 2.088-3.96 3.384-1.62 1.152-3.45 2.521-5.79 3.96-2.45 1.404-5.69 3.276-8.75 4.788-3.2 1.404-7.24 2.809-10.01 3.816-2.88 0.899-5.65 1.836-6.66 1.979-1.08 0.037-1.73-0.431 0.58-1.403z"/>
	<path id="path67" style="stroke:#000000;stroke-width:.036;stroke-miterlimit:10;fill-rule:evenodd" d="m107.55 27.687c1.84-0.396 6.19-0.72 10.3-0.828 4.03-0.18 9.28-0.18 13.24 0.144 3.78 0.217 7.82 1.009 9.47 1.549 1.55 0.504 1.05 1.439 0.15 1.548-0.98 0-3.28-0.973-5.94-1.261-2.85-0.323-7.02-0.611-10.44-0.575-3.46 0-7.02 0.144-9.87 0.432-3.02 0.108-5.94 0.468-7.2 0.396-1.11-0.181-1.62-1.117 0.29-1.405z"/>
	<path id="path69" style="stroke:#000000;stroke-width:.036;stroke-miterlimit:10;fill-rule:evenodd" d="m111.48 14.834c1.94 0.685 10.54 1.765 15.26 3.385 4.68 1.619 10.44 5.508 12.85 6.516 2.31 0.864 1.95-0.216 1.26-0.864-0.79-0.828-2.95-1.908-5.51-3.24-2.66-1.403-6.51-3.132-9.9-4.355-3.56-1.26-8.2-2.304-10.58-2.556-2.38-0.289-5.4 0.359-3.38 1.114z"/>
	<path id="path71" style="stroke:#000000;stroke-width:.036;stroke-miterlimit:10;fill-rule:evenodd" d="m145.21 28.263c0.61 1.115 4.21 4.248 5.79 6.336 1.62 2.016 2.7 4.823 3.68 5.796 0.72 0.899 1.69 0.756 1.26-0.288-0.54-1.152-2.24-4.284-3.82-6.336-1.62-2.124-4.32-5.076-5.47-5.94-1.26-1.008-2.16-0.72-1.44 0.432z"/>
	<path id="path73" style="stroke:#000000;stroke-width:.036;stroke-miterlimit:10;fill-rule:evenodd" d="m145.64 36.291c0.68 0.576 3.02 3.996 4.39 6.517 1.23 2.447 2.16 5.868 2.81 7.884 0.4 1.692 0.25 2.952 0.14 3.384-0.14 0.648-0.14 0.792-0.57-0.144-0.47-1.152-1.23-4.284-2.13-6.624-1.15-2.484-3.06-6.084-3.92-7.885-0.87-1.98-1.3-3.673-0.72-3.132z"/>
	<path id="path75" style="stroke:#000000;stroke-width:.036;stroke-miterlimit:10;fill-rule:evenodd" d="m158.64 74.703c0.5 1.116 2.37 4.428 3.67 6.048 1.11 1.404 2.34 2.305 3.24 2.7 0.82 0.216 1.44-0.54 1.55-0.72-0.04-0.216-1.01-0.036-1.55-0.433-0.69-0.504-1.44-1.296-2.13-2.231-0.79-1.08-1.69-2.628-2.27-3.672-0.68-1.008-1.15-2.088-1.54-2.269-0.58-0.359-1.37-0.54-0.97 0.577z"/>
	<path id="path77" style="stroke:#000000;stroke-width:.036;stroke-miterlimit:10;fill-rule:evenodd" d="m167.81 82.551c0.18 0.18 0.72-0.072 1.23-0.54 0.5-0.469 0.75-0.973 0.57-1.152-0.14-0.18-0.68 0.072-1.18 0.54-0.51 0.468-0.76 0.972-0.62 1.152z"/>
	<path id="path79" style="stroke:#000000;stroke-width:.036;stroke-miterlimit:10;fill-rule:evenodd" d="m139.59 18.903c0.11-1.548 1.08-4.68 1.4-7.056 0.22-2.376-0.57-5.509-0.28-6.769 0.18-1.224 1.11-1.512 1.55-0.864 0.28 0.576 0.57 2.124 0.57 4.104-0.04 1.908-0.18 5.148-0.57 7.2-0.47 1.943-1.27 3.996-1.7 4.644-0.46 0.468-1.11 0.181-0.97-1.259z"/>
	<path id="path81" style="stroke:#000000;stroke-width:.036;stroke-miterlimit:10;fill-rule:evenodd" d="m143.12 20.019c0.9-1.332 4.21-3.996 6.05-6.048 1.76-2.232 3.13-4.393 4.39-6.624 1.04-2.376 1.84-5.977 2.52-6.912 0.65-1.008 1.91-0.072 1.69 1.548-0.39 1.656-1.94 5.4-3.53 8.316-1.54 2.771-4.21 6.191-5.9 8.172-1.84 1.872-4 3.096-4.82 3.384-0.98 0.107-1.3-0.504-0.4-1.836z"/>
	<path id="path83" style="stroke:#000000;stroke-width:.036;stroke-miterlimit:10;fill-rule:evenodd" d="m147.48 22.719c0.75-0.864 2.62-2.916 4.78-3.673 2.02-0.792 6.56-1.115 7.78-0.972 1.15 0.108 0.36 1.225-0.72 1.692-1.23 0.359-4.39-0.252-6.05 0.54-1.76 0.647-3.13 3.023-4.1 3.672-1.01 0.54-1.62 0.036-1.84-0.145-0.36-0.214-0.68-0.394 0.15-1.114z"/>
	<path id="path85" style="stroke:#000000;stroke-width:.036;stroke-miterlimit:10;fill-rule:evenodd" d="m81.342 175.83c0.972 0.68 3.492 2.12 5.904 3.06 2.34 0.86 5.436 1.62 8.028 2.12 2.52 0.4 5.756 0.83 6.806 0.72 0.86-0.18-0.07-1.08-1.44-1.44-1.658-0.43-4.79-0.5-7.31-1.04-2.592-0.72-5.364-1.95-7.344-2.7-1.98-0.9-3.744-1.98-4.464-2.13-0.792-0.1-1.224 0.54-0.18 1.41z"/>
	<path id="path87" style="stroke:#000000;stroke-width:.036;stroke-miterlimit:10;fill-rule:evenodd" d="m104.24 180.69c-0.18 0-0.58 0.43-0.36 0.75 0.07 0.15 0.65 0.69 0.9 0.65 0.25-0.07 0.47-0.86 0.5-1.01-0.21-0.32-0.75-0.5-1.04-0.39z"/>
	<path id="path89" style="stroke:#000000;stroke-width:.036;stroke-miterlimit:10;fill-rule:evenodd" d="m78.678 172.44c-0.324 0.08-0.504 0.47-0.396 0.8-0.036 0.14 0.684 0.68 0.9 0.64 0.216-0.1 0.54-0.82 0.54-1.04-0.216-0.32-0.756-0.51-1.044-0.4z"/>
	<path id="path91" style="fill-rule:evenodd;stroke:#000000;stroke-width:.036;stroke-miterlimit:10;fill:#294b70" d="m43.218 188.79c-4.248 0.97-8.172 2.41-12.06 4.32-3.96 1.69-7.812 3.63-10.98 6.8-3.204 3.13-5.184 5.69-7.74 12.39-2.7 6.73-6.156 18.46-7.884 27.72-1.764 9.18-2.124 18.43-2.34 26.92-0.252 8.43 0.288 16.78 0.936 23.26 0.504 6.37 0.828 10.15 2.34 14.83 1.404 4.54 4.032 8.35 6.336 12.71 2.196 4.25 4.248 7.88 7.128 13 2.772 5.11 6.012 10.8 9.72 17.46 2.556-3.5 5.184-6.48 7.74-8.82 2.556-2.42 4.716-4.07 7.596-5.4 2.736-1.48 5.724-2.56 8.964-3.24-0.828-3.28-1.872-7.56-3.564-13-1.656-5.54-4.932-14.22-6.336-19.51-1.548-5.33-1.872-9.58-2.628-12.06-0.792-2.49-0.54-2.27-2.16-2.81-1.908-0.68-7.056-0.9-8.064-1.22-0.972-0.51 1.152-1.3 2.628-1.41 1.512-0.07 4.644 0.51 6.048 0.47 1.152-0.25 0.972-0.07 1.404-1.69 0.324-1.77 0.54-6.12 1.08-8.5 0.468-2.41 1.188-4.1 2.16-5.9 0.9-1.95 2.556-3.75 3.564-5.4 0.9-1.73 1.8-3.28 2.304-4.79-0.936-0.79-1.944-1.91-2.628-3.49-0.864-1.66-2.052-5.15-2.016-5.91-0.036-0.75 1.332 0.54 2.016 1.55 0.648 1.05 0.756 3.1 1.872 4.36 1.08 1.08 3.168 1.62 4.32 2.16 0.864 0.36 0.54 0.43 1.548 0.61 0.972 0.14 4.464-0.07 4.788 0.32 0.18 0.33-1.692 1.44-3.096 1.7-1.404 0.1-3.204 0-5.256-0.62-0.504 2.16-1.368 4.22-2.448 6.02-1.188 1.69-3.276 2.7-4.176 4.82-0.936 2.16-1.08 5.62-1.26 7.88-0.324 2.02-0.108 3.68-0.468 4.97-0.468 1.23-1.728 2.02-1.836 2.92-0.144 0.79 0.684 0.21 1.224 2.16 0.324 1.83 0.468 4.79 1.548 9 1.08 4.07 3.564 10.94 5.112 15.62 1.368 4.57 2.556 8.61 3.564 11.95 0.864 3.28 1.728 5.73 2.16 7.74 0.396 1.98 0.396 3.28 0.144 4.04-0.468 1-0.072 1.9 0.792 3.24 0.864 1.22 3.24 2.34 4.644 4.03 1.152 1.55 2.088 3.2 3.24 5.54 1.152 2.27 2.664 5.83 3.852 8.21 1.116 2.34 2.7 3.74 3.096 5.58 0.252 1.73 0.396 3.78-1.08 4.64-1.476 0.69-4.104 0.58-7.74-0.32 1.548 1.22 2.232 2.23 2.484 3.56 0.18 1.26 0.036 2.78-1.548 3.71-1.656 0.76-4.392 1.12-8.352 1.08l0.144 7.45c1.152-0.18 2.556-0.18 4.5 0 1.872 0.18 4.14 0.54 6.804 1.08v10.52c5.472-0.4 10.224-0.65 14.4-0.62 4.104-0.03 7.236 0.58 10.224 0.47 2.844-0.21 4.392 0.61 7.416-1.55 3.062-2.34 6.622-6.08 10.832-11.77-2.7-8.1-4.42-16.74-5.58-26.31-1.18-9.65-1.54-20.7-1.08-30.78 0.47-10.16 1.66-19.98 3.71-29.78-3.78-3.2-7.486-6.98-11.122-11.48-3.672-4.54-6.768-9.04-10.836-15.44-4.248-6.52-8.712-14.26-13.932-23.37 0.396-2.88 0.648-5.47 0.756-7.92 0.036-2.52 0.036-4.61-0.144-6.66-2.196 0.54-4.104 0.61-5.868 0.22-1.728-0.47-3.276-1.26-4.644-2.81-1.512-1.69-2.916-4.1-4.356-6.95-1.512-2.99-2.736-5.94-4.644-10.51-2.015-4.72-4.391-10.15-7.272-16.99z"/>
	<path id="path93" style="fill-rule:evenodd;stroke:#000000;stroke-width:.036;stroke-miterlimit:10;fill:#294b70" d="m179.37 185.48c3.28 0.14 6.59 0.82 10.08 1.9 3.53 0.94 7.38 2.02 10.44 4.61 2.73 2.56 4.35 5.76 6.8 11.27 2.56 5.47 5.62 14.83 8.21 21.71 2.49 6.84 5.08 14 6.52 19.15 1.3 4.97 1.48 6.91 1.51 11.27-0.11 4.28-0.21 7.63-1.69 15.05-1.58 7.45-5.08 20.77-7.16 29.55-2.16 8.79-3.42 14.29-5.33 22.5-1.91 8.07-4 16.49-6.12 25.67-1.19-3.2-3.03-6.19-5.65-9.25-2.63-3.1-6.59-6.81-9.94-8.89-3.46-2.24-8.75-2.06-10.58-3.93-1.88-1.94-1.19-3.89-0.87-7.34 0.22-3.6 0.9-9.04 2.05-13.68 0.94-4.65 2.31-9.36 3.96-14.01 1.7-4.86 5.26-10.98 6.12-14.18 0.72-3.17-0.43-3.28-1.51-4.79-1.15-1.66-3.45-3.2-4.97-4.79-1.65-1.65-3.45-3.24-4.42-4.75-0.98-1.51-1.3-2.81-1.37-4.43-0.11-1.83 0.57-5.25 0.5-5.97-0.21-0.83-1.44 0.32-1.73 1.51-0.28 1.11-0.03 3.63-0.5 5.33-0.72 1.54-2.31 2.37-3.24 4.42-0.97 1.95-2.09 6.41-2.23 7.71-0.11 1.15 0.72 0.75 1.37-0.36 0.5-1.26 0.9-5.01 1.72-6.66 0.69-1.69 1.7-2.67 2.74-3.06 0.72 1.8 1.69 3.31 3.06 4.93 1.26 1.58 3.46 2.88 4.79 4.28 1.22 1.12 2.63 1.88 3.09 3.24 0.36 1.34 0.44 2.45-0.36 5.15-0.9 2.7-3.02 7.27-4.42 11.09-1.41 3.67-2.67 6.52-3.78 11.45-1.19 5-2.67 13.86-3.06 17.96-0.4 3.85-0.15 4.39 0.32 5.8 0.32 1.44 0.79 2.16 1.55 2.55-0.72 1.12-1.8 2.2-3.1 3.1-1.44 0.83-3.45 0.97-4.93 2.38-1.55 1.44-2.16 4.03-3.78 5.97-1.76 1.8-4.93 2.85-6.16 4.79-1.29 1.87-1.47 4.39-1.36 6.16-0.04 1.55 0.43 2.73 1.54 3.42 1.16 0.64 2.63 0.57 4.97 0.18 0 0.54-0.5 1.01-1.37 1.69-1.08 0.5-3.42 1.01-4.1 2.05-0.72 1.08-0.58 2.88 0 4.29 0.58 1.29 1.69 2.8 3.06 3.42 1.26 0.46 2.74 0.03 4.28-0.18 1.48-0.26 2.92-0.76 4.47-1.37 0.21 2.05 0.68 3.42 1.69 4.1 0.97 0.58 2.7 0.4 3.92 0 1.12-0.43 2.09-1.22 2.92-2.37 0.5 0.46 1.22 0.86 1.87 1.18 0.72 0.33 1.37 0.51 2.23 0.69-0.46 3.38-0.82 6.62-1.36 9.57-0.54 2.99-0.47 5.69-1.73 8.1-1.37 2.24-1.98 4.11-6.16 5.48-4.35 1.22-11.95 2.01-19.29 2.23-7.42 0.18-17.93 0.03-24.45-0.87-6.48-0.9-11.16-2.48-14.18-4.6-2.74-5.91-4.83-12.75-6.66-20.52-1.87-8-3.57-16.96-4.11-26.32-0.61-9.4-0.1-20.84 0.69-29.05 0.65-8.21 1.94-14.87 3.6-19.98 3.35-1.95 6.95-4.57 10.94-8.03 3.96-3.53 8.5-8.03 12.64-12.82 4.1-4.86 7.77-11.16 11.44-16.12 3.53-5.01 6.52-9.72 9.4-14.01-1.19-4.32-2.09-7.56-2.56-10.26-0.5-2.66-0.72-4.53-0.5-5.61 3.13 0.03 5.87-0.65 8.35-1.91 2.38-1.3 4.03-2.59 6.34-5.98 2.27-3.63 4.71-9.9 7.34-15.05 2.56-5.22 5.29-10.33 8.21-15.76z"/>
	<path id="path95" style="stroke:#000000;stroke-width:.036;stroke-miterlimit:10;fill-rule:evenodd" d="m108.99 316.05c0.32 3.06 2.38 5.33 4.57 5.11 2.2-0.25 3.75-2.92 3.42-5.98-0.32-3.02-2.37-5.33-4.61-5.07-2.19 0.21-3.7 2.88-3.38 5.94z"/>
	<path id="path97" style="fill-rule:evenodd;stroke:#000000;stroke-width:.036;stroke-miterlimit:10;fill:#294b70" d="m110.21 316.44c0.22 1.91 1.52 3.35 2.92 3.21 1.37-0.15 2.34-1.84 2.13-3.75-0.19-1.94-1.48-3.38-2.89-3.24-1.4 0.18-2.34 1.84-2.16 3.78z"/>
	<path id="path99" style="stroke:#000000;stroke-width:.036;stroke-miterlimit:10;fill-rule:evenodd" d="m108.63 346.83c0.32 3.02 2.38 5.33 4.57 5.07 2.23-0.21 3.75-2.88 3.42-5.94-0.32-3.06-2.37-5.32-4.57-5.11-2.23 0.25-3.74 2.92-3.42 5.98z"/>
	<path id="path101" style="fill-rule:evenodd;stroke:#000000;stroke-width:.036;stroke-miterlimit:10;fill:#294b70" d="m109.89 347.19c0.18 1.94 1.48 3.38 2.88 3.24 1.41-0.18 2.34-1.84 2.16-3.78-0.21-1.91-1.51-3.35-2.92-3.21-1.36 0.15-2.34 1.84-2.12 3.75z"/>
	<path id="path103" style="fill-rule:evenodd;stroke:#000000;stroke-width:.036;stroke-miterlimit:10;fill:#e0e0e0" d="m195.43 344.78c0.03-0.15 0.21-0.44 0.68-0.87 0.4-0.43 0.97-1.01 1.73-1.73 1.04 1.19 1.94 2.38 2.56 3.42 0.57 1.05 0.97 2.02 1.18 2.92-1.65-0.36-2.91-1.01-3.92-1.55-1.05-0.57-1.84-1.44-2.23-2.19z"/>
	<path id="path105" style="fill-rule:evenodd;stroke:#000000;stroke-width:.036;stroke-miterlimit:10;fill:#e8ccba" d="m177.32 328.36c-0.79 1.26-1.98 2.2-3.42 3.24-1.48 0.94-4.32 1.22-5.47 2.41-1.3 1.12-1.01 2.81-2.06 4.25-1.19 1.3-3.52 2.7-4.79 3.92-1.36 1.12-2.37 1.98-2.88 3.42-0.64 1.41-0.82 3.71-0.54 4.97 0.22 1.05 0.9 1.77 2.06 1.87 1.08 0.15 2.84 0 4.46-1 1.48-1.19 3.21-3.71 4.61-5.48 1.22-1.87 2.95-4.89 3.24-4.78 0.18 0.14-0.76 3.74-1.69 5.65-1.12 1.8-2.38 3.7-3.78 5.29-1.33 1.51-2.59 2.66-3.93 3.6-1.44 0.83-3.31 1.08-4.1 1.87s-0.83 2.09-0.5 3.06c0.18 0.94 1.15 2.31 2.23 2.74 1.08 0.36 2.59 0.07 4.25-0.33 1.51-0.5 3.16-1.04 4.96-2.73 1.8-1.84 4.47-6.88 5.65-8.03 0.98-1.19 0.98-0.07 0.69 0.83-0.4 0.72-1.58 2.41-2.59 3.96-1.05 1.58-2.23 3.35-3.57 5.43-0.07 1.23 0.26 2.09 0.83 2.74 0.58 0.65 1.59 1.08 2.59 0.86 0.9-0.46 1.88-1.44 3.07-2.91 1.11-1.51 2.69-4 3.77-5.8 0.94-2.01 1.62-4.57 2.2-5.29 0.61-0.72 1.44 0 1.37 1.19-0.29 1.04-1.66 3.45-2.56 5.29-0.94 1.69-1.8 3.46-2.73 5.15 0.89 1.08 1.97 1.65 3.24 1.87 1.22 0.07 2.77-0.07 4.1-0.86 1.15-0.87 2.56-2.24 3.24-4.11 0.47-2.05 0.5-5.58 0.68-7.67 0.22-2.16-0.03-3.27 1.05-5.14 1.04-1.98 2.91-4.25 5.47-6.66-2.41-3.28-4.75-5.94-7.02-7.85-2.34-2.05-4.61-2.99-6.66-3.78-2.02-0.87-3.89-1.26-5.47-1.19z"/>
	<path id="path107" style="fill-rule:evenodd;stroke:#000000;stroke-width:.036;stroke-miterlimit:10;fill:#e8ccba" d="m34.975 343.55c0.576 1.08 1.08 2.41 1.512 4.29 0.324 1.83 0.756 4.28 0.864 6.51-0.072 2.2-0.144 4.5-0.36 6.48-0.18 1.77-0.72 3.1-0.504 4.43 0.108 1.3 0.684 2.34 1.728 3.27 1.008 0.87 2.484 1.44 4.428 1.88 0.18-3.89 0.648-7.02 1.548-9.94 0.864-2.88 2.484-6.37 3.744-7.16 1.188-0.8 2.376 0.36 3.42 2.05 0.828 1.51 1.8 4.93 2.232 7.34 0.432 2.38 0.648 4.72 0.504 7.02 1.512 0.44 2.88 0.65 4.104 0.51 1.152-0.22 2.736-0.43 3.24-1.19 0.36-0.9 0.252-2.05-0.324-3.6-0.576-1.58-1.872-4.21-2.916-5.65-1.116-1.59-2.412-2.52-3.744-3.24 0.18-1.55-0.108-3.24-0.864-4.93-0.828-1.8-3.096-4.32-3.744-5.48-0.828-1.26-0.9-2.16-0.36-1.72 0.576 0.32 2.916 2.05 4.104 3.92 1.044 1.87 1.944 4.07 2.556 7.02 1.692 2.02 3.132 3.56 4.464 4.79 1.224 1.15 2.088 1.8 3.42 2.23 1.296 0.36 4.032 0.83 4.608 0 0.432-0.97-0.396-3.35-1.368-5.47-1.116-2.2-3.204-5.08-4.464-7.53-1.188-2.59-1.296-5.36-2.556-7.2-1.476-1.8-4.14-2.01-5.472-3.56-1.224-1.62-2.088-3.56-2.196-5.98-3.024 0.26-5.94 1.23-8.892 3.06-2.916 1.84-5.869 4.36-8.712 7.85z"/>
	<path id="path109" style="fill-rule:evenodd;stroke:#000000;stroke-width:.036;stroke-miterlimit:10;fill:#e0e0e0" d="m29.322 351.62c0.612-1.95 1.296-3.39 2.052-4.47 0.72-1.08 1.512-1.76 2.376-2.05 0.432 0.43 0.828 1.01 1.044 1.73 0.144 0.65 0.252 1.44 0.18 2.37-0.936 0.72-1.8 1.3-2.736 1.73s-1.907 0.61-2.916 0.69z"/>
	<path id="path111" style="fill-rule:evenodd;stroke:#000000;stroke-width:.036;stroke-miterlimit:10;fill:#77605b" d="m44.406 378.98c-0.072-4-0.072-7.38 0-10.3-0.036-3.02-0.072-5.15 0.468-7.34 0.54-2.31 1.908-5.44 2.988-6.09 0.972-0.65 2.052-0.43 2.952 2.2 0.756 2.62 1.512 9.36 1.872 13.1 0.288 3.64 0.288 6.3 0 8.42h-2.808c0.288-1.47 0.288-2.62 0.144-3.6-0.324-1.11-0.792-1.83-1.404-2.01-0.648-0.11-1.836 0.54-2.16 1.54-0.468 0.9-0.576 2.16-0.324 3.93-0.575 0.04-1.152 0.07-1.728 0.15z"/>
	<path id="path113" style="fill-rule:evenodd;stroke:#000000;stroke-width:.036;stroke-miterlimit:10;fill:#77605b" d="m33.318 383.19c2.664-0.76 5.688-1.37 9.072-1.69 3.384-0.51 7.2-0.72 10.908-0.65 3.636 0.11 6.948 0.57 10.476 1.4-0.648 7.92-1.332 17.32-2.052 29.02-0.9 11.66-1.908 30.53-2.484 40.21-0.54 9.4-0.612 10.44-0.792 16.6-0.324 6.19-0.684 12.81-1.08 20.3-4.752 0.36-9.072 0.43-13.104 0.61-4.104 0.07-7.668 0.07-11.088 0-0.972-17.28-1.548-31.93-1.872-44.78-0.288-12.93-0.144-24.88 0-31.54-0.072-6.59-0.54-2.91-0.144-7.74 0.324-4.93 1.044-12.13 2.16-21.74z"/>
	<path id="path115" style="stroke:#000000;stroke-width:.036;stroke-miterlimit:10;fill-rule:evenodd" d="m47.322 385.53c-1.224 8.78-2.16 18.75-2.952 30.35-0.972 11.52-1.692 26.71-1.872 38.48-0.144 11.77 0.18 22.03 1.116 31.46 0.324-24.19 0.864-44.17 1.476-61.05 0.577-16.81 1.368-29.7 2.232-39.24z"/>
	<path id="path117" style="fill-rule:evenodd;stroke:#000000;stroke-width:.036;stroke-miterlimit:10;fill:#294b70" d="m108.92 380.74c-1.62 2.41-3.42 4.61-5.4 6.44-2.05 1.91-3.71 3.6-6.77 4.65-3.276 0.83-7.272 0.43-11.844 0.61-4.536 0.07-11.952-0.25-15.156 0-3.312 0.11-4.716 0.5-4.356 1.04-0.936 7.85-1.584 15.27-2.088 22.83-0.576 7.49-0.648 14.69-1.044 21.89-0.468 7.09-0.972 13.75-1.512 20.41l-0.144 0.18c1.62 8.85 2.988 15.98 4.176 21.74s1.908 9.22 2.88 12.46c0.9 3.24 1.764 5.18 2.7 6.77 0.9 1.54 1.332 1.98 2.844 2.55 1.476 0.58 4.68 0.54 6.012 0.9 1.296 0.33 2.016 0.83 1.8 1.05-0.252 0.21-1.908 0.28-3.168 0.28-1.26 0.04-2.7 0-4.356-0.14 0.864 3.96 1.656 8.17 2.412 12.92 0.756 4.72 1.548 9.51 2.088 15.16s0.864 12.89 1.224 18.47c0.324 5.58 0.72 9.97 0.9 14.69 0.108 4.75-0.18 9.54 0 13.53 0.144 3.96 0.684 7.81 0.9 10.05 0.144 2.16 0.216 3.16 0.144 2.98 2.268 0.15 4.608 0.18 7.056 0.15 2.412 0 4.608-0.11 7.488-0.29s7.414-0.43 9.614-0.76c2.16-0.28 2.41-0.32 3.27-1.04 0.87-0.76 1.48-1.8 1.8-3.31-0.03-2.92-0.07-8.36-0.14-16.64-0.04-8.35 0.04-19.72-0.14-32.72-0.18-13.03-0.8-33.12-0.9-44.68-0.11-11.48 0.1-16.52 0.28-23.83 0.18-7.34 0.76-14.72 0.76-19.76-0.04-5.04-0.32-8.39-0.9-10.23-0.68-0.14-1.58-0.25-2.7-0.29-1.12-0.07-3.35 0.18-3.89 0s0.07-0.9 0.76-1.04c0.68-0.18 2.12 0.07 3.27 0.14 1.16 0.08 2.31 0.26 3.6 0.29 1.34 0.07 3.6-0.1 4.22 0 0.61 0.15 0 0.58-0.62 0.76-0.57 0.18-1.58 0.29-2.98 0.29 0.46 4.24 0.68 10.29 0.61 18.46-0.11 8.21-0.97 20.67-1.05 30.32-0.1 9.57 0.4 17.06 0.58 26.85 0.18 9.83 0.36 23.15 0.47 31.5 0.07 8.28 0.11 11.27 0.14 18 0.04 6.77 0.04 14.04 0 22.18 1.66-0.07 3.39-0.04 5.4 0.14 1.98 0.19 3.93 0.9 6.45 0.9 2.52-0.03 5.36-0.72 8.56-1.04 3.21-0.32 6.63-0.65 10.48-0.9-1.08-12.89-1.62-23.9-1.62-33.62-0.04-9.69 0.83-17.61 1.48-24.16 0.64-6.55 1.58-10.55 2.41-14.83 0.79-4.28 1.58-7.78 2.41-10.66-1.3-0.14-2.48-0.14-3.6 0-1.15 0.11-2.66 0.9-3.17 0.76-0.5-0.22-0.61-1.44 0.15-1.8 0.75-0.36 2.95-0.15 4.35-0.32 1.41-0.18 2.77 0.75 4.07-0.72 1.26-1.52 2.41-3.89 3.45-8.14 0.98-4.25 1.23-6.98 2.53-17.1 1.33-10.19 3.85-32.87 5.25-43.17 1.41-10.22 1.91-11.23 3.17-17.85 1.23-6.62 2.59-13.72 4.18-21.6-4.57 0.61-9.22 1.08-14.08 1.37-4.93 0.25-9.94 0.46-15.01 0.28-5.11-0.18-10.98-0.39-15.3-1.36-4.36-0.94-7.78-2.38-10.51-4.32-1.19-1.73-2.06-3.06-2.63-4.11 0-0.03-0.04-0.07-0.04-0.07-0.03-0.07-0.07-0.11-0.11-0.18-0.03-0.07-0.03-0.11-0.07-0.15-0.57-1.11-0.79-1.72-0.61-1.97l-0.43-1.19z"/>
	<path id="path119" style="fill-rule:evenodd;stroke:#000000;stroke-width:.036;stroke-miterlimit:10;fill:#77605b" d="m106.51 594.11c-0.11 0.4-0.9 1.19-2.24 2.23-1.36 0.98-3.27 2.34-5.864 3.96 0.72 1.69 0.612 3.32-0.18 5.01-0.936 1.47-2.088 2.34-4.968 4.82-3.024 2.52-8.892 8.39-12.6 10.51-3.708 1.98-8.568 3.32-9.324 1.91-0.864-1.51 1.872-6.69 4.32-10.15 2.268-3.6 7.164-8.28 9.828-10.69 2.628-2.49 4.644-3.71 6.048-3.82-0.54-0.47-0.756-0.86-1.044-1.19-0.18-0.36-0.432-0.64-0.36-0.86-2.808 1.19-5.832 3.42-9.468 6.55-3.78 3.1-8.64 7.92-12.06 12.24-3.384 4.36-6.624 9.43-7.776 13.43-1.368 3.89-1.188 8.35 0.54 9.65 1.692 1.11 5.76-0.51 9.828-2.92 3.96-2.59 9.756-8.42 13.932-12.06 4.032-3.71 7.164-6.41 10.368-9.65 3.06-3.34 7.13-8.28 8.6-9.64 1.52-1.34 1.08-0.08 0.36 1.54-0.82 1.59-2.66 3.93-5.36 7.57l-0.504 4.82c2.084-2.09 3.924-3.85 5.504-5.83 1.62-1.98 3.17-3.42 3.96-5.69 0.58-2.34 0.26-6.01 0-7.96-0.32-1.98-0.79-3.24-1.54-3.78z"/>
	<path id="path121" style="fill-rule:evenodd;stroke:#000000;stroke-width:.036;stroke-miterlimit:10;fill:#77605b" d="m93.402 598.25c0.72-0.22 1.8 0.07 2.412 0.86 0.612 0.76 2.052 2.42 1.404 4.15-0.9 1.62-3.132 3.49-5.868 6.01-2.88 2.52-7.344 6.8-10.332 8.96-3.096 1.98-5.832 3.1-7.092 2.95-1.26-0.25-1.44-1.76 0-4.14 1.332-2.48 5.436-7.31 8.28-10.18 2.844-2.92 6.444-5.69 8.46-7.06 1.8-1.4 1.873-1.55 2.736-1.55z"/>
	<path id="path123" style="fill-rule:evenodd;stroke:#000000;stroke-width:.036;stroke-miterlimit:10;fill:#77605b" d="m119.11 589.29c-0.83 0.54-1.52 1.58-1.91 3.27-0.47 1.7-0.65 4.07-0.69 6.56-0.07 2.26-0.18 5.61 0.51 7.56 0.57 1.9 1.29 2.41 3.13 3.99 1.73 1.48 4.14 3.1 7.38 5.01l1.04-4.5c-2.01-1.19-3.74-2.16-5.32-3.46-1.62-1.3-4.25-3.64-4.14-3.96 0.1-0.43 1.72 0 4.46 1.73 2.63 1.55 7.34 5.22 11.23 8.1 3.78 2.91 7.35 6.51 11.38 9.14 3.96 2.41 8.64 4.65 12.24 6.01 3.45 1.44 7.09 2.67 8.96 2.27 1.98-0.57 2.77-2.55 2.23-5.36-0.79-2.95-3.67-7.78-6.55-11.56-3.1-3.85-7.09-7.85-10.87-11.01-3.82-3.32-8.07-6.34-11.2-8.1-3.09-1.8-5.51-2.56-7.23-2.42 0.43 0.62 0.64 1.19 0.5 1.73s-0.54 1.01-1.19 1.55c3.32 1.05 6.48 2.31 9.65 4.32 3.17 1.94 7.09 4.43 9.29 7.06 2.05 2.55 2.81 5.69 2.95 7.74-0.03 1.87-0.03 3.99-2.77 3.45-2.84-0.75-10.08-5.18-13.79-7.59-3.74-2.49-6.55-4.86-8.42-6.7s-2.95-3.27-2.95-4.32c-1.95 0.11-3.46-0.11-4.83-1.04-1.47-0.98-2.7-2.74-3.27-4.32-0.54-1.59-0.44-3.35 0.18-5.15z"/>
	<path id="path125" style="fill-rule:evenodd;stroke:#000000;stroke-width:.036;stroke-miterlimit:10;fill:#77605b" d="m129.26 599.98c0.47 1.51 2.3 3.6 4.68 5.69 2.38 1.98 6.12 4.32 9.29 6.19 3.02 1.76 7.02 4.28 8.78 4.5 1.59 0.07 1.62-2.02 1.23-3.64-0.54-1.83-1.16-4.1-3.64-6.37-2.56-2.3-7.85-5.44-11.02-7.06-3.13-1.76-6.12-2.88-7.59-2.77-1.59 0.15-2.31 1.8-1.73 3.46z"/>
		<polygon id="polygon127" style="fill-rule:evenodd;stroke:#000000;stroke-width:.036;stroke-miterlimit:10;fill:#77605b" points="97.362 613.59 97.218 618.41 92.395 618.77"/>
		<polygon id="polygon129" style="fill-rule:evenodd;stroke:#000000;stroke-width:.036;stroke-miterlimit:10;fill:#77605b" points="130.12 612.04 129.11 615.68 133.07 614.81"/>
</g>
<metadata><rdf:RDF><cc:Work><dc:format>image/svg+xml</dc:format><dc:type rdf:resource="http://purl.org/dc/dcmitype/StillImage"/><cc:license rdf:resource="http://creativecommons.org/licenses/publicdomain/"/><dc:publisher><cc:Agent rdf:about="http://openclipart.org/"><dc:title>Openclipart</dc:title></cc:Agent></dc:publisher><dc:title>Man in Suit</dc:title><dc:date>2006-10-06T16:14:35</dc:date><dc:description>Uploaded by "World Label" for conversion to SVG and publication on OCAL.\n\n\nAdded a business man body to the man's face cartoon.</dc:description><dc:source>https://openclipart.org/detail/395/man-in-suit-by-gerald_g</dc:source><dc:creator><cc:Agent><dc:title>Gerald_G</dc:title></cc:Agent></dc:creator><dc:subject><rdf:Bag><rdf:li>cartoon</rdf:li><rdf:li>externalsource</rdf:li><rdf:li>face</rdf:li><rdf:li>man</rdf:li><rdf:li>people</rdf:li><rdf:li>remix</rdf:li><rdf:li>suit</rdf:li><rdf:li>worldlabel</rdf:li></rdf:Bag></dc:subject></cc:Work><cc:License rdf:about="http://creativecommons.org/licenses/publicdomain/"><cc:permits rdf:resource="http://creativecommons.org/ns#Reproduction"/><cc:permits rdf:resource="http://creativecommons.org/ns#Distribution"/><cc:permits rdf:resource="http://creativecommons.org/ns#DerivativeWorks"/></cc:License></rdf:RDF></metadata></svg>
